# Blender v2.79 (sub 0) OBJ File: ''
# www.blender.org
mtllib animal_crate.mtl
o animal_crate.obj.obj
v -0.500000 -0.187500 0.500000
v 0.500000 -0.187500 0.500000
v 0.500000 -0.187500 -0.500000
v -0.500000 -0.187500 -0.500000
v -0.500000 -0.250000 -0.500000
v 0.500000 -0.250000 -0.500000
v 0.500000 -0.250000 0.500000
v -0.500000 -0.250000 0.500000
v -0.625000 -0.125000 0.500000
v -0.500000 -0.125000 0.625000
v -0.500000 -0.125000 -0.625000
v -0.625000 -0.125000 -0.500000
v -0.625000 -0.250000 -0.500000
v -0.500000 -0.250000 -0.625000
v -0.500000 -0.250000 0.625000
v -0.625000 -0.250000 0.500000
v 0.500000 -0.125000 0.625000
v 0.625000 -0.125000 0.500000
v 0.625000 -0.125000 -0.500000
v 0.500000 -0.125000 -0.625000
v 0.500000 -0.250000 -0.625000
v 0.625000 -0.250000 -0.500000
v 0.625000 -0.250000 0.500000
v 0.500000 -0.250000 0.625000
v -0.500000 -0.125000 0.625000
v 0.500000 -0.125000 0.625000
v 0.500000 -0.125000 0.500000
v -0.500000 -0.125000 0.500000
v -0.500000 -0.250000 0.500000
v 0.500000 -0.250000 0.500000
v 0.500000 -0.250000 0.625000
v -0.500000 -0.250000 0.625000
v -0.500000 -0.125000 -0.500000
v 0.500000 -0.125000 -0.500000
v 0.500000 -0.125000 -0.625000
v -0.500000 -0.125000 -0.625000
v -0.500000 -0.250000 -0.625000
v 0.500000 -0.250000 -0.625000
v 0.500000 -0.250000 -0.500000
v -0.500000 -0.250000 -0.500000
v -0.312500 -0.156250 0.500000
v -0.187500 -0.156250 0.500000
v -0.187500 -0.156250 -0.500000
v -0.312500 -0.156250 -0.500000
v -0.312500 -0.218750 -0.500000
v -0.187500 -0.218750 -0.500000
v -0.187500 -0.218750 0.500000
v -0.312500 -0.218750 0.500000
v 0.187500 -0.156250 0.500000
v 0.312500 -0.156250 0.500000
v 0.312500 -0.156250 -0.500000
v 0.187500 -0.156250 -0.500000
v 0.187500 -0.218750 -0.500000
v 0.312500 -0.218750 -0.500000
v 0.312500 -0.218750 0.500000
v 0.187500 -0.218750 0.500000
vt 1.132812 0.734375
vt 1.257812 0.734375
vt 1.257812 0.984375
vt 1.132812 0.984375
vt 1.257812 0.734375
vt 1.382812 0.734375
vt 1.382812 0.984375
vt 1.257812 0.984375
vt 1.132812 0.718750
vt 1.257812 0.718750
vt 1.507812 0.734375
vt 1.382812 0.734375
vt 1.382812 0.718750
vt 1.507812 0.718750
vt 1.007812 0.734375
vt 1.007812 0.718750
vt 1.695312 0.734375
vt 1.710938 0.734375
vt 1.710938 0.984375
vt 1.695312 0.984375
vt 1.710938 0.734375
vt 1.726562 0.734375
vt 1.726562 0.984375
vt 1.710938 0.984375
vt 1.695312 0.703125
vt 1.710938 0.703125
vt 1.851562 0.734375
vt 1.835938 0.734375
vt 1.835938 0.703125
vt 1.851562 0.703125
vt 1.570312 0.734375
vt 1.570312 0.703125
vt 1.132812 0.359375
vt 1.148438 0.359375
vt 1.148438 0.609375
vt 1.132812 0.609375
vt 1.148438 0.359375
vt 1.164062 0.359375
vt 1.164062 0.609375
vt 1.148438 0.609375
vt 1.132812 0.328125
vt 1.148438 0.328125
vt 1.289062 0.359375
vt 1.273438 0.359375
vt 1.273438 0.328125
vt 1.289062 0.328125
vt 1.007812 0.359375
vt 1.007812 0.328125
vt 1.210938 0.578125
vt 1.335938 0.578125
vt 1.335938 0.609375
vt 1.210938 0.609375
vt 1.335938 0.578125
vt 1.460938 0.578125
vt 1.460938 0.609375
vt 1.335938 0.609375
vt 1.210938 0.546875
vt 1.335938 0.546875
vt 1.476562 0.578125
vt 1.351562 0.578125
vt 1.351562 0.546875
vt 1.476562 0.546875
vt 1.195312 0.578125
vt 1.195312 0.546875
vt 1.523438 0.578125
vt 1.648438 0.578125
vt 1.648438 0.609375
vt 1.523438 0.609375
vt 1.648438 0.578125
vt 1.773438 0.578125
vt 1.773438 0.609375
vt 1.648438 0.609375
vt 1.523438 0.546875
vt 1.648438 0.546875
vt 1.789062 0.578125
vt 1.664062 0.578125
vt 1.664062 0.546875
vt 1.789062 0.546875
vt 1.507812 0.578125
vt 1.507812 0.546875
vt 1.820312 0.359375
vt 1.835938 0.359375
vt 1.835938 0.609375
vt 1.820312 0.609375
vt 1.835938 0.359375
vt 1.851562 0.359375
vt 1.851562 0.609375
vt 1.835938 0.609375
vt 1.820312 0.343750
vt 1.835938 0.343750
vt 1.976562 0.359375
vt 1.960938 0.359375
vt 1.960938 0.343750
vt 1.976562 0.343750
vt 1.695312 0.359375
vt 1.695312 0.343750
vt 1.320312 0.234375
vt 1.335938 0.234375
vt 1.335938 0.484375
vt 1.320312 0.484375
vt 1.335938 0.234375
vt 1.351562 0.234375
vt 1.351562 0.484375
vt 1.335938 0.484375
vt 1.320312 0.218750
vt 1.335938 0.218750
vt 1.476562 0.234375
vt 1.460938 0.234375
vt 1.460938 0.218750
vt 1.476562 0.218750
vt 1.195312 0.234375
vt 1.195312 0.218750
vn 0.0000 1.0000 0.0000
vn 0.0000 -1.0000 -0.0000
vn 0.0000 0.0000 1.0000
vn 0.0000 0.0000 -1.0000
vn 1.0000 0.0000 0.0000
vn -1.0000 0.0000 0.0000
vn -0.7071 0.0000 0.7071
vn -0.7071 0.0000 -0.7071
vn 0.7071 0.0000 0.7071
vn 0.7071 0.0000 -0.7071
usemtl ModelMaterial.001
s off
f 1/1/1 2/2/1 3/3/1 4/4/1
f 5/5/2 6/6/2 7/7/2 8/8/2
f 2/2/3 1/1/3 8/9/3 7/10/3
f 4/11/4 3/12/4 6/13/4 5/14/4
f 3/12/5 2/2/5 7/10/5 6/13/5
f 1/1/6 4/15/6 5/16/6 8/9/6
f 9/17/1 10/18/1 11/19/1 12/20/1
f 13/21/2 14/22/2 15/23/2 16/24/2
f 10/18/7 9/17/7 16/25/7 15/26/7
f 12/27/8 11/28/8 14/29/8 13/30/8
f 11/28/5 10/18/5 15/26/5 14/29/5
f 9/17/6 12/31/6 13/32/6 16/25/6
f 17/33/1 18/34/1 19/35/1 20/36/1
f 21/37/2 22/38/2 23/39/2 24/40/2
f 18/34/9 17/33/9 24/41/9 23/42/9
f 20/43/10 19/44/10 22/45/10 21/46/10
f 19/44/5 18/34/5 23/42/5 22/45/5
f 17/33/6 20/47/6 21/48/6 24/41/6
f 25/49/1 26/50/1 27/51/1 28/52/1
f 29/53/2 30/54/2 31/55/2 32/56/2
f 26/50/3 25/49/3 32/57/3 31/58/3
f 28/59/4 27/60/4 30/61/4 29/62/4
f 27/60/5 26/50/5 31/58/5 30/61/5
f 25/49/6 28/63/6 29/64/6 32/57/6
f 33/65/1 34/66/1 35/67/1 36/68/1
f 37/69/2 38/70/2 39/71/2 40/72/2
f 34/66/3 33/65/3 40/73/3 39/74/3
f 36/75/4 35/76/4 38/77/4 37/78/4
f 35/76/5 34/66/5 39/74/5 38/77/5
f 33/65/6 36/79/6 37/80/6 40/73/6
f 41/81/1 42/82/1 43/83/1 44/84/1
f 45/85/2 46/86/2 47/87/2 48/88/2
f 42/82/3 41/81/3 48/89/3 47/90/3
f 44/91/4 43/92/4 46/93/4 45/94/4
f 43/92/5 42/82/5 47/90/5 46/93/5
f 41/81/6 44/95/6 45/96/6 48/89/6
f 49/97/1 50/98/1 51/99/1 52/100/1
f 53/101/2 54/102/2 55/103/2 56/104/2
f 50/98/3 49/97/3 56/105/3 55/106/3
f 52/107/4 51/108/4 54/109/4 53/110/4
f 51/108/5 50/98/5 55/106/5 54/109/5
f 49/97/6 52/111/6 53/112/6 56/105/6
