# Blender v2.79 (sub 0) OBJ File: ''
# www.blender.org
mtllib bbq_storage.obj.mtl
o bbq_storage.obj
v 0.187500 0.015625 -0.250000
v 0.187500 0.015625 -0.187500
v 0.312500 -0.015625 -0.187500
v 0.312500 -0.015625 -0.250000
v 0.312500 -0.078125 -0.250000
v 0.312500 -0.078125 -0.187500
v 0.187500 -0.046875 -0.187500
v 0.187500 -0.046875 -0.250000
v -0.187500 0.015625 -0.250000
v -0.187500 0.015625 -0.187500
v 0.187500 0.015625 -0.187500
v 0.187500 0.015625 -0.250000
v 0.187500 -0.046875 -0.250000
v 0.187500 -0.046875 -0.187500
v -0.187500 -0.046875 -0.187500
v -0.187500 -0.046875 -0.250000
v -0.312500 -0.015625 -0.250000
v -0.312500 -0.015625 -0.187500
v -0.187500 0.015625 -0.187500
v -0.187500 0.015625 -0.250000
v -0.187500 -0.046875 -0.250000
v -0.187500 -0.046875 -0.187500
v -0.312500 -0.078125 -0.187500
v -0.312500 -0.078125 -0.250000
v -0.375000 -0.015625 -0.187500
v -0.375000 0.015625 -0.125000
v -0.312500 0.015625 -0.125000
v -0.312500 -0.015625 -0.187500
v -0.312500 -0.078125 -0.187500
v -0.312500 -0.046875 -0.125000
v -0.375000 -0.046875 -0.125000
v -0.375000 -0.078125 -0.187500
v -0.375000 0.015625 -0.125000
v -0.375000 0.015625 0.125000
v -0.312500 0.015625 0.125000
v -0.312500 0.015625 -0.125000
v -0.312500 -0.046875 -0.125000
v -0.312500 -0.046875 0.125000
v -0.375000 -0.046875 0.125000
v -0.375000 -0.046875 -0.125000
v -0.375000 0.015625 0.125000
v -0.375000 -0.015625 0.187500
v -0.312500 -0.015625 0.187500
v -0.312500 0.015625 0.125000
v -0.312500 -0.046875 0.125000
v -0.312500 -0.078125 0.187500
v -0.375000 -0.078125 0.187500
v -0.375000 -0.046875 0.125000
v -0.312500 -0.015625 0.187500
v -0.312500 -0.015625 0.250000
v -0.187500 0.015625 0.250000
v -0.187500 0.015625 0.187500
v -0.187500 -0.046875 0.187500
v -0.187500 -0.046875 0.250000
v -0.312500 -0.078125 0.250000
v -0.312500 -0.078125 0.187500
v -0.187500 0.015625 0.187500
v -0.187500 0.015625 0.250000
v 0.187500 0.015625 0.250000
v 0.187500 0.015625 0.187500
v 0.187500 -0.046875 0.187500
v 0.187500 -0.046875 0.250000
v -0.187500 -0.046875 0.250000
v -0.187500 -0.046875 0.187500
v 0.187500 0.015625 0.187500
v 0.187500 0.015625 0.250000
v 0.312500 -0.015625 0.250000
v 0.312500 -0.015625 0.187500
v 0.312500 -0.078125 0.187500
v 0.312500 -0.078125 0.250000
v 0.187500 -0.046875 0.250000
v 0.187500 -0.046875 0.187500
v 0.312500 0.015625 0.125000
v 0.312500 -0.015625 0.187500
v 0.375000 -0.015625 0.187500
v 0.375000 0.015625 0.125000
v 0.375000 -0.046875 0.125000
v 0.375000 -0.078125 0.187500
v 0.312500 -0.078125 0.187500
v 0.312500 -0.046875 0.125000
v 0.312500 0.015625 -0.125000
v 0.312500 0.015625 0.125000
v 0.375000 0.015625 0.125000
v 0.375000 0.015625 -0.125000
v 0.375000 -0.046875 -0.125000
v 0.375000 -0.046875 0.125000
v 0.312500 -0.046875 0.125000
v 0.312500 -0.046875 -0.125000
v 0.312500 -0.015625 -0.187500
v 0.312500 0.015625 -0.125000
v 0.375000 0.015625 -0.125000
v 0.375000 -0.015625 -0.187500
v 0.375000 -0.078125 -0.187500
v 0.375000 -0.046875 -0.125000
v 0.312500 -0.046875 -0.125000
v 0.312500 -0.078125 -0.187500
v -0.312500 -0.000000 -0.187500
v -0.312500 -0.000000 0.187500
v 0.312500 0.000000 0.187500
v 0.312500 0.000000 -0.187500
v 0.312500 -0.031250 -0.187500
v 0.312500 -0.031250 0.187500
v -0.312500 -0.031250 0.187500
v -0.312500 -0.031250 -0.187500
v -0.213463 0.062500 -0.072212
v -0.148759 0.062500 0.169269
v 0.213463 0.062500 0.072212
v 0.148759 0.062500 -0.169269
v 0.148759 0.000000 -0.169269
v 0.213463 0.000000 0.072212
v -0.148759 -0.000000 0.169269
v -0.213463 -0.000000 -0.072212
v -0.213463 0.125000 -0.072212
v -0.213463 0.125000 -0.072212
v 0.148759 0.125000 -0.169269
v 0.148759 0.125000 -0.169269
v 0.148759 0.062500 -0.169269
v 0.148759 0.062500 -0.169269
v -0.213463 0.062500 -0.072212
v -0.213463 0.062500 -0.072212
v -0.148759 0.125000 0.169269
v -0.148759 0.125000 0.169269
v 0.213463 0.125000 0.072212
v 0.213463 0.125000 0.072212
v 0.213463 0.062500 0.072212
v 0.213463 0.062500 0.072212
v -0.148759 0.062500 0.169269
v -0.148759 0.062500 0.169269
v -0.213463 0.125000 -0.072212
v -0.148759 0.125000 0.169269
v -0.148759 0.125000 0.169269
v -0.213463 0.125000 -0.072212
v -0.213463 0.062500 -0.072212
v -0.148759 0.062500 0.169269
v -0.148759 0.062500 0.169269
v -0.213463 0.062500 -0.072212
v 0.148759 0.125000 -0.169269
v 0.213463 0.125000 0.072212
v 0.213463 0.125000 0.072212
v 0.148759 0.125000 -0.169269
v 0.148759 0.062500 -0.169269
v 0.213463 0.062500 0.072212
v 0.213463 0.062500 0.072212
v 0.148759 0.062500 -0.169269
vt 1.046875 0.953125
vt 1.062500 0.953125
vt 1.062500 0.984375
vt 1.046875 0.984375
vt 1.062500 0.953125
vt 1.078125 0.953125
vt 1.078125 0.984375
vt 1.062500 0.984375
vt 1.046875 0.937500
vt 1.062500 0.937500
vt 1.109375 0.953125
vt 1.093750 0.953125
vt 1.093750 0.937500
vt 1.109375 0.937500
vt 1.015625 0.953125
vt 1.015625 0.937500
vt 1.234375 0.890625
vt 1.250000 0.890625
vt 1.250000 0.984375
vt 1.234375 0.984375
vt 1.250000 0.890625
vt 1.265625 0.890625
vt 1.265625 0.984375
vt 1.250000 0.984375
vt 1.234375 0.875000
vt 1.250000 0.875000
vt 1.359375 0.890625
vt 1.343750 0.890625
vt 1.343750 0.875000
vt 1.359375 0.875000
vt 1.140625 0.890625
vt 1.140625 0.875000
vt 1.421875 0.953125
vt 1.437500 0.953125
vt 1.437500 0.984375
vt 1.421875 0.984375
vt 1.437500 0.953125
vt 1.453125 0.953125
vt 1.453125 0.984375
vt 1.437500 0.984375
vt 1.421875 0.937500
vt 1.437500 0.937500
vt 1.484375 0.953125
vt 1.468750 0.953125
vt 1.468750 0.937500
vt 1.484375 0.937500
vt 1.390625 0.953125
vt 1.390625 0.937500
vt 1.156250 0.968750
vt 1.171875 0.968750
vt 1.171875 0.984375
vt 1.156250 0.984375
vt 1.171875 0.968750
vt 1.187500 0.968750
vt 1.187500 0.984375
vt 1.171875 0.984375
vt 1.156250 0.953125
vt 1.171875 0.953125
vt 1.203125 0.968750
vt 1.187500 0.968750
vt 1.187500 0.953125
vt 1.203125 0.953125
vt 1.140625 0.968750
vt 1.140625 0.953125
vt 1.531250 0.968750
vt 1.593750 0.968750
vt 1.593750 0.984375
vt 1.531250 0.984375
vt 1.593750 0.968750
vt 1.656250 0.968750
vt 1.656250 0.984375
vt 1.593750 0.984375
vt 1.531250 0.953125
vt 1.593750 0.953125
vt 1.671875 0.968750
vt 1.609375 0.968750
vt 1.609375 0.953125
vt 1.671875 0.953125
vt 1.515625 0.968750
vt 1.515625 0.953125
vt 1.781250 0.968750
vt 1.796875 0.968750
vt 1.796875 0.984375
vt 1.781250 0.984375
vt 1.796875 0.968750
vt 1.812500 0.968750
vt 1.812500 0.984375
vt 1.796875 0.984375
vt 1.781250 0.953125
vt 1.796875 0.953125
vt 1.828125 0.968750
vt 1.812500 0.968750
vt 1.812500 0.953125
vt 1.828125 0.953125
vt 1.765625 0.968750
vt 1.765625 0.953125
vt 1.921875 0.953125
vt 1.937500 0.953125
vt 1.937500 0.984375
vt 1.921875 0.984375
vt 1.937500 0.953125
vt 1.953125 0.953125
vt 1.953125 0.984375
vt 1.937500 0.984375
vt 1.921875 0.937500
vt 1.937500 0.937500
vt 1.984375 0.953125
vt 1.968750 0.953125
vt 1.968750 0.937500
vt 1.984375 0.937500
vt 1.890625 0.953125
vt 1.890625 0.937500
vt 1.109375 0.765625
vt 1.125000 0.765625
vt 1.125000 0.859375
vt 1.109375 0.859375
vt 1.125000 0.765625
vt 1.140625 0.765625
vt 1.140625 0.859375
vt 1.125000 0.859375
vt 1.109375 0.750000
vt 1.125000 0.750000
vt 1.234375 0.765625
vt 1.218750 0.765625
vt 1.218750 0.750000
vt 1.234375 0.750000
vt 1.015625 0.765625
vt 1.015625 0.750000
vt 1.296875 0.828125
vt 1.312500 0.828125
vt 1.312500 0.859375
vt 1.296875 0.859375
vt 1.312500 0.828125
vt 1.328125 0.828125
vt 1.328125 0.859375
vt 1.312500 0.859375
vt 1.296875 0.812500
vt 1.312500 0.812500
vt 1.359375 0.828125
vt 1.343750 0.828125
vt 1.343750 0.812500
vt 1.359375 0.812500
vt 1.265625 0.828125
vt 1.265625 0.812500
vt 1.031250 0.843750
vt 1.046875 0.843750
vt 1.046875 0.859375
vt 1.031250 0.859375
vt 1.046875 0.843750
vt 1.062500 0.843750
vt 1.062500 0.859375
vt 1.046875 0.859375
vt 1.031250 0.828125
vt 1.046875 0.828125
vt 1.078125 0.843750
vt 1.062500 0.843750
vt 1.062500 0.828125
vt 1.078125 0.828125
vt 1.015625 0.843750
vt 1.015625 0.828125
vt 1.406250 0.843750
vt 1.468750 0.843750
vt 1.468750 0.859375
vt 1.406250 0.859375
vt 1.468750 0.843750
vt 1.531250 0.843750
vt 1.531250 0.859375
vt 1.468750 0.859375
vt 1.406250 0.828125
vt 1.468750 0.828125
vt 1.546875 0.843750
vt 1.484375 0.843750
vt 1.484375 0.828125
vt 1.546875 0.828125
vt 1.390625 0.843750
vt 1.390625 0.828125
vt 1.656250 0.843750
vt 1.671875 0.843750
vt 1.671875 0.859375
vt 1.656250 0.859375
vt 1.671875 0.843750
vt 1.687500 0.843750
vt 1.687500 0.859375
vt 1.671875 0.859375
vt 1.656250 0.828125
vt 1.671875 0.828125
vt 1.703125 0.843750
vt 1.687500 0.843750
vt 1.687500 0.828125
vt 1.703125 0.828125
vt 1.640625 0.843750
vt 1.640625 0.828125
vt 1.171875 0.578125
vt 1.265625 0.578125
vt 1.265625 0.734375
vt 1.171875 0.734375
vt 1.265625 0.578125
vt 1.359375 0.578125
vt 1.359375 0.734375
vt 1.265625 0.734375
vt 1.171875 0.578125
vt 1.265625 0.578125
vt 1.515625 0.578125
vt 1.421875 0.578125
vt 1.421875 0.578125
vt 1.515625 0.578125
vt 1.015625 0.578125
vt 1.015625 0.578125
vt 1.734375 0.765625
vt 1.796875 0.765625
vt 1.796875 0.859375
vt 1.734375 0.859375
vt 1.796875 0.765625
vt 1.859375 0.765625
vt 1.859375 0.859375
vt 1.796875 0.859375
vt 1.734375 0.750000
vt 1.796875 0.750000
vt 1.953125 0.765625
vt 1.890625 0.765625
vt 1.890625 0.750000
vt 1.953125 0.750000
vt 1.640625 0.765625
vt 1.640625 0.750000
vt 1.734375 0.890625
vt 1.734375 0.890625
vt 1.734375 0.984375
vt 1.734375 0.984375
vt 1.734375 0.890625
vt 1.734375 0.890625
vt 1.734375 0.984375
vt 1.734375 0.984375
vt 1.734375 0.875000
vt 1.734375 0.875000
vt 1.828125 0.890625
vt 1.828125 0.890625
vt 1.828125 0.875000
vt 1.828125 0.875000
vt 1.640625 0.890625
vt 1.640625 0.875000
vt 1.484375 0.640625
vt 1.484375 0.640625
vt 1.484375 0.734375
vt 1.484375 0.734375
vt 1.484375 0.640625
vt 1.484375 0.640625
vt 1.484375 0.734375
vt 1.484375 0.734375
vt 1.484375 0.625000
vt 1.484375 0.625000
vt 1.578125 0.640625
vt 1.578125 0.640625
vt 1.578125 0.625000
vt 1.578125 0.625000
vt 1.390625 0.640625
vt 1.390625 0.625000
vt 1.015625 0.734375
vt 1.078125 0.734375
vt 1.078125 0.734375
vt 1.015625 0.734375
vt 1.078125 0.734375
vt 1.140625 0.734375
vt 1.140625 0.734375
vt 1.078125 0.734375
vt 1.015625 0.718750
vt 1.078125 0.718750
vt 1.140625 0.734375
vt 1.078125 0.718750
vt 1.140625 0.718750
vt 1.015625 0.718750
vt 1.390625 0.734375
vt 1.453125 0.734375
vt 1.453125 0.734375
vt 1.390625 0.734375
vt 1.453125 0.734375
vt 1.515625 0.734375
vt 1.515625 0.734375
vt 1.453125 0.734375
vt 1.390625 0.718750
vt 1.453125 0.718750
vt 1.515625 0.734375
vt 1.453125 0.718750
vt 1.515625 0.718750
vt 1.390625 0.718750
vn 0.2425 0.9701 0.0000
vn -0.2425 -0.9701 0.0000
vn -1.0000 -0.0000 -0.0000
vn 1.0000 0.0000 0.0000
vn 0.0000 0.0000 1.0000
vn 0.0000 0.0000 -1.0000
vn -0.0000 1.0000 -0.0000
vn 0.0000 -1.0000 0.0000
vn -0.2425 0.9701 -0.0000
vn 0.2425 -0.9701 0.0000
vn -0.0000 0.8944 -0.4472
vn 0.0000 -0.8944 0.4472
vn -0.0000 0.8944 0.4472
vn 0.0000 -0.8944 -0.4472
vn -0.9659 0.0000 0.2588
vn 0.9659 0.0000 -0.2588
vn 0.2588 0.0000 0.9659
vn -0.2588 0.0000 -0.9659
usemtl ModelMaterial
s off
f 1/1/1 2/2/1 3/3/1 4/4/1
f 5/5/2 6/6/2 7/7/2 8/8/2
f 2/2/3 1/1/3 8/9/3 7/10/3
f 4/11/4 3/12/4 6/13/4 5/14/4
f 3/12/5 2/2/5 7/10/5 6/13/5
f 1/1/6 4/15/6 5/16/6 8/9/6
f 9/17/7 10/18/7 11/19/7 12/20/7
f 13/21/8 14/22/8 15/23/8 16/24/8
f 10/18/3 9/17/3 16/25/3 15/26/3
f 12/27/4 11/28/4 14/29/4 13/30/4
f 11/28/5 10/18/5 15/26/5 14/29/5
f 9/17/6 12/31/6 13/32/6 16/25/6
f 17/33/9 18/34/9 19/35/9 20/36/9
f 21/37/10 22/38/10 23/39/10 24/40/10
f 18/34/3 17/33/3 24/41/3 23/42/3
f 20/43/4 19/44/4 22/45/4 21/46/4
f 19/44/5 18/34/5 23/42/5 22/45/5
f 17/33/6 20/47/6 21/48/6 24/41/6
f 25/49/11 26/50/11 27/51/11 28/52/11
f 29/53/12 30/54/12 31/55/12 32/56/12
f 26/50/3 25/49/3 32/57/3 31/58/3
f 28/59/4 27/60/4 30/61/4 29/62/4
f 27/60/5 26/50/5 31/58/5 30/61/5
f 25/49/6 28/63/6 29/64/6 32/57/6
f 33/65/7 34/66/7 35/67/7 36/68/7
f 37/69/8 38/70/8 39/71/8 40/72/8
f 34/66/3 33/65/3 40/73/3 39/74/3
f 36/75/4 35/76/4 38/77/4 37/78/4
f 35/76/5 34/66/5 39/74/5 38/77/5
f 33/65/6 36/79/6 37/80/6 40/73/6
f 41/81/13 42/82/13 43/83/13 44/84/13
f 45/85/14 46/86/14 47/87/14 48/88/14
f 42/82/3 41/81/3 48/89/3 47/90/3
f 44/91/4 43/92/4 46/93/4 45/94/4
f 43/92/5 42/82/5 47/90/5 46/93/5
f 41/81/6 44/95/6 45/96/6 48/89/6
f 49/97/9 50/98/9 51/99/9 52/100/9
f 53/101/10 54/102/10 55/103/10 56/104/10
f 50/98/3 49/97/3 56/105/3 55/106/3
f 52/107/4 51/108/4 54/109/4 53/110/4
f 51/108/5 50/98/5 55/106/5 54/109/5
f 49/97/6 52/111/6 53/112/6 56/105/6
f 57/113/7 58/114/7 59/115/7 60/116/7
f 61/117/8 62/118/8 63/119/8 64/120/8
f 58/114/3 57/113/3 64/121/3 63/122/3
f 60/123/4 59/124/4 62/125/4 61/126/4
f 59/124/5 58/114/5 63/122/5 62/125/5
f 57/113/6 60/127/6 61/128/6 64/121/6
f 65/129/1 66/130/1 67/131/1 68/132/1
f 69/133/2 70/134/2 71/135/2 72/136/2
f 66/130/3 65/129/3 72/137/3 71/138/3
f 68/139/4 67/140/4 70/141/4 69/142/4
f 67/140/5 66/130/5 71/138/5 70/141/5
f 65/129/6 68/143/6 69/144/6 72/137/6
f 73/145/13 74/146/13 75/147/13 76/148/13
f 77/149/14 78/150/14 79/151/14 80/152/14
f 74/146/3 73/145/3 80/153/3 79/154/3
f 76/155/4 75/156/4 78/157/4 77/158/4
f 75/156/5 74/146/5 79/154/5 78/157/5
f 73/145/6 76/159/6 77/160/6 80/153/6
f 81/161/7 82/162/7 83/163/7 84/164/7
f 85/165/8 86/166/8 87/167/8 88/168/8
f 82/162/3 81/161/3 88/169/3 87/170/3
f 84/171/4 83/172/4 86/173/4 85/174/4
f 83/172/5 82/162/5 87/170/5 86/173/5
f 81/161/6 84/175/6 85/176/6 88/169/6
f 89/177/11 90/178/11 91/179/11 92/180/11
f 93/181/12 94/182/12 95/183/12 96/184/12
f 90/178/3 89/177/3 96/185/3 95/186/3
f 92/187/4 91/188/4 94/189/4 93/190/4
f 91/188/5 90/178/5 95/186/5 94/189/5
f 89/177/6 92/191/6 93/192/6 96/185/6
f 97/193/7 98/194/7 99/195/7 100/196/7
f 101/197/8 102/198/8 103/199/8 104/200/8
f 98/194/3 97/193/3 104/201/3 103/202/3
f 100/203/4 99/204/4 102/205/4 101/206/4
f 99/204/5 98/194/5 103/202/5 102/205/5
f 97/193/6 100/207/6 101/208/6 104/201/6
f 105/209/7 106/210/7 107/211/7 108/212/7
f 109/213/8 110/214/8 111/215/8 112/216/8
f 106/210/15 105/209/15 112/217/15 111/218/15
f 108/219/16 107/220/16 110/221/16 109/222/16
f 107/220/17 106/210/17 111/218/17 110/221/17
f 105/209/18 108/223/18 109/224/18 112/217/18
f 113/225/5 114/226/5 115/227/5 116/228/5
f 117/229/5 118/230/5 119/231/5 120/232/5
f 114/226/5 113/225/5 120/233/5 119/234/5
f 116/235/5 115/236/5 118/237/5 117/238/5
f 115/236/17 114/226/17 119/234/17 118/237/17
f 113/225/18 116/239/18 117/240/18 120/233/18
f 121/241/5 122/242/5 123/243/5 124/244/5
f 125/245/5 126/246/5 127/247/5 128/248/5
f 122/242/5 121/241/5 128/249/5 127/250/5
f 124/251/5 123/252/5 126/253/5 125/254/5
f 123/252/17 122/242/17 127/250/17 126/253/17
f 121/241/18 124/255/18 125/256/18 128/249/18
f 129/257/5 130/258/5 131/259/5 132/260/5
f 133/261/5 134/262/5 135/263/5 136/264/5
f 130/258/15 129/257/15 136/265/15 135/266/15
f 132/267/16 131/259/16 134/268/16 133/269/16
f 131/259/5 130/258/5 135/266/5 134/268/5
f 129/257/5 132/260/5 133/270/5 136/265/5
f 137/271/5 138/272/5 139/273/5 140/274/5
f 141/275/5 142/276/5 143/277/5 144/278/5
f 138/272/15 137/271/15 144/279/15 143/280/15
f 140/281/16 139/273/16 142/282/16 141/283/16
f 139/273/5 138/272/5 143/280/5 142/282/5
f 137/271/5 140/274/5 141/284/5 144/279/5
