# Blender v2.79 (sub 0) OBJ File: ''
# www.blender.org
mtllib police_bull_bar_l.mtl
o police_bull_bar
v -0.625000 0.609375 0.125000
v -0.625000 0.609375 0.187500
v 0.625000 0.609375 0.187500
v 0.625000 0.609375 0.125000
v 0.625000 0.546875 0.125000
v 0.625000 0.546875 0.187500
v -0.625000 0.546875 0.187500
v -0.625000 0.546875 0.125000
v -0.625000 0.343750 0.137500
v -0.625000 0.343750 0.200000
v 0.625000 0.343750 0.200000
v 0.625000 0.343750 0.137500
v 0.625000 0.281250 0.137500
v 0.625000 0.281250 0.200000
v -0.625000 0.281250 0.200000
v -0.625000 0.281250 0.137500
v -0.562500 0.687500 0.125000
v -0.562500 0.687500 0.203125
v -0.437500 0.687500 0.203125
v -0.437500 0.687500 0.125000
v -0.437500 0.312500 0.140625
v -0.437500 0.312500 0.203125
v -0.562500 0.312500 0.203125
v -0.562500 0.312500 0.140625
v 0.437500 0.687500 0.125000
v 0.437500 0.687500 0.203125
v 0.562500 0.687500 0.203125
v 0.562500 0.687500 0.125000
v 0.562500 0.312500 0.140625
v 0.562500 0.312500 0.203125
v 0.437500 0.312500 0.203125
v 0.437500 0.312500 0.140625
v 0.437500 0.312500 0.140625
v 0.437500 0.312500 0.203125
v 0.562500 0.312500 0.203125
v 0.562500 0.312500 0.140625
v 0.562500 0.000000 0.125000
v 0.562500 0.000000 0.187500
v 0.437500 0.000000 0.187500
v 0.437500 0.000000 0.125000
v -0.562500 0.312500 0.140625
v -0.562500 0.312500 0.203125
v -0.437500 0.312500 0.203125
v -0.437500 0.312500 0.140625
v -0.437500 -0.000000 0.125000
v -0.437500 -0.000000 0.187500
v -0.562500 -0.000000 0.187500
v -0.562500 -0.000000 0.125000
v -0.625000 0.093750 0.106250
v -0.625000 0.137944 0.150444
v 0.625000 0.137944 0.150444
v 0.625000 0.093750 0.106250
v 0.625000 0.049556 0.150444
v 0.625000 0.093750 0.194638
v -0.625000 0.093750 0.194638
v -0.625000 0.049556 0.150444
v -0.562500 -0.000000 -0.000000
v -0.562500 -0.000000 0.187500
v -0.437500 -0.000000 0.187500
v -0.437500 -0.000000 -0.000000
v -0.437500 -0.062500 -0.000000
v -0.437500 -0.062500 0.125000
v -0.562500 -0.062500 0.125000
v -0.562500 -0.062500 -0.000000
v 0.437500 0.000000 0.000000
v 0.437500 0.000000 0.187500
v 0.562500 0.000000 0.187500
v 0.562500 0.000000 0.000000
v 0.562500 -0.062500 0.000000
v 0.562500 -0.062500 0.125000
v 0.437500 -0.062500 0.125000
v 0.437500 -0.062500 0.000000
vt 1.328125 0.343750
vt 1.343750 0.343750
vt 1.343750 0.968750
vt 1.328125 0.968750
vt 1.343750 0.343750
vt 1.359375 0.343750
vt 1.359375 0.968750
vt 1.343750 0.968750
vt 1.328125 0.312500
vt 1.343750 0.312500
vt 1.671875 0.343750
vt 1.656250 0.343750
vt 1.656250 0.312500
vt 1.671875 0.312500
vt 1.015625 0.343750
vt 1.015625 0.312500
vt 1.328125 0.343750
vt 1.343750 0.343750
vt 1.343750 0.968750
vt 1.328125 0.968750
vt 1.343750 0.343750
vt 1.359375 0.343750
vt 1.359375 0.968750
vt 1.343750 0.968750
vt 1.328125 0.312500
vt 1.343750 0.312500
vt 1.671875 0.343750
vt 1.656250 0.343750
vt 1.656250 0.312500
vt 1.671875 0.312500
vt 1.015625 0.343750
vt 1.015625 0.312500
vt 1.046875 0.906250
vt 1.062500 0.906250
vt 1.062500 0.968750
vt 1.046875 0.968750
vt 1.062500 0.906250
vt 1.078125 0.906250
vt 1.078125 0.968750
vt 1.062500 0.968750
vt 1.046875 0.718750
vt 1.062500 0.718750
vt 1.109375 0.906250
vt 1.093750 0.906250
vt 1.093750 0.718750
vt 1.109375 0.718750
vt 1.015625 0.906250
vt 1.015625 0.718750
vt 1.171875 0.906250
vt 1.187500 0.906250
vt 1.187500 0.968750
vt 1.171875 0.968750
vt 1.187500 0.906250
vt 1.203125 0.906250
vt 1.203125 0.968750
vt 1.187500 0.968750
vt 1.171875 0.718750
vt 1.187500 0.718750
vt 1.234375 0.906250
vt 1.218750 0.906250
vt 1.218750 0.718750
vt 1.234375 0.718750
vt 1.140625 0.906250
vt 1.140625 0.718750
vt 1.421875 0.906250
vt 1.437500 0.906250
vt 1.437500 0.968750
vt 1.421875 0.968750
vt 1.437500 0.906250
vt 1.453125 0.906250
vt 1.453125 0.968750
vt 1.437500 0.968750
vt 1.421875 0.750000
vt 1.437500 0.750000
vt 1.484375 0.906250
vt 1.468750 0.906250
vt 1.468750 0.750000
vt 1.484375 0.750000
vt 1.390625 0.906250
vt 1.390625 0.750000
vt 1.546875 0.906250
vt 1.562500 0.906250
vt 1.562500 0.968750
vt 1.546875 0.968750
vt 1.562500 0.906250
vt 1.578125 0.906250
vt 1.578125 0.968750
vt 1.562500 0.968750
vt 1.546875 0.750000
vt 1.562500 0.750000
vt 1.609375 0.906250
vt 1.593750 0.906250
vt 1.593750 0.750000
vt 1.609375 0.750000
vt 1.515625 0.906250
vt 1.515625 0.750000
vt 1.328125 0.343750
vt 1.343750 0.343750
vt 1.343750 0.968750
vt 1.328125 0.968750
vt 1.343750 0.343750
vt 1.359375 0.343750
vt 1.359375 0.968750
vt 1.343750 0.968750
vt 1.328125 0.312500
vt 1.343750 0.312500
vt 1.671875 0.343750
vt 1.656250 0.343750
vt 1.656250 0.312500
vt 1.671875 0.312500
vt 1.015625 0.343750
vt 1.015625 0.312500
vt 1.671875 0.906250
vt 1.718750 0.906250
vt 1.718750 0.968750
vt 1.671875 0.968750
vt 1.718750 0.906250
vt 1.765625 0.906250
vt 1.765625 0.968750
vt 1.718750 0.968750
vt 1.671875 0.875000
vt 1.718750 0.875000
vt 1.796875 0.906250
vt 1.750000 0.906250
vt 1.750000 0.875000
vt 1.796875 0.875000
vt 1.640625 0.906250
vt 1.640625 0.875000
vt 1.421875 0.656250
vt 1.468750 0.656250
vt 1.468750 0.718750
vt 1.421875 0.718750
vt 1.468750 0.656250
vt 1.515625 0.656250
vt 1.515625 0.718750
vt 1.468750 0.718750
vt 1.421875 0.625000
vt 1.468750 0.625000
vt 1.546875 0.656250
vt 1.500000 0.656250
vt 1.500000 0.625000
vt 1.546875 0.625000
vt 1.390625 0.656250
vt 1.390625 0.625000
vn -0.0000 1.0000 0.0000
vn 0.0000 -1.0000 0.0000
vn -1.0000 0.0000 0.0000
vn 1.0000 0.0000 0.0000
vn -0.0000 0.0000 1.0000
vn 0.0000 0.0000 -1.0000
vn 0.0000 -0.0416 -0.9991
vn -0.0000 -0.0499 0.9988
vn 0.0000 0.0499 -0.9988
vn -0.0000 0.7071 -0.7071
vn 0.0000 -0.7071 0.7071
vn -0.0000 0.7071 0.7071
vn 0.0000 -0.7071 -0.7071
usemtl ModelMaterial
s off
f 1/1/1 2/2/1 3/3/1 4/4/1
f 5/5/2 6/6/2 7/7/2 8/8/2
f 2/2/3 1/1/3 8/9/3 7/10/3
f 4/11/4 3/12/4 6/13/4 5/14/4
f 3/12/5 2/2/5 7/10/5 6/13/5
f 1/1/6 4/15/6 5/16/6 8/9/6
f 9/17/1 10/18/1 11/19/1 12/20/1
f 13/21/2 14/22/2 15/23/2 16/24/2
f 10/18/3 9/17/3 16/25/3 15/26/3
f 12/27/4 11/28/4 14/29/4 13/30/4
f 11/28/5 10/18/5 15/26/5 14/29/5
f 9/17/6 12/31/6 13/32/6 16/25/6
f 17/33/1 18/34/1 19/35/1 20/36/1
f 21/37/2 22/38/2 23/39/2 24/40/2
f 18/34/3 17/33/3 24/41/3 23/42/3
f 20/43/4 19/44/4 22/45/4 21/46/4
f 19/44/5 18/34/5 23/42/5 22/45/5
f 17/33/7 20/47/7 21/48/7 24/41/7
f 25/49/1 26/50/1 27/51/1 28/52/1
f 29/53/2 30/54/2 31/55/2 32/56/2
f 26/50/3 25/49/3 32/57/3 31/58/3
f 28/59/4 27/60/4 30/61/4 29/62/4
f 27/60/5 26/50/5 31/58/5 30/61/5
f 25/49/7 28/63/7 29/64/7 32/57/7
f 33/65/1 34/66/1 35/67/1 36/68/1
f 37/69/2 38/70/2 39/71/2 40/72/2
f 34/66/3 33/65/3 40/73/3 39/74/3
f 36/75/4 35/76/4 38/77/4 37/78/4
f 35/76/8 34/66/8 39/74/8 38/77/8
f 33/65/9 36/79/9 37/80/9 40/73/9
f 41/81/1 42/82/1 43/83/1 44/84/1
f 45/85/2 46/86/2 47/87/2 48/88/2
f 42/82/3 41/81/3 48/89/3 47/90/3
f 44/91/4 43/92/4 46/93/4 45/94/4
f 43/92/8 42/82/8 47/90/8 46/93/8
f 41/81/9 44/95/9 45/96/9 48/89/9
f 49/97/10 50/98/10 51/99/10 52/100/10
f 53/101/11 54/102/11 55/103/11 56/104/11
f 50/98/3 49/97/3 56/105/3 55/106/3
f 52/107/4 51/108/4 54/109/4 53/110/4
f 51/108/12 50/98/12 55/106/12 54/109/12
f 49/97/13 52/111/13 53/112/13 56/105/13
f 57/113/1 58/114/1 59/115/1 60/116/1
f 61/117/2 62/118/2 63/119/2 64/120/2
f 58/114/3 57/113/3 64/121/3 63/122/3
f 60/123/4 59/124/4 62/125/4 61/126/4
f 59/124/11 58/114/11 63/122/11 62/125/11
f 57/113/6 60/127/6 61/128/6 64/121/6
f 65/129/1 66/130/1 67/131/1 68/132/1
f 69/133/2 70/134/2 71/135/2 72/136/2
f 66/130/3 65/129/3 72/137/3 71/138/3
f 68/139/4 67/140/4 70/141/4 69/142/4
f 67/140/11 66/130/11 71/138/11 70/141/11
f 65/129/6 68/143/6 69/144/6 72/137/6
