# Blender v2.79 (sub 0) OBJ File: ''
# www.blender.org
mtllib bus_destination_sign.obj.mtl
o bus_destination_sign.obj
v -1.125000 0.187500 -0.031250
v -1.125000 0.187500 0.031250
v 1.125000 0.187500 0.031250
v 1.125000 0.187500 -0.031250
v 1.125000 -0.187500 -0.031250
v 1.125000 -0.187500 0.031250
v -1.125000 -0.187500 0.031250
v -1.125000 -0.187500 -0.031250
vt 1.513672 0.324219
vt 1.515625 0.324219
vt 1.515625 0.886719
vt 1.513672 0.886719
vt 1.515625 0.324219
vt 1.517578 0.324219
vt 1.517578 0.886719
vt 1.515625 0.886719
vt 1.513672 0.230469
vt 1.515625 0.230469
vt 1.798828 0.324219
vt 1.796875 0.324219
vt 1.796875 0.230469
vt 1.798828 0.230469
vt 1.232422 0.324219
vt 1.232422 0.230469
vn -0.0000 1.0000 0.0000
vn 0.0000 -1.0000 0.0000
vn -1.0000 0.0000 0.0000
vn 1.0000 0.0000 0.0000
vn -0.0000 0.0000 1.0000
vn 0.0000 0.0000 -1.0000
usemtl ModelMaterial
s off
f 1/1/1 2/2/1 3/3/1 4/4/1
f 5/5/2 6/6/2 7/7/2 8/8/2
f 2/2/3 1/1/3 8/9/3 7/10/3
f 4/11/4 3/12/4 6/13/4 5/14/4
f 3/12/5 2/2/5 7/10/5 6/13/5
f 1/1/6 4/15/6 5/16/6 8/9/6
