# Blender v2.79 (sub 0) OBJ File: ''
# www.blender.org
mtllib car_roof_sign_police1.mtl
o &EmergencyLight_cc0000_00CFF_111
v -0.312500 0.250000 0.137500
v -0.375000 0.250000 0.137500
v -0.375000 0.062500 0.137500
v -0.312500 0.062500 0.137500
vt 1.468750 0.968750
vt 1.460938 0.968750
vt 1.460938 0.921875
vt 1.468750 0.921875
vn 0.0000 -0.0000 1.0000
usemtl ModelMaterial
s 1
f 1/1/1 2/2/1 3/3/1 4/4/1
o core
v -0.375000 0.312500 0.000000
v -0.375000 0.312500 0.125000
v 0.375000 0.312500 0.125000
v 0.375000 0.312500 0.000000
v 0.375000 0.000000 -0.125000
v 0.375000 -0.000000 0.125000
v -0.375000 -0.000000 0.125000
v -0.375000 0.000000 -0.125000
v -0.375000 0.312500 0.000000
v -0.375000 0.312500 0.125000
v -0.375000 0.312500 0.125000
v -0.375000 0.312500 0.000000
v -0.375000 0.000000 -0.125000
v -0.375000 -0.000000 0.125000
v -0.500000 -0.000000 0.125000
v -0.500000 0.000000 -0.125000
v 0.375000 0.312500 0.000000
v 0.375000 0.312500 0.125000
v 0.375000 0.312500 0.125000
v 0.375000 0.312500 0.000000
v 0.500000 0.000000 -0.125000
v 0.500000 -0.000000 0.125000
v 0.375000 -0.000000 0.125000
v 0.375000 0.000000 -0.125000
v 0.312500 0.250000 0.075000
v 0.312500 0.250000 0.137500
v 0.375000 0.250000 0.137500
v 0.375000 0.250000 0.075000
v 0.375000 0.062500 0.075000
v 0.375000 0.062500 0.137500
v 0.312500 0.062500 0.137500
v 0.312500 0.062500 0.075000
v -0.375000 0.250000 0.075000
v -0.375000 0.250000 0.137500
v -0.312500 0.250000 0.137500
v -0.312500 0.250000 0.075000
v -0.312500 0.062500 0.075000
v -0.312500 0.062500 0.137500
v -0.375000 0.062500 0.137500
v -0.375000 0.062500 0.075000
vt 1.226562 0.546875
vt 1.257812 0.546875
vt 1.257812 0.984375
vt 1.226562 0.984375
vt 1.257812 0.546875
vt 1.289062 0.546875
vt 1.289062 0.984375
vt 1.257812 0.984375
vt 1.226562 0.375000
vt 1.257812 0.375000
vt 1.507812 0.546875
vt 1.476562 0.546875
vt 1.476562 0.375000
vt 1.507812 0.375000
vt 1.007812 0.546875
vt 1.007812 0.375000
vt 1.023438 0.953125
vt 1.054688 0.953125
vt 1.054688 0.984375
vt 1.023438 0.984375
vt 1.054688 0.953125
vt 1.085938 0.953125
vt 1.085938 0.984375
vt 1.054688 0.984375
vt 1.023438 0.875000
vt 1.054688 0.875000
vt 1.101562 0.953125
vt 1.070312 0.953125
vt 1.070312 0.875000
vt 1.101562 0.875000
vt 1.007812 0.953125
vt 1.007812 0.875000
vt 1.335938 0.953125
vt 1.367188 0.953125
vt 1.367188 0.984375
vt 1.335938 0.984375
vt 1.367188 0.953125
vt 1.398438 0.953125
vt 1.398438 0.984375
vt 1.367188 0.984375
vt 1.335938 0.875000
vt 1.367188 0.875000
vt 1.414062 0.953125
vt 1.382812 0.953125
vt 1.382812 0.875000
vt 1.414062 0.875000
vt 1.320312 0.953125
vt 1.320312 0.875000
vt 1.140625 0.968750
vt 1.148438 0.968750
vt 1.148438 0.984375
vt 1.140625 0.984375
vt 1.148438 0.968750
vt 1.156250 0.968750
vt 1.156250 0.984375
vt 1.148438 0.984375
vt 1.140625 0.921875
vt 1.148438 0.921875
vt 1.164062 0.968750
vt 1.156250 0.968750
vt 1.156250 0.921875
vt 1.164062 0.921875
vt 1.132812 0.968750
vt 1.132812 0.921875
vt 1.453125 0.968750
vt 1.460938 0.968750
vt 1.460938 0.984375
vt 1.453125 0.984375
vt 1.460938 0.968750
vt 1.468750 0.968750
vt 1.468750 0.984375
vt 1.460938 0.984375
vt 1.453125 0.921875
vt 1.460938 0.921875
vt 1.476562 0.968750
vt 1.468750 0.968750
vt 1.468750 0.921875
vt 1.476562 0.921875
vt 1.445312 0.968750
vt 1.445312 0.921875
vn 0.0000 1.0000 0.0000
vn 0.0000 -1.0000 -0.0000
vn -1.0000 0.0000 0.0000
vn 1.0000 0.0000 0.0000
vn 0.0000 -0.0000 1.0000
vn 0.0000 0.3714 -0.9285
vn 0.0000 0.0000 0.0000
vn -0.9285 0.3714 0.0000
vn 0.9285 0.3714 0.0000
vn 0.0000 0.0000 -1.0000
usemtl ModelMaterial
s 1
f 5/5/2 6/6/2 7/7/2 8/8/2
f 9/9/3 10/10/3 11/11/3 12/12/3
f 6/6/4 5/5/4 12/13/4 11/14/4
f 8/15/5 7/16/5 10/17/5 9/18/5
f 7/16/6 6/6/6 11/14/6 10/17/6
f 5/5/7 8/19/7 9/20/7 12/13/7
f 13/21/8 14/22/8 15/23/8 16/24/8
f 17/25/3 18/26/3 19/27/3 20/28/3
f 14/22/9 13/21/9 20/29/9 19/30/9
f 16/31/5 15/32/5 18/33/5 17/34/5
f 15/32/8 14/22/8 19/30/6 18/33/6
f 13/21/7 16/35/7 17/36/7 20/29/7
f 21/37/8 22/38/8 23/39/8 24/40/8
f 25/41/3 26/42/3 27/43/3 28/44/3
f 22/38/4 21/37/4 28/45/4 27/46/4
f 24/47/10 23/48/10 26/49/10 25/50/10
f 23/48/8 22/38/8 27/46/6 26/49/6
f 21/37/7 24/51/7 25/52/7 28/45/7
f 29/53/2 30/54/2 31/55/2 32/56/2
f 33/57/3 34/58/3 35/59/3 36/60/3
f 30/54/4 29/53/4 36/61/4 35/62/4
f 32/63/5 31/64/5 34/65/5 33/66/5
f 29/53/11 32/67/11 33/68/11 36/61/11
f 37/69/2 38/70/2 39/71/2 40/72/2
f 41/73/3 42/74/3 43/75/3 44/76/3
f 38/70/4 37/69/4 44/77/4 43/78/4
f 40/79/5 39/80/5 42/81/5 41/82/5
f 37/69/11 40/83/11 41/84/11 44/77/11
o &EmergencyLight_000066_FFC00_111
v 0.375000 0.250000 0.137500
v 0.312500 0.250000 0.137500
v 0.312500 0.062500 0.137500
v 0.375000 0.062500 0.137500
vt 1.156250 0.968750
vt 1.148438 0.968750
vt 1.148438 0.921875
vt 1.156250 0.921875
vn 0.0000 -0.0000 1.0000
usemtl ModelMaterial
s 1
f 45/85/12 46/86/12 47/87/12 48/88/12
