# Blender v2.79 (sub 0) OBJ File: ''
# www.blender.org
mtllib gyro_yellow.mtl
o &EmergencyLight_ffcc00_00F0F_111
v -0.093750 0.250000 0.062500
v 0.093750 0.250000 0.062500
v 0.093750 0.250000 -0.062500
v -0.093750 0.250000 -0.062500
v -0.093750 0.062500 -0.062500
v 0.093750 0.062500 -0.062500
v 0.093750 0.062500 0.062500
v -0.093750 0.062500 0.062500
v -0.093750 0.250000 -0.062500
v 0.093750 0.250000 -0.062500
v 0.062500 0.250000 -0.093750
v -0.062500 0.250000 -0.093750
v -0.062500 0.062500 -0.093750
v 0.062500 0.062500 -0.093750
v 0.093750 0.062500 -0.062500
v -0.093750 0.062500 -0.062500
v -0.062500 0.250000 0.093750
v 0.062500 0.250000 0.093750
v 0.093750 0.250000 0.062500
v -0.093750 0.250000 0.062500
v -0.093750 0.062500 0.062500
v 0.093750 0.062500 0.062500
v 0.062500 0.062500 0.093750
v -0.062500 0.062500 0.093750
vt 1.093750 0.656250
vt 1.187500 0.656250
vt 1.187500 0.718750
vt 1.093750 0.718750
vt 1.250000 0.656250
vt 1.187500 0.562500
vt 1.250000 0.562500
vt 1.031250 0.656250
vt 1.031250 0.562500
vt 1.093750 0.562500
vt 1.562500 0.687500
vt 1.625000 0.687500
vt 1.625000 0.718750
vt 1.562500 0.718750
vt 1.718750 0.687500
vt 1.656250 0.687500
vt 1.656250 0.593750
vt 1.718750 0.593750
vt 1.625000 0.593750
vt 1.531250 0.687500
vt 1.531250 0.593750
vt 1.562500 0.593750
vt 1.812500 0.687500
vt 1.875000 0.687500
vt 1.875000 0.718750
vt 1.812500 0.718750
vt 1.812500 0.593750
vt 1.875000 0.593750
vt 1.906250 0.687500
vt 1.906250 0.593750
vt 1.781250 0.687500
vt 1.781250 0.593750
vn 0.0000 1.0000 0.0000
vn 1.0000 0.0000 0.0000
vn -1.0000 0.0000 0.0000
vn 0.0000 0.0000 -1.0000
vn 0.7071 0.0000 -0.7071
vn -0.7071 0.0000 -0.7071
vn 0.0000 -0.0000 1.0000
vn 0.7071 -0.0000 0.7071
vn -0.7071 -0.0000 0.7071
usemtl ModelMaterial
s off
f 1/1/1 2/2/1 3/3/1 4/4/1
f 3/5/2 2/2/2 7/6/2 6/7/2
f 1/1/3 4/8/3 5/9/3 8/10/3
f 9/11/1 10/12/1 11/13/1 12/14/1
f 12/15/4 11/16/4 14/17/4 13/18/4
f 11/16/5 10/12/5 15/19/5 14/17/5
f 9/11/6 12/20/6 13/21/6 16/22/6
f 17/23/1 18/24/1 19/25/1 20/26/1
f 18/24/7 17/23/7 24/27/7 23/28/7
f 19/29/8 18/24/8 23/28/8 22/30/8
f 17/23/9 20/31/9 21/32/9 24/27/9
o core
v -0.125000 0.062500 0.062500
v 0.125000 0.062500 0.062500
v 0.125000 0.062500 -0.062500
v -0.125000 0.062500 -0.062500
v -0.125000 0.000000 -0.062500
v 0.125000 0.000000 -0.062500
v 0.125000 -0.000000 0.062500
v -0.125000 -0.000000 0.062500
v -0.125000 0.062500 -0.062500
v 0.125000 0.062500 -0.062500
v 0.062500 0.062500 -0.125000
v -0.062500 0.062500 -0.125000
v -0.062500 0.000000 -0.125000
v 0.062500 0.000000 -0.125000
v 0.125000 0.000000 -0.062500
v -0.125000 0.000000 -0.062500
v -0.062500 0.062500 0.125000
v 0.062500 0.062500 0.125000
v 0.125000 0.062500 0.062500
v -0.125000 0.062500 0.062500
v -0.125000 -0.000000 0.062500
v 0.125000 -0.000000 0.062500
v 0.062500 -0.000000 0.125000
v -0.062500 -0.000000 0.125000
v -0.093750 0.250000 0.062500
v 0.093750 0.250000 0.062500
v 0.093750 0.250000 -0.062500
v -0.093750 0.250000 -0.062500
v -0.093750 0.062500 -0.062500
v 0.093750 0.062500 -0.062500
v 0.093750 0.062500 0.062500
v -0.093750 0.062500 0.062500
v -0.093750 0.250000 -0.062500
v 0.093750 0.250000 -0.062500
v -0.062500 0.062500 -0.093750
v 0.062500 0.062500 -0.093750
v 0.093750 0.062500 -0.062500
v -0.093750 0.062500 -0.062500
v 0.093750 0.250000 0.062500
v -0.093750 0.250000 0.062500
v -0.093750 0.062500 0.062500
v 0.093750 0.062500 0.062500
v 0.062500 0.062500 0.093750
v -0.062500 0.062500 0.093750
v -0.062500 0.265625 0.062500
v 0.062500 0.265625 0.062500
v 0.062500 0.265625 -0.062500
v -0.062500 0.265625 -0.062500
v -0.062500 0.203125 -0.062500
v 0.062500 0.203125 -0.062500
v 0.062500 0.203125 0.062500
v -0.062500 0.203125 0.062500
vt 1.093750 0.906250
vt 1.218750 0.906250
vt 1.218750 0.968750
vt 1.093750 0.968750
vt 1.218750 0.906250
vt 1.343750 0.906250
vt 1.343750 0.968750
vt 1.218750 0.968750
vt 1.093750 0.875000
vt 1.218750 0.875000
vt 1.406250 0.906250
vt 1.281250 0.906250
vt 1.281250 0.875000
vt 1.406250 0.875000
vt 1.031250 0.906250
vt 1.031250 0.875000
vt 1.562500 0.937500
vt 1.625000 0.937500
vt 1.625000 0.968750
vt 1.562500 0.968750
vt 1.625000 0.937500
vt 1.687500 0.937500
vt 1.687500 0.968750
vt 1.625000 0.968750
vt 1.562500 0.906250
vt 1.625000 0.906250
vt 1.718750 0.937500
vt 1.656250 0.937500
vt 1.656250 0.906250
vt 1.718750 0.906250
vt 1.531250 0.937500
vt 1.531250 0.906250
vt 1.812500 0.937500
vt 1.875000 0.937500
vt 1.875000 0.968750
vt 1.812500 0.968750
vt 1.875000 0.937500
vt 1.937500 0.937500
vt 1.937500 0.968750
vt 1.875000 0.968750
vt 1.812500 0.906250
vt 1.875000 0.906250
vt 1.968750 0.937500
vt 1.906250 0.937500
vt 1.906250 0.906250
vt 1.968750 0.906250
vt 1.781250 0.937500
vt 1.781250 0.906250
vt 1.187500 0.656250
vt 1.281250 0.656250
vt 1.281250 0.718750
vt 1.187500 0.718750
vt 1.187500 0.656250
vt 1.093750 0.656250
vt 1.093750 0.562500
vt 1.187500 0.562500
vt 1.343750 0.656250
vt 1.250000 0.656250
vt 1.250000 0.562500
vt 1.343750 0.562500
vt 1.625000 0.687500
vt 1.687500 0.687500
vt 1.687500 0.718750
vt 1.625000 0.718750
vt 1.625000 0.687500
vt 1.562500 0.687500
vt 1.562500 0.593750
vt 1.625000 0.593750
vt 1.875000 0.687500
vt 1.937500 0.687500
vt 1.937500 0.718750
vt 1.875000 0.718750
vt 1.968750 0.687500
vt 1.906250 0.687500
vt 1.906250 0.593750
vt 1.968750 0.593750
vt 1.093750 0.406250
vt 1.156250 0.406250
vt 1.156250 0.468750
vt 1.093750 0.468750
vt 1.156250 0.406250
vt 1.218750 0.406250
vt 1.218750 0.468750
vt 1.156250 0.468750
vt 1.093750 0.375000
vt 1.156250 0.375000
vt 1.281250 0.406250
vt 1.218750 0.406250
vt 1.218750 0.375000
vt 1.281250 0.375000
vt 1.031250 0.406250
vt 1.031250 0.375000
vn 0.0000 1.0000 0.0000
vn 0.0000 -1.0000 -0.0000
vn 0.0000 -0.0000 1.0000
vn 0.0000 0.0000 -1.0000
vn 1.0000 0.0000 0.0000
vn -1.0000 0.0000 0.0000
vn 0.7071 0.0000 -0.7071
vn -0.7071 0.0000 -0.7071
vn 0.7071 -0.0000 0.7071
vn -0.7071 -0.0000 0.7071
usemtl ModelMaterial
s off
f 25/33/10 26/34/10 27/35/10 28/36/10
f 29/37/11 30/38/11 31/39/11 32/40/11
f 26/34/12 25/33/12 32/41/12 31/42/12
f 28/43/13 27/44/13 30/45/13 29/46/13
f 27/44/14 26/34/14 31/42/14 30/45/14
f 25/33/15 28/47/15 29/48/15 32/41/15
f 33/49/10 34/50/10 35/51/10 36/52/10
f 37/53/11 38/54/11 39/55/11 40/56/11
f 34/50/12 33/49/12 40/57/12 39/58/12
f 36/59/13 35/60/13 38/61/13 37/62/13
f 35/60/16 34/50/16 39/58/16 38/61/16
f 33/49/17 36/63/17 37/64/17 40/57/17
f 41/65/10 42/66/10 43/67/10 44/68/10
f 45/69/11 46/70/11 47/71/11 48/72/11
f 42/66/12 41/65/12 48/73/12 47/74/12
f 44/75/13 43/76/13 46/77/13 45/78/13
f 43/76/18 42/66/18 47/74/18 46/77/18
f 41/65/19 44/79/19 45/80/19 48/73/19
f 53/81/11 54/82/11 55/83/11 56/84/11
f 50/85/12 49/86/12 56/87/12 55/88/12
f 52/89/13 51/90/13 54/91/13 53/92/13
f 59/93/11 60/94/11 61/95/11 62/96/11
f 58/97/12 57/98/12 62/99/12 61/100/12
f 65/101/11 66/102/11 67/103/11 68/104/11
f 64/105/13 63/106/13 66/107/13 65/108/13
f 69/109/10 70/110/10 71/111/10 72/112/10
f 73/113/11 74/114/11 75/115/11 76/116/11
f 70/110/12 69/109/12 76/117/12 75/118/12
f 72/119/13 71/120/13 74/121/13 73/122/13
f 71/120/14 70/110/14 75/118/14 74/121/14
f 69/109/15 72/123/15 73/124/15 76/117/15
