# Blender v2.79 (sub 0) OBJ File: ''
# www.blender.org
mtllib led_light_b.mtl
o &EmergencyLight_33adff_FFFFF_011
v -0.062500 0.062500 0.031250
v 0.062500 0.062500 0.031250
v 0.062500 -0.000000 0.031250
v -0.062500 -0.000000 0.031250
vt 1.187500 0.906250
vt 1.125000 0.906250
vt 1.125000 0.875000
vt 1.187500 0.875000
vn 0.0000 -0.0000 1.0000
usemtl ModelMaterial
s 1
f 2/1/1 1/2/1 4/3/1 3/4/1
o core
v -0.062500 0.062500 -0.031250
v -0.062500 0.062500 0.031250
v 0.062500 0.062500 0.031250
v 0.062500 0.062500 -0.031250
v 0.062500 0.000000 -0.031250
v 0.062500 -0.000000 0.031250
v -0.062500 -0.000000 0.031250
v -0.062500 0.000000 -0.031250
vt 1.093750 0.906250
vt 1.125000 0.906250
vt 1.125000 0.968750
vt 1.093750 0.968750
vt 1.125000 0.906250
vt 1.156250 0.906250
vt 1.156250 0.968750
vt 1.125000 0.968750
vt 1.093750 0.875000
vt 1.125000 0.875000
vt 1.218750 0.906250
vt 1.187500 0.906250
vt 1.187500 0.875000
vt 1.218750 0.875000
vt 1.031250 0.906250
vt 1.031250 0.875000
vn 0.0000 1.0000 0.0000
vn 0.0000 -1.0000 -0.0000
vn -1.0000 0.0000 0.0000
vn 1.0000 0.0000 0.0000
vn 0.0000 0.0000 -1.0000
usemtl ModelMaterial
s 1
f 5/5/2 6/6/2 7/7/2 8/8/2
f 9/9/3 10/10/3 11/11/3 12/12/3
f 6/6/4 5/5/4 12/13/4 11/14/4
f 8/15/5 7/16/5 10/17/5 9/18/5
f 5/5/6 8/19/6 9/20/6 12/13/6
