# Blender v2.79 (sub 0) OBJ File: ''
# www.blender.org
mtllib ledlightbar_2_rb_1.mtl
o &GenericLight_0000FF_F0000_111
v -0.062500 0.062500 0.047500
v -0.000000 0.062500 0.047500
v -0.000000 0.000000 0.047500
v -0.062500 -0.000000 0.047500
vt 1.343750 0.937500
vt 1.312500 0.937500
vt 1.312500 0.906250
vt 1.343750 0.906250
vn -0.0000 -0.0000 1.0000
usemtl ModelMaterial
s off
f 2/1/1 1/2/1 4/3/1 3/4/1
o core
v -0.046875 0.046875 -0.015625
v -0.062500 0.062500 0.046875
v 0.062500 0.062500 0.046875
v 0.046875 0.046875 -0.015625
v 0.046875 0.015625 -0.015625
v 0.062500 0.000000 0.046875
v -0.062500 -0.000000 0.046875
v -0.046875 0.015625 -0.015625
vt 1.093750 0.906250
vt 1.125000 0.906250
vt 1.125000 0.968750
vt 1.093750 0.968750
vt 1.125000 0.906250
vt 1.156250 0.906250
vt 1.156250 0.968750
vt 1.125000 0.968750
vt 1.093750 0.875000
vt 1.125000 0.875000
vt 1.218750 0.906250
vt 1.187500 0.906250
vt 1.187500 0.875000
vt 1.218750 0.875000
vt 1.031250 0.906250
vt 1.031250 0.875000
vn -0.0000 0.9701 -0.2425
vn 0.0000 -0.9701 -0.2425
vn -0.9701 -0.0000 -0.2425
vn 0.9701 0.0000 -0.2425
vn -0.0000 -0.0000 1.0000
vn 0.0000 0.0000 -1.0000
usemtl ModelMaterial
s off
f 5/5/2 6/6/2 7/7/2 8/8/2
f 9/9/3 10/10/3 11/11/3 12/12/3
f 6/6/4 5/5/4 12/13/4 11/14/4
f 8/15/5 7/16/5 10/17/5 9/18/5
f 7/16/6 6/6/6 11/14/6 10/17/6
f 5/5/7 8/19/7 9/20/7 12/13/7
o &GenericLight_FF0000_F0000_111
v -0.000000 0.062500 0.047500
v 0.062500 0.062500 0.047500
v 0.062500 0.000000 0.047500
v -0.000000 0.000000 0.047500
vt 1.593750 0.937500
vt 1.562500 0.937500
vt 1.562500 0.906250
vt 1.593750 0.906250
vn -0.0000 -0.0000 1.0000
usemtl ModelMaterial
s off
f 14/21/8 13/22/8 16/23/8 15/24/8
o &GenericLight_FF0000_0F000_111
v -0.062500 0.062500 0.047500
v -0.000000 0.062500 0.047500
v -0.000000 0.000000 0.047500
v -0.062500 -0.000000 0.047500
vt 1.343750 0.937500
vt 1.312500 0.937500
vt 1.312500 0.906250
vt 1.343750 0.906250
vn -0.0000 -0.0000 1.0000
usemtl ModelMaterial.001
s off
f 18/25/9 17/26/9 20/27/9 19/28/9
o &GenericLight_0000FF_0F000_111
v -0.000000 0.062500 0.047500
v 0.062500 0.062500 0.047500
v 0.062500 0.000000 0.047500
v -0.000000 0.000000 0.047500
vt 1.593750 0.937500
vt 1.562500 0.937500
vt 1.562500 0.906250
vt 1.593750 0.906250
vn -0.0000 -0.0000 1.0000
usemtl ModelMaterial.001
s off
f 22/29/10 21/30/10 24/31/10 23/32/10
o &GenericLight_0000FF_00F00_111
v -0.062500 0.062500 0.047500
v -0.000000 0.062500 0.047500
v -0.000000 0.000000 0.047500
v -0.062500 -0.000000 0.047500
vt 1.343750 0.937500
vt 1.312500 0.937500
vt 1.312500 0.906250
vt 1.343750 0.906250
vn -0.0000 -0.0000 1.0000
usemtl ModelMaterial.002
s off
f 26/33/11 25/34/11 28/35/11 27/36/11
o &GenericLight_FF0000_00F00_111
v -0.000000 0.062500 0.047500
v 0.062500 0.062500 0.047500
v 0.062500 0.000000 0.047500
v -0.000000 0.000000 0.047500
vt 1.593750 0.937500
vt 1.562500 0.937500
vt 1.562500 0.906250
vt 1.593750 0.906250
vn -0.0000 -0.0000 1.0000
usemtl ModelMaterial.002
s off
f 30/37/12 29/38/12 32/39/12 31/40/12
o &GenericLight_FF0000_000F0_111
v -0.062500 0.062500 0.047500
v -0.000000 0.062500 0.047500
v -0.000000 0.000000 0.047500
v -0.062500 -0.000000 0.047500
vt 1.343750 0.937500
vt 1.312500 0.937500
vt 1.312500 0.906250
vt 1.343750 0.906250
vn -0.0000 -0.0000 1.0000
usemtl ModelMaterial.003
s off
f 34/41/13 33/42/13 36/43/13 35/44/13
o &GenericLight_0000FF_000F0_111
v -0.000000 0.062500 0.047500
v 0.062500 0.062500 0.047500
v 0.062500 0.000000 0.047500
v -0.000000 0.000000 0.047500
vt 1.593750 0.937500
vt 1.562500 0.937500
vt 1.562500 0.906250
vt 1.593750 0.906250
vn -0.0000 -0.0000 1.0000
usemtl ModelMaterial.003
s off
f 38/45/14 37/46/14 40/47/14 39/48/14
o &GenericLight_0000FF_0000F_111
v -0.062500 0.062500 0.047500
v -0.000000 0.062500 0.047500
v -0.000000 0.000000 0.047500
v -0.062500 -0.000000 0.047500
vt 1.343750 0.937500
vt 1.312500 0.937500
vt 1.312500 0.906250
vt 1.343750 0.906250
vn -0.0000 -0.0000 1.0000
usemtl ModelMaterial.004
s off
f 42/49/15 41/50/15 44/51/15 43/52/15
o &GenericLight_FF0000_0000F_111
v -0.000000 0.062500 0.047500
v 0.062500 0.062500 0.047500
v 0.062500 0.000000 0.047500
v -0.000000 0.000000 0.047500
vt 1.593750 0.937500
vt 1.562500 0.937500
vt 1.562500 0.906250
vt 1.593750 0.906250
vn -0.0000 -0.0000 1.0000
usemtl ModelMaterial.004
s off
f 46/53/16 45/54/16 48/55/16 47/56/16
