# Blender v2.79 (sub 0) OBJ File: ''
# www.blender.org
mtllib radio_antenna.mtl
o radio_antenna
v -0.031250 0.031250 -0.031250
v -0.031250 0.031250 0.031250
v 0.031250 0.031250 0.031250
v 0.031250 0.031250 -0.031250
v 0.031250 -0.031250 -0.031250
v 0.031250 -0.031250 0.031250
v -0.031250 -0.031250 0.031250
v -0.031250 -0.031250 -0.031250
v -0.015625 0.656250 -0.046875
v -0.015625 0.656250 -0.015625
v 0.015625 0.656250 -0.015625
v 0.015625 0.656250 -0.046875
v 0.015625 0.031250 -0.015625
v 0.015625 0.031250 0.015625
v -0.015625 0.031250 0.015625
v -0.015625 0.031250 -0.015625
vt 1.062500 0.937500
vt 1.093750 0.937500
vt 1.093750 0.968750
vt 1.062500 0.968750
vt 1.093750 0.937500
vt 1.125000 0.937500
vt 1.125000 0.968750
vt 1.093750 0.968750
vt 1.062500 0.906250
vt 1.093750 0.906250
vt 1.156250 0.937500
vt 1.125000 0.937500
vt 1.125000 0.906250
vt 1.156250 0.906250
vt 1.031250 0.937500
vt 1.031250 0.906250
vt 1.312500 0.937500
vt 1.343750 0.937500
vt 1.343750 0.968750
vt 1.312500 0.968750
vt 1.343750 0.937500
vt 1.375000 0.937500
vt 1.375000 0.968750
vt 1.343750 0.968750
vt 1.312500 0.625000
vt 1.343750 0.625000
vt 1.406250 0.937500
vt 1.375000 0.937500
vt 1.375000 0.625000
vt 1.406250 0.625000
vt 1.281250 0.937500
vt 1.281250 0.625000
vn -0.0000 1.0000 -0.0000
vn 0.0000 -1.0000 -0.0000
vn -1.0000 -0.0000 -0.0000
vn 1.0000 0.0000 0.0000
vn -0.0000 -0.0000 1.0000
vn 0.0000 0.0000 -1.0000
vn -0.0000 0.0499 0.9988
vn -0.0000 -0.0499 -0.9988
usemtl ModelMaterial
s 1
f 1/1/1 2/2/1 3/3/1 4/4/1
f 5/5/2 6/6/2 7/7/2 8/8/2
f 2/2/3 1/1/3 8/9/3 7/10/3
f 4/11/4 3/12/4 6/13/4 5/14/4
f 3/12/5 2/2/5 7/10/5 6/13/5
f 1/1/6 4/15/6 5/16/6 8/9/6
f 9/17/1 10/18/1 11/19/1 12/20/1
f 13/21/2 14/22/2 15/23/2 16/24/2
f 10/18/3 9/17/3 16/25/3 15/26/3
f 12/27/4 11/28/4 14/29/4 13/30/4
f 11/28/7 10/18/7 15/26/7 14/29/7
f 9/17/8 12/31/8 13/32/8 16/25/8
