# Blender v2.79 (sub 0) OBJ File: ''
# www.blender.org
mtllib retro_light_large_oil.mtl
o lighting_panel
v -0.093750 -0.062500 0.140625
v 0.093750 -0.062500 0.140625
v 0.046875 -0.109375 0.140625
v -0.046875 -0.109375 0.140625
v -0.046875 0.109375 0.140625
v 0.046875 0.109375 0.140625
v 0.093750 0.062500 0.140625
v -0.093750 0.062500 0.140625
vt 1.125000 0.937500
vt 1.078125 0.937500
vt 1.078125 0.906250
vt 1.125000 0.906250
vt 1.375000 0.937500
vt 1.328125 0.937500
vt 1.328125 0.921875
vt 1.375000 0.921875
vt 1.625000 0.937500
vt 1.578125 0.937500
vt 1.578125 0.921875
vt 1.625000 0.921875
vn -0.0000 0.0000 1.0000
usemtl ModelMaterial
s off
f 7/1/1 8/2/1 1/3/1 2/4/1
f 2/5/1 1/6/1 4/7/1 3/8/1
f 6/9/1 5/10/1 8/11/1 7/12/1
o retro_light_large_oil
v 0.093750 0.062500 0.125000
v 0.093750 -0.062500 0.125000
v -0.093750 -0.062500 0.140625
v -0.093750 -0.062500 0.125000
v 0.093750 -0.062500 0.140625
v 0.046875 -0.109375 0.125000
v 0.046875 -0.109375 0.140625
v -0.046875 -0.109375 0.140625
v -0.046875 -0.109375 0.125000
v -0.046875 0.109375 0.125000
v -0.046875 0.109375 0.140625
v 0.046875 0.109375 0.140625
v 0.046875 0.109375 0.125000
v 0.093750 0.062500 0.140625
v -0.093750 0.062500 0.140625
v -0.093750 0.062500 0.125000
v -0.062500 0.125000 0.062500
v -0.062500 0.125000 0.125000
v 0.062500 0.125000 0.125000
v 0.062500 0.125000 0.062500
v 0.125000 0.062500 0.125000
v -0.125000 0.062500 0.125000
v -0.125000 0.062500 0.062500
v 0.125000 0.062500 0.062500
v 0.125000 -0.062500 0.062500
v -0.125000 -0.062500 0.125000
v -0.125000 -0.062500 0.062500
v 0.125000 -0.062500 0.125000
v 0.062500 -0.125000 0.062500
v 0.062500 -0.125000 0.125000
v -0.062500 -0.125000 0.125000
v -0.062500 -0.125000 0.062500
v -0.046875 0.109375 -0.062500
v -0.046875 0.109375 0.062500
v 0.046875 0.109375 0.062500
v -0.093750 0.062500 0.062500
v 0.093750 0.062500 0.062500
v 0.093750 0.062500 -0.062500
v 0.093750 -0.062500 -0.062500
v 0.093750 -0.062500 0.062500
v -0.093750 -0.062500 0.062500
v 0.046875 -0.109375 -0.062500
v 0.046875 -0.109375 0.062500
v -0.046875 -0.109375 0.062500
v -0.031250 0.218750 -0.031250
v -0.031250 0.218750 0.031250
v 0.031250 0.218750 0.031250
v 0.031250 0.218750 -0.031250
v 0.031250 0.093750 -0.031250
v 0.031250 0.093750 0.031250
v -0.031250 0.093750 0.031250
v -0.031250 0.093750 -0.031250
v -0.062500 0.203125 -0.062500
v -0.062500 0.203125 0.062500
v 0.062500 0.203125 0.062500
v 0.062500 0.203125 -0.062500
v 0.062500 0.140625 -0.062500
v 0.062500 0.140625 0.062500
v -0.062500 0.140625 0.062500
v -0.062500 0.140625 -0.062500
v -0.046875 0.109375 -0.093750
v 0.046875 0.109375 -0.062500
v 0.046875 0.109375 -0.093750
v -0.093750 0.062500 -0.093750
v -0.093750 0.062500 -0.062500
v 0.093750 0.062500 -0.093750
v -0.093750 -0.062500 -0.062500
v -0.093750 -0.062500 -0.093750
v 0.093750 -0.062500 -0.093750
v 0.046875 -0.109375 -0.093750
v -0.046875 -0.109375 -0.062500
v -0.046875 -0.109375 -0.093750
v -0.031250 -0.093750 -0.031250
v -0.031250 -0.093750 0.031250
v 0.031250 -0.093750 0.031250
v 0.031250 -0.093750 -0.031250
v 0.031250 -0.156250 -0.031250
v 0.031250 -0.156250 0.031250
v -0.031250 -0.156250 0.031250
v -0.031250 -0.156250 -0.031250
v -0.062500 -0.140625 -0.062500
v -0.062500 -0.140625 0.062500
v 0.062500 -0.140625 0.062500
v 0.062500 -0.140625 -0.062500
v 0.062500 -0.203125 -0.062500
v 0.062500 -0.203125 0.062500
v -0.062500 -0.203125 0.062500
v -0.062500 -0.203125 -0.062500
v -0.031250 0.031250 -0.125000
v -0.031250 0.031250 -0.093750
v 0.031250 0.031250 -0.093750
v 0.031250 0.031250 -0.125000
v 0.031250 -0.031250 -0.125000
v 0.031250 -0.031250 -0.093750
v -0.031250 -0.031250 -0.093750
v -0.031250 -0.031250 -0.125000
vt 1.062500 0.937500
vt 1.078125 0.937500
vt 1.078125 0.984375
vt 1.062500 0.984375
vt 1.078125 0.937500
vt 1.093750 0.937500
vt 1.093750 0.984375
vt 1.078125 0.984375
vt 1.062500 0.906250
vt 1.078125 0.906250
vt 1.140625 0.937500
vt 1.125000 0.937500
vt 1.125000 0.906250
vt 1.140625 0.906250
vt 1.015625 0.937500
vt 1.015625 0.906250
vt 1.328125 0.937500
vt 1.343750 0.937500
vt 1.343750 0.984375
vt 1.328125 0.984375
vt 1.328125 0.937500
vt 1.312500 0.937500
vt 1.312500 0.921875
vt 1.328125 0.921875
vt 1.390625 0.937500
vt 1.375000 0.937500
vt 1.375000 0.921875
vt 1.390625 0.921875
vt 1.265625 0.937500
vt 1.265625 0.921875
vt 1.562500 0.937500
vt 1.578125 0.937500
vt 1.578125 0.984375
vt 1.562500 0.984375
vt 1.562500 0.921875
vt 1.578125 0.921875
vt 1.640625 0.937500
vt 1.625000 0.937500
vt 1.625000 0.921875
vt 1.640625 0.921875
vt 1.515625 0.937500
vt 1.515625 0.921875
vt 1.796875 0.953125
vt 1.812500 0.953125
vt 1.812500 0.984375
vt 1.796875 0.984375
vt 1.812500 0.953125
vt 1.828125 0.953125
vt 1.828125 0.984375
vt 1.812500 0.984375
vt 1.796875 0.937500
vt 1.812500 0.937500
vt 1.859375 0.953125
vt 1.843750 0.953125
vt 1.843750 0.937500
vt 1.859375 0.937500
vt 1.765625 0.953125
vt 1.765625 0.937500
vt 1.093750 0.796875
vt 1.109375 0.796875
vt 1.109375 0.859375
vt 1.093750 0.859375
vt 1.093750 0.796875
vt 1.078125 0.796875
vt 1.078125 0.765625
vt 1.093750 0.765625
vt 1.171875 0.796875
vt 1.156250 0.796875
vt 1.156250 0.765625
vt 1.171875 0.765625
vt 1.015625 0.796875
vt 1.015625 0.765625
vt 1.937500 0.953125
vt 1.953125 0.953125
vt 1.953125 0.984375
vt 1.937500 0.984375
vt 1.937500 0.953125
vt 1.921875 0.953125
vt 1.921875 0.937500
vt 1.937500 0.937500
vt 1.984375 0.953125
vt 1.968750 0.953125
vt 1.968750 0.937500
vt 1.984375 0.937500
vt 1.890625 0.953125
vt 1.890625 0.937500
vt 1.312500 0.812500
vt 1.343750 0.812500
vt 1.343750 0.859375
vt 1.312500 0.859375
vt 1.343750 0.812500
vt 1.375000 0.812500
vt 1.375000 0.859375
vt 1.343750 0.859375
vt 1.312500 0.796875
vt 1.343750 0.796875
vt 1.421875 0.812500
vt 1.390625 0.812500
vt 1.390625 0.796875
vt 1.421875 0.796875
vt 1.265625 0.812500
vt 1.265625 0.796875
vt 1.593750 0.812500
vt 1.625000 0.812500
vt 1.625000 0.859375
vt 1.593750 0.859375
vt 1.593750 0.812500
vt 1.562500 0.812500
vt 1.562500 0.781250
vt 1.593750 0.781250
vt 1.671875 0.812500
vt 1.640625 0.812500
vt 1.640625 0.781250
vt 1.671875 0.781250
vt 1.515625 0.812500
vt 1.515625 0.781250
vt 1.843750 0.812500
vt 1.875000 0.812500
vt 1.875000 0.859375
vt 1.843750 0.859375
vt 1.843750 0.812500
vt 1.812500 0.812500
vt 1.812500 0.796875
vt 1.843750 0.796875
vt 1.921875 0.812500
vt 1.890625 0.812500
vt 1.890625 0.796875
vt 1.921875 0.796875
vt 1.765625 0.812500
vt 1.765625 0.796875
vt 1.156250 0.843750
vt 1.171875 0.843750
vt 1.171875 0.859375
vt 1.156250 0.859375
vt 1.171875 0.843750
vt 1.187500 0.843750
vt 1.187500 0.859375
vt 1.171875 0.859375
vt 1.156250 0.812500
vt 1.171875 0.812500
vt 1.203125 0.843750
vt 1.187500 0.843750
vt 1.187500 0.812500
vt 1.203125 0.812500
vt 1.140625 0.843750
vt 1.140625 0.812500
vt 1.046875 0.703125
vt 1.078125 0.703125
vt 1.078125 0.734375
vt 1.046875 0.734375
vt 1.078125 0.703125
vt 1.109375 0.703125
vt 1.109375 0.734375
vt 1.078125 0.734375
vt 1.046875 0.687500
vt 1.078125 0.687500
vt 1.140625 0.703125
vt 1.109375 0.703125
vt 1.109375 0.687500
vt 1.140625 0.687500
vt 1.015625 0.703125
vt 1.015625 0.687500
vt 1.312500 0.687500
vt 1.328125 0.687500
vt 1.328125 0.734375
vt 1.312500 0.734375
vt 1.328125 0.687500
vt 1.343750 0.687500
vt 1.343750 0.734375
vt 1.328125 0.734375
vt 1.312500 0.671875
vt 1.328125 0.671875
vt 1.390625 0.687500
vt 1.375000 0.687500
vt 1.375000 0.671875
vt 1.390625 0.671875
vt 1.265625 0.687500
vt 1.265625 0.671875
vt 1.578125 0.687500
vt 1.593750 0.687500
vt 1.593750 0.734375
vt 1.578125 0.734375
vt 1.578125 0.687500
vt 1.562500 0.687500
vt 1.562500 0.656250
vt 1.578125 0.656250
vt 1.640625 0.687500
vt 1.625000 0.687500
vt 1.625000 0.656250
vt 1.640625 0.656250
vt 1.515625 0.687500
vt 1.515625 0.656250
vt 1.828125 0.687500
vt 1.843750 0.687500
vt 1.843750 0.734375
vt 1.828125 0.734375
vt 1.828125 0.687500
vt 1.812500 0.687500
vt 1.812500 0.671875
vt 1.828125 0.671875
vt 1.890625 0.687500
vt 1.875000 0.687500
vt 1.875000 0.671875
vt 1.890625 0.671875
vt 1.765625 0.687500
vt 1.765625 0.671875
vt 1.156250 0.968750
vt 1.171875 0.968750
vt 1.171875 0.984375
vt 1.156250 0.984375
vt 1.171875 0.968750
vt 1.187500 0.968750
vt 1.187500 0.984375
vt 1.171875 0.984375
vt 1.156250 0.953125
vt 1.171875 0.953125
vt 1.203125 0.968750
vt 1.187500 0.968750
vt 1.187500 0.953125
vt 1.203125 0.953125
vt 1.140625 0.968750
vt 1.140625 0.953125
vt 1.046875 0.578125
vt 1.078125 0.578125
vt 1.078125 0.609375
vt 1.046875 0.609375
vt 1.078125 0.578125
vt 1.109375 0.578125
vt 1.109375 0.609375
vt 1.078125 0.609375
vt 1.046875 0.562500
vt 1.078125 0.562500
vt 1.140625 0.578125
vt 1.109375 0.578125
vt 1.109375 0.562500
vt 1.140625 0.562500
vt 1.015625 0.578125
vt 1.015625 0.562500
vt 1.406250 0.968750
vt 1.421875 0.968750
vt 1.421875 0.984375
vt 1.406250 0.984375
vt 1.421875 0.968750
vt 1.437500 0.968750
vt 1.437500 0.984375
vt 1.421875 0.984375
vt 1.406250 0.953125
vt 1.421875 0.953125
vt 1.453125 0.968750
vt 1.437500 0.968750
vt 1.437500 0.953125
vt 1.453125 0.953125
vt 1.390625 0.968750
vt 1.390625 0.953125
vn -0.0000 1.0000 0.0000
vn 0.0000 -1.0000 0.0000
vn -1.0000 -0.0000 0.0000
vn 1.0000 0.0000 0.0000
vn 0.0000 0.0000 -1.0000
vn -0.7071 -0.7071 0.0000
vn 0.7071 -0.7071 0.0000
vn -0.7071 0.7071 0.0000
vn 0.7071 0.7071 0.0000
vn 0.0000 -0.0000 1.0000
usemtl ModelMaterial
s off
f 24/13/2 23/14/2 22/15/2 9/16/2
f 10/17/3 13/18/3 11/19/3 12/20/3
f 23/14/4 24/13/4 12/21/4 11/22/4
f 9/23/5 22/24/5 13/25/5 10/26/5
f 24/13/6 9/27/6 10/28/6 12/21/6
f 14/29/3 15/30/3 16/31/3 17/32/3
f 11/33/7 12/34/7 17/35/7 16/36/7
f 10/37/8 13/38/8 15/39/8 14/40/8
f 12/34/6 10/41/6 14/42/6 17/35/6
f 18/43/2 19/44/2 20/45/2 21/46/2
f 19/44/9 18/43/9 24/47/9 23/48/9
f 21/49/10 20/50/10 22/51/10 9/52/10
f 18/43/6 21/53/6 9/54/6 24/47/6
f 25/55/2 26/56/2 27/57/2 28/58/2
f 32/59/3 29/60/3 30/61/3 31/62/3
f 26/56/9 25/55/9 31/63/9 30/64/9
f 28/65/10 27/66/10 29/67/10 32/68/10
f 27/66/11 26/56/11 30/64/11 29/67/11
f 25/55/6 28/69/6 32/70/6 31/63/6
f 33/71/3 36/72/3 34/73/3 35/74/3
f 30/75/4 31/76/4 35/77/4 34/78/4
f 32/79/5 29/80/5 36/81/5 33/82/5
f 29/80/11 30/75/11 34/78/11 36/81/11
f 31/76/6 32/83/6 33/84/6 35/77/6
f 37/85/3 38/86/3 39/87/3 40/88/3
f 34/89/7 35/90/7 40/91/7 39/92/7
f 33/93/8 36/94/8 38/95/8 37/96/8
f 36/94/11 34/89/11 39/92/11 38/95/11
f 35/90/6 33/97/6 37/98/6 40/91/6
f 41/99/2 42/100/2 43/101/2 70/102/2
f 46/103/3 45/104/3 44/105/3 73/106/3
f 42/100/9 41/99/9 73/107/9 44/108/9
f 70/109/10 43/110/10 45/111/10 46/112/10
f 43/110/11 42/100/11 44/108/11 45/111/11
f 41/99/6 70/113/6 46/114/6 73/107/6
f 47/115/3 48/116/3 49/117/3 75/118/3
f 44/119/4 73/120/4 75/121/4 49/122/4
f 46/123/5 45/124/5 48/125/5 47/126/5
f 45/124/11 44/119/11 49/122/11 48/125/11
f 73/120/6 46/127/6 47/128/6 75/121/6
f 50/129/3 51/130/3 52/131/3 79/132/3
f 49/133/7 75/134/7 79/135/7 52/136/7
f 47/137/8 48/138/8 51/139/8 50/140/8
f 48/138/11 49/133/11 52/136/11 51/139/11
f 75/134/6 47/141/6 50/142/6 79/135/6
f 53/143/2 54/144/2 55/145/2 56/146/2
f 57/147/3 58/148/3 59/149/3 60/150/3
f 54/144/4 53/143/4 60/151/4 59/152/4
f 56/153/5 55/154/5 58/155/5 57/156/5
f 55/154/11 54/144/11 59/152/11 58/155/11
f 53/143/6 56/157/6 57/158/6 60/151/6
f 61/159/2 62/160/2 63/161/2 64/162/2
f 65/163/3 66/164/3 67/165/3 68/166/3
f 62/160/4 61/159/4 68/167/4 67/168/4
f 64/169/5 63/170/5 66/171/5 65/172/5
f 63/170/11 62/160/11 67/168/11 66/171/11
f 61/159/6 64/173/6 65/174/6 68/167/6
f 69/175/2 41/176/2 70/177/2 71/178/2
f 74/179/3 46/180/3 73/181/3 72/182/3
f 41/176/9 69/175/9 72/183/9 73/184/9
f 71/185/10 70/186/10 46/187/10 74/188/10
f 69/175/6 71/189/6 74/190/6 72/183/6
f 77/191/3 47/192/3 75/193/3 76/194/3
f 73/195/4 72/196/4 76/197/4 75/198/4
f 74/199/5 46/200/5 47/201/5 77/202/5
f 72/196/6 74/203/6 77/204/6 76/197/6
f 78/205/3 50/206/3 79/207/3 80/208/3
f 75/209/7 76/210/7 80/211/7 79/212/7
f 77/213/8 47/214/8 50/215/8 78/216/8
f 76/210/6 77/217/6 78/218/6 80/211/6
f 81/219/2 82/220/2 83/221/2 84/222/2
f 85/223/3 86/224/3 87/225/3 88/226/3
f 82/220/4 81/219/4 88/227/4 87/228/4
f 84/229/5 83/230/5 86/231/5 85/232/5
f 83/230/11 82/220/11 87/228/11 86/231/11
f 81/219/6 84/233/6 85/234/6 88/227/6
f 89/235/2 90/236/2 91/237/2 92/238/2
f 93/239/3 94/240/3 95/241/3 96/242/3
f 90/236/4 89/235/4 96/243/4 95/244/4
f 92/245/5 91/246/5 94/247/5 93/248/5
f 91/246/11 90/236/11 95/244/11 94/247/11
f 89/235/6 92/249/6 93/250/6 96/243/6
f 97/251/2 98/252/2 99/253/2 100/254/2
f 101/255/3 102/256/3 103/257/3 104/258/3
f 98/252/4 97/251/4 104/259/4 103/260/4
f 100/261/5 99/262/5 102/263/5 101/264/5
f 99/262/11 98/252/11 103/260/11 102/263/11
f 97/251/6 100/265/6 101/266/6 104/259/6
o lighting_panel_headlight
v -0.093750 -0.062500 0.140625
v 0.093750 -0.062500 0.140625
v 0.046875 -0.109375 0.140625
v -0.046875 -0.109375 0.140625
v -0.046875 0.109375 0.140625
v 0.046875 0.109375 0.140625
v 0.093750 0.062500 0.140625
v -0.093750 0.062500 0.140625
vt 1.125000 0.937500
vt 1.078125 0.937500
vt 1.078125 0.906250
vt 1.125000 0.906250
vt 1.375000 0.937500
vt 1.328125 0.937500
vt 1.328125 0.921875
vt 1.375000 0.921875
vt 1.625000 0.937500
vt 1.578125 0.937500
vt 1.578125 0.921875
vt 1.625000 0.921875
vn -0.0000 0.0000 1.0000
usemtl ModelMaterial.001
s off
f 111/267/12 112/268/12 105/269/12 106/270/12
f 106/271/12 105/272/12 108/273/12 107/274/12
f 110/275/12 109/276/12 112/277/12 111/278/12
