# Blender v2.79 (sub 0) OBJ File: ''
# www.blender.org
mtllib trin_stacked_boxes.mtl
o crate_stacked_box
v 0.287829 0.312500 0.346814
v 0.209432 0.312500 -0.399078
v -0.287829 0.312500 -0.346814
v -0.209432 0.312500 0.399078
v -0.209432 0.000000 0.399078
v -0.287829 0.000000 -0.346814
v 0.209432 -0.000000 -0.399078
v 0.287829 -0.000000 0.346814
v 0.223232 0.687500 0.391526
v 0.275550 0.687500 -0.356647
v -0.223232 0.687500 -0.391526
v -0.275550 0.687500 0.356647
v -0.275550 0.375000 0.356647
v -0.223232 0.375000 -0.391526
v 0.275550 0.375000 -0.356647
v 0.223232 0.375000 0.391526
v 0.305001 0.375000 0.360720
v 0.223338 0.375000 -0.416250
v -0.305001 0.375000 -0.360720
v -0.223338 0.375000 0.416250
v -0.223338 0.312500 0.416250
v -0.305001 0.312500 -0.360720
v 0.223338 0.312500 -0.416250
v 0.305001 0.312500 0.360720
v 0.237729 0.750000 0.408203
v 0.292227 0.750000 -0.371144
v -0.237729 0.750000 -0.408203
v -0.292226 0.750000 0.371144
v -0.292226 0.687500 0.371144
v -0.237729 0.687500 -0.408203
v 0.292227 0.687500 -0.371144
v 0.237729 0.687500 0.408203
vt 1.140625 0.859375
vt 1.328125 0.859375
vt 1.328125 0.984375
vt 1.140625 0.984375
vt 1.328125 0.859375
vt 1.515625 0.859375
vt 1.515625 0.984375
vt 1.328125 0.984375
vt 1.140625 0.781250
vt 1.328125 0.781250
vt 1.640625 0.859375
vt 1.453125 0.859375
vt 1.453125 0.781250
vt 1.640625 0.781250
vt 1.015625 0.859375
vt 1.015625 0.781250
vt 1.140625 0.609375
vt 1.328125 0.609375
vt 1.328125 0.734375
vt 1.140625 0.734375
vt 1.328125 0.609375
vt 1.515625 0.609375
vt 1.515625 0.734375
vt 1.328125 0.734375
vt 1.140625 0.531250
vt 1.328125 0.531250
vt 1.640625 0.609375
vt 1.453125 0.609375
vt 1.453125 0.531250
vt 1.640625 0.531250
vt 1.015625 0.609375
vt 1.015625 0.531250
vt 1.156250 0.343750
vt 1.359375 0.343750
vt 1.359375 0.484375
vt 1.156250 0.484375
vt 1.359375 0.343750
vt 1.562500 0.343750
vt 1.562500 0.484375
vt 1.359375 0.484375
vt 1.156250 0.328125
vt 1.359375 0.328125
vt 1.703125 0.343750
vt 1.500000 0.343750
vt 1.500000 0.328125
vt 1.703125 0.328125
vt 1.015625 0.343750
vt 1.015625 0.328125
vt 1.156250 0.093750
vt 1.359375 0.093750
vt 1.359375 0.234375
vt 1.156250 0.234375
vt 1.359375 0.093750
vt 1.562500 0.093750
vt 1.562500 0.234375
vt 1.359375 0.234375
vt 1.156250 0.078125
vt 1.359375 0.078125
vt 1.703125 0.093750
vt 1.500000 0.093750
vt 1.500000 0.078125
vt 1.703125 0.078125
vt 1.015625 0.093750
vt 1.015625 0.078125
vn 0.0000 1.0000 -0.0000
vn -0.0000 -1.0000 0.0000
vn 0.9945 -0.0000 -0.1045
vn -0.9945 0.0000 0.1045
vn -0.1045 0.0000 -0.9945
vn 0.1045 -0.0000 0.9945
vn 0.9976 -0.0000 0.0698
vn -0.9976 0.0000 -0.0698
vn 0.0698 -0.0000 -0.9976
vn -0.0698 0.0000 0.9976
usemtl ModelMaterial
s off
f 1/1/1 2/2/1 3/3/1 4/4/1
f 5/5/2 6/6/2 7/7/2 8/8/2
f 2/2/3 1/1/3 8/9/3 7/10/3
f 4/11/4 3/12/4 6/13/4 5/14/4
f 3/12/5 2/2/5 7/10/5 6/13/5
f 1/1/6 4/15/6 5/16/6 8/9/6
f 9/17/1 10/18/1 11/19/1 12/20/1
f 13/21/2 14/22/2 15/23/2 16/24/2
f 10/18/7 9/17/7 16/25/7 15/26/7
f 12/27/8 11/28/8 14/29/8 13/30/8
f 11/28/9 10/18/9 15/26/9 14/29/9
f 9/17/10 12/31/10 13/32/10 16/25/10
f 17/33/1 18/34/1 19/35/1 20/36/1
f 21/37/2 22/38/2 23/39/2 24/40/2
f 18/34/3 17/33/3 24/41/3 23/42/3
f 20/43/4 19/44/4 22/45/4 21/46/4
f 19/44/5 18/34/5 23/42/5 22/45/5
f 17/33/6 20/47/6 21/48/6 24/41/6
f 25/49/1 26/50/1 27/51/1 28/52/1
f 29/53/2 30/54/2 31/55/2 32/56/2
f 26/50/7 25/49/7 32/57/7 31/58/7
f 28/59/8 27/60/8 30/61/8 29/62/8
f 27/60/9 26/50/9 31/58/9 30/61/9
f 25/49/10 28/63/10 29/64/10 32/57/10
