# Blender v2.79 (sub 0) OBJ File: ''
# www.blender.org
mtllib trin_seat_1.mtl
o trin_seat_1
v -0.437500 -0.062500 -0.250000
v -0.437500 -0.000000 0.312500
v 0.437500 0.000000 0.312500
v 0.437500 -0.062500 -0.250000
v 0.437500 -0.250000 -0.250000
v 0.437500 -0.250000 0.312500
v -0.437500 -0.250000 0.312500
v -0.437500 -0.250000 -0.250000
v -0.437500 -0.000000 0.312500
v -0.375000 -0.062500 0.437500
v 0.375000 -0.062500 0.437500
v 0.437500 0.000000 0.312500
v 0.437500 -0.250000 0.312500
v 0.375000 -0.250000 0.437500
v -0.375000 -0.250000 0.437500
v -0.437500 -0.250000 0.312500
v -0.437500 -0.062500 -0.437500
v -0.437500 -0.062500 -0.250000
v 0.437500 -0.062500 -0.250000
v 0.437500 -0.062500 -0.437500
v 0.437500 -0.250000 -0.437500
v 0.437500 -0.250000 -0.250000
v -0.437500 -0.250000 -0.250000
v -0.437500 -0.250000 -0.437500
v -0.375000 0.500000 -0.500000
v -0.375000 0.500000 -0.312500
v 0.375000 0.500000 -0.312500
v 0.375000 0.500000 -0.500000
v 0.437500 -0.062500 -0.437500
v 0.437500 -0.062500 -0.250000
v -0.437500 -0.062500 -0.250000
v -0.437500 -0.062500 -0.437500
v -0.312500 0.625000 -0.500000
v -0.312500 0.625000 -0.375000
v 0.312500 0.625000 -0.375000
v 0.312500 0.625000 -0.500000
v 0.375000 0.500000 -0.500000
v 0.375000 0.500000 -0.312500
v -0.375000 0.500000 -0.312500
v -0.375000 0.500000 -0.500000
v -0.250000 0.843750 -0.531250
v -0.250000 0.812500 -0.406250
v 0.250000 0.812500 -0.406250
v 0.250000 0.843750 -0.531250
v 0.250000 0.656250 -0.500000
v 0.250000 0.656250 -0.375000
v -0.250000 0.656250 -0.375000
v -0.250000 0.656250 -0.500000
v -0.187500 0.656250 -0.468750
v -0.187500 0.656250 -0.406250
v -0.125000 0.656250 -0.406250
v -0.125000 0.656250 -0.468750
v -0.125000 0.593750 -0.468750
v -0.125000 0.593750 -0.406250
v -0.187500 0.593750 -0.406250
v -0.187500 0.593750 -0.468750
v 0.125000 0.656250 -0.468750
v 0.125000 0.656250 -0.406250
v 0.187500 0.656250 -0.406250
v 0.187500 0.656250 -0.468750
v 0.187500 0.593750 -0.468750
v 0.187500 0.593750 -0.406250
v 0.125000 0.593750 -0.406250
v 0.125000 0.593750 -0.468750
vt 1.117188 0.765625
vt 1.187500 0.765625
vt 1.187500 0.984375
vt 1.117188 0.984375
vt 1.187500 0.765625
vt 1.257812 0.765625
vt 1.257812 0.984375
vt 1.187500 0.984375
vt 1.117188 0.703125
vt 1.187500 0.703125
vt 1.367188 0.765625
vt 1.296875 0.765625
vt 1.296875 0.703125
vt 1.367188 0.703125
vt 1.007812 0.765625
vt 1.007812 0.703125
vt 1.476562 0.796875
vt 1.492188 0.796875
vt 1.492188 0.984375
vt 1.476562 0.984375
vt 1.492188 0.796875
vt 1.507812 0.796875
vt 1.507812 0.984375
vt 1.492188 0.984375
vt 1.476562 0.734375
vt 1.492188 0.734375
vt 1.601562 0.796875
vt 1.585938 0.796875
vt 1.585938 0.734375
vt 1.601562 0.734375
vt 1.382812 0.796875
vt 1.382812 0.734375
vt 1.742188 0.765625
vt 1.765625 0.765625
vt 1.765625 0.984375
vt 1.742188 0.984375
vt 1.765625 0.765625
vt 1.789062 0.765625
vt 1.789062 0.984375
vt 1.765625 0.984375
vt 1.742188 0.718750
vt 1.765625 0.718750
vt 1.898438 0.765625
vt 1.875000 0.765625
vt 1.875000 0.718750
vt 1.898438 0.718750
vt 1.632812 0.765625
vt 1.632812 0.718750
vt 1.117188 0.390625
vt 1.140625 0.390625
vt 1.140625 0.609375
vt 1.117188 0.609375
vt 1.140625 0.390625
vt 1.164062 0.390625
vt 1.164062 0.609375
vt 1.140625 0.609375
vt 1.117188 0.250000
vt 1.140625 0.250000
vt 1.273438 0.390625
vt 1.250000 0.390625
vt 1.250000 0.250000
vt 1.273438 0.250000
vt 1.007812 0.390625
vt 1.007812 0.250000
vt 1.414062 0.421875
vt 1.437500 0.421875
vt 1.437500 0.609375
vt 1.414062 0.609375
vt 1.437500 0.421875
vt 1.460938 0.421875
vt 1.460938 0.609375
vt 1.437500 0.609375
vt 1.414062 0.390625
vt 1.437500 0.390625
vt 1.554688 0.421875
vt 1.531250 0.421875
vt 1.531250 0.390625
vt 1.554688 0.390625
vt 1.320312 0.421875
vt 1.320312 0.390625
vt 1.632812 0.859375
vt 1.648438 0.859375
vt 1.648438 0.984375
vt 1.632812 0.984375
vt 1.648438 0.859375
vt 1.664062 0.859375
vt 1.664062 0.984375
vt 1.648438 0.984375
vt 1.632812 0.812500
vt 1.648438 0.812500
vt 1.726562 0.859375
vt 1.710938 0.859375
vt 1.710938 0.812500
vt 1.726562 0.812500
vt 1.570312 0.859375
vt 1.570312 0.812500
vt 1.015625 0.968750
vt 1.023438 0.968750
vt 1.023438 0.984375
vt 1.015625 0.984375
vt 1.023438 0.968750
vt 1.031250 0.968750
vt 1.031250 0.984375
vt 1.023438 0.984375
vt 1.015625 0.953125
vt 1.023438 0.953125
vt 1.039062 0.968750
vt 1.031250 0.968750
vt 1.031250 0.953125
vt 1.039062 0.953125
vt 1.007812 0.968750
vt 1.007812 0.953125
vt 1.078125 0.968750
vt 1.085938 0.968750
vt 1.085938 0.984375
vt 1.078125 0.984375
vt 1.085938 0.968750
vt 1.093750 0.968750
vt 1.093750 0.984375
vt 1.085938 0.984375
vt 1.078125 0.953125
vt 1.085938 0.953125
vt 1.101562 0.968750
vt 1.093750 0.968750
vt 1.093750 0.953125
vt 1.101562 0.953125
vt 1.070312 0.968750
vt 1.070312 0.953125
vn -0.0000 0.9939 -0.1104
vn 0.0000 -1.0000 0.0000
vn -1.0000 -0.0000 -0.0000
vn 1.0000 0.0000 0.0000
vn -0.0000 -0.0000 1.0000
vn 0.0000 0.0000 -1.0000
vn -0.0000 0.8944 0.4472
vn -0.8944 -0.0000 0.4472
vn 0.8944 0.0000 0.4472
vn -0.0000 1.0000 0.0000
vn -0.9939 0.1104 0.0000
vn 0.9939 0.1104 0.0000
vn -0.0000 0.1104 0.9939
vn 0.0000 -0.1104 -0.9939
vn -0.8944 0.4472 0.0000
vn 0.8944 0.4472 0.0000
vn -0.0000 0.4472 0.8944
vn -0.0000 0.9701 0.2425
vn -0.0000 0.1961 0.9806
vn 0.0000 -0.1644 -0.9864
usemtl ModelMaterial
s off
f 1/1/1 2/2/1 3/3/1 4/4/1
f 5/5/2 6/6/2 7/7/2 8/8/2
f 2/2/3 1/1/3 8/9/3 7/10/3
f 4/11/4 3/12/4 6/13/4 5/14/4
f 3/12/5 2/2/5 7/10/5 6/13/5
f 1/1/6 4/15/6 5/16/6 8/9/6
f 9/17/7 10/18/7 11/19/7 12/20/7
f 13/21/2 14/22/2 15/23/2 16/24/2
f 10/18/8 9/17/8 16/25/8 15/26/8
f 12/27/9 11/28/9 14/29/9 13/30/9
f 11/28/5 10/18/5 15/26/5 14/29/5
f 9/17/6 12/31/6 13/32/6 16/25/6
f 17/33/10 18/34/10 19/35/10 20/36/10
f 21/37/2 22/38/2 23/39/2 24/40/2
f 18/34/3 17/33/3 24/41/3 23/42/3
f 20/43/4 19/44/4 22/45/4 21/46/4
f 19/44/5 18/34/5 23/42/5 22/45/5
f 17/33/6 20/47/6 21/48/6 24/41/6
f 25/49/10 26/50/10 27/51/10 28/52/10
f 29/53/2 30/54/2 31/55/2 32/56/2
f 26/50/11 25/49/11 32/57/11 31/58/11
f 28/59/12 27/60/12 30/61/12 29/62/12
f 27/60/13 26/50/13 31/58/13 30/61/13
f 25/49/14 28/63/14 29/64/14 32/57/14
f 33/65/10 34/66/10 35/67/10 36/68/10
f 37/69/2 38/70/2 39/71/2 40/72/2
f 34/66/15 33/65/15 40/73/15 39/74/15
f 36/75/16 35/76/16 38/77/16 37/78/16
f 35/76/17 34/66/17 39/74/17 38/77/17
f 33/65/6 36/79/6 37/80/6 40/73/6
f 41/81/18 42/82/18 43/83/18 44/84/18
f 45/85/2 46/86/2 47/87/2 48/88/2
f 42/82/3 41/81/3 48/89/3 47/90/3
f 44/91/4 43/92/4 46/93/4 45/94/4
f 43/92/19 42/82/19 47/90/19 46/93/19
f 41/81/20 44/95/20 45/96/20 48/89/20
f 49/97/10 50/98/10 51/99/10 52/100/10
f 53/101/2 54/102/2 55/103/2 56/104/2
f 50/98/3 49/97/3 56/105/3 55/106/3
f 52/107/4 51/108/4 54/109/4 53/110/4
f 51/108/5 50/98/5 55/106/5 54/109/5
f 49/97/6 52/111/6 53/112/6 56/105/6
f 57/113/10 58/114/10 59/115/10 60/116/10
f 61/117/2 62/118/2 63/119/2 64/120/2
f 58/114/3 57/113/3 64/121/3 63/122/3
f 60/123/4 59/124/4 62/125/4 61/126/4
f 59/124/5 58/114/5 63/122/5 62/125/5
f 57/113/6 60/127/6 61/128/6 64/121/6
