# Blender v2.79 (sub 0) OBJ File: ''
# www.blender.org
mtllib trinwheel30t10d.obj.mtl
o trinwheel30t10d.obj
v -0.312500 -0.437500 -0.187500
v -0.312500 -0.437500 0.187500
v 0.312500 -0.437500 0.187500
v 0.312500 -0.437500 -0.187500
v 0.312500 -0.937500 -0.437500
v 0.312500 -0.937500 0.437500
v -0.312500 -0.937500 0.437500
v -0.312500 -0.937500 -0.437500
v -0.312500 0.937500 -0.437500
v -0.312500 0.937500 0.437500
v 0.312500 0.937500 0.437500
v 0.312500 0.937500 -0.437500
v 0.312500 0.437500 -0.187500
v 0.312500 0.437500 0.187500
v -0.312500 0.437500 0.187500
v -0.312500 0.437500 -0.187500
v -0.312500 0.437500 -0.937500
v -0.312500 0.187500 -0.437500
v 0.312500 0.187500 -0.437500
v 0.312500 0.437500 -0.937500
v 0.312500 -0.437500 -0.937500
v 0.312500 -0.187500 -0.437500
v -0.312500 -0.187500 -0.437500
v -0.312500 -0.437500 -0.937500
v -0.312500 0.187500 0.437500
v -0.312500 0.437500 0.937500
v 0.312500 0.437500 0.937500
v 0.312500 0.187500 0.437500
v 0.312500 -0.187500 0.437500
v 0.312500 -0.437500 0.937500
v -0.312500 -0.437500 0.937500
v -0.312500 -0.187500 0.437500
v -0.312500 0.437500 0.187500
v -0.312500 0.937500 0.437500
v 0.312500 0.937500 0.437500
v 0.312500 0.437500 0.187500
v 0.312500 0.187500 0.437500
v 0.312500 0.437500 0.937500
v -0.312500 0.437500 0.937500
v -0.312500 0.187500 0.437500
v -0.312500 -0.187500 0.437500
v -0.312500 -0.437500 0.937500
v 0.312500 -0.437500 0.937500
v 0.312500 -0.187500 0.437500
v 0.312500 -0.437500 0.187500
v 0.312500 -0.937500 0.437500
v -0.312500 -0.937500 0.437500
v -0.312500 -0.437500 0.187500
v -0.312500 -0.437500 -0.937500
v -0.312500 -0.187500 -0.437500
v 0.312500 -0.187500 -0.437500
v 0.312500 -0.437500 -0.937500
v 0.312500 -0.937500 -0.437500
v 0.312500 -0.437500 -0.187500
v -0.312500 -0.437500 -0.187500
v -0.312500 -0.937500 -0.437500
v -0.312500 0.937500 -0.437500
v -0.312500 0.437500 -0.187500
v 0.312500 0.437500 -0.187500
v 0.312500 0.937500 -0.437500
v 0.312500 0.437500 -0.937500
v 0.312500 0.187500 -0.437500
v -0.312500 0.187500 -0.437500
v -0.312500 0.437500 -0.937500
v -0.312500 0.187500 -0.437500
v -0.312500 0.187500 0.437500
v 0.250000 0.187500 0.437500
v 0.250000 0.187500 -0.437500
v 0.250000 -0.187500 -0.437500
v 0.250000 -0.187500 0.437500
v -0.312500 -0.187500 0.437500
v -0.312500 -0.187500 -0.437500
v -0.312500 0.437500 -0.187500
v -0.312500 0.437500 0.187500
v 0.250000 0.437500 0.187500
v 0.250000 0.437500 -0.187500
v 0.250000 0.187500 -0.437500
v 0.250000 0.187500 0.437500
v -0.312500 0.187500 0.437500
v -0.312500 0.187500 -0.437500
v -0.312500 -0.187500 -0.437500
v -0.312500 -0.187500 0.437500
v 0.250000 -0.187500 0.437500
v 0.250000 -0.187500 -0.437500
v 0.250000 -0.437500 -0.187500
v 0.250000 -0.437500 0.187500
v -0.312500 -0.437500 0.187500
v -0.312500 -0.437500 -0.187500
v 0.218750 0.187500 -0.187500
v 0.218750 0.187500 0.187500
v 0.281250 0.187500 0.187500
v 0.281250 0.187500 -0.187500
v 0.281250 -0.187500 -0.187500
v 0.281250 -0.187500 0.187500
v 0.218750 -0.187500 0.187500
v 0.218750 -0.187500 -0.187500
vt 1.085938 0.914062
vt 1.195312 0.914062
vt 1.195312 0.992188
vt 1.085938 0.992188
vt 1.195312 0.914062
vt 1.304688 0.914062
vt 1.304688 0.992188
vt 1.195312 0.992188
vt 1.085938 0.851562
vt 1.195312 0.851562
vt 1.382812 0.914062
vt 1.273438 0.914062
vt 1.273438 0.851562
vt 1.382812 0.851562
vt 1.007812 0.914062
vt 1.007812 0.851562
vt 1.523438 0.914062
vt 1.632812 0.914062
vt 1.632812 0.992188
vt 1.523438 0.992188
vt 1.632812 0.914062
vt 1.742188 0.914062
vt 1.742188 0.992188
vt 1.632812 0.992188
vt 1.523438 0.851562
vt 1.632812 0.851562
vt 1.820312 0.914062
vt 1.710938 0.914062
vt 1.710938 0.851562
vt 1.820312 0.851562
vt 1.445312 0.914062
vt 1.445312 0.851562
vt 1.085938 0.726562
vt 1.148438 0.726562
vt 1.148438 0.804688
vt 1.085938 0.804688
vt 1.148438 0.726562
vt 1.210938 0.726562
vt 1.210938 0.804688
vt 1.148438 0.804688
vt 1.085938 0.617188
vt 1.148438 0.617188
vt 1.289062 0.726562
vt 1.226562 0.726562
vt 1.226562 0.617188
vt 1.289062 0.617188
vt 1.007812 0.726562
vt 1.007812 0.617188
vt 1.398438 0.726562
vt 1.460938 0.726562
vt 1.460938 0.804688
vt 1.398438 0.804688
vt 1.460938 0.726562
vt 1.523438 0.726562
vt 1.523438 0.804688
vt 1.460938 0.804688
vt 1.398438 0.617188
vt 1.460938 0.617188
vt 1.601562 0.726562
vt 1.539062 0.726562
vt 1.539062 0.617188
vt 1.601562 0.617188
vt 1.320312 0.726562
vt 1.320312 0.617188
vt 1.710938 0.726562
vt 1.781250 0.726562
vt 1.781250 0.804688
vt 1.710938 0.804688
vt 1.781250 0.726562
vt 1.851562 0.726562
vt 1.851562 0.804688
vt 1.781250 0.804688
vt 1.710938 0.656250
vt 1.781250 0.656250
vt 1.929688 0.726562
vt 1.859375 0.726562
vt 1.859375 0.656250
vt 1.929688 0.656250
vt 1.632812 0.726562
vt 1.632812 0.656250
vt 1.648438 0.539062
vt 1.718750 0.539062
vt 1.718750 0.617188
vt 1.648438 0.617188
vt 1.718750 0.539062
vt 1.789062 0.539062
vt 1.789062 0.617188
vt 1.718750 0.617188
vt 1.648438 0.468750
vt 1.718750 0.468750
vt 1.867188 0.539062
vt 1.796875 0.539062
vt 1.796875 0.468750
vt 1.867188 0.468750
vt 1.570312 0.539062
vt 1.570312 0.468750
vt 1.085938 0.476562
vt 1.156250 0.476562
vt 1.156250 0.554688
vt 1.085938 0.554688
vt 1.156250 0.476562
vt 1.226562 0.476562
vt 1.226562 0.554688
vt 1.156250 0.554688
vt 1.085938 0.406250
vt 1.156250 0.406250
vt 1.304688 0.476562
vt 1.234375 0.476562
vt 1.234375 0.406250
vt 1.304688 0.406250
vt 1.007812 0.476562
vt 1.007812 0.406250
vt 1.398438 0.414062
vt 1.468750 0.414062
vt 1.468750 0.492188
vt 1.398438 0.492188
vt 1.468750 0.414062
vt 1.539062 0.414062
vt 1.539062 0.492188
vt 1.468750 0.492188
vt 1.398438 0.343750
vt 1.468750 0.343750
vt 1.617188 0.414062
vt 1.546875 0.414062
vt 1.546875 0.343750
vt 1.617188 0.343750
vt 1.320312 0.414062
vt 1.320312 0.343750
vt 1.703125 0.359375
vt 1.812500 0.359375
vt 1.812500 0.429688
vt 1.703125 0.429688
vt 1.812500 0.359375
vt 1.921875 0.359375
vt 1.921875 0.429688
vt 1.812500 0.429688
vt 1.703125 0.312500
vt 1.812500 0.312500
vt 1.992188 0.359375
vt 1.882812 0.359375
vt 1.882812 0.312500
vt 1.992188 0.312500
vt 1.632812 0.359375
vt 1.632812 0.312500
vt 1.078125 0.296875
vt 1.187500 0.296875
vt 1.187500 0.367188
vt 1.078125 0.367188
vt 1.187500 0.296875
vt 1.296875 0.296875
vt 1.296875 0.367188
vt 1.187500 0.367188
vt 1.078125 0.265625
vt 1.187500 0.265625
vt 1.367188 0.296875
vt 1.257812 0.296875
vt 1.257812 0.265625
vt 1.367188 0.265625
vt 1.007812 0.296875
vt 1.007812 0.265625
vt 1.390625 0.234375
vt 1.500000 0.234375
vt 1.500000 0.304688
vt 1.390625 0.304688
vt 1.500000 0.234375
vt 1.609375 0.234375
vt 1.609375 0.304688
vt 1.500000 0.304688
vt 1.390625 0.203125
vt 1.500000 0.203125
vt 1.679688 0.234375
vt 1.570312 0.234375
vt 1.570312 0.203125
vt 1.679688 0.203125
vt 1.320312 0.234375
vt 1.320312 0.203125
vt 1.328125 0.984375
vt 1.375000 0.984375
vt 1.375000 0.992188
vt 1.328125 0.992188
vt 1.375000 0.984375
vt 1.421875 0.984375
vt 1.421875 0.992188
vt 1.375000 0.992188
vt 1.328125 0.937500
vt 1.375000 0.937500
vt 1.429688 0.984375
vt 1.382812 0.984375
vt 1.382812 0.937500
vt 1.429688 0.937500
vt 1.320312 0.984375
vt 1.320312 0.937500
vn -0.0000 1.0000 0.0000
vn 0.0000 -1.0000 -0.0000
vn -1.0000 -0.0000 -0.0000
vn 1.0000 0.0000 0.0000
vn -0.0000 0.4472 0.8944
vn -0.0000 0.4472 -0.8944
vn 0.0000 -0.4472 0.8944
vn 0.0000 -0.4472 -0.8944
vn -0.0000 0.8944 0.4472
vn 0.0000 -0.8944 0.4472
vn -0.0000 0.0000 1.0000
vn 0.0000 0.0000 -1.0000
vn -0.0000 0.8944 -0.4472
vn 0.0000 -0.8944 -0.4472
vn -0.0000 0.7071 0.7071
vn 0.0000 -0.7071 -0.7071
vn 0.0000 -0.7071 0.7071
vn -0.0000 0.7071 -0.7071
usemtl ModelMaterial
s off
f 1/1/1 2/2/1 3/3/1 4/4/1
f 5/5/2 6/6/2 7/7/2 8/8/2
f 2/2/3 1/1/3 8/9/3 7/10/3
f 4/11/4 3/12/4 6/13/4 5/14/4
f 3/12/5 2/2/5 7/10/5 6/13/5
f 1/1/6 4/15/6 5/16/6 8/9/6
f 9/17/1 10/18/1 11/19/1 12/20/1
f 13/21/2 14/22/2 15/23/2 16/24/2
f 10/18/3 9/17/3 16/25/3 15/26/3
f 12/27/4 11/28/4 14/29/4 13/30/4
f 11/28/7 10/18/7 15/26/7 14/29/7
f 9/17/8 12/31/8 13/32/8 16/25/8
f 17/33/9 18/34/9 19/35/9 20/36/9
f 21/37/10 22/38/10 23/39/10 24/40/10
f 18/34/3 17/33/3 24/41/3 23/42/3
f 20/43/4 19/44/4 22/45/4 21/46/4
f 19/44/11 18/34/11 23/42/11 22/45/11
f 17/33/12 20/47/12 21/48/12 24/41/12
f 25/49/13 26/50/13 27/51/13 28/52/13
f 29/53/14 30/54/14 31/55/14 32/56/14
f 26/50/3 25/49/3 32/57/3 31/58/3
f 28/59/4 27/60/4 30/61/4 29/62/4
f 27/60/11 26/50/11 31/58/11 30/61/11
f 25/49/12 28/63/12 29/64/12 32/57/12
f 33/65/6 34/66/6 35/67/6 36/68/6
f 37/69/10 38/70/10 39/71/10 40/72/10
f 34/66/3 33/65/3 40/73/3 39/74/3
f 36/75/4 35/76/4 38/77/4 37/78/4
f 35/76/15 34/66/15 39/74/15 38/77/15
f 33/65/16 36/79/16 37/80/16 40/73/16
f 41/81/9 42/82/9 43/83/9 44/84/9
f 45/85/8 46/86/8 47/87/8 48/88/8
f 42/82/3 41/81/3 48/89/3 47/90/3
f 44/91/4 43/92/4 46/93/4 45/94/4
f 43/92/17 42/82/17 47/90/17 46/93/17
f 41/81/18 44/95/18 45/96/18 48/89/18
f 49/97/13 50/98/13 51/99/13 52/100/13
f 53/101/7 54/102/7 55/103/7 56/104/7
f 50/98/3 49/97/3 56/105/3 55/106/3
f 52/107/4 51/108/4 54/109/4 53/110/4
f 51/108/15 50/98/15 55/106/15 54/109/15
f 49/97/16 52/111/16 53/112/16 56/105/16
f 57/113/5 58/114/5 59/115/5 60/116/5
f 61/117/14 62/118/14 63/119/14 64/120/14
f 58/114/3 57/113/3 64/121/3 63/122/3
f 60/123/4 59/124/4 62/125/4 61/126/4
f 59/124/17 58/114/17 63/122/17 62/125/17
f 57/113/18 60/127/18 61/128/18 64/121/18
f 65/129/1 66/130/1 67/131/1 68/132/1
f 69/133/2 70/134/2 71/135/2 72/136/2
f 66/130/3 65/129/3 72/137/3 71/138/3
f 68/139/4 67/140/4 70/141/4 69/142/4
f 67/140/11 66/130/11 71/138/11 70/141/11
f 65/129/12 68/143/12 69/144/12 72/137/12
f 73/145/1 74/146/1 75/147/1 76/148/1
f 77/149/2 78/150/2 79/151/2 80/152/2
f 74/146/3 73/145/3 80/153/3 79/154/3
f 76/155/4 75/156/4 78/157/4 77/158/4
f 75/156/15 74/146/15 79/154/15 78/157/15
f 73/145/18 76/159/18 77/160/18 80/153/18
f 81/161/1 82/162/1 83/163/1 84/164/1
f 85/165/2 86/166/2 87/167/2 88/168/2
f 82/162/3 81/161/3 88/169/3 87/170/3
f 84/171/4 83/172/4 86/173/4 85/174/4
f 83/172/17 82/162/17 87/170/17 86/173/17
f 81/161/16 84/175/16 85/176/16 88/169/16
f 89/177/1 90/178/1 91/179/1 92/180/1
f 93/181/2 94/182/2 95/183/2 96/184/2
f 90/178/3 89/177/3 96/185/3 95/186/3
f 92/187/4 91/188/4 94/189/4 93/190/4
f 91/188/11 90/178/11 95/186/11 94/189/11
f 89/177/12 92/191/12 93/192/12 96/185/12
