# Blender v2.79 (sub 0) OBJ File: ''
# www.blender.org
mtllib bbq_wheel_1.mtl
o bbq_wheel_1
v -0.025000 0.031250 -0.062500
v -0.025000 0.031250 0.062500
v 0.025000 0.031250 0.062500
v 0.025000 0.031250 -0.062500
v 0.025000 -0.031250 -0.062500
v 0.025000 -0.031250 0.062500
v -0.025000 -0.031250 0.062500
v -0.025000 -0.031250 -0.062500
v -0.025000 0.062500 -0.031250
v -0.025000 0.062500 0.031250
v 0.025000 0.062500 0.031250
v 0.025000 0.062500 -0.031250
v 0.025000 0.031250 -0.062500
v 0.025000 0.031250 0.062500
v -0.025000 0.031250 0.062500
v -0.025000 0.031250 -0.062500
v -0.025000 -0.031250 -0.062500
v -0.025000 -0.031250 0.062500
v 0.025000 -0.031250 0.062500
v 0.025000 -0.031250 -0.062500
v 0.025000 -0.062500 -0.031250
v 0.025000 -0.062500 0.031250
v -0.025000 -0.062500 0.031250
v -0.025000 -0.062500 -0.031250
v -0.031250 0.031250 -0.031250
v -0.031250 0.031250 0.031250
v 0.031250 0.031250 0.031250
v 0.031250 0.031250 -0.031250
v 0.031250 -0.031250 -0.031250
v 0.031250 -0.031250 0.031250
v -0.031250 -0.031250 0.031250
v -0.031250 -0.031250 -0.031250
vt 1.062500 0.937500
vt 1.125000 0.937500
vt 1.125000 0.968750
vt 1.062500 0.968750
vt 1.125000 0.937500
vt 1.187500 0.937500
vt 1.187500 0.968750
vt 1.125000 0.968750
vt 1.062500 0.906250
vt 1.125000 0.906250
vt 1.218750 0.937500
vt 1.156250 0.937500
vt 1.156250 0.906250
vt 1.218750 0.906250
vt 1.031250 0.937500
vt 1.031250 0.906250
vt 1.312500 0.937500
vt 1.375000 0.937500
vt 1.375000 0.968750
vt 1.312500 0.968750
vt 1.375000 0.937500
vt 1.437500 0.937500
vt 1.437500 0.968750
vt 1.375000 0.968750
vt 1.312500 0.906250
vt 1.375000 0.906250
vt 1.468750 0.937500
vt 1.406250 0.937500
vt 1.406250 0.906250
vt 1.468750 0.906250
vt 1.281250 0.937500
vt 1.281250 0.906250
vt 1.562500 0.937500
vt 1.625000 0.937500
vt 1.625000 0.968750
vt 1.562500 0.968750
vt 1.625000 0.937500
vt 1.687500 0.937500
vt 1.687500 0.968750
vt 1.625000 0.968750
vt 1.562500 0.906250
vt 1.625000 0.906250
vt 1.718750 0.937500
vt 1.656250 0.937500
vt 1.656250 0.906250
vt 1.718750 0.906250
vt 1.531250 0.937500
vt 1.531250 0.906250
vt 1.812500 0.937500
vt 1.843750 0.937500
vt 1.843750 0.968750
vt 1.812500 0.968750
vt 1.843750 0.937500
vt 1.875000 0.937500
vt 1.875000 0.968750
vt 1.843750 0.968750
vt 1.812500 0.906250
vt 1.843750 0.906250
vt 1.906250 0.937500
vt 1.875000 0.937500
vt 1.875000 0.906250
vt 1.906250 0.906250
vt 1.781250 0.937500
vt 1.781250 0.906250
vn -0.0000 1.0000 -0.0000
vn 0.0000 -1.0000 0.0000
vn -1.0000 -0.0000 -0.0000
vn 1.0000 0.0000 0.0000
vn 0.0000 0.0000 1.0000
vn 0.0000 0.0000 -1.0000
vn -0.0000 0.7071 0.7071
vn -0.0000 0.7071 -0.7071
vn 0.0000 -0.7071 0.7071
vn 0.0000 -0.7071 -0.7071
usemtl ModelMaterial
s off
f 1/1/1 2/2/1 3/3/1 4/4/1
f 5/5/2 6/6/2 7/7/2 8/8/2
f 2/2/3 1/1/3 8/9/3 7/10/3
f 4/11/4 3/12/4 6/13/4 5/14/4
f 3/12/5 2/2/5 7/10/5 6/13/5
f 1/1/6 4/15/6 5/16/6 8/9/6
f 9/17/1 10/18/1 11/19/1 12/20/1
f 13/21/2 14/22/2 15/23/2 16/24/2
f 10/18/3 9/17/3 16/25/3 15/26/3
f 12/27/4 11/28/4 14/29/4 13/30/4
f 11/28/7 10/18/7 15/26/7 14/29/7
f 9/17/8 12/31/8 13/32/8 16/25/8
f 17/33/1 18/34/1 19/35/1 20/36/1
f 21/37/2 22/38/2 23/39/2 24/40/2
f 18/34/3 17/33/3 24/41/3 23/42/3
f 20/43/4 19/44/4 22/45/4 21/46/4
f 19/44/9 18/34/9 23/42/9 22/45/9
f 17/33/10 20/47/10 21/48/10 24/41/10
f 25/49/1 26/50/1 27/51/1 28/52/1
f 29/53/2 30/54/2 31/55/2 32/56/2
f 26/50/3 25/49/3 32/57/3 31/58/3
f 28/59/4 27/60/4 30/61/4 29/62/4
f 27/60/5 26/50/5 31/58/5 30/61/5
f 25/49/6 28/63/6 29/64/6 32/57/6
