# Blender v2.79 (sub 0) OBJ File: ''
# www.blender.org
mtllib car_roof_lightbar_r.mtl
o core.001
v 0.062500 0.125000 -0.093750
v 0.062500 0.125000 0.093750
v 0.625000 0.125000 0.093750
v 0.625000 0.125000 -0.093750
v 0.625000 0.062500 -0.093750
v 0.625000 0.062500 0.093750
v 0.062500 0.062500 0.093750
v 0.062500 0.062500 -0.093750
v -0.562500 0.062500 -0.062500
v -0.562500 0.062500 0.062500
v -0.500000 0.062500 0.062500
v -0.500000 0.062500 -0.062500
v -0.562500 0.000000 -0.062500
v -0.562500 -0.000000 0.062500
v -0.625000 -0.000000 0.062500
v -0.625000 0.000000 -0.062500
v 0.500000 0.062500 -0.062500
v 0.500000 0.062500 0.062500
v 0.562500 0.062500 0.062500
v 0.562500 0.062500 -0.062500
v 0.625000 0.000000 -0.062500
v 0.625000 -0.000000 0.062500
v 0.562500 -0.000000 0.062500
v 0.562500 0.000000 -0.062500
v -0.062500 0.131250 -0.100000
v -0.062500 0.131250 0.100000
v 0.062500 0.131250 0.100000
v 0.062500 0.131250 -0.100000
v 0.062500 0.056250 -0.100000
v 0.062500 0.056250 0.100000
v -0.062500 0.056250 0.100000
v -0.062500 0.056250 -0.100000
v -0.187500 0.125000 0.034375
v -0.187500 0.125000 0.096875
v -0.125000 0.125000 0.096875
v -0.125000 0.125000 0.034375
v -0.125000 0.062500 0.034375
v -0.125000 0.062500 0.096875
v -0.187500 0.062500 0.096875
v -0.187500 0.062500 0.034375
v -0.312500 0.125000 0.034375
v -0.312500 0.125000 0.096875
v -0.250000 0.125000 0.096875
v -0.250000 0.125000 0.034375
v -0.250000 0.062500 0.034375
v -0.250000 0.062500 0.096875
v -0.312500 0.062500 0.096875
v -0.312500 0.062500 0.034375
v -0.437500 0.125000 0.034375
v -0.437500 0.125000 0.096875
v -0.375000 0.125000 0.096875
v -0.375000 0.125000 0.034375
v -0.375000 0.062500 0.034375
v -0.375000 0.062500 0.096875
v -0.437500 0.062500 0.096875
v -0.437500 0.062500 0.034375
v -0.562500 0.125000 0.034375
v -0.562500 0.125000 0.096875
v -0.500000 0.125000 0.096875
v -0.500000 0.125000 0.034375
v -0.500000 0.062500 0.034375
v -0.500000 0.062500 0.096875
v -0.562500 0.062500 0.096875
v -0.562500 0.062500 0.034375
v 0.125000 0.125000 0.034375
v 0.125000 0.125000 0.096875
v 0.187500 0.125000 0.096875
v 0.187500 0.125000 0.034375
v 0.187500 0.062500 0.034375
v 0.187500 0.062500 0.096875
v 0.125000 0.062500 0.096875
v 0.125000 0.062500 0.034375
v 0.250000 0.125000 0.034375
v 0.250000 0.125000 0.096875
v 0.312500 0.125000 0.096875
v 0.312500 0.125000 0.034375
v 0.312500 0.062500 0.034375
v 0.312500 0.062500 0.096875
v 0.250000 0.062500 0.096875
v 0.250000 0.062500 0.034375
v 0.375000 0.125000 0.034375
v 0.375000 0.125000 0.096875
v 0.437500 0.125000 0.096875
v 0.437500 0.125000 0.034375
v 0.437500 0.062500 0.034375
v 0.437500 0.062500 0.096875
v 0.375000 0.062500 0.096875
v 0.375000 0.062500 0.034375
v 0.500000 0.125000 0.034375
v 0.500000 0.125000 0.096875
v 0.562500 0.125000 0.096875
v 0.562500 0.125000 0.034375
v 0.562500 0.062500 0.034375
v 0.562500 0.062500 0.096875
v 0.500000 0.062500 0.096875
v 0.500000 0.062500 0.034375
v -0.625000 0.125000 -0.093750
v -0.625000 0.125000 0.093750
v -0.062500 0.125000 0.093750
v -0.062500 0.125000 -0.093750
v -0.062500 0.062500 -0.093750
v -0.062500 0.062500 0.093750
v -0.625000 0.062500 0.093750
v -0.625000 0.062500 -0.093750
vt 1.328125 0.656250
vt 1.375000 0.656250
vt 1.375000 0.937500
vt 1.328125 0.937500
vt 1.375000 0.656250
vt 1.421875 0.656250
vt 1.421875 0.937500
vt 1.375000 0.937500
vt 1.328125 0.625000
vt 1.375000 0.625000
vt 1.562500 0.656250
vt 1.515625 0.656250
vt 1.515625 0.625000
vt 1.562500 0.625000
vt 1.187500 0.656250
vt 1.187500 0.625000
vt 1.031250 0.937500
vt 1.062500 0.937500
vt 1.062500 0.968750
vt 1.031250 0.968750
vt 1.062500 0.937500
vt 1.093750 0.937500
vt 1.093750 0.968750
vt 1.062500 0.968750
vt 1.031250 0.906250
vt 1.062500 0.906250
vt 1.109375 0.937500
vt 1.078125 0.937500
vt 1.078125 0.906250
vt 1.109375 0.906250
vt 1.015625 0.937500
vt 1.015625 0.906250
vt 1.156250 0.937500
vt 1.187500 0.937500
vt 1.187500 0.968750
vt 1.156250 0.968750
vt 1.187500 0.937500
vt 1.218750 0.937500
vt 1.218750 0.968750
vt 1.187500 0.968750
vt 1.156250 0.906250
vt 1.187500 0.906250
vt 1.234375 0.937500
vt 1.203125 0.937500
vt 1.203125 0.906250
vt 1.234375 0.906250
vt 1.140625 0.937500
vt 1.140625 0.906250
vt 1.546875 0.906250
vt 1.593750 0.906250
vt 1.593750 0.968750
vt 1.546875 0.968750
vt 1.593750 0.906250
vt 1.640625 0.906250
vt 1.640625 0.968750
vt 1.593750 0.968750
vt 1.546875 0.875000
vt 1.593750 0.875000
vt 1.671875 0.906250
vt 1.625000 0.906250
vt 1.625000 0.875000
vt 1.671875 0.875000
vt 1.515625 0.906250
vt 1.515625 0.875000
vt 1.781250 0.937500
vt 1.796875 0.937500
vt 1.796875 0.968750
vt 1.781250 0.968750
vt 1.796875 0.937500
vt 1.812500 0.937500
vt 1.812500 0.968750
vt 1.796875 0.968750
vt 1.781250 0.906250
vt 1.796875 0.906250
vt 1.828125 0.937500
vt 1.812500 0.937500
vt 1.812500 0.906250
vt 1.828125 0.906250
vt 1.765625 0.937500
vt 1.765625 0.906250
vt 1.906250 0.937500
vt 1.921875 0.937500
vt 1.921875 0.968750
vt 1.906250 0.968750
vt 1.921875 0.937500
vt 1.937500 0.937500
vt 1.937500 0.968750
vt 1.921875 0.968750
vt 1.906250 0.906250
vt 1.921875 0.906250
vt 1.953125 0.937500
vt 1.937500 0.937500
vt 1.937500 0.906250
vt 1.953125 0.906250
vt 1.890625 0.937500
vt 1.890625 0.906250
vt 1.031250 0.687500
vt 1.046875 0.687500
vt 1.046875 0.718750
vt 1.031250 0.718750
vt 1.046875 0.687500
vt 1.062500 0.687500
vt 1.062500 0.718750
vt 1.046875 0.718750
vt 1.031250 0.656250
vt 1.046875 0.656250
vt 1.078125 0.687500
vt 1.062500 0.687500
vt 1.062500 0.656250
vt 1.078125 0.656250
vt 1.015625 0.687500
vt 1.015625 0.656250
vt 1.156250 0.687500
vt 1.171875 0.687500
vt 1.171875 0.718750
vt 1.156250 0.718750
vt 1.171875 0.687500
vt 1.187500 0.687500
vt 1.187500 0.718750
vt 1.171875 0.718750
vt 1.156250 0.656250
vt 1.171875 0.656250
vt 1.203125 0.687500
vt 1.187500 0.687500
vt 1.187500 0.656250
vt 1.203125 0.656250
vt 1.140625 0.687500
vt 1.140625 0.656250
vt 1.531250 0.687500
vt 1.546875 0.687500
vt 1.546875 0.718750
vt 1.531250 0.718750
vt 1.546875 0.687500
vt 1.562500 0.687500
vt 1.562500 0.718750
vt 1.546875 0.718750
vt 1.531250 0.656250
vt 1.546875 0.656250
vt 1.578125 0.687500
vt 1.562500 0.687500
vt 1.562500 0.656250
vt 1.578125 0.656250
vt 1.515625 0.687500
vt 1.515625 0.656250
vt 1.656250 0.687500
vt 1.671875 0.687500
vt 1.671875 0.718750
vt 1.656250 0.718750
vt 1.671875 0.687500
vt 1.687500 0.687500
vt 1.687500 0.718750
vt 1.671875 0.718750
vt 1.656250 0.656250
vt 1.671875 0.656250
vt 1.703125 0.687500
vt 1.687500 0.687500
vt 1.687500 0.656250
vt 1.703125 0.656250
vt 1.640625 0.687500
vt 1.640625 0.656250
vt 1.781250 0.687500
vt 1.796875 0.687500
vt 1.796875 0.718750
vt 1.781250 0.718750
vt 1.796875 0.687500
vt 1.812500 0.687500
vt 1.812500 0.718750
vt 1.796875 0.718750
vt 1.781250 0.656250
vt 1.796875 0.656250
vt 1.828125 0.687500
vt 1.812500 0.687500
vt 1.812500 0.656250
vt 1.828125 0.656250
vt 1.765625 0.687500
vt 1.765625 0.656250
vt 1.906250 0.687500
vt 1.921875 0.687500
vt 1.921875 0.718750
vt 1.906250 0.718750
vt 1.921875 0.687500
vt 1.937500 0.687500
vt 1.937500 0.718750
vt 1.921875 0.718750
vt 1.906250 0.656250
vt 1.921875 0.656250
vt 1.953125 0.687500
vt 1.937500 0.687500
vt 1.937500 0.656250
vt 1.953125 0.656250
vt 1.890625 0.687500
vt 1.890625 0.656250
vt 1.328125 0.343750
vt 1.375000 0.343750
vt 1.375000 0.625000
vt 1.328125 0.625000
vt 1.375000 0.343750
vt 1.421875 0.343750
vt 1.421875 0.625000
vt 1.375000 0.625000
vt 1.328125 0.312500
vt 1.375000 0.312500
vt 1.562500 0.343750
vt 1.515625 0.343750
vt 1.515625 0.312500
vt 1.562500 0.312500
vt 1.187500 0.343750
vt 1.187500 0.312500
vn 0.0000 1.0000 0.0000
vn 0.0000 -1.0000 -0.0000
vn -1.0000 0.0000 0.0000
vn 1.0000 0.0000 0.0000
vn 0.0000 0.0000 -1.0000
vn -0.7071 0.7071 0.0000
vn 0.7071 -0.7071 -0.0000
vn 0.0000 -0.0000 1.0000
vn -0.7071 -0.7071 -0.0000
vn 0.7071 0.7071 0.0000
usemtl ModelMaterial.001
s 1
f 1/1/1 2/2/1 3/3/1 4/4/1
f 5/5/2 6/6/2 7/7/2 8/8/2
f 2/2/3 1/1/3 8/9/3 7/10/3
f 4/11/4 3/12/4 6/13/4 5/14/4
f 1/1/5 4/15/5 5/16/5 8/9/5
f 9/17/1 10/18/1 11/19/1 12/20/1
f 13/21/2 14/22/2 15/23/2 16/24/2
f 10/18/6 9/17/6 16/25/6 15/26/6
f 12/27/7 11/28/7 14/29/7 13/30/7
f 11/28/8 10/18/8 15/26/8 14/29/8
f 9/17/5 12/31/5 13/32/5 16/25/5
f 17/33/1 18/34/1 19/35/1 20/36/1
f 21/37/2 22/38/2 23/39/2 24/40/2
f 18/34/9 17/33/9 24/41/9 23/42/9
f 20/43/10 19/44/10 22/45/10 21/46/10
f 19/44/8 18/34/8 23/42/8 22/45/8
f 17/33/5 20/47/5 21/48/5 24/41/5
f 25/49/1 26/50/1 27/51/1 28/52/1
f 29/53/2 30/54/2 31/55/2 32/56/2
f 26/50/3 25/49/3 32/57/3 31/58/3
f 28/59/4 27/60/4 30/61/4 29/62/4
f 27/60/8 26/50/8 31/58/8 30/61/8
f 25/49/5 28/63/5 29/64/5 32/57/5
f 33/65/1 34/66/1 35/67/1 36/68/1
f 37/69/2 38/70/2 39/71/2 40/72/2
f 34/66/3 33/65/3 40/73/3 39/74/3
f 36/75/4 35/76/4 38/77/4 37/78/4
f 33/65/5 36/79/5 37/80/5 40/73/5
f 41/81/1 42/82/1 43/83/1 44/84/1
f 45/85/2 46/86/2 47/87/2 48/88/2
f 42/82/3 41/81/3 48/89/3 47/90/3
f 44/91/4 43/92/4 46/93/4 45/94/4
f 41/81/5 44/95/5 45/96/5 48/89/5
f 49/97/1 50/98/1 51/99/1 52/100/1
f 53/101/2 54/102/2 55/103/2 56/104/2
f 50/98/3 49/97/3 56/105/3 55/106/3
f 52/107/4 51/108/4 54/109/4 53/110/4
f 49/97/5 52/111/5 53/112/5 56/105/5
f 57/113/1 58/114/1 59/115/1 60/116/1
f 61/117/2 62/118/2 63/119/2 64/120/2
f 58/114/3 57/113/3 64/121/3 63/122/3
f 60/123/4 59/124/4 62/125/4 61/126/4
f 57/113/5 60/127/5 61/128/5 64/121/5
f 65/129/1 66/130/1 67/131/1 68/132/1
f 69/133/2 70/134/2 71/135/2 72/136/2
f 66/130/3 65/129/3 72/137/3 71/138/3
f 68/139/4 67/140/4 70/141/4 69/142/4
f 65/129/5 68/143/5 69/144/5 72/137/5
f 73/145/1 74/146/1 75/147/1 76/148/1
f 77/149/2 78/150/2 79/151/2 80/152/2
f 74/146/3 73/145/3 80/153/3 79/154/3
f 76/155/4 75/156/4 78/157/4 77/158/4
f 73/145/5 76/159/5 77/160/5 80/153/5
f 81/161/1 82/162/1 83/163/1 84/164/1
f 85/165/2 86/166/2 87/167/2 88/168/2
f 82/162/3 81/161/3 88/169/3 87/170/3
f 84/171/4 83/172/4 86/173/4 85/174/4
f 81/161/5 84/175/5 85/176/5 88/169/5
f 89/177/1 90/178/1 91/179/1 92/180/1
f 93/181/2 94/182/2 95/183/2 96/184/2
f 90/178/3 89/177/3 96/185/3 95/186/3
f 92/187/4 91/188/4 94/189/4 93/190/4
f 89/177/5 92/191/5 93/192/5 96/185/5
f 97/193/1 98/194/1 99/195/1 100/196/1
f 101/197/2 102/198/2 103/199/2 104/200/2
f 98/194/3 97/193/3 104/201/3 103/202/3
f 100/203/4 99/204/4 102/205/4 101/206/4
f 97/193/5 100/207/5 101/208/5 104/201/5
o &EmergencyLight_cc0000_0CC0C_111
v -0.125000 0.125000 0.096875
v -0.187500 0.125000 0.096875
v -0.187500 0.062500 0.096875
v -0.125000 0.062500 0.096875
v -0.250000 0.125000 0.096875
v -0.312500 0.125000 0.096875
v -0.312500 0.062500 0.096875
v -0.250000 0.062500 0.096875
v -0.375000 0.125000 0.096875
v -0.437500 0.125000 0.096875
v -0.437500 0.062500 0.096875
v -0.375000 0.062500 0.096875
v -0.500000 0.125000 0.096875
v -0.562500 0.125000 0.096875
v -0.562500 0.062500 0.096875
v -0.500000 0.062500 0.096875
vt 1.812500 0.937500
vt 1.796875 0.937500
vt 1.796875 0.906250
vt 1.812500 0.906250
vt 1.937500 0.937500
vt 1.921875 0.937500
vt 1.921875 0.906250
vt 1.937500 0.906250
vt 1.062500 0.687500
vt 1.046875 0.687500
vt 1.046875 0.656250
vt 1.062500 0.656250
vt 1.187500 0.687500
vt 1.171875 0.687500
vt 1.171875 0.656250
vt 1.187500 0.656250
vn 0.0000 -0.0000 1.0000
usemtl ModelMaterial.001
s 1
f 105/209/11 106/210/11 107/211/11 108/212/11
f 109/213/11 110/214/11 111/215/11 112/216/11
f 113/217/11 114/218/11 115/219/11 116/220/11
f 117/221/11 118/222/11 119/223/11 120/224/11
o &EmergencyLight_cc0000_FFFFF_011
v -0.062500 0.125000 0.093750
v -0.625000 0.125000 0.093750
v -0.625000 0.062500 0.093750
v -0.062500 0.062500 0.093750
v 0.625000 0.125000 0.093750
v 0.062500 0.125000 0.093750
v 0.062500 0.062500 0.093750
v 0.625000 0.062500 0.093750
vt 1.515625 0.343750
vt 1.375000 0.343750
vt 1.375000 0.312500
vt 1.515625 0.312500
vt 1.515625 0.656250
vt 1.375000 0.656250
vt 1.375000 0.625000
vt 1.515625 0.625000
vn 0.0000 -0.0000 1.0000
usemtl ModelMaterial.001
s 1
f 121/225/12 122/226/12 123/227/12 124/228/12
f 125/229/12 126/230/12 127/231/12 128/232/12
o &EmergencyLight_cc0000_C0CC0_111
v 0.187500 0.125000 0.096875
v 0.125000 0.125000 0.096875
v 0.125000 0.062500 0.096875
v 0.187500 0.062500 0.096875
v 0.312500 0.125000 0.096875
v 0.250000 0.125000 0.096875
v 0.250000 0.062500 0.096875
v 0.312500 0.062500 0.096875
v 0.437500 0.125000 0.096875
v 0.375000 0.125000 0.096875
v 0.375000 0.062500 0.096875
v 0.437500 0.062500 0.096875
v 0.562500 0.125000 0.096875
v 0.500000 0.125000 0.096875
v 0.500000 0.062500 0.096875
v 0.562500 0.062500 0.096875
vt 1.562500 0.687500
vt 1.546875 0.687500
vt 1.546875 0.656250
vt 1.562500 0.656250
vt 1.687500 0.687500
vt 1.671875 0.687500
vt 1.671875 0.656250
vt 1.687500 0.656250
vt 1.812500 0.687500
vt 1.796875 0.687500
vt 1.796875 0.656250
vt 1.812500 0.656250
vt 1.937500 0.687500
vt 1.921875 0.687500
vt 1.921875 0.656250
vt 1.937500 0.656250
vn 0.0000 -0.0000 1.0000
usemtl ModelMaterial.001
s 1
f 129/233/13 130/234/13 131/235/13 132/236/13
f 133/237/13 134/238/13 135/239/13 136/240/13
f 137/241/13 138/242/13 139/243/13 140/244/13
f 141/245/13 142/246/13 143/247/13 144/248/13
