# Blender v2.79 (sub 0) OBJ File: ''
# www.blender.org
mtllib furniture_sofa_mp_1.mtl
o furniture_sofa_mp_1
v -0.500000 -0.000000 -0.500000
v -0.500000 -0.000000 0.500000
v 0.500000 0.000000 0.500000
v 0.500000 0.000000 -0.500000
v 0.500000 -0.500000 -0.500000
v 0.500000 -0.500000 0.500000
v -0.500000 -0.500000 0.500000
v -0.500000 -0.500000 -0.500000
v -0.375000 0.500000 -0.500000
v -0.375000 0.500000 -0.250000
v 0.375000 0.500000 -0.250000
v 0.375000 0.500000 -0.500000
v 0.375000 0.000000 -0.500000
v 0.375000 0.000000 -0.187500
v -0.375000 -0.000000 -0.187500
v -0.375000 -0.000000 -0.500000
v -0.500000 0.250000 -0.500000
v -0.500000 0.250000 0.375000
v -0.375000 0.250000 0.375000
v -0.375000 0.250000 -0.500000
v -0.375000 -0.000000 -0.500000
v -0.375000 -0.000000 0.375000
v -0.500000 -0.000000 0.375000
v -0.500000 -0.000000 -0.500000
v 0.375000 0.250000 -0.500000
v 0.375000 0.250000 0.375000
v 0.500000 0.250000 0.375000
v 0.500000 0.250000 -0.500000
v 0.500000 0.000000 -0.500000
v 0.500000 0.000000 0.375000
v 0.375000 0.000000 0.375000
v 0.375000 0.000000 -0.500000
vt 1.250000 0.250000
vt 1.500000 0.250000
vt 1.500000 0.500000
vt 1.250000 0.500000
vt 1.500000 0.250000
vt 1.750000 0.250000
vt 1.750000 0.500000
vt 1.500000 0.500000
vt 1.250000 0.125000
vt 1.500000 0.125000
vt 2.000000 0.250000
vt 1.750000 0.250000
vt 1.750000 0.125000
vt 2.000000 0.125000
vt 1.000000 0.250000
vt 1.000000 0.125000
vt 1.203125 0.796875
vt 1.265625 0.796875
vt 1.265625 0.984375
vt 1.203125 0.984375
vt 1.265625 0.796875
vt 1.328125 0.796875
vt 1.328125 0.984375
vt 1.265625 0.984375
vt 1.203125 0.671875
vt 1.265625 0.671875
vt 1.515625 0.796875
vt 1.453125 0.796875
vt 1.453125 0.671875
vt 1.515625 0.671875
vt 1.015625 0.796875
vt 1.015625 0.671875
vt 1.421875 0.953125
vt 1.640625 0.953125
vt 1.640625 0.984375
vt 1.421875 0.984375
vt 1.640625 0.953125
vt 1.859375 0.953125
vt 1.859375 0.984375
vt 1.640625 0.984375
vt 1.421875 0.890625
vt 1.640625 0.890625
vt 1.890625 0.953125
vt 1.671875 0.953125
vt 1.671875 0.890625
vt 1.890625 0.890625
vt 1.390625 0.953125
vt 1.390625 0.890625
vt 1.046875 0.578125
vt 1.265625 0.578125
vt 1.265625 0.609375
vt 1.046875 0.609375
vt 1.265625 0.578125
vt 1.484375 0.578125
vt 1.484375 0.609375
vt 1.265625 0.609375
vt 1.046875 0.515625
vt 1.265625 0.515625
vt 1.515625 0.578125
vt 1.296875 0.578125
vt 1.296875 0.515625
vt 1.515625 0.515625
vt 1.015625 0.578125
vt 1.015625 0.515625
vn -0.0000 1.0000 -0.0000
vn 0.0000 -1.0000 -0.0000
vn -1.0000 -0.0000 -0.0000
vn 1.0000 0.0000 0.0000
vn -0.0000 -0.0000 1.0000
vn 0.0000 0.0000 -1.0000
vn -0.0000 0.1240 0.9923
usemtl ModelMaterial.002
s off
f 1/1/1 2/2/1 3/3/1 4/4/1
f 5/5/2 6/6/2 7/7/2 8/8/2
f 2/2/3 1/1/3 8/9/3 7/10/3
f 4/11/4 3/12/4 6/13/4 5/14/4
f 3/12/5 2/2/5 7/10/5 6/13/5
f 1/1/6 4/15/6 5/16/6 8/9/6
f 9/17/1 10/18/1 11/19/1 12/20/1
f 13/21/2 14/22/2 15/23/2 16/24/2
f 10/18/3 9/17/3 16/25/3 15/26/3
f 12/27/4 11/28/4 14/29/4 13/30/4
f 11/28/7 10/18/7 15/26/7 14/29/7
f 9/17/6 12/31/6 13/32/6 16/25/6
f 17/33/1 18/34/1 19/35/1 20/36/1
f 21/37/2 22/38/2 23/39/2 24/40/2
f 18/34/3 17/33/3 24/41/3 23/42/3
f 20/43/4 19/44/4 22/45/4 21/46/4
f 19/44/5 18/34/5 23/42/5 22/45/5
f 17/33/6 20/47/6 21/48/6 24/41/6
f 25/49/1 26/50/1 27/51/1 28/52/1
f 29/53/2 30/54/2 31/55/2 32/56/2
f 26/50/3 25/49/3 32/57/3 31/58/3
f 28/59/4 27/60/4 30/61/4 29/62/4
f 27/60/5 26/50/5 31/58/5 30/61/5
f 25/49/6 28/63/6 29/64/6 32/57/6
