# Blender v2.79 (sub 0) OBJ File: ''
# www.blender.org
mtllib trin_seat_2.mtl
o trin_seat_2
v -0.500000 -0.000000 -0.250000
v -0.500000 -0.062500 0.375000
v 0.500000 -0.062500 0.375000
v 0.500000 0.000000 -0.250000
v 0.437500 -0.250000 -0.250000
v 0.437500 -0.250000 0.375000
v -0.437500 -0.250000 0.375000
v -0.437500 -0.250000 -0.250000
v -0.406250 -0.062500 0.375000
v -0.343750 -0.125000 0.562500
v 0.343750 -0.125000 0.562500
v 0.406250 -0.062500 0.375000
v 0.406250 -0.250000 0.375000
v 0.343750 -0.250000 0.562500
v -0.343750 -0.250000 0.562500
v -0.406250 -0.250000 0.375000
v -0.437500 -0.000000 -0.437500
v -0.500000 -0.000000 -0.250000
v 0.500000 0.000000 -0.250000
v 0.437500 0.000000 -0.437500
v 0.437500 -0.250000 -0.437500
v 0.437500 -0.250000 -0.250000
v -0.437500 -0.250000 -0.250000
v -0.437500 -0.250000 -0.437500
v -0.375000 0.625000 -0.500000
v -0.437500 0.625000 -0.312500
v 0.437500 0.625000 -0.312500
v 0.375000 0.625000 -0.500000
v 0.437500 0.000000 -0.437500
v 0.500000 0.000000 -0.250000
v -0.500000 -0.000000 -0.250000
v -0.437500 -0.000000 -0.437500
v -0.312500 0.750000 -0.500000
v -0.375000 0.750000 -0.375000
v 0.375000 0.750000 -0.375000
v 0.312500 0.750000 -0.500000
v 0.375000 0.625000 -0.500000
v 0.437500 0.625000 -0.312500
v -0.437500 0.625000 -0.312500
v -0.375000 0.625000 -0.500000
v -0.281250 0.968750 -0.531250
v -0.281250 0.937500 -0.406250
v 0.281250 0.937500 -0.406250
v 0.281250 0.968750 -0.531250
v 0.281250 0.781250 -0.500000
v 0.281250 0.781250 -0.375000
v -0.281250 0.781250 -0.375000
v -0.281250 0.781250 -0.500000
v -0.187500 0.781250 -0.468750
v -0.187500 0.781250 -0.406250
v -0.125000 0.781250 -0.406250
v -0.125000 0.781250 -0.468750
v -0.125000 0.718750 -0.468750
v -0.125000 0.718750 -0.406250
v -0.187500 0.718750 -0.406250
v -0.187500 0.718750 -0.468750
v 0.125000 0.781250 -0.468750
v 0.125000 0.781250 -0.406250
v 0.187500 0.781250 -0.406250
v 0.187500 0.781250 -0.468750
v 0.187500 0.718750 -0.468750
v 0.187500 0.718750 -0.406250
v 0.125000 0.718750 -0.406250
v 0.125000 0.718750 -0.468750
v -0.437500 0.062500 -0.187500
v -0.437500 -0.000000 0.312500
v -0.375000 -0.000000 0.312500
v -0.375000 0.062500 -0.187500
v -0.312500 -0.000000 -0.250000
v -0.312500 -0.062500 0.375000
v -0.500000 -0.062500 0.375000
v -0.500000 -0.000000 -0.250000
v 0.375000 0.062500 -0.187500
v 0.375000 0.000000 0.312500
v 0.437500 0.000000 0.312500
v 0.437500 0.062500 -0.187500
v 0.500000 0.000000 -0.250000
v 0.500000 -0.062500 0.375000
v 0.312500 -0.062500 0.375000
v 0.312500 0.000000 -0.250000
v -0.437500 0.625000 -0.312500
v -0.375000 0.562500 -0.250000
v -0.312500 0.562500 -0.250000
v -0.250000 0.625000 -0.312500
v -0.312500 -0.000000 -0.250000
v -0.375000 0.062500 -0.187500
v -0.437500 0.062500 -0.187500
v -0.500000 -0.000000 -0.250000
v 0.250000 0.625000 -0.312500
v 0.312500 0.562500 -0.250000
v 0.375000 0.562500 -0.250000
v 0.437500 0.625000 -0.312500
v 0.500000 0.000000 -0.250000
v 0.437500 0.062500 -0.187500
v 0.375000 0.062500 -0.187500
v 0.312500 0.000000 -0.250000
vt 1.132812 0.734375
vt 1.210938 0.734375
vt 1.210938 0.984375
vt 1.132812 0.984375
vt 1.210938 0.734375
vt 1.289062 0.734375
vt 1.289062 0.984375
vt 1.210938 0.984375
vt 1.132812 0.671875
vt 1.210938 0.671875
vt 1.414062 0.734375
vt 1.335938 0.734375
vt 1.335938 0.671875
vt 1.414062 0.671875
vt 1.007812 0.734375
vt 1.007812 0.671875
vt 1.406250 0.812500
vt 1.429688 0.812500
vt 1.429688 0.984375
vt 1.406250 0.984375
vt 1.429688 0.812500
vt 1.453125 0.812500
vt 1.453125 0.984375
vt 1.429688 0.984375
vt 1.406250 0.765625
vt 1.429688 0.765625
vt 1.539062 0.812500
vt 1.515625 0.812500
vt 1.515625 0.765625
vt 1.539062 0.765625
vt 1.320312 0.812500
vt 1.320312 0.765625
vt 1.679688 0.765625
vt 1.703125 0.765625
vt 1.703125 0.984375
vt 1.679688 0.984375
vt 1.703125 0.765625
vt 1.726562 0.765625
vt 1.726562 0.984375
vt 1.703125 0.984375
vt 1.679688 0.703125
vt 1.703125 0.703125
vt 1.835938 0.765625
vt 1.812500 0.765625
vt 1.812500 0.703125
vt 1.835938 0.703125
vt 1.570312 0.765625
vt 1.570312 0.703125
vt 1.445312 0.484375
vt 1.468750 0.484375
vt 1.468750 0.734375
vt 1.445312 0.734375
vt 1.468750 0.484375
vt 1.492188 0.484375
vt 1.492188 0.734375
vt 1.468750 0.734375
vt 1.445312 0.328125
vt 1.468750 0.328125
vt 1.617188 0.484375
vt 1.593750 0.484375
vt 1.593750 0.328125
vt 1.617188 0.328125
vt 1.320312 0.484375
vt 1.320312 0.328125
vt 1.117188 0.390625
vt 1.140625 0.390625
vt 1.140625 0.609375
vt 1.117188 0.609375
vt 1.140625 0.390625
vt 1.164062 0.390625
vt 1.164062 0.609375
vt 1.140625 0.609375
vt 1.117188 0.359375
vt 1.140625 0.359375
vt 1.273438 0.390625
vt 1.250000 0.390625
vt 1.250000 0.359375
vt 1.273438 0.359375
vt 1.007812 0.390625
vt 1.007812 0.359375
vt 1.828125 0.843750
vt 1.843750 0.843750
vt 1.843750 0.984375
vt 1.828125 0.984375
vt 1.843750 0.843750
vt 1.859375 0.843750
vt 1.859375 0.984375
vt 1.843750 0.984375
vt 1.828125 0.796875
vt 1.843750 0.796875
vt 1.929688 0.843750
vt 1.914062 0.843750
vt 1.914062 0.796875
vt 1.929688 0.796875
vt 1.757812 0.843750
vt 1.757812 0.796875
vt 1.015625 0.968750
vt 1.023438 0.968750
vt 1.023438 0.984375
vt 1.015625 0.984375
vt 1.023438 0.968750
vt 1.031250 0.968750
vt 1.031250 0.984375
vt 1.023438 0.984375
vt 1.015625 0.953125
vt 1.023438 0.953125
vt 1.039062 0.968750
vt 1.031250 0.968750
vt 1.031250 0.953125
vt 1.039062 0.953125
vt 1.007812 0.968750
vt 1.007812 0.953125
vt 1.078125 0.968750
vt 1.085938 0.968750
vt 1.085938 0.984375
vt 1.078125 0.984375
vt 1.085938 0.968750
vt 1.093750 0.968750
vt 1.093750 0.984375
vt 1.085938 0.984375
vt 1.078125 0.953125
vt 1.085938 0.953125
vt 1.101562 0.968750
vt 1.093750 0.968750
vt 1.093750 0.953125
vt 1.101562 0.953125
vt 1.070312 0.968750
vt 1.070312 0.953125
vt 1.218750 0.562500
vt 1.296875 0.562500
vt 1.296875 0.609375
vt 1.218750 0.609375
vt 1.296875 0.562500
vt 1.375000 0.562500
vt 1.375000 0.609375
vt 1.296875 0.609375
vt 1.218750 0.546875
vt 1.296875 0.546875
vt 1.398438 0.562500
vt 1.320312 0.562500
vt 1.320312 0.546875
vt 1.398438 0.546875
vt 1.195312 0.562500
vt 1.195312 0.546875
vt 1.531250 0.562500
vt 1.609375 0.562500
vt 1.609375 0.609375
vt 1.531250 0.609375
vt 1.609375 0.562500
vt 1.687500 0.562500
vt 1.687500 0.609375
vt 1.609375 0.609375
vt 1.531250 0.546875
vt 1.609375 0.546875
vt 1.710938 0.562500
vt 1.632812 0.562500
vt 1.632812 0.546875
vt 1.710938 0.546875
vt 1.507812 0.562500
vt 1.507812 0.546875
vt 1.593750 0.937500
vt 1.601562 0.937500
vt 1.601562 0.984375
vt 1.593750 0.984375
vt 1.601562 0.937500
vt 1.609375 0.937500
vt 1.609375 0.984375
vt 1.601562 0.984375
vt 1.593750 0.781250
vt 1.601562 0.781250
vt 1.632812 0.937500
vt 1.625000 0.937500
vt 1.625000 0.781250
vt 1.632812 0.781250
vt 1.570312 0.937500
vt 1.570312 0.781250
vt 1.843750 0.687500
vt 1.851562 0.687500
vt 1.851562 0.734375
vt 1.843750 0.734375
vt 1.851562 0.687500
vt 1.859375 0.687500
vt 1.859375 0.734375
vt 1.851562 0.734375
vt 1.843750 0.531250
vt 1.851562 0.531250
vt 1.882812 0.687500
vt 1.875000 0.687500
vt 1.875000 0.531250
vt 1.882812 0.531250
vt 1.820312 0.687500
vt 1.820312 0.531250
vn -0.0000 0.9950 0.0995
vn 0.0000 -1.0000 0.0000
vn -0.9614 -0.2747 -0.0137
vn 0.9614 -0.2747 -0.0137
vn -0.0000 -0.0000 1.0000
vn 0.0000 0.0000 -1.0000
vn -0.0000 0.9487 0.3162
vn -0.9487 -0.0000 0.3162
vn 0.9487 0.0000 0.3162
vn -0.0000 1.0000 -0.0000
vn -0.9790 -0.1224 -0.1632
vn 0.9790 -0.1224 -0.1632
vn -0.9468 0.0631 -0.3156
vn 0.9468 0.0631 -0.3156
vn -0.0000 0.0995 0.9950
vn 0.0000 -0.0995 -0.9950
vn -0.8704 0.3482 -0.3482
vn 0.8704 0.3482 -0.3482
vn -0.0000 0.4472 0.8944
vn -0.0000 0.9701 0.2425
vn -1.0000 -0.0000 -0.0000
vn 1.0000 0.0000 0.0000
vn -0.0000 0.1961 0.9806
vn 0.0000 -0.1644 -0.9864
vn -0.0000 0.9923 0.1240
vn 0.0000 -0.9950 -0.0995
vn -0.7049 0.7049 0.0783
vn 0.7049 0.7049 0.0783
vn -0.0000 0.7071 0.7071
vn -0.0000 0.7071 -0.7071
vn 0.0000 -0.7071 0.7071
vn -0.6985 0.1552 0.6985
vn 0.7071 0.0000 0.7071
vn -0.0000 0.1240 0.9923
vn -0.7071 -0.0000 0.7071
vn 0.6985 0.1552 0.6985
usemtl ModelMaterial.001
s off
f 1/1/1 2/2/1 3/3/1 4/4/1
f 5/5/2 6/6/2 7/7/2 8/8/2
f 2/2/3 1/1/3 8/9/3 7/10/3
f 4/11/4 3/12/4 6/13/4 5/14/4
f 3/12/5 2/2/5 7/10/5 6/13/5
f 1/1/6 4/15/6 5/16/6 8/9/6
f 9/17/7 10/18/7 11/19/7 12/20/7
f 13/21/2 14/22/2 15/23/2 16/24/2
f 10/18/8 9/17/8 16/25/8 15/26/8
f 12/27/9 11/28/9 14/29/9 13/30/9
f 11/28/5 10/18/5 15/26/5 14/29/5
f 9/17/6 12/31/6 13/32/6 16/25/6
f 17/33/10 18/34/10 19/35/10 20/36/10
f 21/37/2 22/38/2 23/39/2 24/40/2
f 18/34/11 17/33/11 24/41/11 23/42/11
f 20/43/12 19/44/12 22/45/12 21/46/12
f 19/44/5 18/34/5 23/42/5 22/45/5
f 17/33/6 20/47/6 21/48/6 24/41/6
f 25/49/10 26/50/10 27/51/10 28/52/10
f 29/53/2 30/54/2 31/55/2 32/56/2
f 26/50/13 25/49/13 32/57/13 31/58/13
f 28/59/14 27/60/14 30/61/14 29/62/14
f 27/60/15 26/50/15 31/58/15 30/61/15
f 25/49/16 28/63/16 29/64/16 32/57/16
f 33/65/10 34/66/10 35/67/10 36/68/10
f 37/69/2 38/70/2 39/71/2 40/72/2
f 34/66/17 33/65/17 40/73/17 39/74/17
f 36/75/18 35/76/18 38/77/18 37/78/18
f 35/76/19 34/66/19 39/74/19 38/77/19
f 33/65/6 36/79/6 37/80/6 40/73/6
f 41/81/20 42/82/20 43/83/20 44/84/20
f 45/85/2 46/86/2 47/87/2 48/88/2
f 42/82/21 41/81/21 48/89/21 47/90/21
f 44/91/22 43/92/22 46/93/22 45/94/22
f 43/92/23 42/82/23 47/90/23 46/93/23
f 41/81/24 44/95/24 45/96/24 48/89/24
f 49/97/10 50/98/10 51/99/10 52/100/10
f 53/101/2 54/102/2 55/103/2 56/104/2
f 50/98/21 49/97/21 56/105/21 55/106/21
f 52/107/22 51/108/22 54/109/22 53/110/22
f 51/108/5 50/98/5 55/106/5 54/109/5
f 49/97/6 52/111/6 53/112/6 56/105/6
f 57/113/10 58/114/10 59/115/10 60/116/10
f 61/117/2 62/118/2 63/119/2 64/120/2
f 58/114/21 57/113/21 64/121/21 63/122/21
f 60/123/22 59/124/22 62/125/22 61/126/22
f 59/124/5 58/114/5 63/122/5 62/125/5
f 57/113/6 60/127/6 61/128/6 64/121/6
f 65/129/25 66/130/25 67/131/25 68/132/25
f 69/133/26 70/134/26 71/135/26 72/136/26
f 66/130/27 65/129/27 72/137/27 71/138/27
f 68/139/28 67/140/28 70/141/28 69/142/28
f 67/140/29 66/130/29 71/138/29 70/141/29
f 65/129/30 68/143/30 69/144/30 72/137/30
f 73/145/25 74/146/25 75/147/25 76/148/25
f 77/149/26 78/150/26 79/151/26 80/152/26
f 74/146/27 73/145/27 80/153/27 79/154/27
f 76/155/28 75/156/28 78/157/28 77/158/28
f 75/156/29 74/146/29 79/154/29 78/157/29
f 73/145/30 76/159/30 77/160/30 80/153/30
f 81/161/29 82/162/29 83/163/29 84/164/29
f 85/165/31 86/166/31 87/167/31 88/168/31
f 82/162/32 81/161/32 88/169/32 87/170/32
f 84/171/33 83/172/33 86/173/33 85/174/33
f 83/172/34 82/162/34 87/170/34 86/173/34
f 81/161/16 84/175/16 85/176/16 88/169/16
f 89/177/29 90/178/29 91/179/29 92/180/29
f 93/181/31 94/182/31 95/183/31 96/184/31
f 90/178/35 89/177/35 96/185/35 95/186/35
f 92/187/36 91/188/36 94/189/36 93/190/36
f 91/188/34 90/178/34 95/186/34 94/189/34
f 89/177/16 92/191/16 93/192/16 96/185/16
