# Blender v2.79 (sub 0) OBJ File: ''
# www.blender.org
mtllib trin_boat_engine_core_small.mtl
o trin_boat_engine_core_small
v -0.125000 -0.187500 -0.437500
v -0.125000 -0.187500 -0.187500
v 0.125000 -0.187500 -0.187500
v 0.125000 -0.187500 -0.437500
v 0.062500 -0.250000 -0.375000
v 0.062500 -0.250000 -0.250000
v -0.062500 -0.250000 -0.250000
v -0.062500 -0.250000 -0.375000
v -0.125000 0.062500 -0.437500
v -0.125000 0.062500 -0.187500
v 0.125000 0.062500 -0.187500
v 0.125000 0.062500 -0.437500
v 0.125000 -0.187500 -0.437500
v 0.125000 -0.187500 -0.187500
v -0.125000 -0.187500 -0.187500
v -0.125000 -0.187500 -0.437500
v -0.125000 0.062500 -0.187500
v -0.125000 0.062500 0.187500
v 0.125000 0.062500 0.187500
v 0.125000 0.062500 -0.187500
v 0.125000 -0.187500 -0.187500
v 0.125000 -0.125000 0.187500
v -0.125000 -0.125000 0.187500
v -0.125000 -0.187500 -0.187500
v -0.062500 0.125000 -0.375000
v -0.062500 0.125000 0.125000
v 0.062500 0.125000 0.125000
v 0.062500 0.125000 -0.375000
v 0.125000 0.062500 -0.437500
v 0.125000 0.062500 0.187500
v -0.125000 0.062500 0.187500
v -0.125000 0.062500 -0.437500
v -0.062500 -0.250000 -0.375000
v -0.062500 -0.250000 -0.250000
v 0.062500 -0.250000 -0.250000
v 0.062500 -0.250000 -0.375000
v 0.062500 -0.937500 -0.375000
v 0.062500 -0.875000 -0.250000
v -0.062500 -0.875000 -0.250000
v -0.062500 -0.937500 -0.375000
v -0.093750 0.022974 0.152123
v -0.093750 0.200921 0.551799
v -0.031250 0.200921 0.551799
v -0.031250 0.022974 0.152123
v -0.031250 -0.034123 0.177544
v -0.031250 0.143825 0.577220
v -0.093750 0.143825 0.577220
v -0.093750 -0.034123 0.177544
v -0.062500 -0.875000 -0.500000
v -0.062500 -0.875000 -0.375000
v 0.062500 -0.875000 -0.375000
v 0.062500 -0.875000 -0.500000
v 0.062500 -0.937500 -0.375000
v 0.062500 -0.937500 -0.375000
v -0.062500 -0.937500 -0.375000
v -0.062500 -0.937500 -0.375000
v -0.031250 -0.937500 -0.375000
v -0.031250 -0.875000 -0.250000
v 0.031250 -0.875000 -0.250000
v 0.031250 -0.937500 -0.375000
v 0.031250 -1.312500 -0.375000
v 0.031250 -1.250000 -0.250000
v -0.031250 -1.250000 -0.250000
v -0.031250 -1.312500 -0.375000
v -0.062500 -1.062500 -0.406250
v -0.062500 -1.062500 -0.218750
v 0.062500 -1.062500 -0.218750
v 0.062500 -1.062500 -0.406250
v 0.062500 -1.187500 -0.406250
v 0.062500 -1.187500 -0.218750
v -0.062500 -1.187500 -0.218750
v -0.062500 -1.187500 -0.406250
v -0.031250 -1.093750 -0.531250
v -0.031250 -1.093750 -0.406250
v 0.031250 -1.093750 -0.406250
v 0.031250 -1.093750 -0.531250
v 0.031250 -1.156250 -0.531250
v 0.031250 -1.156250 -0.406250
v -0.031250 -1.156250 -0.406250
v -0.031250 -1.156250 -0.531250
v -0.140625 0.062500 -0.406250
v -0.140625 0.062500 0.156250
v -0.078125 0.062500 0.156250
v -0.078125 0.062500 -0.406250
v -0.078125 -0.125000 -0.406250
v -0.078125 -0.125000 0.156250
v -0.140625 -0.125000 0.156250
v -0.140625 -0.125000 -0.406250
v 0.078125 0.062500 -0.406250
v 0.078125 0.062500 0.156250
v 0.140625 0.062500 0.156250
v 0.140625 0.062500 -0.406250
v 0.140625 -0.125000 -0.406250
v 0.140625 -0.125000 0.156250
v 0.078125 -0.125000 0.156250
v 0.078125 -0.125000 -0.406250
vt 1.078125 0.921875
vt 1.140625 0.921875
vt 1.140625 0.984375
vt 1.078125 0.984375
vt 1.140625 0.921875
vt 1.203125 0.921875
vt 1.203125 0.984375
vt 1.140625 0.984375
vt 1.078125 0.906250
vt 1.140625 0.906250
vt 1.265625 0.921875
vt 1.203125 0.921875
vt 1.203125 0.906250
vt 1.265625 0.906250
vt 1.015625 0.921875
vt 1.015625 0.906250
vt 1.453125 0.921875
vt 1.515625 0.921875
vt 1.515625 0.984375
vt 1.453125 0.984375
vt 1.515625 0.921875
vt 1.578125 0.921875
vt 1.578125 0.984375
vt 1.515625 0.984375
vt 1.453125 0.859375
vt 1.515625 0.859375
vt 1.640625 0.921875
vt 1.578125 0.921875
vt 1.578125 0.859375
vt 1.640625 0.859375
vt 1.390625 0.921875
vt 1.390625 0.859375
vt 1.078125 0.796875
vt 1.171875 0.796875
vt 1.171875 0.859375
vt 1.078125 0.859375
vt 1.171875 0.796875
vt 1.265625 0.796875
vt 1.265625 0.859375
vt 1.171875 0.859375
vt 1.078125 0.750000
vt 1.171875 0.750000
vt 1.328125 0.796875
vt 1.234375 0.796875
vt 1.234375 0.750000
vt 1.328125 0.750000
vt 1.015625 0.796875
vt 1.015625 0.750000
vt 1.671875 0.953125
vt 1.796875 0.953125
vt 1.796875 0.984375
vt 1.671875 0.984375
vt 1.796875 0.953125
vt 1.921875 0.953125
vt 1.921875 0.984375
vt 1.796875 0.984375
vt 1.671875 0.937500
vt 1.796875 0.937500
vt 1.953125 0.953125
vt 1.828125 0.953125
vt 1.828125 0.937500
vt 1.953125 0.937500
vt 1.640625 0.953125
vt 1.640625 0.937500
vt 1.671875 0.828125
vt 1.703125 0.828125
vt 1.703125 0.859375
vt 1.671875 0.859375
vt 1.703125 0.828125
vt 1.734375 0.828125
vt 1.734375 0.859375
vt 1.703125 0.859375
vt 1.671875 0.671875
vt 1.703125 0.671875
vt 1.765625 0.828125
vt 1.734375 0.828125
vt 1.734375 0.671875
vt 1.765625 0.671875
vt 1.640625 0.828125
vt 1.640625 0.671875
vt 1.031250 0.718750
vt 1.140625 0.718750
vt 1.140625 0.734375
vt 1.031250 0.734375
vt 1.140625 0.718750
vt 1.250000 0.718750
vt 1.250000 0.734375
vt 1.140625 0.734375
vt 1.031250 0.703125
vt 1.140625 0.703125
vt 1.265625 0.718750
vt 1.156250 0.718750
vt 1.156250 0.703125
vt 1.265625 0.703125
vt 1.015625 0.718750
vt 1.015625 0.703125
vt 1.296875 0.953125
vt 1.328125 0.953125
vt 1.328125 0.984375
vt 1.296875 0.984375
vt 1.328125 0.953125
vt 1.359375 0.953125
vt 1.359375 0.984375
vt 1.328125 0.984375
vt 1.296875 0.937500
vt 1.328125 0.937500
vt 1.390625 0.953125
vt 1.359375 0.953125
vt 1.359375 0.937500
vt 1.390625 0.937500
vt 1.265625 0.953125
vt 1.265625 0.937500
vt 1.906250 0.843750
vt 1.937500 0.843750
vt 1.937500 0.859375
vt 1.906250 0.859375
vt 1.937500 0.843750
vt 1.968750 0.843750
vt 1.968750 0.859375
vt 1.937500 0.859375
vt 1.906250 0.750000
vt 1.937500 0.750000
vt 1.984375 0.843750
vt 1.953125 0.843750
vt 1.953125 0.750000
vt 1.984375 0.750000
vt 1.890625 0.843750
vt 1.890625 0.750000
vt 1.421875 0.703125
vt 1.468750 0.703125
vt 1.468750 0.734375
vt 1.421875 0.734375
vt 1.468750 0.703125
vt 1.515625 0.703125
vt 1.515625 0.734375
vt 1.468750 0.734375
vt 1.421875 0.671875
vt 1.468750 0.671875
vt 1.546875 0.703125
vt 1.500000 0.703125
vt 1.500000 0.671875
vt 1.546875 0.671875
vt 1.390625 0.703125
vt 1.390625 0.671875
vt 1.906250 0.718750
vt 1.937500 0.718750
vt 1.937500 0.734375
vt 1.906250 0.734375
vt 1.937500 0.718750
vt 1.968750 0.718750
vt 1.968750 0.734375
vt 1.937500 0.734375
vt 1.906250 0.703125
vt 1.937500 0.703125
vt 1.984375 0.718750
vt 1.953125 0.718750
vt 1.953125 0.703125
vt 1.984375 0.703125
vt 1.890625 0.718750
vt 1.890625 0.703125
vt 1.531250 0.593750
vt 1.671875 0.593750
vt 1.671875 0.609375
vt 1.531250 0.609375
vt 1.671875 0.593750
vt 1.812500 0.593750
vt 1.812500 0.609375
vt 1.671875 0.609375
vt 1.531250 0.546875
vt 1.671875 0.546875
vt 1.828125 0.593750
vt 1.687500 0.593750
vt 1.687500 0.546875
vt 1.828125 0.546875
vt 1.515625 0.593750
vt 1.515625 0.546875
vt 1.031250 0.468750
vt 1.171875 0.468750
vt 1.171875 0.484375
vt 1.031250 0.484375
vt 1.171875 0.468750
vt 1.312500 0.468750
vt 1.312500 0.484375
vt 1.171875 0.484375
vt 1.031250 0.421875
vt 1.171875 0.421875
vt 1.328125 0.468750
vt 1.187500 0.468750
vt 1.187500 0.421875
vt 1.328125 0.421875
vt 1.015625 0.468750
vt 1.015625 0.421875
vn -0.0000 1.0000 -0.0000
vn 0.0000 -1.0000 -0.0000
vn -0.7071 -0.7071 -0.0000
vn 0.7071 -0.7071 0.0000
vn 0.0000 -0.7071 0.7071
vn 0.0000 -0.7071 -0.7071
vn -1.0000 -0.0000 -0.0000
vn 1.0000 0.0000 0.0000
vn -0.0000 0.0000 1.0000
vn 0.0000 0.0000 -1.0000
vn 0.0000 -0.9864 0.1644
vn -0.7071 0.7071 -0.0000
vn 0.7071 0.7071 0.0000
vn -0.0000 0.7071 0.7071
vn 0.0000 0.7071 -0.7071
vn 0.0000 -0.8944 0.4472
vn 0.0000 0.9135 -0.4067
vn 0.0000 -0.9135 0.4067
vn -0.0000 0.4067 0.9135
vn -0.0000 -0.4067 -0.9135
vn 0.0000 -0.8944 -0.4472
vn 0.0000 0.8944 -0.4472
usemtl ModelMaterial
s off
f 1/1/1 2/2/1 3/3/1 4/4/1
f 5/5/2 6/6/2 7/7/2 8/8/2
f 2/2/3 1/1/3 8/9/3 7/10/3
f 4/11/4 3/12/4 6/13/4 5/14/4
f 3/12/5 2/2/5 7/10/5 6/13/5
f 1/1/6 4/15/6 5/16/6 8/9/6
f 9/17/1 10/18/1 11/19/1 12/20/1
f 13/21/2 14/22/2 15/23/2 16/24/2
f 10/18/7 9/17/7 16/25/7 15/26/7
f 12/27/8 11/28/8 14/29/8 13/30/8
f 11/28/9 10/18/9 15/26/9 14/29/9
f 9/17/10 12/31/10 13/32/10 16/25/10
f 17/33/1 18/34/1 19/35/1 20/36/1
f 21/37/11 22/38/11 23/39/11 24/40/11
f 18/34/7 17/33/7 24/41/7 23/42/7
f 20/43/8 19/44/8 22/45/8 21/46/8
f 19/44/9 18/34/9 23/42/9 22/45/9
f 17/33/10 20/47/10 21/48/10 24/41/10
f 25/49/1 26/50/1 27/51/1 28/52/1
f 29/53/2 30/54/2 31/55/2 32/56/2
f 26/50/12 25/49/12 32/57/12 31/58/12
f 28/59/13 27/60/13 30/61/13 29/62/13
f 27/60/14 26/50/14 31/58/14 30/61/14
f 25/49/15 28/63/15 29/64/15 32/57/15
f 33/65/1 34/66/1 35/67/1 36/68/1
f 37/69/16 38/70/16 39/71/16 40/72/16
f 34/66/7 33/65/7 40/73/7 39/74/7
f 36/75/8 35/76/8 38/77/8 37/78/8
f 35/76/9 34/66/9 39/74/9 38/77/9
f 33/65/10 36/79/10 37/80/10 40/73/10
f 41/81/17 42/82/17 43/83/17 44/84/17
f 45/85/18 46/86/18 47/87/18 48/88/18
f 42/82/7 41/81/7 48/89/7 47/90/7
f 44/91/8 43/92/8 46/93/8 45/94/8
f 43/92/19 42/82/19 47/90/19 46/93/19
f 41/81/20 44/95/20 45/96/20 48/89/20
f 49/97/1 50/98/1 51/99/1 52/100/1
f 53/101/9 54/102/9 55/103/9 56/104/9
f 50/98/7 49/97/7 56/105/7 55/106/7
f 52/107/8 51/108/8 54/109/8 53/110/8
f 51/108/9 50/98/9 55/106/9 54/109/9
f 49/97/21 52/111/21 53/112/21 56/105/21
f 57/113/22 58/114/22 59/115/22 60/116/22
f 61/117/16 62/118/16 63/119/16 64/120/16
f 58/114/7 57/113/7 64/121/7 63/122/7
f 60/123/8 59/124/8 62/125/8 61/126/8
f 59/124/9 58/114/9 63/122/9 62/125/9
f 57/113/10 60/127/10 61/128/10 64/121/10
f 65/129/1 66/130/1 67/131/1 68/132/1
f 69/133/2 70/134/2 71/135/2 72/136/2
f 66/130/7 65/129/7 72/137/7 71/138/7
f 68/139/8 67/140/8 70/141/8 69/142/8
f 67/140/9 66/130/9 71/138/9 70/141/9
f 65/129/10 68/143/10 69/144/10 72/137/10
f 73/145/1 74/146/1 75/147/1 76/148/1
f 77/149/2 78/150/2 79/151/2 80/152/2
f 74/146/7 73/145/7 80/153/7 79/154/7
f 76/155/8 75/156/8 78/157/8 77/158/8
f 75/156/9 74/146/9 79/154/9 78/157/9
f 73/145/10 76/159/10 77/160/10 80/153/10
f 81/161/1 82/162/1 83/163/1 84/164/1
f 85/165/2 86/166/2 87/167/2 88/168/2
f 82/162/7 81/161/7 88/169/7 87/170/7
f 84/171/8 83/172/8 86/173/8 85/174/8
f 83/172/9 82/162/9 87/170/9 86/173/9
f 81/161/10 84/175/10 85/176/10 88/169/10
f 89/177/1 90/178/1 91/179/1 92/180/1
f 93/181/2 94/182/2 95/183/2 96/184/2
f 90/178/7 89/177/7 96/185/7 95/186/7
f 92/187/8 91/188/8 94/189/8 93/190/8
f 91/188/9 90/178/9 95/186/9 94/189/9
f 89/177/10 92/191/10 93/192/10 96/185/10
