# Blender v2.79 (sub 0) OBJ File: ''
# www.blender.org
mtllib trinwheel30t10d_flat.obj.mtl
o trinwheel30t10d_flat.obj
v -0.312500 -0.437500 -0.187500
v -0.312500 -0.437500 0.187500
v 0.312500 -0.437500 0.187500
v 0.312500 -0.437500 -0.187500
v 0.312500 -0.437500 -0.437500
v 0.312500 -0.437500 0.437500
v -0.312500 -0.437500 0.437500
v -0.312500 -0.437500 -0.437500
v -0.312500 0.437500 -0.437500
v -0.312500 0.437500 0.437500
v 0.312500 0.437500 0.437500
v 0.312500 0.437500 -0.437500
v 0.312500 0.437500 -0.187500
v 0.312500 0.437500 0.187500
v -0.312500 0.437500 0.187500
v -0.312500 0.437500 -0.187500
v -0.312500 0.437500 -0.437500
v -0.312500 0.187500 -0.437500
v 0.312500 0.187500 -0.437500
v 0.312500 0.437500 -0.437500
v 0.312500 -0.437500 -0.437500
v 0.312500 -0.187500 -0.437500
v -0.312500 -0.187500 -0.437500
v -0.312500 -0.437500 -0.437500
v -0.312500 0.187500 0.437500
v -0.312500 0.437500 0.437500
v 0.312500 0.437500 0.437500
v 0.312500 0.187500 0.437500
v 0.312500 -0.187500 0.437500
v 0.312500 -0.437500 0.437500
v -0.312500 -0.437500 0.437500
v -0.312500 -0.187500 0.437500
v -0.312500 0.187500 -0.437500
v -0.312500 0.187500 0.437500
v 0.250000 0.187500 0.437500
v 0.250000 0.187500 -0.437500
v 0.250000 -0.187500 -0.437500
v 0.250000 -0.187500 0.437500
v -0.312500 -0.187500 0.437500
v -0.312500 -0.187500 -0.437500
v -0.312500 0.437500 -0.187500
v -0.312500 0.437500 0.187500
v 0.250000 0.437500 0.187500
v 0.250000 0.437500 -0.187500
v 0.250000 0.187500 -0.437500
v 0.250000 0.187500 0.437500
v -0.312500 0.187500 0.437500
v -0.312500 0.187500 -0.437500
v -0.312500 -0.187500 -0.437500
v -0.312500 -0.187500 0.437500
v 0.250000 -0.187500 0.437500
v 0.250000 -0.187500 -0.437500
v 0.250000 -0.437500 -0.187500
v 0.250000 -0.437500 0.187500
v -0.312500 -0.437500 0.187500
v -0.312500 -0.437500 -0.187500
v 0.218750 0.187500 -0.187500
v 0.218750 0.187500 0.187500
v 0.281250 0.187500 0.187500
v 0.281250 0.187500 -0.187500
v 0.281250 -0.187500 -0.187500
v 0.281250 -0.187500 0.187500
v 0.218750 -0.187500 0.187500
v 0.218750 -0.187500 -0.187500
vt 1.085938 0.914062
vt 1.195312 0.914062
vt 1.195312 0.992188
vt 1.085938 0.992188
vt 1.195312 0.914062
vt 1.304688 0.914062
vt 1.304688 0.992188
vt 1.195312 0.992188
vt 1.085938 0.914062
vt 1.195312 0.914062
vt 1.382812 0.914062
vt 1.273438 0.914062
vt 1.273438 0.914062
vt 1.382812 0.914062
vt 1.007812 0.914062
vt 1.007812 0.914062
vt 1.523438 0.914062
vt 1.632812 0.914062
vt 1.632812 0.992188
vt 1.523438 0.992188
vt 1.632812 0.914062
vt 1.742188 0.914062
vt 1.742188 0.992188
vt 1.632812 0.992188
vt 1.523438 0.851562
vt 1.632812 0.851562
vt 1.820312 0.914062
vt 1.710938 0.914062
vt 1.710938 0.851562
vt 1.820312 0.851562
vt 1.445312 0.914062
vt 1.445312 0.851562
vt 1.085938 0.726562
vt 1.085938 0.726562
vt 1.085938 0.804688
vt 1.085938 0.804688
vt 1.085938 0.726562
vt 1.085938 0.726562
vt 1.085938 0.804688
vt 1.085938 0.804688
vt 1.085938 0.617188
vt 1.085938 0.617188
vt 1.164062 0.726562
vt 1.164062 0.726562
vt 1.164062 0.617188
vt 1.164062 0.617188
vt 1.007812 0.726562
vt 1.007812 0.617188
vt 1.398438 0.726562
vt 1.398438 0.726562
vt 1.398438 0.804688
vt 1.398438 0.804688
vt 1.398438 0.726562
vt 1.398438 0.726562
vt 1.398438 0.804688
vt 1.398438 0.804688
vt 1.398438 0.617188
vt 1.398438 0.617188
vt 1.476562 0.726562
vt 1.476562 0.726562
vt 1.476562 0.617188
vt 1.476562 0.617188
vt 1.320312 0.726562
vt 1.320312 0.617188
vt 1.703125 0.359375
vt 1.812500 0.359375
vt 1.812500 0.429688
vt 1.703125 0.429688
vt 1.812500 0.359375
vt 1.921875 0.359375
vt 1.921875 0.429688
vt 1.812500 0.429688
vt 1.703125 0.312500
vt 1.812500 0.312500
vt 1.992188 0.359375
vt 1.882812 0.359375
vt 1.882812 0.312500
vt 1.992188 0.312500
vt 1.632812 0.359375
vt 1.632812 0.312500
vt 1.078125 0.296875
vt 1.187500 0.296875
vt 1.187500 0.367188
vt 1.078125 0.367188
vt 1.187500 0.296875
vt 1.296875 0.296875
vt 1.296875 0.367188
vt 1.187500 0.367188
vt 1.078125 0.265625
vt 1.187500 0.265625
vt 1.367188 0.296875
vt 1.257812 0.296875
vt 1.257812 0.265625
vt 1.367188 0.265625
vt 1.007812 0.296875
vt 1.007812 0.265625
vt 1.390625 0.234375
vt 1.500000 0.234375
vt 1.500000 0.304688
vt 1.390625 0.304688
vt 1.500000 0.234375
vt 1.609375 0.234375
vt 1.609375 0.304688
vt 1.500000 0.304688
vt 1.390625 0.203125
vt 1.500000 0.203125
vt 1.679688 0.234375
vt 1.570312 0.234375
vt 1.570312 0.203125
vt 1.679688 0.203125
vt 1.320312 0.234375
vt 1.320312 0.203125
vt 1.328125 0.984375
vt 1.375000 0.984375
vt 1.375000 0.992188
vt 1.328125 0.992188
vt 1.375000 0.984375
vt 1.421875 0.984375
vt 1.421875 0.992188
vt 1.375000 0.992188
vt 1.328125 0.937500
vt 1.375000 0.937500
vt 1.429688 0.984375
vt 1.382812 0.984375
vt 1.382812 0.937500
vt 1.429688 0.937500
vt 1.320312 0.984375
vt 1.320312 0.937500
vn -0.0000 1.0000 0.0000
vn 0.0000 -1.0000 0.0000
vn 0.0000 0.0000 1.0000
vn 0.6247 0.0000 -0.7809
vn 0.0000 0.0000 -1.0000
vn -1.0000 -0.0000 -0.0000
vn 1.0000 0.0000 0.0000
vn -0.0000 0.7071 0.7071
vn -0.0000 0.7071 -0.7071
vn 0.0000 -0.7071 0.7071
vn 0.0000 -0.7071 -0.7071
usemtl ModelMaterial.001
s off
f 1/1/1 2/2/1 3/3/1 4/4/1
f 5/5/2 6/6/2 7/7/2 8/8/2
f 2/2/3 1/1/3 8/9/3 7/10/3
f 4/11/3 3/12/3 6/13/3 5/14/3
f 3/12/1 2/2/1 7/10/1 6/13/1
f 1/1/1 4/15/1 5/16/1 8/9/1
f 9/17/1 10/18/1 11/19/1 12/20/1
f 13/21/2 14/22/2 15/23/2 16/24/2
f 10/18/3 9/17/3 16/25/3 15/26/3
f 12/27/2 11/28/2 14/29/2 13/30/2
f 11/28/2 10/18/2 15/26/2 14/29/2
f 9/17/2 12/31/2 13/32/2 16/25/2
f 17/33/3 18/34/3 19/35/3 20/36/3
f 21/37/3 22/38/3 23/39/3 24/40/3
f 18/34/3 17/33/3 24/41/3 23/42/3
f 20/43/4 19/44/4 22/45/4 21/46/4
f 19/44/3 18/34/3 23/42/3 22/45/3
f 17/33/5 20/47/5 21/48/5 24/41/5
f 25/49/5 26/50/5 27/51/5 28/52/5
f 29/53/5 30/54/5 31/55/5 32/56/5
f 26/50/3 25/49/3 32/57/3 31/58/3
f 28/59/4 27/60/4 30/61/4 29/62/4
f 27/60/3 26/50/3 31/58/3 30/61/3
f 25/49/5 28/63/5 29/64/5 32/57/5
f 33/65/1 34/66/1 35/67/1 36/68/1
f 37/69/2 38/70/2 39/71/2 40/72/2
f 34/66/6 33/65/6 40/73/6 39/74/6
f 36/75/7 35/76/7 38/77/7 37/78/7
f 35/76/3 34/66/3 39/74/3 38/77/3
f 33/65/5 36/79/5 37/80/5 40/73/5
f 41/81/1 42/82/1 43/83/1 44/84/1
f 45/85/2 46/86/2 47/87/2 48/88/2
f 42/82/6 41/81/6 48/89/6 47/90/6
f 44/91/7 43/92/7 46/93/7 45/94/7
f 43/92/8 42/82/8 47/90/8 46/93/8
f 41/81/9 44/95/9 45/96/9 48/89/9
f 49/97/1 50/98/1 51/99/1 52/100/1
f 53/101/2 54/102/2 55/103/2 56/104/2
f 50/98/6 49/97/6 56/105/6 55/106/6
f 52/107/7 51/108/7 54/109/7 53/110/7
f 51/108/10 50/98/10 55/106/10 54/109/10
f 49/97/11 52/111/11 53/112/11 56/105/11
f 57/113/1 58/114/1 59/115/1 60/116/1
f 61/117/2 62/118/2 63/119/2 64/120/2
f 58/114/6 57/113/6 64/121/6 63/122/6
f 60/123/7 59/124/7 62/125/7 61/126/7
f 59/124/3 58/114/3 63/122/3 62/125/3
f 57/113/5 60/127/5 61/128/5 64/121/5
