# Blender v2.79 (sub 0) OBJ File: ''
# www.blender.org
mtllib trin_seat_bus.obj.mtl
o trin_seat_bus
v -0.375000 -0.125000 -0.125000
v -0.375000 -0.125000 0.750000
v 0.375000 -0.125000 0.750000
v 0.375000 -0.125000 -0.125000
v 0.375000 -0.250000 0.000000
v 0.375000 -0.250000 0.812500
v -0.375000 -0.250000 0.812500
v -0.375000 -0.250000 -0.000000
v -0.250000 0.687500 -0.062500
v -0.250000 0.625000 -0.000000
v 0.250000 0.625000 0.000000
v 0.250000 0.687500 -0.062500
v 0.250000 0.437500 -0.062500
v 0.250000 0.500000 0.000000
v -0.250000 0.500000 -0.000000
v -0.250000 0.437500 -0.062500
v -0.250000 0.687500 -0.125000
v -0.250000 0.687500 -0.062500
v 0.250000 0.687500 -0.062500
v 0.250000 0.687500 -0.125000
v 0.250000 0.625000 -0.187500
v 0.250000 0.625000 -0.062500
v -0.250000 0.625000 -0.062500
v -0.250000 0.625000 -0.187500
v -0.343750 0.625000 -0.187500
v -0.359375 0.625000 -0.062500
v 0.359375 0.625000 -0.062500
v 0.343750 0.625000 -0.187500
v 0.375000 -0.125000 -0.125000
v 0.375000 -0.125000 0.000000
v -0.375000 -0.125000 -0.000000
v -0.375000 -0.125000 -0.125000
vt 1.203125 0.796875
vt 1.421875 0.796875
vt 1.421875 0.984375
vt 1.203125 0.984375
vt 1.421875 0.796875
vt 1.640625 0.796875
vt 1.640625 0.984375
vt 1.421875 0.984375
vt 1.203125 0.765625
vt 1.421875 0.765625
vt 1.828125 0.796875
vt 1.609375 0.796875
vt 1.609375 0.765625
vt 1.828125 0.765625
vt 1.015625 0.796875
vt 1.015625 0.765625
vt 1.140625 0.609375
vt 1.156250 0.609375
vt 1.156250 0.734375
vt 1.140625 0.734375
vt 1.156250 0.609375
vt 1.171875 0.609375
vt 1.171875 0.734375
vt 1.156250 0.734375
vt 1.140625 0.578125
vt 1.156250 0.578125
vt 1.296875 0.609375
vt 1.281250 0.609375
vt 1.281250 0.578125
vt 1.296875 0.578125
vt 1.015625 0.609375
vt 1.015625 0.578125
vt 1.515625 0.609375
vt 1.531250 0.609375
vt 1.531250 0.734375
vt 1.515625 0.734375
vt 1.531250 0.609375
vt 1.546875 0.609375
vt 1.546875 0.734375
vt 1.531250 0.734375
vt 1.515625 0.593750
vt 1.531250 0.593750
vt 1.671875 0.609375
vt 1.656250 0.609375
vt 1.656250 0.593750
vt 1.671875 0.593750
vt 1.390625 0.609375
vt 1.390625 0.593750
vt 1.703125 0.546875
vt 1.734375 0.546875
vt 1.734375 0.734375
vt 1.703125 0.734375
vt 1.734375 0.546875
vt 1.765625 0.546875
vt 1.765625 0.734375
vt 1.734375 0.734375
vt 1.703125 0.359375
vt 1.734375 0.359375
vt 1.953125 0.546875
vt 1.921875 0.546875
vt 1.921875 0.359375
vt 1.953125 0.359375
vt 1.515625 0.546875
vt 1.515625 0.359375
vn -0.0000 1.0000 -0.0000
vn 0.0000 -1.0000 0.0000
vn -1.0000 0.0000 -0.0000
vn 1.0000 0.0000 0.0000
vn -0.0000 0.4472 0.8944
vn 0.0000 -0.7071 -0.7071
vn -0.0000 0.7071 0.7071
vn 0.0000 -0.7071 0.7071
vn -0.0000 0.0000 1.0000
vn 0.0000 0.0000 -1.0000
vn -0.0000 0.7071 -0.7071
vn -0.9977 0.0260 -0.0624
vn 0.9977 0.0260 -0.0624
vn -0.0000 0.0830 0.9965
vn 0.0000 -0.0830 -0.9965
usemtl ModelMaterial
s off
f 1/1/1 2/2/1 3/3/1 4/4/1
f 5/5/2 6/6/2 7/7/2 8/8/2
f 2/2/3 1/1/3 8/9/3 7/10/3
f 4/11/4 3/12/4 6/13/4 5/14/4
f 3/12/5 2/2/5 7/10/5 6/13/5
f 1/1/6 4/15/6 5/16/6 8/9/6
f 9/17/7 10/18/7 11/19/7 12/20/7
f 13/21/8 14/22/8 15/23/8 16/24/8
f 10/18/3 9/17/3 16/25/3 15/26/3
f 12/27/4 11/28/4 14/29/4 13/30/4
f 11/28/9 10/18/9 15/26/9 14/29/9
f 9/17/10 12/31/10 13/32/10 16/25/10
f 17/33/1 18/34/1 19/35/1 20/36/1
f 21/37/2 22/38/2 23/39/2 24/40/2
f 18/34/3 17/33/3 24/41/3 23/42/3
f 20/43/4 19/44/4 22/45/4 21/46/4
f 19/44/9 18/34/9 23/42/9 22/45/9
f 17/33/11 20/47/11 21/48/11 24/41/11
f 25/49/1 26/50/1 27/51/1 28/52/1
f 29/53/2 30/54/2 31/55/2 32/56/2
f 26/50/12 25/49/12 32/57/12 31/58/12
f 28/59/13 27/60/13 30/61/13 29/62/13
f 27/60/14 26/50/14 31/58/14 30/61/14
f 25/49/15 28/63/15 29/64/15 32/57/15
