# Blender v2.79 (sub 0) OBJ File: ''
# www.blender.org
mtllib trin_seat_frying_pan.obj.mtl
o trin_seat_frying_pan.obj
v -0.156250 -0.125000 -0.062500
v -0.218750 -0.125000 0.062500
v -0.156250 -0.125000 0.062500
v -0.156250 -0.125000 -0.062500
v -0.156250 -0.187500 -0.062500
v -0.156250 -0.187500 0.062500
v -0.218750 -0.187500 0.062500
v -0.156250 -0.187500 -0.062500
v 0.156250 -0.125000 -0.062500
v 0.156250 -0.125000 0.062500
v 0.218750 -0.125000 0.062500
v 0.156250 -0.125000 -0.062500
v 0.156250 -0.187500 -0.062500
v 0.218750 -0.187500 0.062500
v 0.156250 -0.187500 0.062500
v 0.156250 -0.187500 -0.062500
v -0.218750 -0.125000 0.062500
v -0.218750 -0.125000 0.250000
v 0.218750 -0.125000 0.250000
v 0.218750 -0.125000 0.062500
v 0.218750 -0.187500 0.062500
v 0.218750 -0.187500 0.250000
v -0.218750 -0.187500 0.250000
v -0.218750 -0.187500 0.062500
v -0.156250 -0.125000 -0.062500
v -0.156250 -0.125000 0.062500
v 0.156250 -0.125000 0.062500
v 0.156250 -0.125000 -0.062500
v 0.156250 -0.187500 -0.062500
v 0.156250 -0.187500 0.062500
v -0.156250 -0.187500 0.062500
v -0.156250 -0.187500 -0.062500
v -0.031250 -0.093750 -0.125000
v -0.156250 -0.125000 -0.062500
v 0.156250 -0.125000 -0.062500
v 0.031250 -0.093750 -0.125000
v 0.031250 -0.156250 -0.125000
v 0.156250 -0.187500 -0.062500
v -0.156250 -0.187500 -0.062500
v -0.031250 -0.156250 -0.125000
v -0.218750 -0.125000 0.250000
v -0.156250 -0.156250 0.312500
v -0.093750 -0.156250 0.312500
v -0.031250 -0.125000 0.250000
v -0.031250 -0.187500 0.250000
v -0.093750 -0.187500 0.312500
v -0.156250 -0.187500 0.312500
v -0.218750 -0.187500 0.250000
v 0.031250 -0.125000 0.250000
v 0.093750 -0.156250 0.312500
v 0.156250 -0.156250 0.312500
v 0.218750 -0.125000 0.250000
v 0.218750 -0.187500 0.250000
v 0.156250 -0.187500 0.312500
v 0.093750 -0.187500 0.312500
v 0.031250 -0.187500 0.250000
vt 1.062500 0.937500
vt 1.125000 0.937500
vt 1.125000 0.968750
vt 1.062500 0.968750
vt 1.125000 0.937500
vt 1.187500 0.937500
vt 1.187500 0.968750
vt 1.125000 0.968750
vt 1.062500 0.906250
vt 1.125000 0.906250
vt 1.218750 0.937500
vt 1.156250 0.937500
vt 1.156250 0.906250
vt 1.218750 0.906250
vt 1.031250 0.937500
vt 1.031250 0.906250
vt 1.312500 0.937500
vt 1.375000 0.937500
vt 1.375000 0.968750
vt 1.312500 0.968750
vt 1.375000 0.937500
vt 1.437500 0.937500
vt 1.437500 0.968750
vt 1.375000 0.968750
vt 1.312500 0.906250
vt 1.375000 0.906250
vt 1.468750 0.937500
vt 1.406250 0.937500
vt 1.406250 0.906250
vt 1.468750 0.906250
vt 1.281250 0.937500
vt 1.281250 0.906250
vt 1.500000 0.750000
vt 1.593750 0.750000
vt 1.593750 0.968750
vt 1.500000 0.968750
vt 1.593750 0.750000
vt 1.687500 0.750000
vt 1.687500 0.968750
vt 1.593750 0.968750
vt 1.500000 0.718750
vt 1.593750 0.718750
vt 1.906250 0.750000
vt 1.812500 0.750000
vt 1.812500 0.718750
vt 1.906250 0.718750
vt 1.281250 0.750000
vt 1.281250 0.718750
vt 1.187500 0.312500
vt 1.250000 0.312500
vt 1.250000 0.468750
vt 1.187500 0.468750
vt 1.250000 0.312500
vt 1.312500 0.312500
vt 1.312500 0.468750
vt 1.250000 0.468750
vt 1.187500 0.281250
vt 1.250000 0.281250
vt 1.468750 0.312500
vt 1.406250 0.312500
vt 1.406250 0.281250
vt 1.468750 0.281250
vt 1.031250 0.312500
vt 1.031250 0.281250
vt 1.187500 0.562500
vt 1.218750 0.562500
vt 1.218750 0.718750
vt 1.187500 0.718750
vt 1.218750 0.562500
vt 1.250000 0.562500
vt 1.250000 0.718750
vt 1.218750 0.718750
vt 1.187500 0.531250
vt 1.218750 0.531250
vt 1.406250 0.562500
vt 1.375000 0.562500
vt 1.375000 0.531250
vt 1.406250 0.531250
vt 1.031250 0.562500
vt 1.031250 0.531250
vt 1.625000 0.375000
vt 1.656250 0.375000
vt 1.656250 0.468750
vt 1.625000 0.468750
vt 1.656250 0.375000
vt 1.687500 0.375000
vt 1.687500 0.468750
vt 1.656250 0.468750
vt 1.625000 0.343750
vt 1.656250 0.343750
vt 1.781250 0.375000
vt 1.750000 0.375000
vt 1.750000 0.343750
vt 1.781250 0.343750
vt 1.531250 0.375000
vt 1.531250 0.343750
vt 1.125000 0.125000
vt 1.156250 0.125000
vt 1.156250 0.218750
vt 1.125000 0.218750
vt 1.156250 0.125000
vt 1.187500 0.125000
vt 1.187500 0.218750
vt 1.156250 0.218750
vt 1.125000 0.093750
vt 1.156250 0.093750
vt 1.281250 0.125000
vt 1.250000 0.125000
vt 1.250000 0.093750
vt 1.281250 0.093750
vt 1.031250 0.125000
vt 1.031250 0.093750
vn 0.0000 1.0000 0.0000
vn 0.0000 -1.0000 0.0000
vn -0.8944 0.0000 -0.4472
vn 1.0000 0.0000 0.0000
vn -0.0000 -0.0000 1.0000
vn -1.0000 0.0000 -0.0000
vn 0.8944 0.0000 -0.4472
vn 0.0000 0.0000 -1.0000
vn -0.0000 0.8944 0.4472
vn 0.0000 -0.8944 -0.4472
vn -0.4472 -0.0000 -0.8944
vn 0.4472 0.0000 -0.8944
vn -0.7071 0.0000 0.7071
vn 0.7071 0.0000 0.7071
usemtl ModelMaterial
s off
f 1/1/1 2/2/1 3/3/1 4/4/1
f 5/5/2 6/6/2 7/7/2 8/8/2
f 2/2/3 1/1/3 8/9/3 7/10/3
f 4/11/4 3/12/4 6/13/4 5/14/4
f 3/12/5 2/2/5 7/10/5 6/13/5
f 1/1/5 4/15/5 5/16/5 8/9/5
f 9/17/1 10/18/1 11/19/1 12/20/1
f 13/21/2 14/22/2 15/23/2 16/24/2
f 10/18/6 9/17/6 16/25/6 15/26/6
f 12/27/7 11/28/7 14/29/7 13/30/7
f 11/28/5 10/18/5 15/26/5 14/29/5
f 9/17/5 12/31/5 13/32/5 16/25/5
f 17/33/1 18/34/1 19/35/1 20/36/1
f 21/37/2 22/38/2 23/39/2 24/40/2
f 18/34/6 17/33/6 24/41/6 23/42/6
f 20/43/4 19/44/4 22/45/4 21/46/4
f 19/44/5 18/34/5 23/42/5 22/45/5
f 17/33/8 20/47/8 21/48/8 24/41/8
f 25/49/1 26/50/1 27/51/1 28/52/1
f 29/53/2 30/54/2 31/55/2 32/56/2
f 26/50/6 25/49/6 32/57/6 31/58/6
f 28/59/4 27/60/4 30/61/4 29/62/4
f 27/60/5 26/50/5 31/58/5 30/61/5
f 25/49/8 28/63/8 29/64/8 32/57/8
f 33/65/9 34/66/9 35/67/9 36/68/9
f 37/69/10 38/70/10 39/71/10 40/72/10
f 34/66/11 33/65/11 40/73/11 39/74/11
f 36/75/12 35/76/12 38/77/12 37/78/12
f 35/76/5 34/66/5 39/74/5 38/77/5
f 33/65/8 36/79/8 37/80/8 40/73/8
f 41/81/9 42/82/9 43/83/9 44/84/9
f 45/85/2 46/86/2 47/87/2 48/88/2
f 42/82/13 41/81/13 48/89/13 47/90/13
f 44/91/14 43/92/14 46/93/14 45/94/14
f 43/92/5 42/82/5 47/90/5 46/93/5
f 41/81/8 44/95/8 45/96/8 48/89/8
f 49/97/9 50/98/9 51/99/9 52/100/9
f 53/101/2 54/102/2 55/103/2 56/104/2
f 50/98/13 49/97/13 56/105/13 55/106/13
f 52/107/14 51/108/14 54/109/14 53/110/14
f 51/108/5 50/98/5 55/106/5 54/109/5
f 49/97/8 52/111/8 53/112/8 56/105/8
