# Blender v2.79 (sub 0) OBJ File: ''
# www.blender.org
mtllib trin_wheel_bike.obj.mtl
o trin_wheel_bike.obj
v -0.015625 -0.062500 -0.015625
v -0.015625 -0.062500 0.015625
v 0.015625 -0.062500 0.015625
v 0.015625 -0.062500 -0.015625
v 0.015625 -0.375000 -0.015625
v 0.015625 -0.375000 0.015625
v -0.015625 -0.375000 0.015625
v -0.015625 -0.375000 -0.015625
v -0.031250 0.062500 -0.062500
v -0.031250 0.062500 0.062500
v 0.031250 0.062500 0.062500
v 0.031250 0.062500 -0.062500
v 0.031250 -0.062500 -0.062500
v 0.031250 -0.062500 0.062500
v -0.031250 -0.062500 0.062500
v -0.031250 -0.062500 -0.062500
v -0.046875 0.187500 0.375000
v -0.046875 0.187500 0.437500
v 0.046875 0.187500 0.437500
v 0.046875 0.187500 0.375000
v 0.046875 -0.187500 0.375000
v 0.046875 -0.187500 0.437500
v -0.046875 -0.187500 0.437500
v -0.046875 -0.187500 0.375000
v -0.046875 0.187500 -0.437500
v -0.046875 0.187500 -0.375000
v 0.046875 0.187500 -0.375000
v 0.046875 0.187500 -0.437500
v 0.046875 -0.187500 -0.437500
v 0.046875 -0.187500 -0.375000
v -0.046875 -0.187500 -0.375000
v -0.046875 -0.187500 -0.437500
v -0.046875 0.437500 -0.187500
v -0.046875 0.437500 0.187500
v 0.046875 0.437500 0.187500
v 0.046875 0.437500 -0.187500
v 0.046875 0.375000 -0.187500
v 0.046875 0.375000 0.187500
v -0.046875 0.375000 0.187500
v -0.046875 0.375000 -0.187500
v -0.046875 -0.375000 -0.187500
v -0.046875 -0.375000 0.187500
v 0.046875 -0.375000 0.187500
v 0.046875 -0.375000 -0.187500
v 0.046875 -0.437500 -0.187500
v 0.046875 -0.437500 0.187500
v -0.046875 -0.437500 0.187500
v -0.046875 -0.437500 -0.187500
v -0.046875 -0.375000 0.187500
v -0.046875 -0.187500 0.375000
v 0.046875 -0.187500 0.375000
v 0.046875 -0.375000 0.187500
v 0.046875 -0.437500 0.187500
v 0.046875 -0.187500 0.437500
v -0.046875 -0.187500 0.437500
v -0.046875 -0.437500 0.187500
v -0.046875 -0.187500 -0.375000
v -0.046875 -0.375000 -0.187500
v 0.046875 -0.375000 -0.187500
v 0.046875 -0.187500 -0.375000
v 0.046875 -0.187500 -0.437500
v 0.046875 -0.437500 -0.187500
v -0.046875 -0.437500 -0.187500
v -0.046875 -0.187500 -0.437500
v -0.046875 0.187500 -0.437500
v -0.046875 0.437500 -0.187500
v 0.046875 0.437500 -0.187500
v 0.046875 0.187500 -0.437500
v 0.046875 0.187500 -0.375000
v 0.046875 0.375000 -0.187500
v -0.046875 0.375000 -0.187500
v -0.046875 0.187500 -0.375000
v -0.046875 0.437500 0.187500
v -0.046875 0.187500 0.437500
v 0.046875 0.187500 0.437500
v 0.046875 0.437500 0.187500
v 0.046875 0.375000 0.187500
v 0.046875 0.187500 0.375000
v -0.046875 0.187500 0.375000
v -0.046875 0.375000 0.187500
v -0.015625 -0.055243 0.033146
v -0.015625 -0.033146 0.055243
v 0.015625 -0.033146 0.055243
v 0.015625 -0.055243 0.033146
v 0.015625 -0.320408 0.298311
v 0.015625 -0.298311 0.320408
v -0.015625 -0.298311 0.320408
v -0.015625 -0.320408 0.298311
v -0.015625 0.033146 0.055243
v -0.015625 0.055243 0.033146
v 0.015625 0.055243 0.033146
v 0.015625 0.033146 0.055243
v 0.015625 0.298311 0.320408
v 0.015625 0.320408 0.298311
v -0.015625 0.320408 0.298311
v -0.015625 0.298311 0.320408
v -0.015625 -0.015625 0.062500
v -0.015625 0.015625 0.062500
v 0.015625 0.015625 0.062500
v 0.015625 -0.015625 0.062500
v 0.015625 -0.015625 0.375000
v 0.015625 0.015625 0.375000
v -0.015625 0.015625 0.375000
v -0.015625 -0.015625 0.375000
v -0.015625 0.055243 -0.033146
v -0.015625 0.033146 -0.055243
v 0.015625 0.033146 -0.055243
v 0.015625 0.055243 -0.033146
v 0.015625 0.320408 -0.298311
v 0.015625 0.298311 -0.320408
v -0.015625 0.298311 -0.320408
v -0.015625 0.320408 -0.298311
v -0.015625 0.062500 0.015625
v -0.015625 0.062500 -0.015625
v 0.015625 0.062500 -0.015625
v 0.015625 0.062500 0.015625
v 0.015625 0.375000 0.015625
v 0.015625 0.375000 -0.015625
v -0.015625 0.375000 -0.015625
v -0.015625 0.375000 0.015625
v -0.015625 0.015625 -0.062500
v -0.015625 -0.015625 -0.062500
v 0.015625 -0.015625 -0.062500
v 0.015625 0.015625 -0.062500
v 0.015625 0.015625 -0.375000
v 0.015625 -0.015625 -0.375000
v -0.015625 -0.015625 -0.375000
v -0.015625 0.015625 -0.375000
v -0.015625 -0.033146 -0.055243
v -0.015625 -0.055243 -0.033146
v 0.015625 -0.055243 -0.033146
v 0.015625 -0.033146 -0.055243
v 0.015625 -0.298311 -0.320408
v 0.015625 -0.320408 -0.298311
v -0.015625 -0.320408 -0.298311
v -0.015625 -0.298311 -0.320408
v -0.015625 -0.063722 0.009482
v -0.015625 -0.051763 0.038353
v 0.015625 -0.051763 0.038353
v 0.015625 -0.063722 0.009482
v 0.015625 -0.410177 0.152988
v 0.015625 -0.398218 0.181860
v -0.015625 -0.398218 0.181860
v -0.015625 -0.410177 0.152988
v -0.015625 -0.038353 0.051763
v -0.015625 -0.009482 0.063722
v 0.015625 -0.009482 0.063722
v 0.015625 -0.038353 0.051763
v 0.015625 -0.181860 0.398218
v 0.015625 -0.152988 0.410177
v -0.015625 -0.152988 0.410177
v -0.015625 -0.181860 0.398218
v -0.015625 0.009482 0.063722
v -0.015625 0.038353 0.051763
v 0.015625 0.038353 0.051763
v 0.015625 0.009482 0.063722
v 0.015625 0.152988 0.410177
v 0.015625 0.181860 0.398218
v -0.015625 0.181860 0.398218
v -0.015625 0.152988 0.410177
v -0.015625 0.051763 0.038353
v -0.015625 0.063722 0.009482
v 0.015625 0.063722 0.009482
v 0.015625 0.051763 0.038353
v 0.015625 0.398218 0.181860
v 0.015625 0.410177 0.152988
v -0.015625 0.410177 0.152988
v -0.015625 0.398218 0.181860
v -0.015625 0.063722 -0.009482
v -0.015625 0.051763 -0.038353
v 0.015625 0.051763 -0.038353
v 0.015625 0.063722 -0.009482
v 0.015625 0.410177 -0.152988
v 0.015625 0.398218 -0.181860
v -0.015625 0.398218 -0.181860
v -0.015625 0.410177 -0.152988
v -0.015625 0.038353 -0.051763
v -0.015625 0.009482 -0.063722
v 0.015625 0.009482 -0.063722
v 0.015625 0.038353 -0.051763
v 0.015625 0.181860 -0.398218
v 0.015625 0.152988 -0.410177
v -0.015625 0.152988 -0.410177
v -0.015625 0.181860 -0.398218
v -0.015625 -0.009482 -0.063722
v -0.015625 -0.038353 -0.051763
v 0.015625 -0.038353 -0.051763
v 0.015625 -0.009482 -0.063722
v 0.015625 -0.152988 -0.410177
v 0.015625 -0.181860 -0.398218
v -0.015625 -0.181860 -0.398218
v -0.015625 -0.152988 -0.410177
v -0.015625 -0.051763 -0.038353
v -0.015625 -0.063722 -0.009482
v 0.015625 -0.063722 -0.009482
v 0.015625 -0.051763 -0.038353
v 0.015625 -0.398218 -0.181860
v 0.015625 -0.410177 -0.152988
v -0.015625 -0.410177 -0.152988
v -0.015625 -0.398218 -0.181860
vt 1.031250 0.937500
vt 1.046875 0.937500
vt 1.046875 0.968750
vt 1.031250 0.968750
vt 1.046875 0.937500
vt 1.062500 0.937500
vt 1.062500 0.968750
vt 1.046875 0.968750
vt 1.031250 0.781250
vt 1.046875 0.781250
vt 1.078125 0.937500
vt 1.062500 0.937500
vt 1.062500 0.781250
vt 1.078125 0.781250
vt 1.015625 0.937500
vt 1.015625 0.781250
vt 1.156250 0.937500
vt 1.187500 0.937500
vt 1.187500 0.968750
vt 1.156250 0.968750
vt 1.187500 0.937500
vt 1.218750 0.937500
vt 1.218750 0.968750
vt 1.187500 0.968750
vt 1.156250 0.875000
vt 1.187500 0.875000
vt 1.234375 0.937500
vt 1.203125 0.937500
vt 1.203125 0.875000
vt 1.234375 0.875000
vt 1.140625 0.937500
vt 1.140625 0.875000
vt 1.281250 0.937500
vt 1.296875 0.937500
vt 1.296875 0.968750
vt 1.281250 0.968750
vt 1.296875 0.937500
vt 1.312500 0.937500
vt 1.312500 0.968750
vt 1.296875 0.968750
vt 1.281250 0.750000
vt 1.296875 0.750000
vt 1.328125 0.937500
vt 1.312500 0.937500
vt 1.312500 0.750000
vt 1.328125 0.750000
vt 1.265625 0.937500
vt 1.265625 0.750000
vt 1.406250 0.937500
vt 1.421875 0.937500
vt 1.421875 0.968750
vt 1.406250 0.968750
vt 1.421875 0.937500
vt 1.437500 0.937500
vt 1.437500 0.968750
vt 1.421875 0.968750
vt 1.406250 0.750000
vt 1.421875 0.750000
vt 1.453125 0.937500
vt 1.437500 0.937500
vt 1.437500 0.750000
vt 1.453125 0.750000
vt 1.390625 0.937500
vt 1.390625 0.750000
vt 1.531250 0.937500
vt 1.625000 0.937500
vt 1.625000 0.968750
vt 1.531250 0.968750
vt 1.625000 0.937500
vt 1.718750 0.937500
vt 1.718750 0.968750
vt 1.625000 0.968750
vt 1.531250 0.906250
vt 1.625000 0.906250
vt 1.734375 0.937500
vt 1.640625 0.937500
vt 1.640625 0.906250
vt 1.734375 0.906250
vt 1.515625 0.937500
vt 1.515625 0.906250
vt 1.781250 0.937500
vt 1.875000 0.937500
vt 1.875000 0.968750
vt 1.781250 0.968750
vt 1.875000 0.937500
vt 1.968750 0.937500
vt 1.968750 0.968750
vt 1.875000 0.968750
vt 1.781250 0.906250
vt 1.875000 0.906250
vt 1.984375 0.937500
vt 1.890625 0.937500
vt 1.890625 0.906250
vt 1.984375 0.906250
vt 1.765625 0.937500
vt 1.765625 0.906250
vt 1.031250 0.687500
vt 1.078125 0.687500
vt 1.078125 0.718750
vt 1.031250 0.718750
vt 1.078125 0.687500
vt 1.125000 0.687500
vt 1.125000 0.718750
vt 1.078125 0.718750
vt 1.031250 0.656250
vt 1.078125 0.656250
vt 1.140625 0.687500
vt 1.093750 0.687500
vt 1.093750 0.656250
vt 1.140625 0.656250
vt 1.015625 0.687500
vt 1.015625 0.656250
vt 1.281250 0.687500
vt 1.328125 0.687500
vt 1.328125 0.718750
vt 1.281250 0.718750
vt 1.328125 0.687500
vt 1.375000 0.687500
vt 1.375000 0.718750
vt 1.328125 0.718750
vt 1.281250 0.656250
vt 1.328125 0.656250
vt 1.390625 0.687500
vt 1.343750 0.687500
vt 1.343750 0.656250
vt 1.390625 0.656250
vt 1.265625 0.687500
vt 1.265625 0.656250
vt 1.531250 0.687500
vt 1.578125 0.687500
vt 1.578125 0.718750
vt 1.531250 0.718750
vt 1.578125 0.687500
vt 1.625000 0.687500
vt 1.625000 0.718750
vt 1.578125 0.718750
vt 1.531250 0.656250
vt 1.578125 0.656250
vt 1.640625 0.687500
vt 1.593750 0.687500
vt 1.593750 0.656250
vt 1.640625 0.656250
vt 1.515625 0.687500
vt 1.515625 0.656250
vt 1.781250 0.687500
vt 1.828125 0.687500
vt 1.828125 0.718750
vt 1.781250 0.718750
vt 1.828125 0.687500
vt 1.875000 0.687500
vt 1.875000 0.718750
vt 1.828125 0.718750
vt 1.781250 0.656250
vt 1.828125 0.656250
vt 1.890625 0.687500
vt 1.843750 0.687500
vt 1.843750 0.656250
vt 1.890625 0.656250
vt 1.765625 0.687500
vt 1.765625 0.656250
vt 1.031250 0.562500
vt 1.046875 0.562500
vt 1.046875 0.593750
vt 1.031250 0.593750
vt 1.046875 0.562500
vt 1.062500 0.562500
vt 1.062500 0.593750
vt 1.046875 0.593750
vt 1.031250 0.375000
vt 1.046875 0.375000
vt 1.078125 0.562500
vt 1.062500 0.562500
vt 1.062500 0.375000
vt 1.078125 0.375000
vt 1.015625 0.562500
vt 1.015625 0.375000
vt 1.156250 0.562500
vt 1.171875 0.562500
vt 1.171875 0.593750
vt 1.156250 0.593750
vt 1.171875 0.562500
vt 1.187500 0.562500
vt 1.187500 0.593750
vt 1.171875 0.593750
vt 1.156250 0.375000
vt 1.171875 0.375000
vt 1.203125 0.562500
vt 1.187500 0.562500
vt 1.187500 0.375000
vt 1.203125 0.375000
vt 1.140625 0.562500
vt 1.140625 0.375000
vt 1.281250 0.562500
vt 1.296875 0.562500
vt 1.296875 0.593750
vt 1.281250 0.593750
vt 1.296875 0.562500
vt 1.312500 0.562500
vt 1.312500 0.593750
vt 1.296875 0.593750
vt 1.281250 0.406250
vt 1.296875 0.406250
vt 1.328125 0.562500
vt 1.312500 0.562500
vt 1.312500 0.406250
vt 1.328125 0.406250
vt 1.265625 0.562500
vt 1.265625 0.406250
vt 1.406250 0.562500
vt 1.421875 0.562500
vt 1.421875 0.593750
vt 1.406250 0.593750
vt 1.421875 0.562500
vt 1.437500 0.562500
vt 1.437500 0.593750
vt 1.421875 0.593750
vt 1.406250 0.375000
vt 1.421875 0.375000
vt 1.453125 0.562500
vt 1.437500 0.562500
vt 1.437500 0.375000
vt 1.453125 0.375000
vt 1.390625 0.562500
vt 1.390625 0.375000
vt 1.531250 0.562500
vt 1.546875 0.562500
vt 1.546875 0.593750
vt 1.531250 0.593750
vt 1.546875 0.562500
vt 1.562500 0.562500
vt 1.562500 0.593750
vt 1.546875 0.593750
vt 1.531250 0.406250
vt 1.546875 0.406250
vt 1.578125 0.562500
vt 1.562500 0.562500
vt 1.562500 0.406250
vt 1.578125 0.406250
vt 1.515625 0.562500
vt 1.515625 0.406250
vt 1.656250 0.562500
vt 1.671875 0.562500
vt 1.671875 0.593750
vt 1.656250 0.593750
vt 1.671875 0.562500
vt 1.687500 0.562500
vt 1.687500 0.593750
vt 1.671875 0.593750
vt 1.656250 0.406250
vt 1.671875 0.406250
vt 1.703125 0.562500
vt 1.687500 0.562500
vt 1.687500 0.406250
vt 1.703125 0.406250
vt 1.640625 0.562500
vt 1.640625 0.406250
vt 1.781250 0.562500
vt 1.796875 0.562500
vt 1.796875 0.593750
vt 1.781250 0.593750
vt 1.796875 0.562500
vt 1.812500 0.562500
vt 1.812500 0.593750
vt 1.796875 0.593750
vt 1.781250 0.375000
vt 1.796875 0.375000
vt 1.828125 0.562500
vt 1.812500 0.562500
vt 1.812500 0.375000
vt 1.828125 0.375000
vt 1.765625 0.562500
vt 1.765625 0.375000
vt 1.906250 0.562500
vt 1.921875 0.562500
vt 1.921875 0.593750
vt 1.906250 0.593750
vt 1.921875 0.562500
vt 1.937500 0.562500
vt 1.937500 0.593750
vt 1.921875 0.593750
vt 1.906250 0.375000
vt 1.921875 0.375000
vt 1.953125 0.562500
vt 1.937500 0.562500
vt 1.937500 0.375000
vt 1.953125 0.375000
vt 1.890625 0.562500
vt 1.890625 0.375000
vt 1.031250 0.281250
vt 1.046875 0.281250
vt 1.046875 0.312500
vt 1.031250 0.312500
vt 1.046875 0.281250
vt 1.062500 0.281250
vt 1.062500 0.312500
vt 1.046875 0.312500
vt 1.031250 0.093750
vt 1.046875 0.093750
vt 1.078125 0.281250
vt 1.062500 0.281250
vt 1.062500 0.093750
vt 1.078125 0.093750
vt 1.015625 0.281250
vt 1.015625 0.093750
vt 1.156250 0.281250
vt 1.171875 0.281250
vt 1.171875 0.312500
vt 1.156250 0.312500
vt 1.171875 0.281250
vt 1.187500 0.281250
vt 1.187500 0.312500
vt 1.171875 0.312500
vt 1.156250 0.093750
vt 1.171875 0.093750
vt 1.203125 0.281250
vt 1.187500 0.281250
vt 1.187500 0.093750
vt 1.203125 0.093750
vt 1.140625 0.281250
vt 1.140625 0.093750
vt 1.281250 0.281250
vt 1.296875 0.281250
vt 1.296875 0.312500
vt 1.281250 0.312500
vt 1.296875 0.281250
vt 1.312500 0.281250
vt 1.312500 0.312500
vt 1.296875 0.312500
vt 1.281250 0.093750
vt 1.296875 0.093750
vt 1.328125 0.281250
vt 1.312500 0.281250
vt 1.312500 0.093750
vt 1.328125 0.093750
vt 1.265625 0.281250
vt 1.265625 0.093750
vt 1.406250 0.281250
vt 1.421875 0.281250
vt 1.421875 0.312500
vt 1.406250 0.312500
vt 1.421875 0.281250
vt 1.437500 0.281250
vt 1.437500 0.312500
vt 1.421875 0.312500
vt 1.406250 0.093750
vt 1.421875 0.093750
vt 1.453125 0.281250
vt 1.437500 0.281250
vt 1.437500 0.093750
vt 1.453125 0.093750
vt 1.390625 0.281250
vt 1.390625 0.093750
vt 1.531250 0.281250
vt 1.546875 0.281250
vt 1.546875 0.312500
vt 1.531250 0.312500
vt 1.546875 0.281250
vt 1.562500 0.281250
vt 1.562500 0.312500
vt 1.546875 0.312500
vt 1.531250 0.093750
vt 1.546875 0.093750
vt 1.578125 0.281250
vt 1.562500 0.281250
vt 1.562500 0.093750
vt 1.578125 0.093750
vt 1.515625 0.281250
vt 1.515625 0.093750
vt 1.656250 0.281250
vt 1.671875 0.281250
vt 1.671875 0.312500
vt 1.656250 0.312500
vt 1.671875 0.281250
vt 1.687500 0.281250
vt 1.687500 0.312500
vt 1.671875 0.312500
vt 1.656250 0.093750
vt 1.671875 0.093750
vt 1.703125 0.281250
vt 1.687500 0.281250
vt 1.687500 0.093750
vt 1.703125 0.093750
vt 1.640625 0.281250
vt 1.640625 0.093750
vt 1.781250 0.281250
vt 1.796875 0.281250
vt 1.796875 0.312500
vt 1.781250 0.312500
vt 1.796875 0.281250
vt 1.812500 0.281250
vt 1.812500 0.312500
vt 1.796875 0.312500
vt 1.781250 0.093750
vt 1.796875 0.093750
vt 1.828125 0.281250
vt 1.812500 0.281250
vt 1.812500 0.093750
vt 1.828125 0.093750
vt 1.765625 0.281250
vt 1.765625 0.093750
vn -0.0000 1.0000 0.0000
vn 0.0000 -1.0000 -0.0000
vn -1.0000 -0.0000 -0.0000
vn 1.0000 0.0000 0.0000
vn -0.0000 -0.0000 1.0000
vn 0.0000 0.0000 -1.0000
vn -0.0000 0.7071 -0.7071
vn 0.0000 -0.7071 0.7071
vn -0.0000 0.7071 0.7071
vn 0.0000 -0.7071 -0.7071
vn -0.0000 0.9239 -0.3827
vn 0.0000 -0.9239 0.3827
vn -0.0000 0.3827 0.9239
vn 0.0000 -0.3827 -0.9239
vn 0.0000 0.3827 -0.9239
vn 0.0000 -0.3827 0.9239
vn 0.0000 0.9239 0.3827
vn 0.0000 -0.9239 -0.3827
usemtl ModelMaterial
s off
f 1/1/1 2/2/1 3/3/1 4/4/1
f 5/5/2 6/6/2 7/7/2 8/8/2
f 2/2/3 1/1/3 8/9/3 7/10/3
f 4/11/4 3/12/4 6/13/4 5/14/4
f 3/12/5 2/2/5 7/10/5 6/13/5
f 1/1/6 4/15/6 5/16/6 8/9/6
f 9/17/1 10/18/1 11/19/1 12/20/1
f 13/21/2 14/22/2 15/23/2 16/24/2
f 10/18/3 9/17/3 16/25/3 15/26/3
f 12/27/4 11/28/4 14/29/4 13/30/4
f 11/28/5 10/18/5 15/26/5 14/29/5
f 9/17/6 12/31/6 13/32/6 16/25/6
f 17/33/1 18/34/1 19/35/1 20/36/1
f 21/37/2 22/38/2 23/39/2 24/40/2
f 18/34/3 17/33/3 24/41/3 23/42/3
f 20/43/4 19/44/4 22/45/4 21/46/4
f 19/44/5 18/34/5 23/42/5 22/45/5
f 17/33/6 20/47/6 21/48/6 24/41/6
f 25/49/1 26/50/1 27/51/1 28/52/1
f 29/53/2 30/54/2 31/55/2 32/56/2
f 26/50/3 25/49/3 32/57/3 31/58/3
f 28/59/4 27/60/4 30/61/4 29/62/4
f 27/60/5 26/50/5 31/58/5 30/61/5
f 25/49/6 28/63/6 29/64/6 32/57/6
f 33/65/1 34/66/1 35/67/1 36/68/1
f 37/69/2 38/70/2 39/71/2 40/72/2
f 34/66/3 33/65/3 40/73/3 39/74/3
f 36/75/4 35/76/4 38/77/4 37/78/4
f 35/76/5 34/66/5 39/74/5 38/77/5
f 33/65/6 36/79/6 37/80/6 40/73/6
f 41/81/1 42/82/1 43/83/1 44/84/1
f 45/85/2 46/86/2 47/87/2 48/88/2
f 42/82/3 41/81/3 48/89/3 47/90/3
f 44/91/4 43/92/4 46/93/4 45/94/4
f 43/92/5 42/82/5 47/90/5 46/93/5
f 41/81/6 44/95/6 45/96/6 48/89/6
f 49/97/7 50/98/7 51/99/7 52/100/7
f 53/101/8 54/102/8 55/103/8 56/104/8
f 50/98/3 49/97/3 56/105/3 55/106/3
f 52/107/4 51/108/4 54/109/4 53/110/4
f 51/108/1 50/98/1 55/106/1 54/109/1
f 49/97/6 52/111/6 53/112/6 56/105/6
f 57/113/9 58/114/9 59/115/9 60/116/9
f 61/117/10 62/118/10 63/119/10 64/120/10
f 58/114/3 57/113/3 64/121/3 63/122/3
f 60/123/4 59/124/4 62/125/4 61/126/4
f 59/124/5 58/114/5 63/122/5 62/125/5
f 57/113/1 60/127/1 61/128/1 64/121/1
f 65/129/7 66/130/7 67/131/7 68/132/7
f 69/133/8 70/134/8 71/135/8 72/136/8
f 66/130/3 65/129/3 72/137/3 71/138/3
f 68/139/4 67/140/4 70/141/4 69/142/4
f 67/140/5 66/130/5 71/138/5 70/141/5
f 65/129/2 68/143/2 69/144/2 72/137/2
f 73/145/9 74/146/9 75/147/9 76/148/9
f 77/149/10 78/150/10 79/151/10 80/152/10
f 74/146/3 73/145/3 80/153/3 79/154/3
f 76/155/4 75/156/4 78/157/4 77/158/4
f 75/156/2 74/146/2 79/154/2 78/157/2
f 73/145/6 76/159/6 77/160/6 80/153/6
f 81/161/7 82/162/7 83/163/7 84/164/7
f 85/165/8 86/166/8 87/167/8 88/168/8
f 82/162/3 81/161/3 88/169/3 87/170/3
f 84/171/4 83/172/4 86/173/4 85/174/4
f 83/172/9 82/162/9 87/170/9 86/173/9
f 81/161/10 84/175/10 85/176/10 88/169/10
f 89/177/10 90/178/10 91/179/10 92/180/10
f 93/181/9 94/182/9 95/183/9 96/184/9
f 90/178/3 89/177/3 96/185/3 95/186/3
f 92/187/4 91/188/4 94/189/4 93/190/4
f 91/188/7 90/178/7 95/186/7 94/189/7
f 89/177/8 92/191/8 93/192/8 96/185/8
f 97/193/6 98/194/6 99/195/6 100/196/6
f 101/197/5 102/198/5 103/199/5 104/200/5
f 98/194/3 97/193/3 104/201/3 103/202/3
f 100/203/4 99/204/4 102/205/4 101/206/4
f 99/204/1 98/194/1 103/202/1 102/205/1
f 97/193/2 100/207/2 101/208/2 104/201/2
f 105/209/8 106/210/8 107/211/8 108/212/8
f 109/213/7 110/214/7 111/215/7 112/216/7
f 106/210/3 105/209/3 112/217/3 111/218/3
f 108/219/4 107/220/4 110/221/4 109/222/4
f 107/220/10 106/210/10 111/218/10 110/221/10
f 105/209/9 108/223/9 109/224/9 112/217/9
f 113/225/2 114/226/2 115/227/2 116/228/2
f 117/229/1 118/230/1 119/231/1 120/232/1
f 114/226/3 113/225/3 120/233/3 119/234/3
f 116/235/4 115/236/4 118/237/4 117/238/4
f 115/236/6 114/226/6 119/234/6 118/237/6
f 113/225/5 116/239/5 117/240/5 120/233/5
f 121/241/5 122/242/5 123/243/5 124/244/5
f 125/245/6 126/246/6 127/247/6 128/248/6
f 122/242/3 121/241/3 128/249/3 127/250/3
f 124/251/4 123/252/4 126/253/4 125/254/4
f 123/252/2 122/242/2 127/250/2 126/253/2
f 121/241/1 124/255/1 125/256/1 128/249/1
f 129/257/9 130/258/9 131/259/9 132/260/9
f 133/261/10 134/262/10 135/263/10 136/264/10
f 130/258/3 129/257/3 136/265/3 135/266/3
f 132/267/4 131/268/4 134/269/4 133/270/4
f 131/268/8 130/258/8 135/266/8 134/269/8
f 129/257/7 132/271/7 133/272/7 136/265/7
f 137/273/11 138/274/11 139/275/11 140/276/11
f 141/277/12 142/278/12 143/279/12 144/280/12
f 138/274/3 137/273/3 144/281/3 143/282/3
f 140/283/4 139/284/4 142/285/4 141/286/4
f 139/284/13 138/274/13 143/282/13 142/285/13
f 137/273/14 140/287/14 141/288/14 144/281/14
f 145/289/15 146/290/15 147/291/15 148/292/15
f 149/293/16 150/294/16 151/295/16 152/296/16
f 146/290/3 145/289/3 152/297/3 151/298/3
f 148/299/4 147/300/4 150/301/4 149/302/4
f 147/300/17 146/290/17 151/298/17 150/301/17
f 145/289/18 148/303/18 149/304/18 152/297/18
f 153/305/14 154/306/14 155/307/14 156/308/14
f 157/309/13 158/310/13 159/311/13 160/312/13
f 154/306/3 153/305/3 160/313/3 159/314/3
f 156/315/4 155/316/4 158/317/4 157/318/4
f 155/316/11 154/306/11 159/314/11 158/317/11
f 153/305/12 156/319/12 157/320/12 160/313/12
f 161/321/18 162/322/18 163/323/18 164/324/18
f 165/325/17 166/326/17 167/327/17 168/328/17
f 162/322/3 161/321/3 168/329/3 167/330/3
f 164/331/4 163/332/4 166/333/4 165/334/4
f 163/332/15 162/322/15 167/330/15 166/333/15
f 161/321/16 164/335/16 165/336/16 168/329/16
f 169/337/12 170/338/12 171/339/12 172/340/12
f 173/341/11 174/342/11 175/343/11 176/344/11
f 170/338/3 169/337/3 176/345/3 175/346/3
f 172/347/4 171/348/4 174/349/4 173/350/4
f 171/348/14 170/338/14 175/346/14 174/349/14
f 169/337/13 172/351/13 173/352/13 176/345/13
f 177/353/16 178/354/16 179/355/16 180/356/16
f 181/357/15 182/358/15 183/359/15 184/360/15
f 178/354/3 177/353/3 184/361/3 183/362/3
f 180/363/4 179/364/4 182/365/4 181/366/4
f 179/364/18 178/354/18 183/362/18 182/365/18
f 177/353/17 180/367/17 181/368/17 184/361/17
f 185/369/13 186/370/13 187/371/13 188/372/13
f 189/373/14 190/374/14 191/375/14 192/376/14
f 186/370/3 185/369/3 192/377/3 191/378/3
f 188/379/4 187/380/4 190/381/4 189/382/4
f 187/380/12 186/370/12 191/378/12 190/381/12
f 185/369/11 188/383/11 189/384/11 192/377/11
f 193/385/17 194/386/17 195/387/17 196/388/17
f 197/389/18 198/390/18 199/391/18 200/392/18
f 194/386/3 193/385/3 200/393/3 199/394/3
f 196/395/4 195/396/4 198/397/4 197/398/4
f 195/396/16 194/386/16 199/394/16 198/397/16
f 193/385/15 196/399/15 197/400/15 200/393/15
