# Blender v2.79 (sub 0) OBJ File: ''
# www.blender.org
mtllib trin_boat_engine_propeller_medium.mtl
o trin_boat_engine_propeller_small
v -0.062500 0.000000 -0.062500
v -0.062500 0.000000 -0.062500
v 0.062500 0.000000 0.000000
v 0.000000 -0.062500 -0.062500
v 0.000000 -0.187500 -0.062500
v 0.187500 -0.375000 -0.000000
v -0.062500 -0.312500 -0.000000
v -0.062500 -0.187500 -0.062500
v 0.000000 0.062500 -0.062500
v 0.000000 0.062500 -0.062500
v 0.000000 -0.062500 -0.000000
v -0.062500 0.000000 -0.062500
v -0.187500 0.000000 -0.062500
v -0.375000 -0.187500 -0.000000
v -0.312500 0.062500 0.000000
v -0.187500 0.062500 -0.062500
v 0.062500 0.000000 -0.062500
v 0.062500 0.000000 -0.062500
v -0.062500 0.000000 0.000000
v 0.000000 0.062500 -0.062500
v 0.000000 0.187500 -0.062500
v -0.187500 0.375000 0.000000
v 0.062500 0.312500 0.000000
v 0.062500 0.187500 -0.062500
v 0.000000 -0.062500 -0.062500
v 0.000000 -0.062500 -0.062500
v 0.000000 0.062500 0.000000
v 0.062500 0.000000 -0.062500
v 0.187500 0.000000 -0.062500
v 0.375000 0.187500 0.000000
v 0.312500 -0.062500 -0.000000
v 0.187500 -0.062500 -0.062500
vt 1.031250 0.593750
vt 1.046875 0.593750
vt 1.046875 0.609375
vt 1.031250 0.609375
vt 1.046875 0.593750
vt 1.062500 0.593750
vt 1.062500 0.609375
vt 1.046875 0.609375
vt 1.031250 0.562500
vt 1.046875 0.562500
vt 1.078125 0.593750
vt 1.062500 0.593750
vt 1.062500 0.562500
vt 1.078125 0.562500
vt 1.015625 0.593750
vt 1.015625 0.562500
vt 1.156250 0.593750
vt 1.171875 0.593750
vt 1.171875 0.609375
vt 1.156250 0.609375
vt 1.171875 0.593750
vt 1.187500 0.593750
vt 1.187500 0.609375
vt 1.171875 0.609375
vt 1.156250 0.562500
vt 1.171875 0.562500
vt 1.203125 0.593750
vt 1.187500 0.593750
vt 1.187500 0.562500
vt 1.203125 0.562500
vt 1.140625 0.593750
vt 1.140625 0.562500
vt 1.281250 0.593750
vt 1.296875 0.593750
vt 1.296875 0.609375
vt 1.281250 0.609375
vt 1.296875 0.593750
vt 1.312500 0.593750
vt 1.312500 0.609375
vt 1.296875 0.609375
vt 1.281250 0.562500
vt 1.296875 0.562500
vt 1.328125 0.593750
vt 1.312500 0.593750
vt 1.312500 0.562500
vt 1.328125 0.562500
vt 1.265625 0.593750
vt 1.265625 0.562500
vt 1.406250 0.593750
vt 1.421875 0.593750
vt 1.421875 0.609375
vt 1.406250 0.609375
vt 1.421875 0.593750
vt 1.437500 0.593750
vt 1.437500 0.609375
vt 1.421875 0.609375
vt 1.406250 0.562500
vt 1.421875 0.562500
vt 1.453125 0.593750
vt 1.437500 0.593750
vt 1.437500 0.562500
vt 1.453125 0.562500
vt 1.390625 0.593750
vt 1.390625 0.562500
vn 0.4082 0.4082 -0.8165
vn -0.0825 -0.4124 -0.9073
vn -1.0000 0.0000 0.0000
vn 0.4924 0.1231 -0.8616
vn -0.1541 0.0616 0.9861
vn 0.0000 0.0000 -1.0000
vn 0.4082 -0.4082 -0.8165
vn -0.4124 0.0825 -0.9073
vn 0.0000 1.0000 0.0000
vn 0.1231 -0.4924 -0.8616
vn 0.0616 0.1541 0.9861
vn -0.4082 -0.4082 -0.8165
vn 0.0825 0.4124 -0.9073
vn 1.0000 0.0000 0.0000
vn -0.4924 -0.1231 -0.8616
vn 0.1541 -0.0616 0.9861
vn -0.4082 0.4082 -0.8165
vn 0.4124 -0.0825 -0.9073
vn 0.0000 -1.0000 -0.0000
vn -0.1231 0.4924 -0.8616
vn -0.0616 -0.1541 0.9861
usemtl ModelMaterial
s 1
f 1/1/1 2/2/1 3/3/1 4/4/1
f 5/5/2 6/6/2 7/7/2 8/8/2
f 2/2/3 1/1/3 8/9/3 7/10/3
f 4/11/4 3/12/4 6/13/4 5/14/4
f 3/12/5 2/2/5 7/10/5 6/13/5
f 1/1/6 4/15/6 5/16/6 8/9/6
f 9/17/7 10/18/7 11/19/7 12/20/7
f 13/21/8 14/22/8 15/23/8 16/24/8
f 10/18/9 9/17/9 16/25/9 15/26/9
f 12/27/10 11/28/10 14/29/10 13/30/10
f 11/28/11 10/18/11 15/26/11 14/29/11
f 9/17/6 12/31/6 13/32/6 16/25/6
f 17/33/12 18/34/12 19/35/12 20/36/12
f 21/37/13 22/38/13 23/39/13 24/40/13
f 18/34/14 17/33/14 24/41/14 23/42/14
f 20/43/15 19/44/15 22/45/15 21/46/15
f 19/44/16 18/34/16 23/42/16 22/45/16
f 17/33/6 20/47/6 21/48/6 24/41/6
f 25/49/17 26/50/17 27/51/17 28/52/17
f 29/53/18 30/54/18 31/55/18 32/56/18
f 26/50/19 25/49/19 32/57/19 31/58/19
f 28/59/20 27/60/20 30/61/20 29/62/20
f 27/60/21 26/50/21 31/58/21 30/61/21
f 25/49/6 28/63/6 29/64/6 32/57/6
