# Blender v2.79 (sub 0) OBJ File: ''
# www.blender.org
mtllib nirt_v6_compact.obj.mtl
o bodyModel
v -0.250000 0.250000 -0.000000
v -0.250000 0.250000 1.062500
v 0.250000 0.250000 1.062500
v 0.250000 0.250000 0.000000
v 0.250000 0.000000 0.000000
v 0.250000 0.000000 1.062500
v -0.250000 -0.000000 1.062500
v -0.250000 -0.000000 -0.000000
v -0.125000 -0.000000 -0.000000
v -0.125000 -0.000000 0.500000
v 0.125000 0.000000 0.500000
v 0.125000 0.000000 0.000000
v 0.125000 -0.125000 0.000000
v 0.125000 -0.125000 0.375000
v -0.125000 -0.125000 0.375000
v -0.125000 -0.125000 -0.000000
v -0.343817 0.195038 0.031250
v -0.343817 0.195038 1.031250
v -0.158031 0.362321 1.031250
v -0.158031 0.362321 0.031250
v -0.032569 0.222981 0.031250
v -0.032569 0.222981 1.031250
v -0.218355 0.055698 1.031250
v -0.218355 0.055698 0.031250
v 0.158031 0.362321 0.031250
v 0.158031 0.362321 1.031250
v 0.343817 0.195038 1.031250
v 0.343817 0.195038 0.031250
v 0.218355 0.055698 0.031250
v 0.218355 0.055698 1.031250
v 0.032569 0.222981 1.031250
v 0.032569 0.222981 0.031250
vt 1.140625 0.859375
vt 1.406250 0.859375
vt 1.406250 0.984375
vt 1.140625 0.984375
vt 1.406250 0.859375
vt 1.671875 0.859375
vt 1.671875 0.984375
vt 1.406250 0.984375
vt 1.140625 0.796875
vt 1.406250 0.796875
vt 1.796875 0.859375
vt 1.531250 0.859375
vt 1.531250 0.796875
vt 1.796875 0.796875
vt 1.015625 0.859375
vt 1.015625 0.796875
vt 1.078125 0.671875
vt 1.171875 0.671875
vt 1.171875 0.734375
vt 1.078125 0.734375
vt 1.171875 0.671875
vt 1.265625 0.671875
vt 1.265625 0.734375
vt 1.171875 0.734375
vt 1.078125 0.640625
vt 1.171875 0.640625
vt 1.328125 0.671875
vt 1.234375 0.671875
vt 1.234375 0.640625
vt 1.328125 0.640625
vt 1.015625 0.671875
vt 1.015625 0.640625
vt 1.078125 0.546875
vt 1.328125 0.546875
vt 1.328125 0.609375
vt 1.078125 0.609375
vt 1.328125 0.546875
vt 1.578125 0.546875
vt 1.578125 0.609375
vt 1.328125 0.609375
vt 1.078125 0.500000
vt 1.328125 0.500000
vt 1.640625 0.546875
vt 1.390625 0.546875
vt 1.390625 0.500000
vt 1.640625 0.500000
vt 1.015625 0.546875
vt 1.015625 0.500000
vt 1.078125 0.421875
vt 1.328125 0.421875
vt 1.328125 0.484375
vt 1.078125 0.484375
vt 1.328125 0.421875
vt 1.578125 0.421875
vt 1.578125 0.484375
vt 1.328125 0.484375
vt 1.078125 0.375000
vt 1.328125 0.375000
vt 1.640625 0.421875
vt 1.390625 0.421875
vt 1.390625 0.375000
vt 1.640625 0.375000
vt 1.015625 0.421875
vt 1.015625 0.375000
vn -0.0000 1.0000 0.0000
vn 0.0000 -1.0000 0.0000
vn -1.0000 -0.0000 -0.0000
vn 1.0000 0.0000 0.0000
vn 0.0000 0.0000 1.0000
vn 0.0000 -0.0000 -1.0000
vn 0.0000 -0.7071 0.7071
vn -0.6691 0.7431 -0.0000
vn 0.6691 -0.7431 0.0000
vn -0.7431 -0.6691 -0.0000
vn 0.7431 0.6691 0.0000
vn 0.6691 0.7431 0.0000
vn -0.6691 -0.7431 -0.0000
vn -0.7431 0.6691 -0.0000
vn 0.7431 -0.6691 0.0000
usemtl ModelMaterial
s off
f 1/1/1 2/2/1 3/3/1 4/4/1
f 5/5/2 6/6/2 7/7/2 8/8/2
f 2/2/3 1/1/3 8/9/3 7/10/3
f 4/11/4 3/12/4 6/13/4 5/14/4
f 3/12/5 2/2/5 7/10/5 6/13/5
f 1/1/6 4/15/6 5/16/6 8/9/6
f 9/17/1 10/18/1 11/19/1 12/20/1
f 13/21/2 14/22/2 15/23/2 16/24/2
f 10/18/3 9/17/3 16/25/3 15/26/3
f 12/27/4 11/28/4 14/29/4 13/30/4
f 11/28/7 10/18/7 15/26/7 14/29/7
f 9/17/6 12/31/6 13/32/6 16/25/6
f 17/33/8 18/34/8 19/35/8 20/36/8
f 21/37/9 22/38/9 23/39/9 24/40/9
f 18/34/10 17/33/10 24/41/10 23/42/10
f 20/43/11 19/44/11 22/45/11 21/46/11
f 19/44/5 18/34/5 23/42/5 22/45/5
f 17/33/6 20/47/6 21/48/6 24/41/6
f 25/49/12 26/50/12 27/51/12 28/52/12
f 29/53/13 30/54/13 31/55/13 32/56/13
f 26/50/14 25/49/14 32/57/14 31/58/14
f 28/59/15 27/60/15 30/61/15 29/62/15
f 27/60/5 26/50/5 31/58/5 30/61/5
f 25/49/6 28/63/6 29/64/6 32/57/6
