# Blender v2.79 (sub 0) OBJ File: ''
# www.blender.org
mtllib truck_bed_flatbedwalled.obj.mtl
o door_bed
v -1.437500 0.312500 -6.062500
v -1.437500 0.312500 -6.000000
v 1.437500 0.312500 -6.000000
v 1.437500 0.312500 -6.062500
v 1.437500 0.125000 -6.062500
v 1.437500 0.062500 -6.000000
v -1.437500 0.062500 -6.000000
v -1.437500 0.125000 -6.062500
v -1.437500 0.562500 -6.062500
v -1.437500 0.562500 -6.000000
v 1.437500 0.562500 -6.000000
v 1.437500 0.562500 -6.062500
v 1.437500 0.375000 -6.062500
v 1.437500 0.312500 -6.000000
v -1.437500 0.312500 -6.000000
v -1.437500 0.375000 -6.062500
v -1.437500 0.812500 -6.062500
v -1.437500 0.812500 -6.000000
v 1.437500 0.812500 -6.000000
v 1.437500 0.812500 -6.062500
v 1.437500 0.625000 -6.062500
v 1.437500 0.562500 -6.000000
v -1.437500 0.562500 -6.000000
v -1.437500 0.625000 -6.062500
v -1.375000 0.812500 -6.000000
v -1.375000 0.750000 -5.937500
v 1.375000 0.750000 -5.937500
v 1.375000 0.812500 -6.000000
v 1.375000 0.125000 -6.000000
v 1.375000 0.125000 -5.937500
v -1.375000 0.125000 -5.937500
v -1.375000 0.125000 -6.000000
v -0.125000 0.750000 -6.093750
v -0.125000 0.750000 -5.906250
v 0.125000 0.750000 -5.906250
v 0.125000 0.750000 -6.093750
v 0.125000 0.687500 -6.093750
v 0.125000 0.687500 -5.906250
v -0.125000 0.687500 -5.906250
v -0.125000 0.687500 -6.093750
vt 1.201172 0.535156
vt 1.203125 0.535156
vt 1.203125 0.714844
vt 1.201172 0.714844
vt 1.203125 0.535156
vt 1.205078 0.535156
vt 1.205078 0.714844
vt 1.203125 0.714844
vt 1.201172 0.523438
vt 1.203125 0.523438
vt 1.294922 0.535156
vt 1.292969 0.535156
vt 1.292969 0.523438
vt 1.294922 0.523438
vt 1.111328 0.535156
vt 1.111328 0.523438
vt 1.482422 0.535156
vt 1.484375 0.535156
vt 1.484375 0.714844
vt 1.482422 0.714844
vt 1.484375 0.535156
vt 1.486328 0.535156
vt 1.486328 0.714844
vt 1.484375 0.714844
vt 1.482422 0.523438
vt 1.484375 0.523438
vt 1.576172 0.535156
vt 1.574219 0.535156
vt 1.574219 0.523438
vt 1.576172 0.523438
vt 1.392578 0.535156
vt 1.392578 0.523438
vt 1.669922 0.535156
vt 1.671875 0.535156
vt 1.671875 0.714844
vt 1.669922 0.714844
vt 1.671875 0.535156
vt 1.673828 0.535156
vt 1.673828 0.714844
vt 1.671875 0.714844
vt 1.669922 0.523438
vt 1.671875 0.523438
vt 1.763672 0.535156
vt 1.761719 0.535156
vt 1.761719 0.523438
vt 1.763672 0.523438
vt 1.580078 0.535156
vt 1.580078 0.523438
vt 1.884766 0.542969
vt 1.886719 0.542969
vt 1.886719 0.714844
vt 1.884766 0.714844
vt 1.886719 0.542969
vt 1.888672 0.542969
vt 1.888672 0.714844
vt 1.886719 0.714844
vt 1.884766 0.503906
vt 1.886719 0.503906
vt 1.974609 0.542969
vt 1.972656 0.542969
vt 1.972656 0.503906
vt 1.974609 0.503906
vt 1.798828 0.542969
vt 1.798828 0.503906
vt 1.869141 0.980469
vt 1.875000 0.980469
vt 1.875000 0.996094
vt 1.869141 0.996094
vt 1.875000 0.980469
vt 1.880859 0.980469
vt 1.880859 0.996094
vt 1.875000 0.996094
vt 1.869141 0.976562
vt 1.875000 0.976562
vt 1.888672 0.980469
vt 1.882812 0.980469
vt 1.882812 0.976562
vt 1.888672 0.976562
vt 1.861328 0.980469
vt 1.861328 0.976562
vn -0.0000 1.0000 0.0000
vn -0.0000 -0.7071 -0.7071
vn -1.0000 0.0000 0.0000
vn 1.0000 0.0000 0.0000
vn -0.0000 0.0000 1.0000
vn 0.0000 0.0000 -1.0000
vn -0.0000 0.7071 0.7071
vn 0.0000 -1.0000 0.0000
usemtl ModelMaterial
s off
f 1/1/1 2/2/1 3/3/1 4/4/1
f 5/5/2 6/6/2 7/7/2 8/8/2
f 2/2/3 1/1/3 8/9/3 7/10/3
f 4/11/4 3/12/4 6/13/4 5/14/4
f 3/12/5 2/2/5 7/10/5 6/13/5
f 1/1/6 4/15/6 5/16/6 8/9/6
f 9/17/1 10/18/1 11/19/1 12/20/1
f 13/21/2 14/22/2 15/23/2 16/24/2
f 10/18/3 9/17/3 16/25/3 15/26/3
f 12/27/4 11/28/4 14/29/4 13/30/4
f 11/28/5 10/18/5 15/26/5 14/29/5
f 9/17/6 12/31/6 13/32/6 16/25/6
f 17/33/1 18/34/1 19/35/1 20/36/1
f 21/37/2 22/38/2 23/39/2 24/40/2
f 18/34/3 17/33/3 24/41/3 23/42/3
f 20/43/4 19/44/4 22/45/4 21/46/4
f 19/44/5 18/34/5 23/42/5 22/45/5
f 17/33/6 20/47/6 21/48/6 24/41/6
f 25/49/7 26/50/7 27/51/7 28/52/7
f 29/53/8 30/54/8 31/55/8 32/56/8
f 26/50/3 25/49/3 32/57/3 31/58/3
f 28/59/4 27/60/4 30/61/4 29/62/4
f 27/60/5 26/50/5 31/58/5 30/61/5
f 25/49/6 28/63/6 29/64/6 32/57/6
f 33/65/1 34/66/1 35/67/1 36/68/1
f 37/69/8 38/70/8 39/71/8 40/72/8
f 34/66/3 33/65/3 40/73/3 39/74/3
f 36/75/4 35/76/4 38/77/4 37/78/4
f 35/76/5 34/66/5 39/74/5 38/77/5
f 33/65/6 36/79/6 37/80/6 40/73/6
o core
v -1.437500 0.125000 -6.000000
v -1.437500 0.125000 -0.000000
v 1.437500 0.125000 0.000000
v 1.437500 0.125000 -6.000000
v 1.437500 0.000000 -6.000000
v 1.437500 0.000000 0.000000
v -1.437500 -0.000000 -0.000000
v -1.437500 -0.000000 -6.000000
v -1.500000 0.812500 -6.000000
v -1.500000 0.812500 -0.000000
v -1.437500 0.812500 -0.000000
v -1.437500 0.812500 -6.000000
v -1.437500 0.562500 -6.000000
v -1.437500 0.562500 -0.000000
v -1.500000 0.625000 -0.000000
v -1.500000 0.625000 -6.000000
v -1.500000 0.562500 -6.000000
v -1.500000 0.562500 -0.000000
v -1.437500 0.562500 -0.000000
v -1.437500 0.562500 -6.000000
v -1.437500 0.312500 -6.000000
v -1.437500 0.312500 -0.000000
v -1.500000 0.375000 -0.000000
v -1.500000 0.375000 -6.000000
v -1.500000 0.312500 -6.000000
v -1.500000 0.312500 -0.000000
v -1.437500 0.312500 -0.000000
v -1.437500 0.312500 -6.000000
v -1.437500 0.062500 -6.000000
v -1.437500 0.062500 -0.000000
v -1.500000 0.125000 -0.000000
v -1.500000 0.125000 -6.000000
v 1.375000 0.750000 -6.000000
v 1.375000 0.750000 -0.062500
v 1.437500 0.812500 -0.062500
v 1.437500 0.812500 -6.000000
v 1.437500 0.125000 -6.000000
v 1.437500 0.125000 -0.062500
v 1.375000 0.125000 -0.062500
v 1.375000 0.125000 -6.000000
v 1.437500 0.312500 -6.000000
v 1.437500 0.312500 0.000000
v 1.500000 0.312500 0.000000
v 1.500000 0.312500 -6.000000
v 1.500000 0.125000 -6.000000
v 1.500000 0.125000 0.000000
v 1.437500 0.062500 0.000000
v 1.437500 0.062500 -6.000000
v 1.437500 0.562500 -6.000000
v 1.437500 0.562500 0.000000
v 1.500000 0.562500 0.000000
v 1.500000 0.562500 -6.000000
v 1.500000 0.375000 -6.000000
v 1.500000 0.375000 0.000000
v 1.437500 0.312500 0.000000
v 1.437500 0.312500 -6.000000
v 1.437500 0.812500 -6.000000
v 1.437500 0.812500 0.000000
v 1.500000 0.812500 0.000000
v 1.500000 0.812500 -6.000000
v 1.500000 0.625000 -6.000000
v 1.500000 0.625000 0.000000
v 1.437500 0.562500 0.000000
v 1.437500 0.562500 -6.000000
v -1.437500 0.812500 -6.000000
v -1.437500 0.812500 -0.062500
v -1.375000 0.750000 -0.062500
v -1.375000 0.750000 -6.000000
v -1.375000 0.125000 -6.000000
v -1.375000 0.125000 -0.062500
v -1.437500 0.125000 -0.062500
v -1.437500 0.125000 -6.000000
v -1.437500 0.812500 -0.062500
v -1.437500 0.812500 -0.000000
v 1.437500 0.812500 0.000000
v 1.437500 0.812500 -0.062500
v 1.437500 0.125000 -0.062500
v 1.437500 0.125000 0.000000
v -1.437500 0.125000 -0.000000
v -1.437500 0.125000 -0.062500
v -1.437500 1.812500 -0.062500
v -1.437500 1.812500 -0.000000
v -1.375000 1.812500 -0.000000
v -1.375000 1.812500 -0.062500
v -1.437500 0.937500 -0.062500
v -1.437500 0.937500 -0.000000
v -1.500000 0.937500 -0.000000
v -1.500000 0.937500 -0.062500
v 1.375000 1.812500 -0.062500
v 1.375000 1.812500 0.000000
v 1.437500 1.812500 0.000000
v 1.437500 1.812500 -0.062500
v 1.500000 0.937500 -0.062500
v 1.500000 0.937500 0.000000
v 1.437500 0.937500 0.000000
v 1.437500 0.937500 -0.062500
v -1.375000 1.875000 -0.062500
v -1.375000 1.875000 -0.000000
v 1.375000 1.875000 0.000000
v 1.375000 1.875000 -0.062500
v 1.437500 1.812500 -0.062500
v 1.437500 1.812500 0.000000
v -1.437500 1.812500 -0.000000
v -1.437500 1.812500 -0.062500
v 0.625000 1.812500 -0.062500
v 0.625000 1.812500 0.000000
v 0.687500 1.812500 0.000000
v 0.687500 1.812500 -0.062500
v 0.687500 0.937500 -0.062500
v 0.687500 0.937500 0.000000
v 0.625000 0.937500 0.000000
v 0.625000 0.937500 -0.062500
v 0.687500 1.812500 -0.031250
v 0.687500 1.812500 -0.031250
v 1.437500 1.812500 -0.031250
v 1.437500 1.812500 -0.031250
v 1.437500 0.937500 -0.031250
v 1.437500 0.937500 -0.031250
v 0.687500 0.937500 -0.031250
v 0.687500 0.937500 -0.031250
v -0.687500 1.812500 -0.062500
v -0.687500 1.812500 -0.000000
v -0.625000 1.812500 -0.000000
v -0.625000 1.812500 -0.062500
v -0.625000 0.937500 -0.062500
v -0.625000 0.937500 -0.000000
v -0.687500 0.937500 -0.000000
v -0.687500 0.937500 -0.062500
v -1.437500 1.812500 -0.031250
v -1.437500 1.812500 -0.031250
v -0.687500 1.812500 -0.031250
v -0.687500 1.812500 -0.031250
v -0.687500 0.937500 -0.031250
v -0.687500 0.937500 -0.031250
v -1.437500 0.937500 -0.031250
v -1.437500 0.937500 -0.031250
v -0.625000 1.812500 -0.031250
v -0.625000 1.812500 -0.031250
v 0.625000 1.812500 -0.031250
v 0.625000 1.812500 -0.031250
v 0.625000 0.937500 -0.031250
v 0.625000 0.937500 -0.031250
v -0.625000 0.937500 -0.031250
v -0.625000 0.937500 -0.031250
v -1.500000 0.937500 -0.062500
v -1.500000 0.937500 -0.000000
v 1.500000 0.937500 0.000000
v 1.500000 0.937500 -0.062500
v 1.500000 0.812500 -0.062500
v 1.500000 0.812500 0.000000
v -1.500000 0.812500 -0.000000
v -1.500000 0.812500 -0.062500
v 0.625000 0.750000 -0.125000
v 0.625000 0.812500 -0.062500
v 0.687500 0.812500 -0.062500
v 0.687500 0.750000 -0.125000
v 0.687500 0.125000 -0.125000
v 0.687500 0.125000 -0.062500
v 0.625000 0.125000 -0.062500
v 0.625000 0.125000 -0.125000
v -0.687500 0.750000 -0.125000
v -0.687500 0.812500 -0.062500
v -0.625000 0.812500 -0.062500
v -0.625000 0.750000 -0.125000
v -0.625000 0.125000 -0.125000
v -0.625000 0.125000 -0.062500
v -0.687500 0.125000 -0.062500
v -0.687500 0.125000 -0.125000
vt 1.091797 0.816406
vt 1.279297 0.816406
vt 1.279297 0.996094
vt 1.091797 0.996094
vt 1.279297 0.816406
vt 1.466797 0.816406
vt 1.466797 0.996094
vt 1.279297 0.996094
vt 1.091797 0.808594
vt 1.279297 0.808594
vt 1.556641 0.816406
vt 1.369141 0.816406
vt 1.369141 0.808594
vt 1.556641 0.808594
vt 1.001953 0.816406
vt 1.001953 0.808594
vt 1.472656 0.992188
vt 1.660156 0.992188
vt 1.660156 0.996094
vt 1.472656 0.996094
vt 1.660156 0.992188
vt 1.847656 0.992188
vt 1.847656 0.996094
vt 1.660156 0.996094
vt 1.472656 0.980469
vt 1.660156 0.980469
vt 1.849609 0.992188
vt 1.662109 0.992188
vt 1.662109 0.980469
vt 1.849609 0.980469
vt 1.470703 0.992188
vt 1.470703 0.980469
vt 1.472656 0.960938
vt 1.660156 0.960938
vt 1.660156 0.964844
vt 1.472656 0.964844
vt 1.660156 0.960938
vt 1.847656 0.960938
vt 1.847656 0.964844
vt 1.660156 0.964844
vt 1.472656 0.949219
vt 1.660156 0.949219
vt 1.849609 0.960938
vt 1.662109 0.960938
vt 1.662109 0.949219
vt 1.849609 0.949219
vt 1.470703 0.960938
vt 1.470703 0.949219
vt 1.472656 0.929688
vt 1.660156 0.929688
vt 1.660156 0.933594
vt 1.472656 0.933594
vt 1.660156 0.929688
vt 1.847656 0.929688
vt 1.847656 0.933594
vt 1.660156 0.933594
vt 1.472656 0.917969
vt 1.660156 0.917969
vt 1.849609 0.929688
vt 1.662109 0.929688
vt 1.662109 0.917969
vt 1.849609 0.917969
vt 1.470703 0.929688
vt 1.470703 0.917969
vt 1.472656 0.898438
vt 1.658203 0.898438
vt 1.658203 0.902344
vt 1.472656 0.902344
vt 1.658203 0.898438
vt 1.843750 0.898438
vt 1.843750 0.902344
vt 1.658203 0.902344
vt 1.472656 0.859375
vt 1.658203 0.859375
vt 1.845703 0.898438
vt 1.660156 0.898438
vt 1.660156 0.859375
vt 1.845703 0.859375
vt 1.470703 0.898438
vt 1.470703 0.859375
vt 1.472656 0.835938
vt 1.660156 0.835938
vt 1.660156 0.839844
vt 1.472656 0.839844
vt 1.660156 0.835938
vt 1.847656 0.835938
vt 1.847656 0.839844
vt 1.660156 0.839844
vt 1.472656 0.824219
vt 1.660156 0.824219
vt 1.849609 0.835938
vt 1.662109 0.835938
vt 1.662109 0.824219
vt 1.849609 0.824219
vt 1.470703 0.835938
vt 1.470703 0.824219
vt 1.566406 0.804688
vt 1.753906 0.804688
vt 1.753906 0.808594
vt 1.566406 0.808594
vt 1.753906 0.804688
vt 1.941406 0.804688
vt 1.941406 0.808594
vt 1.753906 0.808594
vt 1.566406 0.792969
vt 1.753906 0.792969
vt 1.943359 0.804688
vt 1.755859 0.804688
vt 1.755859 0.792969
vt 1.943359 0.792969
vt 1.564453 0.804688
vt 1.564453 0.792969
vt 1.003906 0.773438
vt 1.191406 0.773438
vt 1.191406 0.777344
vt 1.003906 0.777344
vt 1.191406 0.773438
vt 1.378906 0.773438
vt 1.378906 0.777344
vt 1.191406 0.777344
vt 1.003906 0.761719
vt 1.191406 0.761719
vt 1.380859 0.773438
vt 1.193359 0.773438
vt 1.193359 0.761719
vt 1.380859 0.761719
vt 1.001953 0.773438
vt 1.001953 0.761719
vt 1.394531 0.773438
vt 1.580078 0.773438
vt 1.580078 0.777344
vt 1.394531 0.777344
vt 1.580078 0.773438
vt 1.765625 0.773438
vt 1.765625 0.777344
vt 1.580078 0.777344
vt 1.394531 0.734375
vt 1.580078 0.734375
vt 1.767578 0.773438
vt 1.582031 0.773438
vt 1.582031 0.734375
vt 1.767578 0.734375
vt 1.392578 0.773438
vt 1.392578 0.734375
vt 1.779297 0.597656
vt 1.781250 0.597656
vt 1.781250 0.777344
vt 1.779297 0.777344
vt 1.781250 0.597656
vt 1.783203 0.597656
vt 1.783203 0.777344
vt 1.781250 0.777344
vt 1.779297 0.554688
vt 1.781250 0.554688
vt 1.873047 0.597656
vt 1.871094 0.597656
vt 1.871094 0.554688
vt 1.873047 0.554688
vt 1.689453 0.597656
vt 1.689453 0.554688
vt 1.003906 0.992188
vt 1.005859 0.992188
vt 1.005859 0.996094
vt 1.003906 0.996094
vt 1.005859 0.992188
vt 1.007812 0.992188
vt 1.007812 0.996094
vt 1.005859 0.996094
vt 1.003906 0.937500
vt 1.005859 0.937500
vt 1.009766 0.992188
vt 1.007812 0.992188
vt 1.007812 0.937500
vt 1.009766 0.937500
vt 1.001953 0.992188
vt 1.001953 0.937500
vt 1.019531 0.992188
vt 1.021484 0.992188
vt 1.021484 0.996094
vt 1.019531 0.996094
vt 1.021484 0.992188
vt 1.023438 0.992188
vt 1.023438 0.996094
vt 1.021484 0.996094
vt 1.019531 0.937500
vt 1.021484 0.937500
vt 1.025391 0.992188
vt 1.023438 0.992188
vt 1.023438 0.937500
vt 1.025391 0.937500
vt 1.017578 0.992188
vt 1.017578 0.937500
vt 1.384766 0.605469
vt 1.386719 0.605469
vt 1.386719 0.777344
vt 1.384766 0.777344
vt 1.386719 0.605469
vt 1.388672 0.605469
vt 1.388672 0.777344
vt 1.386719 0.777344
vt 1.384766 0.601562
vt 1.386719 0.601562
vt 1.474609 0.605469
vt 1.472656 0.605469
vt 1.472656 0.601562
vt 1.474609 0.601562
vt 1.298828 0.605469
vt 1.298828 0.601562
vt 1.035156 0.992188
vt 1.037109 0.992188
vt 1.037109 0.996094
vt 1.035156 0.996094
vt 1.037109 0.992188
vt 1.039062 0.992188
vt 1.039062 0.996094
vt 1.037109 0.996094
vt 1.035156 0.937500
vt 1.037109 0.937500
vt 1.041016 0.992188
vt 1.039062 0.992188
vt 1.039062 0.937500
vt 1.041016 0.937500
vt 1.033203 0.992188
vt 1.033203 0.937500
vt 1.884766 0.949219
vt 1.884766 0.949219
vt 1.884766 0.996094
vt 1.884766 0.996094
vt 1.884766 0.949219
vt 1.884766 0.949219
vt 1.884766 0.996094
vt 1.884766 0.996094
vt 1.884766 0.894531
vt 1.884766 0.894531
vt 1.908203 0.949219
vt 1.908203 0.949219
vt 1.908203 0.894531
vt 1.908203 0.894531
vt 1.861328 0.949219
vt 1.861328 0.894531
vt 1.050781 0.992188
vt 1.052734 0.992188
vt 1.052734 0.996094
vt 1.050781 0.996094
vt 1.052734 0.992188
vt 1.054688 0.992188
vt 1.054688 0.996094
vt 1.052734 0.996094
vt 1.050781 0.937500
vt 1.052734 0.937500
vt 1.056641 0.992188
vt 1.054688 0.992188
vt 1.054688 0.937500
vt 1.056641 0.937500
vt 1.048828 0.992188
vt 1.048828 0.937500
vt 1.947266 0.949219
vt 1.947266 0.949219
vt 1.947266 0.996094
vt 1.947266 0.996094
vt 1.947266 0.949219
vt 1.947266 0.949219
vt 1.947266 0.996094
vt 1.947266 0.996094
vt 1.947266 0.894531
vt 1.947266 0.894531
vt 1.970703 0.949219
vt 1.970703 0.949219
vt 1.970703 0.894531
vt 1.970703 0.894531
vt 1.923828 0.949219
vt 1.923828 0.894531
vt 1.916016 0.886719
vt 1.916016 0.886719
vt 1.916016 0.964844
vt 1.916016 0.964844
vt 1.916016 0.886719
vt 1.916016 0.886719
vt 1.916016 0.964844
vt 1.916016 0.964844
vt 1.916016 0.832031
vt 1.916016 0.832031
vt 1.955078 0.886719
vt 1.955078 0.886719
vt 1.955078 0.832031
vt 1.955078 0.832031
vt 1.876953 0.886719
vt 1.876953 0.832031
vt 1.095703 0.558594
vt 1.097656 0.558594
vt 1.097656 0.746094
vt 1.095703 0.746094
vt 1.097656 0.558594
vt 1.099609 0.558594
vt 1.099609 0.746094
vt 1.097656 0.746094
vt 1.095703 0.550781
vt 1.097656 0.550781
vt 1.193359 0.558594
vt 1.191406 0.558594
vt 1.191406 0.550781
vt 1.193359 0.550781
vt 1.001953 0.558594
vt 1.001953 0.550781
vt 1.066406 0.992188
vt 1.068359 0.992188
vt 1.068359 0.996094
vt 1.066406 0.996094
vt 1.068359 0.992188
vt 1.070312 0.992188
vt 1.070312 0.996094
vt 1.068359 0.996094
vt 1.066406 0.953125
vt 1.068359 0.953125
vt 1.072266 0.992188
vt 1.070312 0.992188
vt 1.070312 0.953125
vt 1.072266 0.953125
vt 1.064453 0.992188
vt 1.064453 0.953125
vt 1.082031 0.992188
vt 1.083984 0.992188
vt 1.083984 0.996094
vt 1.082031 0.996094
vt 1.083984 0.992188
vt 1.085938 0.992188
vt 1.085938 0.996094
vt 1.083984 0.996094
vt 1.082031 0.953125
vt 1.083984 0.953125
vt 1.087891 0.992188
vt 1.085938 0.992188
vt 1.085938 0.953125
vt 1.087891 0.953125
vt 1.080078 0.992188
vt 1.080078 0.953125
vn -0.0000 1.0000 -0.0000
vn 0.0000 -1.0000 0.0000
vn -1.0000 0.0000 -0.0000
vn 1.0000 0.0000 0.0000
vn -0.0000 0.0000 1.0000
vn -0.0000 0.0000 -1.0000
vn -0.7071 -0.7071 -0.0000
vn -0.7071 0.7071 -0.0000
vn 0.7071 -0.7071 0.0000
vn 0.7071 0.7071 0.0000
vn -0.9975 0.0712 0.0000
vn 0.9975 -0.0712 0.0000
vn -0.9975 -0.0712 0.0000
vn 0.9975 0.0712 0.0000
vn 0.0000 0.7071 -0.7071
usemtl ModelMaterial
s off
f 41/81/9 42/82/9 43/83/9 44/84/9
f 45/85/10 46/86/10 47/87/10 48/88/10
f 42/82/11 41/81/11 48/89/11 47/90/11
f 44/91/12 43/92/12 46/93/12 45/94/12
f 43/92/13 42/82/13 47/90/13 46/93/13
f 41/81/14 44/95/14 45/96/14 48/89/14
f 49/97/9 50/98/9 51/99/9 52/100/9
f 53/101/15 54/102/15 55/103/15 56/104/15
f 50/98/11 49/97/11 56/105/11 55/106/11
f 52/107/12 51/108/12 54/109/12 53/110/12
f 51/108/13 50/98/13 55/106/13 54/109/13
f 49/97/14 52/111/14 53/112/14 56/105/14
f 57/113/9 58/114/9 59/115/9 60/116/9
f 61/117/15 62/118/15 63/119/15 64/120/15
f 58/114/11 57/113/11 64/121/11 63/122/11
f 60/123/12 59/124/12 62/125/12 61/126/12
f 59/124/13 58/114/13 63/122/13 62/125/13
f 57/113/14 60/127/14 61/128/14 64/121/14
f 65/129/9 66/130/9 67/131/9 68/132/9
f 69/133/15 70/134/15 71/135/15 72/136/15
f 66/130/11 65/129/11 72/137/11 71/138/11
f 68/139/12 67/140/12 70/141/12 69/142/12
f 67/140/13 66/130/13 71/138/13 70/141/13
f 65/129/14 68/143/14 69/144/14 72/137/14
f 73/145/16 74/146/16 75/147/16 76/148/16
f 77/149/10 78/150/10 79/151/10 80/152/10
f 74/146/11 73/145/11 80/153/11 79/154/11
f 76/155/12 75/156/12 78/157/12 77/158/12
f 75/156/13 74/146/13 79/154/13 78/157/13
f 73/145/14 76/159/14 77/160/14 80/153/14
f 81/161/9 82/162/9 83/163/9 84/164/9
f 85/165/17 86/166/17 87/167/17 88/168/17
f 82/162/11 81/161/11 88/169/11 87/170/11
f 84/171/12 83/172/12 86/173/12 85/174/12
f 83/172/13 82/162/13 87/170/13 86/173/13
f 81/161/14 84/175/14 85/176/14 88/169/14
f 89/177/9 90/178/9 91/179/9 92/180/9
f 93/181/17 94/182/17 95/183/17 96/184/17
f 90/178/11 89/177/11 96/185/11 95/186/11
f 92/187/12 91/188/12 94/189/12 93/190/12
f 91/188/13 90/178/13 95/186/13 94/189/13
f 89/177/14 92/191/14 93/192/14 96/185/14
f 97/193/9 98/194/9 99/195/9 100/196/9
f 101/197/17 102/198/17 103/199/17 104/200/17
f 98/194/11 97/193/11 104/201/11 103/202/11
f 100/203/12 99/204/12 102/205/12 101/206/12
f 99/204/13 98/194/13 103/202/13 102/205/13
f 97/193/14 100/207/14 101/208/14 104/201/14
f 105/209/18 106/210/18 107/211/18 108/212/18
f 109/213/10 110/214/10 111/215/10 112/216/10
f 106/210/11 105/209/11 112/217/11 111/218/11
f 108/219/12 107/220/12 110/221/12 109/222/12
f 107/220/13 106/210/13 111/218/13 110/221/13
f 105/209/14 108/223/14 109/224/14 112/217/14
f 113/225/9 114/226/9 115/227/9 116/228/9
f 117/229/10 118/230/10 119/231/10 120/232/10
f 114/226/11 113/225/11 120/233/11 119/234/11
f 116/235/12 115/236/12 118/237/12 117/238/12
f 115/236/13 114/226/13 119/234/13 118/237/13
f 113/225/14 116/239/14 117/240/14 120/233/14
f 121/241/9 122/242/9 123/243/9 124/244/9
f 125/245/10 126/246/10 127/247/10 128/248/10
f 122/242/19 121/241/19 128/249/19 127/250/19
f 124/251/20 123/252/20 126/253/20 125/254/20
f 123/252/13 122/242/13 127/250/13 126/253/13
f 121/241/14 124/255/14 125/256/14 128/249/14
f 129/257/9 130/258/9 131/259/9 132/260/9
f 133/261/10 134/262/10 135/263/10 136/264/10
f 130/258/21 129/257/21 136/265/21 135/266/21
f 132/267/22 131/268/22 134/269/22 133/270/22
f 131/268/13 130/258/13 135/266/13 134/269/13
f 129/257/14 132/271/14 133/272/14 136/265/14
f 137/273/9 138/274/9 139/275/9 140/276/9
f 141/277/10 142/278/10 143/279/10 144/280/10
f 138/274/16 137/273/16 144/281/16 143/282/16
f 140/283/18 139/284/18 142/285/18 141/286/18
f 139/284/13 138/274/13 143/282/13 142/285/13
f 137/273/14 140/287/14 141/288/14 144/281/14
f 145/289/9 146/290/9 147/291/9 148/292/9
f 149/293/10 150/294/10 151/295/10 152/296/10
f 146/290/11 145/289/11 152/297/11 151/298/11
f 148/299/12 147/300/12 150/301/12 149/302/12
f 147/300/13 146/290/13 151/298/13 150/301/13
f 145/289/14 148/303/14 149/304/14 152/297/14
f 153/305/13 154/306/13 155/307/13 156/308/13
f 157/309/13 158/310/13 159/311/13 160/312/13
f 154/306/13 153/305/13 160/313/13 159/314/13
f 156/315/13 155/316/13 158/317/13 157/318/13
f 155/316/13 154/306/13 159/314/13 158/317/13
f 153/305/14 156/319/14 157/320/14 160/313/14
f 161/321/9 162/322/9 163/323/9 164/324/9
f 165/325/10 166/326/10 167/327/10 168/328/10
f 162/322/11 161/321/11 168/329/11 167/330/11
f 164/331/12 163/332/12 166/333/12 165/334/12
f 163/332/13 162/322/13 167/330/13 166/333/13
f 161/321/14 164/335/14 165/336/14 168/329/14
f 169/337/13 170/338/13 171/339/13 172/340/13
f 173/341/13 174/342/13 175/343/13 176/344/13
f 170/338/13 169/337/13 176/345/13 175/346/13
f 172/347/13 171/348/13 174/349/13 173/350/13
f 171/348/13 170/338/13 175/346/13 174/349/13
f 169/337/14 172/351/14 173/352/14 176/345/14
f 177/353/13 178/354/13 179/355/13 180/356/13
f 181/357/13 182/358/13 183/359/13 184/360/13
f 178/354/13 177/353/13 184/361/13 183/362/13
f 180/363/13 179/364/13 182/365/13 181/366/13
f 179/364/13 178/354/13 183/362/13 182/365/13
f 177/353/14 180/367/14 181/368/14 184/361/14
f 185/369/9 186/370/9 187/371/9 188/372/9
f 189/373/10 190/374/10 191/375/10 192/376/10
f 186/370/11 185/369/11 192/377/11 191/378/11
f 188/379/12 187/380/12 190/381/12 189/382/12
f 187/380/13 186/370/13 191/378/13 190/381/13
f 185/369/14 188/383/14 189/384/14 192/377/14
f 193/385/23 194/386/23 195/387/23 196/388/23
f 197/389/10 198/390/10 199/391/10 200/392/10
f 194/386/11 193/385/11 200/393/11 199/394/11
f 196/395/12 195/396/12 198/397/12 197/398/12
f 195/396/13 194/386/13 199/394/13 198/397/13
f 193/385/14 196/399/14 197/400/14 200/393/14
f 201/401/23 202/402/23 203/403/23 204/404/23
f 205/405/10 206/406/10 207/407/10 208/408/10
f 202/402/11 201/401/11 208/409/11 207/410/11
f 204/411/12 203/412/12 206/413/12 205/414/12
f 203/412/13 202/402/13 207/410/13 206/413/13
f 201/401/14 204/415/14 205/416/14 208/409/14
