# Blender v2.79 (sub 0) OBJ File: ''
# www.blender.org
mtllib wheel_3d11_0.mtl
o tire
v -0.062500 0.343750 -0.093750
v -0.062500 0.343750 0.093750
v 0.125000 0.343750 0.093750
v 0.125000 0.343750 -0.093750
v 0.125000 0.156250 -0.093750
v 0.125000 0.156250 0.093750
v -0.062500 0.156250 0.093750
v -0.062500 0.156250 -0.093750
v -0.062500 -0.156250 -0.093750
v -0.062500 -0.156250 0.093750
v 0.125000 -0.156250 0.093750
v 0.125000 -0.156250 -0.093750
v 0.125000 -0.343750 -0.093750
v 0.125000 -0.343750 0.093750
v -0.062500 -0.343750 0.093750
v -0.062500 -0.343750 -0.093750
v -0.062500 -0.156250 0.093750
v -0.062500 -0.093750 0.156250
v 0.125000 -0.093750 0.156250
v 0.125000 -0.156250 0.093750
v 0.125000 -0.343750 0.093750
v 0.125000 -0.312500 0.156250
v -0.062500 -0.312500 0.156250
v -0.062500 -0.343750 0.093750
v -0.062500 0.312500 0.156250
v -0.062500 0.281250 0.218750
v 0.125000 0.281250 0.218750
v 0.125000 0.312500 0.156250
v 0.125000 -0.312500 0.156250
v 0.125000 -0.281250 0.218750
v -0.062500 -0.281250 0.218750
v -0.062500 -0.312500 0.156250
v -0.062500 0.343750 0.093750
v -0.062500 0.312500 0.156250
v 0.125000 0.312500 0.156250
v 0.125000 0.343750 0.093750
v 0.125000 0.156250 0.093750
v 0.125000 0.093750 0.156250
v -0.062500 0.093750 0.156250
v -0.062500 0.156250 0.093750
v -0.062500 0.281250 0.218750
v -0.062500 0.218750 0.281250
v 0.125000 0.218750 0.281250
v 0.125000 0.281250 0.218750
v 0.125000 -0.281250 0.218750
v 0.125000 -0.218750 0.281250
v -0.062500 -0.218750 0.281250
v -0.062500 -0.281250 0.218750
v -0.062500 -0.093750 -0.156250
v -0.062500 -0.156250 -0.093750
v 0.125000 -0.156250 -0.093750
v 0.125000 -0.093750 -0.156250
v 0.125000 -0.312500 -0.156250
v 0.125000 -0.343750 -0.093750
v -0.062500 -0.343750 -0.093750
v -0.062500 -0.312500 -0.156250
v -0.062500 0.312500 -0.156250
v -0.062500 0.343750 -0.093750
v 0.125000 0.343750 -0.093750
v 0.125000 0.312500 -0.156250
v 0.125000 0.093750 -0.156250
v 0.125000 0.156250 -0.093750
v -0.062500 0.156250 -0.093750
v -0.062500 0.093750 -0.156250
v -0.062500 0.281250 -0.218750
v -0.062500 0.312500 -0.156250
v 0.125000 0.312500 -0.156250
v 0.125000 0.281250 -0.218750
v 0.125000 -0.281250 -0.218750
v 0.125000 -0.312500 -0.156250
v -0.062500 -0.312500 -0.156250
v -0.062500 -0.281250 -0.218750
v -0.062500 0.218750 -0.281250
v -0.062500 0.281250 -0.218750
v 0.125000 0.281250 -0.218750
v 0.125000 0.218750 -0.281250
v 0.125000 -0.218750 -0.281250
v 0.125000 -0.281250 -0.218750
v -0.062500 -0.281250 -0.218750
v -0.062500 -0.218750 -0.281250
v -0.062500 0.093750 -0.343750
v -0.062500 0.218750 -0.281250
v 0.125000 0.218750 -0.281250
v 0.125000 0.093750 -0.343750
v 0.125000 -0.093750 -0.343750
v 0.125000 -0.218750 -0.281250
v -0.062500 -0.218750 -0.281250
v -0.062500 -0.093750 -0.343750
v -0.062500 0.218750 0.281250
v -0.062500 0.093750 0.343750
v 0.125000 0.093750 0.343750
v 0.125000 0.218750 0.281250
v 0.125000 -0.218750 0.281250
v 0.125000 -0.093750 0.343750
v -0.062500 -0.093750 0.343750
v -0.062500 -0.218750 0.281250
vt 1.531250 0.875000
vt 1.554688 0.875000
vt 1.554688 0.968750
vt 1.531250 0.968750
vt 1.554688 0.875000
vt 1.578125 0.875000
vt 1.578125 0.968750
vt 1.554688 0.968750
vt 1.531250 0.781250
vt 1.554688 0.781250
vt 1.601562 0.875000
vt 1.578125 0.875000
vt 1.578125 0.781250
vt 1.601562 0.781250
vt 1.507812 0.875000
vt 1.507812 0.781250
vt 1.656250 0.875000
vt 1.679688 0.875000
vt 1.679688 0.968750
vt 1.656250 0.968750
vt 1.679688 0.875000
vt 1.703125 0.875000
vt 1.703125 0.968750
vt 1.679688 0.968750
vt 1.656250 0.781250
vt 1.679688 0.781250
vt 1.726562 0.875000
vt 1.703125 0.875000
vt 1.703125 0.781250
vt 1.726562 0.781250
vt 1.632812 0.875000
vt 1.632812 0.781250
vt 1.781250 0.875000
vt 1.789062 0.875000
vt 1.789062 0.968750
vt 1.781250 0.968750
vt 1.789062 0.875000
vt 1.796875 0.875000
vt 1.796875 0.968750
vt 1.789062 0.968750
vt 1.781250 0.781250
vt 1.789062 0.781250
vt 1.820312 0.875000
vt 1.812500 0.875000
vt 1.812500 0.781250
vt 1.820312 0.781250
vt 1.757812 0.875000
vt 1.757812 0.781250
vt 1.906250 0.875000
vt 1.914062 0.875000
vt 1.914062 0.968750
vt 1.906250 0.968750
vt 1.914062 0.875000
vt 1.921875 0.875000
vt 1.921875 0.968750
vt 1.914062 0.968750
vt 1.906250 0.593750
vt 1.914062 0.593750
vt 1.945312 0.875000
vt 1.937500 0.875000
vt 1.937500 0.593750
vt 1.945312 0.593750
vt 1.882812 0.875000
vt 1.882812 0.593750
vt 1.031250 0.625000
vt 1.039062 0.625000
vt 1.039062 0.718750
vt 1.031250 0.718750
vt 1.039062 0.625000
vt 1.046875 0.625000
vt 1.046875 0.718750
vt 1.039062 0.718750
vt 1.031250 0.531250
vt 1.039062 0.531250
vt 1.070312 0.625000
vt 1.062500 0.625000
vt 1.062500 0.531250
vt 1.070312 0.531250
vt 1.007812 0.625000
vt 1.007812 0.531250
vt 1.156250 0.625000
vt 1.164062 0.625000
vt 1.164062 0.718750
vt 1.156250 0.718750
vt 1.164062 0.625000
vt 1.171875 0.625000
vt 1.171875 0.718750
vt 1.164062 0.718750
vt 1.156250 0.406250
vt 1.164062 0.406250
vt 1.195312 0.625000
vt 1.187500 0.625000
vt 1.187500 0.406250
vt 1.195312 0.406250
vt 1.132812 0.625000
vt 1.132812 0.406250
vt 1.281250 0.625000
vt 1.289062 0.625000
vt 1.289062 0.718750
vt 1.281250 0.718750
vt 1.289062 0.625000
vt 1.296875 0.625000
vt 1.296875 0.718750
vt 1.289062 0.718750
vt 1.281250 0.531250
vt 1.289062 0.531250
vt 1.320312 0.625000
vt 1.312500 0.625000
vt 1.312500 0.531250
vt 1.320312 0.531250
vt 1.257812 0.625000
vt 1.257812 0.531250
vt 1.406250 0.625000
vt 1.414062 0.625000
vt 1.414062 0.718750
vt 1.406250 0.718750
vt 1.414062 0.625000
vt 1.421875 0.625000
vt 1.421875 0.718750
vt 1.414062 0.718750
vt 1.406250 0.531250
vt 1.414062 0.531250
vt 1.445312 0.625000
vt 1.437500 0.625000
vt 1.437500 0.531250
vt 1.445312 0.531250
vt 1.382812 0.625000
vt 1.382812 0.531250
vt 1.531250 0.625000
vt 1.539062 0.625000
vt 1.539062 0.718750
vt 1.531250 0.718750
vt 1.539062 0.625000
vt 1.546875 0.625000
vt 1.546875 0.718750
vt 1.539062 0.718750
vt 1.531250 0.343750
vt 1.539062 0.343750
vt 1.570312 0.625000
vt 1.562500 0.625000
vt 1.562500 0.343750
vt 1.570312 0.343750
vt 1.507812 0.625000
vt 1.507812 0.343750
vt 1.656250 0.625000
vt 1.664062 0.625000
vt 1.664062 0.718750
vt 1.656250 0.718750
vt 1.664062 0.625000
vt 1.671875 0.625000
vt 1.671875 0.718750
vt 1.664062 0.718750
vt 1.656250 0.406250
vt 1.664062 0.406250
vt 1.695312 0.625000
vt 1.687500 0.625000
vt 1.687500 0.406250
vt 1.695312 0.406250
vt 1.632812 0.625000
vt 1.632812 0.406250
vt 1.781250 0.625000
vt 1.796875 0.625000
vt 1.796875 0.718750
vt 1.781250 0.718750
vt 1.796875 0.625000
vt 1.812500 0.625000
vt 1.812500 0.718750
vt 1.796875 0.718750
vt 1.781250 0.531250
vt 1.796875 0.531250
vt 1.835938 0.625000
vt 1.820312 0.625000
vt 1.820312 0.531250
vt 1.835938 0.531250
vt 1.757812 0.625000
vt 1.757812 0.531250
vt 1.031250 0.375000
vt 1.046875 0.375000
vt 1.046875 0.468750
vt 1.031250 0.468750
vt 1.046875 0.375000
vt 1.062500 0.375000
vt 1.062500 0.468750
vt 1.046875 0.468750
vt 1.031250 0.281250
vt 1.046875 0.281250
vt 1.085938 0.375000
vt 1.070312 0.375000
vt 1.070312 0.281250
vt 1.085938 0.281250
vt 1.007812 0.375000
vt 1.007812 0.281250
vn -0.0000 1.0000 -0.0000
vn 0.0000 -1.0000 0.0000
vn -1.0000 -0.0000 -0.0000
vn 1.0000 0.0000 0.0000
vn -0.0000 -0.0000 1.0000
vn 0.0000 0.0000 -1.0000
vn -0.0000 0.7071 -0.7071
vn 0.0000 -0.8944 0.4472
vn -0.0000 0.8944 0.4472
vn 0.0000 -0.7071 -0.7071
vn 0.0000 0.7071 0.7071
vn 0.0000 -0.7071 0.7071
vn 0.0000 -0.8944 -0.4472
vn -0.0000 0.8944 -0.4472
vn -0.0000 0.4472 -0.8944
vn 0.0000 -0.4472 -0.8944
vn -0.0000 0.4472 0.8944
vn 0.0000 -0.4472 0.8944
usemtl ModelMaterial
s off
f 1/1/1 2/2/1 3/3/1 4/4/1
f 5/5/2 6/6/2 7/7/2 8/8/2
f 2/2/3 1/1/3 8/9/3 7/10/3
f 4/11/4 3/12/4 6/13/4 5/14/4
f 3/12/5 2/2/5 7/10/5 6/13/5
f 1/1/6 4/15/6 5/16/6 8/9/6
f 9/17/1 10/18/1 11/19/1 12/20/1
f 13/21/2 14/22/2 15/23/2 16/24/2
f 10/18/3 9/17/3 16/25/3 15/26/3
f 12/27/4 11/28/4 14/29/4 13/30/4
f 11/28/5 10/18/5 15/26/5 14/29/5
f 9/17/6 12/31/6 13/32/6 16/25/6
f 17/33/7 18/34/7 19/35/7 20/36/7
f 21/37/8 22/38/8 23/39/8 24/40/8
f 18/34/3 17/33/3 24/41/3 23/42/3
f 20/43/4 19/44/4 22/45/4 21/46/4
f 19/44/5 18/34/5 23/42/5 22/45/5
f 17/33/6 20/47/6 21/48/6 24/41/6
f 25/49/9 26/50/9 27/51/9 28/52/9
f 29/53/8 30/54/8 31/55/8 32/56/8
f 26/50/3 25/49/3 32/57/3 31/58/3
f 28/59/4 27/60/4 30/61/4 29/62/4
f 27/60/5 26/50/5 31/58/5 30/61/5
f 25/49/6 28/63/6 29/64/6 32/57/6
f 33/65/9 34/66/9 35/67/9 36/68/9
f 37/69/10 38/70/10 39/71/10 40/72/10
f 34/66/3 33/65/3 40/73/3 39/74/3
f 36/75/4 35/76/4 38/77/4 37/78/4
f 35/76/5 34/66/5 39/74/5 38/77/5
f 33/65/6 36/79/6 37/80/6 40/73/6
f 41/81/11 42/82/11 43/83/11 44/84/11
f 45/85/12 46/86/12 47/87/12 48/88/12
f 42/82/3 41/81/3 48/89/3 47/90/3
f 44/91/4 43/92/4 46/93/4 45/94/4
f 43/92/5 42/82/5 47/90/5 46/93/5
f 41/81/6 44/95/6 45/96/6 48/89/6
f 49/97/11 50/98/11 51/99/11 52/100/11
f 53/101/13 54/102/13 55/103/13 56/104/13
f 50/98/3 49/97/3 56/105/3 55/106/3
f 52/107/4 51/108/4 54/109/4 53/110/4
f 51/108/5 50/98/5 55/106/5 54/109/5
f 49/97/6 52/111/6 53/112/6 56/105/6
f 57/113/14 58/114/14 59/115/14 60/116/14
f 61/117/12 62/118/12 63/119/12 64/120/12
f 58/114/3 57/113/3 64/121/3 63/122/3
f 60/123/4 59/124/4 62/125/4 61/126/4
f 59/124/5 58/114/5 63/122/5 62/125/5
f 57/113/6 60/127/6 61/128/6 64/121/6
f 65/129/14 66/130/14 67/131/14 68/132/14
f 69/133/13 70/134/13 71/135/13 72/136/13
f 66/130/3 65/129/3 72/137/3 71/138/3
f 68/139/4 67/140/4 70/141/4 69/142/4
f 67/140/5 66/130/5 71/138/5 70/141/5
f 65/129/6 68/143/6 69/144/6 72/137/6
f 73/145/7 74/146/7 75/147/7 76/148/7
f 77/149/10 78/150/10 79/151/10 80/152/10
f 74/146/3 73/145/3 80/153/3 79/154/3
f 76/155/4 75/156/4 78/157/4 77/158/4
f 75/156/5 74/146/5 79/154/5 78/157/5
f 73/145/6 76/159/6 77/160/6 80/153/6
f 81/161/15 82/162/15 83/163/15 84/164/15
f 85/165/16 86/166/16 87/167/16 88/168/16
f 82/162/3 81/161/3 88/169/3 87/170/3
f 84/171/4 83/172/4 86/173/4 85/174/4
f 83/172/5 82/162/5 87/170/5 86/173/5
f 81/161/6 84/175/6 85/176/6 88/169/6
f 89/177/17 90/178/17 91/179/17 92/180/17
f 93/181/18 94/182/18 95/183/18 96/184/18
f 90/178/3 89/177/3 96/185/3 95/186/3
f 92/187/4 91/188/4 94/189/4 93/190/4
f 91/188/5 90/178/5 95/186/5 94/189/5
f 89/177/6 92/191/6 93/192/6 96/185/6
o rim
v 0.062500 0.031250 -0.031250
v 0.062500 0.031250 0.031250
v 0.125000 0.031250 0.031250
v 0.125000 0.031250 -0.031250
v 0.125000 -0.031250 -0.031250
v 0.125000 -0.031250 0.031250
v 0.062500 -0.031250 0.031250
v 0.062500 -0.031250 -0.031250
v 0.046875 0.093750 -0.031250
v 0.046875 0.093750 0.031250
v 0.109375 0.093750 0.031250
v 0.109375 0.093750 -0.031250
v 0.109375 -0.093750 -0.031250
v 0.109375 -0.093750 0.031250
v 0.046875 -0.093750 0.031250
v 0.046875 -0.093750 -0.031250
v 0.046875 0.093750 0.031250
v 0.046875 0.031250 0.093750
v 0.109375 0.031250 0.093750
v 0.109375 0.093750 0.031250
v 0.109375 -0.093750 0.031250
v 0.109375 -0.031250 0.093750
v 0.046875 -0.031250 0.093750
v 0.046875 -0.093750 0.031250
v 0.046875 0.031250 -0.093750
v 0.046875 0.093750 -0.031250
v 0.109375 0.093750 -0.031250
v 0.109375 0.031250 -0.093750
v 0.109375 -0.031250 -0.093750
v 0.109375 -0.093750 -0.031250
v 0.046875 -0.093750 -0.031250
v 0.046875 -0.031250 -0.093750
v -0.062500 0.156250 -0.093750
v -0.062500 0.156250 0.093750
v 0.093750 0.156250 0.093750
v 0.093750 0.156250 -0.093750
v 0.093750 -0.156250 -0.093750
v 0.093750 -0.156250 0.093750
v -0.062500 -0.156250 0.093750
v -0.062500 -0.156250 -0.093750
v -0.062500 0.093750 -0.156250
v -0.062500 0.156250 -0.093750
v 0.093750 0.156250 -0.093750
v 0.093750 0.093750 -0.156250
v 0.093750 -0.093750 -0.156250
v 0.093750 -0.156250 -0.093750
v -0.062500 -0.156250 -0.093750
v -0.062500 -0.093750 -0.156250
v -0.062500 0.156250 0.093750
v -0.062500 0.093750 0.156250
v 0.093750 0.093750 0.156250
v 0.093750 0.156250 0.093750
v 0.093750 -0.156250 0.093750
v 0.093750 -0.093750 0.156250
v -0.062500 -0.093750 0.156250
v -0.062500 -0.156250 0.093750
vt 1.015625 0.937500
vt 1.023438 0.937500
vt 1.023438 0.968750
vt 1.015625 0.968750
vt 1.023438 0.937500
vt 1.031250 0.937500
vt 1.031250 0.968750
vt 1.023438 0.968750
vt 1.015625 0.906250
vt 1.023438 0.906250
vt 1.039062 0.937500
vt 1.031250 0.937500
vt 1.031250 0.906250
vt 1.039062 0.906250
vt 1.007812 0.937500
vt 1.007812 0.906250
vt 1.078125 0.937500
vt 1.085938 0.937500
vt 1.085938 0.968750
vt 1.078125 0.968750
vt 1.085938 0.937500
vt 1.093750 0.937500
vt 1.093750 0.968750
vt 1.085938 0.968750
vt 1.078125 0.843750
vt 1.085938 0.843750
vt 1.101562 0.937500
vt 1.093750 0.937500
vt 1.093750 0.843750
vt 1.101562 0.843750
vt 1.070312 0.937500
vt 1.070312 0.843750
vt 1.140625 0.937500
vt 1.148438 0.937500
vt 1.148438 0.968750
vt 1.140625 0.968750
vt 1.148438 0.937500
vt 1.156250 0.937500
vt 1.156250 0.968750
vt 1.148438 0.968750
vt 1.140625 0.843750
vt 1.148438 0.843750
vt 1.164062 0.937500
vt 1.156250 0.937500
vt 1.156250 0.843750
vt 1.164062 0.843750
vt 1.132812 0.937500
vt 1.132812 0.843750
vt 1.203125 0.937500
vt 1.210938 0.937500
vt 1.210938 0.968750
vt 1.203125 0.968750
vt 1.210938 0.937500
vt 1.218750 0.937500
vt 1.218750 0.968750
vt 1.210938 0.968750
vt 1.203125 0.843750
vt 1.210938 0.843750
vt 1.226562 0.937500
vt 1.218750 0.937500
vt 1.218750 0.843750
vt 1.226562 0.843750
vt 1.195312 0.937500
vt 1.195312 0.843750
vt 1.273438 0.906250
vt 1.296875 0.906250
vt 1.296875 0.968750
vt 1.273438 0.968750
vt 1.296875 0.906250
vt 1.320312 0.906250
vt 1.320312 0.968750
vt 1.296875 0.968750
vt 1.273438 0.750000
vt 1.296875 0.750000
vt 1.335938 0.906250
vt 1.312500 0.906250
vt 1.312500 0.750000
vt 1.335938 0.750000
vt 1.257812 0.906250
vt 1.257812 0.750000
vt 1.398438 0.906250
vt 1.406250 0.906250
vt 1.406250 0.968750
vt 1.398438 0.968750
vt 1.406250 0.906250
vt 1.414062 0.906250
vt 1.414062 0.968750
vt 1.406250 0.968750
vt 1.398438 0.750000
vt 1.406250 0.750000
vt 1.429688 0.906250
vt 1.421875 0.906250
vt 1.421875 0.750000
vt 1.429688 0.750000
vt 1.382812 0.906250
vt 1.382812 0.750000
vt 1.460938 0.906250
vt 1.468750 0.906250
vt 1.468750 0.968750
vt 1.460938 0.968750
vt 1.468750 0.906250
vt 1.476562 0.906250
vt 1.476562 0.968750
vt 1.468750 0.968750
vt 1.460938 0.750000
vt 1.468750 0.750000
vt 1.492188 0.906250
vt 1.484375 0.906250
vt 1.484375 0.750000
vt 1.492188 0.750000
vt 1.445312 0.906250
vt 1.445312 0.750000
vn -0.0000 1.0000 -0.0000
vn 0.0000 -1.0000 -0.0000
vn -1.0000 -0.0000 -0.0000
vn 1.0000 0.0000 0.0000
vn -0.0000 0.0000 1.0000
vn 0.0000 0.0000 -1.0000
vn -0.0000 0.7071 0.7071
vn 0.0000 -0.7071 0.7071
vn 0.0000 0.7071 -0.7071
vn 0.0000 -0.7071 -0.7071
usemtl ModelMaterial
s off
f 97/193/19 98/194/19 99/195/19 100/196/19
f 101/197/20 102/198/20 103/199/20 104/200/20
f 98/194/21 97/193/21 104/201/21 103/202/21
f 100/203/22 99/204/22 102/205/22 101/206/22
f 99/204/23 98/194/23 103/202/23 102/205/23
f 97/193/24 100/207/24 101/208/24 104/201/24
f 105/209/19 106/210/19 107/211/19 108/212/19
f 109/213/20 110/214/20 111/215/20 112/216/20
f 106/210/21 105/209/21 112/217/21 111/218/21
f 108/219/22 107/220/22 110/221/22 109/222/22
f 107/220/23 106/210/23 111/218/23 110/221/23
f 105/209/24 108/223/24 109/224/24 112/217/24
f 113/225/25 114/226/25 115/227/25 116/228/25
f 117/229/26 118/230/26 119/231/26 120/232/26
f 114/226/21 113/225/21 120/233/21 119/234/21
f 116/235/22 115/236/22 118/237/22 117/238/22
f 115/236/23 114/226/23 119/234/23 118/237/23
f 113/225/24 116/239/24 117/240/24 120/233/24
f 121/241/27 122/242/27 123/243/27 124/244/27
f 125/245/28 126/246/28 127/247/28 128/248/28
f 122/242/21 121/241/21 128/249/21 127/250/21
f 124/251/22 123/252/22 126/253/22 125/254/22
f 123/252/23 122/242/23 127/250/23 126/253/23
f 121/241/24 124/255/24 125/256/24 128/249/24
f 129/257/19 130/258/19 131/259/19 132/260/19
f 133/261/20 134/262/20 135/263/20 136/264/20
f 130/258/21 129/257/21 136/265/21 135/266/21
f 132/267/22 131/268/22 134/269/22 133/270/22
f 131/268/23 130/258/23 135/266/23 134/269/23
f 129/257/24 132/271/24 133/272/24 136/265/24
f 137/273/27 138/274/27 139/275/27 140/276/27
f 141/277/28 142/278/28 143/279/28 144/280/28
f 138/274/21 137/273/21 144/281/21 143/282/21
f 140/283/22 139/284/22 142/285/22 141/286/22
f 139/284/23 138/274/23 143/282/23 142/285/23
f 137/273/24 140/287/24 141/288/24 144/281/24
f 145/289/25 146/290/25 147/291/25 148/292/25
f 149/293/26 150/294/26 151/295/26 152/296/26
f 146/290/21 145/289/21 152/297/21 151/298/21
f 148/299/22 147/300/22 150/301/22 149/302/22
f 147/300/23 146/290/23 151/298/23 150/301/23
f 145/289/24 148/303/24 149/304/24 152/297/24
