# Blender v2.79 (sub 0) OBJ File: ''
# www.blender.org
mtllib metal_pile.obj.mtl
o bodyModel
v -0.500000 0.062500 0.500000
v 0.500000 0.062500 0.500000
v 0.500000 0.062500 -0.500000
v -0.500000 0.062500 -0.500000
v -0.500000 0.000000 -0.500000
v 0.500000 0.000000 -0.500000
v 0.500000 -0.000000 0.500000
v -0.500000 -0.000000 0.500000
v -0.125000 0.125000 0.562500
v 0.652146 0.125000 -0.066820
v 0.022826 0.125000 -0.843966
v -0.754320 0.125000 -0.214646
v -0.754320 0.062500 -0.214646
v 0.022826 0.062500 -0.843966
v 0.652146 0.062500 -0.066820
v -0.125000 0.062500 0.562500
v -0.437500 0.187500 0.062500
v 0.540648 0.187500 -0.145412
v 0.436692 0.187500 -0.634485
v -0.541456 0.187500 -0.426574
v -0.541456 0.125000 -0.426574
v 0.436692 0.125000 -0.634485
v 0.540648 0.125000 -0.145412
v -0.437500 0.125000 0.062500
v -0.375000 0.187500 0.375000
v 0.118844 0.187500 0.453217
v 0.196098 0.265717 -0.034547
v -0.297746 0.265717 -0.112764
v -0.296216 0.203987 -0.122421
v 0.197628 0.203987 -0.044204
v 0.120374 0.125769 0.443560
v -0.373471 0.125769 0.365343
vt 1.250000 0.500000
vt 1.500000 0.500000
vt 1.500000 1.000000
vt 1.250000 1.000000
vt 1.500000 0.500000
vt 1.750000 0.500000
vt 1.750000 1.000000
vt 1.500000 1.000000
vt 1.250000 0.468750
vt 1.500000 0.468750
vt 2.000000 0.500000
vt 1.750000 0.500000
vt 1.750000 0.468750
vt 2.000000 0.468750
vt 1.000000 0.500000
vt 1.000000 0.468750
vt 1.250000 0.312500
vt 1.500000 0.312500
vt 1.500000 0.812500
vt 1.250000 0.812500
vt 1.500000 0.312500
vt 1.750000 0.312500
vt 1.750000 0.812500
vt 1.500000 0.812500
vt 1.250000 0.281250
vt 1.500000 0.281250
vt 2.000000 0.312500
vt 1.750000 0.312500
vt 1.750000 0.281250
vt 2.000000 0.281250
vt 1.000000 0.312500
vt 1.000000 0.281250
vt 1.156250 0.187500
vt 1.406250 0.187500
vt 1.406250 0.437500
vt 1.156250 0.437500
vt 1.406250 0.187500
vt 1.656250 0.187500
vt 1.656250 0.437500
vt 1.406250 0.437500
vt 1.156250 0.156250
vt 1.406250 0.156250
vt 1.781250 0.187500
vt 1.531250 0.187500
vt 1.531250 0.156250
vt 1.781250 0.156250
vt 1.031250 0.187500
vt 1.031250 0.156250
vt 1.609375 0.656250
vt 1.734375 0.656250
vt 1.734375 0.906250
vt 1.609375 0.906250
vt 1.734375 0.656250
vt 1.859375 0.656250
vt 1.859375 0.906250
vt 1.734375 0.906250
vt 1.609375 0.625000
vt 1.734375 0.625000
vt 1.984375 0.656250
vt 1.859375 0.656250
vt 1.859375 0.625000
vt 1.984375 0.625000
vt 1.484375 0.656250
vt 1.484375 0.625000
vn 0.0000 1.0000 0.0000
vn 0.0000 -1.0000 -0.0000
vn 0.0000 0.0000 1.0000
vn 0.0000 0.0000 -1.0000
vn 1.0000 0.0000 0.0000
vn -1.0000 0.0000 0.0000
vn 0.6293 -0.0000 0.7771
vn -0.6293 0.0000 -0.7771
vn 0.7771 0.0000 -0.6293
vn -0.7771 0.0000 0.6293
vn 0.2079 -0.0000 0.9781
vn -0.2079 0.0000 -0.9781
vn 0.9781 0.0000 -0.2079
vn -0.9781 0.0000 0.2079
vn -0.0245 0.9877 0.1545
vn 0.0245 -0.9877 -0.1545
vn -0.1545 -0.1564 0.9755
vn 0.1545 0.1564 -0.9755
vn 0.9877 0.0000 0.1564
vn -0.9877 0.0000 -0.1564
usemtl ModelMaterial
s off
f 1/1/1 2/2/1 3/3/1 4/4/1
f 5/5/2 6/6/2 7/7/2 8/8/2
f 2/2/3 1/1/3 8/9/3 7/10/3
f 4/11/4 3/12/4 6/13/4 5/14/4
f 3/12/5 2/2/5 7/10/5 6/13/5
f 1/1/6 4/15/6 5/16/6 8/9/6
f 9/17/1 10/18/1 11/19/1 12/20/1
f 13/21/2 14/22/2 15/23/2 16/24/2
f 10/18/7 9/17/7 16/25/7 15/26/7
f 12/27/8 11/28/8 14/29/8 13/30/8
f 11/28/9 10/18/9 15/26/9 14/29/9
f 9/17/10 12/31/10 13/32/10 16/25/10
f 17/33/1 18/34/1 19/35/1 20/36/1
f 21/37/2 22/38/2 23/39/2 24/40/2
f 18/34/11 17/33/11 24/41/11 23/42/11
f 20/43/12 19/44/12 22/45/12 21/46/12
f 19/44/13 18/34/13 23/42/13 22/45/13
f 17/33/14 20/47/14 21/48/14 24/41/14
f 25/49/15 26/50/15 27/51/15 28/52/15
f 29/53/16 30/54/16 31/55/16 32/56/16
f 26/50/17 25/49/17 32/57/17 31/58/17
f 28/59/18 27/60/18 30/61/18 29/62/18
f 27/60/19 26/50/19 31/58/19 30/61/19
f 25/49/20 28/63/20 29/64/20 32/57/20
