# Blender v2.79 (sub 0) OBJ File: ''
# www.blender.org
mtllib paint_empty_bucket.obj.mtl
o paint_empty_bucket.obj
v -0.198140 0.375000 -0.171006
v -0.260640 0.375000 -0.171006
v -0.260640 0.375000 0.016494
v -0.198140 0.375000 0.016494
v -0.198140 -0.000000 0.016494
v -0.260640 -0.000000 0.016494
v -0.260640 -0.000000 -0.171006
v -0.198140 -0.000000 -0.171006
v 0.051860 0.375000 -0.171006
v -0.010640 0.375000 -0.171006
v -0.010640 0.375000 0.016494
v 0.051860 0.375000 0.016494
v 0.051860 0.000000 0.016494
v -0.010640 0.000000 0.016494
v -0.010640 0.000000 -0.171006
v 0.051860 0.000000 -0.171006
v -0.010640 0.375000 -0.233506
v -0.198140 0.375000 -0.233506
v -0.260640 0.375000 -0.171006
v 0.051860 0.375000 -0.171006
v 0.051860 0.000000 -0.171006
v -0.260640 -0.000000 -0.171006
v -0.198140 0.000000 -0.233506
v -0.010640 0.000000 -0.233506
v 0.051860 0.375000 0.016494
v -0.260640 0.375000 0.016494
v -0.198140 0.375000 0.078994
v -0.010640 0.375000 0.078994
v -0.010640 -0.000000 0.078994
v -0.198140 -0.000000 0.078994
v -0.260640 -0.000000 0.016494
v 0.051860 0.000000 0.016494
v 0.054985 0.312500 -0.171006
v -0.007515 0.312500 -0.171006
v -0.007515 0.312500 0.016494
v 0.054985 0.312500 0.016494
v 0.054985 0.062500 0.016494
v -0.007515 0.062500 0.016494
v -0.007515 0.062500 -0.171006
v 0.054985 0.062500 -0.171006
v -0.010640 0.062500 -0.171006
v -0.198140 0.062500 -0.171006
v -0.198140 0.062500 0.016494
v -0.010640 0.062500 0.016494
v -0.010640 0.000000 0.016494
v -0.198140 -0.000000 0.016494
v -0.198140 -0.000000 -0.171006
v -0.010640 0.000000 -0.171006
v -0.201265 0.343750 -0.108506
v -0.263765 0.343750 -0.108506
v -0.263765 0.343750 -0.046006
v -0.201265 0.343750 -0.046006
v -0.201265 0.281250 -0.046006
v -0.263765 0.281250 -0.046006
v -0.263765 0.281250 -0.108506
v -0.201265 0.281250 -0.108506
v 0.131171 0.062500 -0.043317
v 0.070800 0.062500 -0.027141
v 0.119329 0.062500 0.153970
v 0.179699 0.062500 0.137794
v 0.179699 0.000000 0.137794
v 0.119329 -0.000000 0.153970
v 0.070800 0.000000 -0.027141
v 0.131171 0.000000 -0.043317
v 0.209885 0.062500 0.129706
v 0.089144 0.062500 0.162058
v 0.121496 0.062500 0.282799
v 0.242237 0.062500 0.250447
v 0.242237 0.000000 0.250447
v 0.121496 -0.000000 0.282799
v 0.089144 -0.000000 0.162058
v 0.209885 0.000000 0.129706
vt 1.062500 0.875000
vt 1.078125 0.875000
vt 1.078125 0.968750
vt 1.062500 0.968750
vt 1.078125 0.875000
vt 1.093750 0.875000
vt 1.093750 0.968750
vt 1.078125 0.968750
vt 1.062500 0.687500
vt 1.078125 0.687500
vt 1.140625 0.875000
vt 1.125000 0.875000
vt 1.125000 0.687500
vt 1.140625 0.687500
vt 1.015625 0.875000
vt 1.015625 0.687500
vt 1.312500 0.875000
vt 1.328125 0.875000
vt 1.328125 0.968750
vt 1.312500 0.968750
vt 1.328125 0.875000
vt 1.343750 0.875000
vt 1.343750 0.968750
vt 1.328125 0.968750
vt 1.312500 0.687500
vt 1.328125 0.687500
vt 1.390625 0.875000
vt 1.375000 0.875000
vt 1.375000 0.687500
vt 1.390625 0.687500
vt 1.265625 0.875000
vt 1.265625 0.687500
vt 1.531250 0.937500
vt 1.578125 0.937500
vt 1.578125 0.968750
vt 1.531250 0.968750
vt 1.578125 0.937500
vt 1.625000 0.937500
vt 1.625000 0.968750
vt 1.578125 0.968750
vt 1.531250 0.750000
vt 1.578125 0.750000
vt 1.640625 0.937500
vt 1.593750 0.937500
vt 1.593750 0.750000
vt 1.640625 0.750000
vt 1.515625 0.937500
vt 1.515625 0.750000
vt 1.781250 0.937500
vt 1.828125 0.937500
vt 1.828125 0.968750
vt 1.781250 0.968750
vt 1.828125 0.937500
vt 1.875000 0.937500
vt 1.875000 0.968750
vt 1.828125 0.968750
vt 1.781250 0.750000
vt 1.828125 0.750000
vt 1.890625 0.937500
vt 1.843750 0.937500
vt 1.843750 0.750000
vt 1.890625 0.750000
vt 1.765625 0.937500
vt 1.765625 0.750000
vt 1.187500 0.625000
vt 1.203125 0.625000
vt 1.203125 0.718750
vt 1.187500 0.718750
vt 1.203125 0.625000
vt 1.218750 0.625000
vt 1.218750 0.718750
vt 1.203125 0.718750
vt 1.187500 0.500000
vt 1.203125 0.500000
vt 1.265625 0.625000
vt 1.250000 0.625000
vt 1.250000 0.500000
vt 1.265625 0.500000
vt 1.140625 0.625000
vt 1.140625 0.500000
vt 1.437500 0.625000
vt 1.484375 0.625000
vt 1.484375 0.718750
vt 1.437500 0.718750
vt 1.484375 0.625000
vt 1.531250 0.625000
vt 1.531250 0.718750
vt 1.484375 0.718750
vt 1.437500 0.593750
vt 1.484375 0.593750
vt 1.578125 0.625000
vt 1.531250 0.625000
vt 1.531250 0.593750
vt 1.578125 0.593750
vt 1.390625 0.625000
vt 1.390625 0.593750
vt 1.687500 0.625000
vt 1.703125 0.625000
vt 1.703125 0.718750
vt 1.687500 0.718750
vt 1.703125 0.625000
vt 1.718750 0.625000
vt 1.718750 0.718750
vt 1.703125 0.718750
vt 1.687500 0.531250
vt 1.703125 0.531250
vt 1.765625 0.625000
vt 1.750000 0.625000
vt 1.750000 0.531250
vt 1.765625 0.531250
vt 1.640625 0.625000
vt 1.640625 0.531250
vt 1.062500 0.375000
vt 1.078125 0.375000
vt 1.078125 0.468750
vt 1.062500 0.468750
vt 1.078125 0.375000
vt 1.093750 0.375000
vt 1.093750 0.468750
vt 1.078125 0.468750
vt 1.062500 0.343750
vt 1.078125 0.343750
vt 1.140625 0.375000
vt 1.125000 0.375000
vt 1.125000 0.343750
vt 1.140625 0.343750
vt 1.015625 0.375000
vt 1.015625 0.343750
vt 1.296875 0.406250
vt 1.328125 0.406250
vt 1.328125 0.468750
vt 1.296875 0.468750
vt 1.328125 0.406250
vt 1.359375 0.406250
vt 1.359375 0.468750
vt 1.328125 0.468750
vt 1.296875 0.375000
vt 1.328125 0.375000
vt 1.390625 0.406250
vt 1.359375 0.406250
vt 1.359375 0.375000
vt 1.390625 0.375000
vt 1.265625 0.406250
vt 1.265625 0.375000
vn 0.0000 1.0000 0.0000
vn 0.0000 -1.0000 -0.0000
vn -0.0000 0.0000 -1.0000
vn -0.0000 -0.0000 1.0000
vn -1.0000 0.0000 -0.0000
vn 1.0000 0.0000 0.0000
vn -0.7071 0.0000 -0.7071
vn 0.7071 0.0000 -0.7071
vn -0.7071 -0.0000 0.7071
vn 0.7071 0.0000 0.7071
vn -0.2588 0.0000 -0.9659
vn 0.2588 0.0000 0.9659
vn -0.9659 -0.0000 0.2588
vn 0.9659 0.0000 -0.2588
usemtl ModelMaterial.002
s off
f 1/1/1 2/2/1 3/3/1 4/4/1
f 5/5/2 6/6/2 7/7/2 8/8/2
f 2/2/3 1/1/3 8/9/3 7/10/3
f 4/11/4 3/12/4 6/13/4 5/14/4
f 3/12/5 2/2/5 7/10/5 6/13/5
f 1/1/6 4/15/6 5/16/6 8/9/6
f 9/17/1 10/18/1 11/19/1 12/20/1
f 13/21/2 14/22/2 15/23/2 16/24/2
f 10/18/3 9/17/3 16/25/3 15/26/3
f 12/27/4 11/28/4 14/29/4 13/30/4
f 11/28/5 10/18/5 15/26/5 14/29/5
f 9/17/6 12/31/6 13/32/6 16/25/6
f 17/33/1 18/34/1 19/35/1 20/36/1
f 21/37/2 22/38/2 23/39/2 24/40/2
f 18/34/3 17/33/3 24/41/3 23/42/3
f 20/43/4 19/44/4 22/45/4 21/46/4
f 19/44/7 18/34/7 23/42/7 22/45/7
f 17/33/8 20/47/8 21/48/8 24/41/8
f 25/49/1 26/50/1 27/51/1 28/52/1
f 29/53/2 30/54/2 31/55/2 32/56/2
f 26/50/3 25/49/3 32/57/3 31/58/3
f 28/59/4 27/60/4 30/61/4 29/62/4
f 27/60/9 26/50/9 31/58/9 30/61/9
f 25/49/10 28/63/10 29/64/10 32/57/10
f 33/65/1 34/66/1 35/67/1 36/68/1
f 37/69/2 38/70/2 39/71/2 40/72/2
f 34/66/3 33/65/3 40/73/3 39/74/3
f 36/75/4 35/76/4 38/77/4 37/78/4
f 35/76/5 34/66/5 39/74/5 38/77/5
f 33/65/6 36/79/6 37/80/6 40/73/6
f 41/81/1 42/82/1 43/83/1 44/84/1
f 45/85/2 46/86/2 47/87/2 48/88/2
f 42/82/3 41/81/3 48/89/3 47/90/3
f 44/91/4 43/92/4 46/93/4 45/94/4
f 43/92/5 42/82/5 47/90/5 46/93/5
f 41/81/6 44/95/6 45/96/6 48/89/6
f 49/97/1 50/98/1 51/99/1 52/100/1
f 53/101/2 54/102/2 55/103/2 56/104/2
f 50/98/3 49/97/3 56/105/3 55/106/3
f 52/107/4 51/108/4 54/109/4 53/110/4
f 51/108/5 50/98/5 55/106/5 54/109/5
f 49/97/6 52/111/6 53/112/6 56/105/6
f 57/113/1 58/114/1 59/115/1 60/116/1
f 61/117/2 62/118/2 63/119/2 64/120/2
f 58/114/11 57/113/11 64/121/11 63/122/11
f 60/123/12 59/124/12 62/125/12 61/126/12
f 59/124/13 58/114/13 63/122/13 62/125/13
f 57/113/14 60/127/14 61/128/14 64/121/14
f 65/129/1 66/130/1 67/131/1 68/132/1
f 69/133/2 70/134/2 71/135/2 72/136/2
f 66/130/11 65/129/11 72/137/11 71/138/11
f 68/139/12 67/140/12 70/141/12 69/142/12
f 67/140/13 66/130/13 71/138/13 70/141/13
f 65/129/14 68/143/14 69/144/14 72/137/14
