# Blender v2.79 (sub 0) OBJ File: ''
# www.blender.org
mtllib rim_3d11_0.mtl
o rim_3d11_0
v 0.031250 0.187500 -0.000000
v -0.031250 0.187500 -0.000000
v -0.031250 0.187500 0.062500
v 0.031250 0.187500 0.062500
v 0.031250 0.125000 0.062500
v -0.031250 0.125000 0.062500
v -0.031250 0.125000 -0.000000
v 0.031250 0.125000 -0.000000
v 0.031250 0.250000 -0.015625
v -0.031250 0.250000 -0.015625
v -0.031250 0.250000 0.046875
v 0.031250 0.250000 0.046875
v 0.031250 0.062500 0.046875
v -0.031250 0.062500 0.046875
v -0.031250 0.062500 -0.015625
v 0.031250 0.062500 -0.015625
v -0.031250 0.250000 -0.015625
v -0.093750 0.187500 -0.015625
v -0.093750 0.187500 0.046875
v -0.031250 0.250000 0.046875
v -0.031250 0.062500 0.046875
v -0.093750 0.125000 0.046875
v -0.093750 0.125000 -0.015625
v -0.031250 0.062500 -0.015625
v 0.093750 0.187500 -0.015625
v 0.031250 0.250000 -0.015625
v 0.031250 0.250000 0.046875
v 0.093750 0.187500 0.046875
v 0.093750 0.125000 0.046875
v 0.031250 0.062500 0.046875
v 0.031250 0.062500 -0.015625
v 0.093750 0.125000 -0.015625
v 0.093750 0.312500 -0.125000
v -0.093750 0.312500 -0.125000
v -0.093750 0.312500 0.031250
v 0.093750 0.312500 0.031250
v 0.093750 0.000000 0.031250
v -0.093750 0.000000 0.031250
v -0.093750 -0.000000 -0.125000
v 0.093750 -0.000000 -0.125000
v 0.156250 0.250000 -0.125000
v 0.093750 0.312500 -0.125000
v 0.093750 0.312500 0.031250
v 0.156250 0.250000 0.031250
v 0.156250 0.062500 0.031250
v 0.093750 0.000000 0.031250
v 0.093750 -0.000000 -0.125000
v 0.156250 0.062500 -0.125000
v -0.093750 0.312500 -0.125000
v -0.156250 0.250000 -0.125000
v -0.156250 0.250000 0.031250
v -0.093750 0.312500 0.031250
v -0.093750 0.000000 0.031250
v -0.156250 0.062500 0.031250
v -0.156250 0.062500 -0.125000
v -0.093750 -0.000000 -0.125000
vt 1.015625 0.937500
vt 1.023438 0.937500
vt 1.023438 0.968750
vt 1.015625 0.968750
vt 1.023438 0.937500
vt 1.031250 0.937500
vt 1.031250 0.968750
vt 1.023438 0.968750
vt 1.015625 0.906250
vt 1.023438 0.906250
vt 1.039062 0.937500
vt 1.031250 0.937500
vt 1.031250 0.906250
vt 1.039062 0.906250
vt 1.007812 0.937500
vt 1.007812 0.906250
vt 1.078125 0.937500
vt 1.085938 0.937500
vt 1.085938 0.968750
vt 1.078125 0.968750
vt 1.085938 0.937500
vt 1.093750 0.937500
vt 1.093750 0.968750
vt 1.085938 0.968750
vt 1.078125 0.843750
vt 1.085938 0.843750
vt 1.101562 0.937500
vt 1.093750 0.937500
vt 1.093750 0.843750
vt 1.101562 0.843750
vt 1.070312 0.937500
vt 1.070312 0.843750
vt 1.140625 0.937500
vt 1.148438 0.937500
vt 1.148438 0.968750
vt 1.140625 0.968750
vt 1.148438 0.937500
vt 1.156250 0.937500
vt 1.156250 0.968750
vt 1.148438 0.968750
vt 1.140625 0.843750
vt 1.148438 0.843750
vt 1.164062 0.937500
vt 1.156250 0.937500
vt 1.156250 0.843750
vt 1.164062 0.843750
vt 1.132812 0.937500
vt 1.132812 0.843750
vt 1.203125 0.937500
vt 1.210938 0.937500
vt 1.210938 0.968750
vt 1.203125 0.968750
vt 1.210938 0.937500
vt 1.218750 0.937500
vt 1.218750 0.968750
vt 1.210938 0.968750
vt 1.203125 0.843750
vt 1.210938 0.843750
vt 1.226562 0.937500
vt 1.218750 0.937500
vt 1.218750 0.843750
vt 1.226562 0.843750
vt 1.195312 0.937500
vt 1.195312 0.843750
vt 1.273438 0.906250
vt 1.296875 0.906250
vt 1.296875 0.968750
vt 1.273438 0.968750
vt 1.296875 0.906250
vt 1.320312 0.906250
vt 1.320312 0.968750
vt 1.296875 0.968750
vt 1.273438 0.750000
vt 1.296875 0.750000
vt 1.335938 0.906250
vt 1.312500 0.906250
vt 1.312500 0.750000
vt 1.335938 0.750000
vt 1.257812 0.906250
vt 1.257812 0.750000
vt 1.398438 0.906250
vt 1.406250 0.906250
vt 1.406250 0.968750
vt 1.398438 0.968750
vt 1.406250 0.906250
vt 1.414062 0.906250
vt 1.414062 0.968750
vt 1.406250 0.968750
vt 1.398438 0.750000
vt 1.406250 0.750000
vt 1.429688 0.906250
vt 1.421875 0.906250
vt 1.421875 0.750000
vt 1.429688 0.750000
vt 1.382812 0.906250
vt 1.382812 0.750000
vt 1.460938 0.906250
vt 1.468750 0.906250
vt 1.468750 0.968750
vt 1.460938 0.968750
vt 1.468750 0.906250
vt 1.476562 0.906250
vt 1.476562 0.968750
vt 1.468750 0.968750
vt 1.460938 0.750000
vt 1.468750 0.750000
vt 1.492188 0.906250
vt 1.484375 0.906250
vt 1.484375 0.750000
vt 1.492188 0.750000
vt 1.445312 0.906250
vt 1.445312 0.750000
vn -0.0000 1.0000 -0.0000
vn 0.0000 -1.0000 0.0000
vn -0.0000 -0.0000 -1.0000
vn 0.0000 0.0000 1.0000
vn -1.0000 0.0000 0.0000
vn 1.0000 0.0000 -0.0000
vn -0.7071 0.7071 0.0000
vn -0.7071 -0.7071 0.0000
vn 0.7071 0.7071 0.0000
vn 0.7071 -0.7071 0.0000
usemtl ModelMaterial.001
s off
f 1/1/1 2/2/1 3/3/1 4/4/1
f 5/5/2 6/6/2 7/7/2 8/8/2
f 2/2/3 1/1/3 8/9/3 7/10/3
f 4/11/4 3/12/4 6/13/4 5/14/4
f 3/12/5 2/2/5 7/10/5 6/13/5
f 1/1/6 4/15/6 5/16/6 8/9/6
f 9/17/1 10/18/1 11/19/1 12/20/1
f 13/21/2 14/22/2 15/23/2 16/24/2
f 10/18/3 9/17/3 16/25/3 15/26/3
f 12/27/4 11/28/4 14/29/4 13/30/4
f 11/28/5 10/18/5 15/26/5 14/29/5
f 9/17/6 12/31/6 13/32/6 16/25/6
f 17/33/7 18/34/7 19/35/7 20/36/7
f 21/37/8 22/38/8 23/39/8 24/40/8
f 18/34/3 17/33/3 24/41/3 23/42/3
f 20/43/4 19/44/4 22/45/4 21/46/4
f 19/44/5 18/34/5 23/42/5 22/45/5
f 17/33/6 20/47/6 21/48/6 24/41/6
f 25/49/9 26/50/9 27/51/9 28/52/9
f 29/53/10 30/54/10 31/55/10 32/56/10
f 26/50/3 25/49/3 32/57/3 31/58/3
f 28/59/4 27/60/4 30/61/4 29/62/4
f 27/60/5 26/50/5 31/58/5 30/61/5
f 25/49/6 28/63/6 29/64/6 32/57/6
f 33/65/1 34/66/1 35/67/1 36/68/1
f 37/69/2 38/70/2 39/71/2 40/72/2
f 34/66/3 33/65/3 40/73/3 39/74/3
f 36/75/4 35/76/4 38/77/4 37/78/4
f 35/76/5 34/66/5 39/74/5 38/77/5
f 33/65/6 36/79/6 37/80/6 40/73/6
f 41/81/9 42/82/9 43/83/9 44/84/9
f 45/85/10 46/86/10 47/87/10 48/88/10
f 42/82/3 41/81/3 48/89/3 47/90/3
f 44/91/4 43/92/4 46/93/4 45/94/4
f 43/92/5 42/82/5 47/90/5 46/93/5
f 41/81/6 44/95/6 45/96/6 48/89/6
f 49/97/7 50/98/7 51/99/7 52/100/7
f 53/101/8 54/102/8 55/103/8 56/104/8
f 50/98/3 49/97/3 56/105/3 55/106/3
f 52/107/4 51/108/4 54/109/4 53/110/4
f 51/108/5 50/98/5 55/106/5 54/109/5
f 49/97/6 52/111/6 53/112/6 56/105/6
