# Blender v2.79 (sub 0) OBJ File: ''
# www.blender.org
mtllib wrap_roll.mtl
o wrap_roll.obj
v 0.437500 0.875000 0.000000
v 0.500000 0.875000 0.000000
v 0.500000 0.937500 -0.500000
v 0.437500 0.937500 -0.500000
v 0.437500 0.750000 -0.500000
v 0.500000 0.750000 -0.500000
v 0.500000 0.812500 0.000000
v 0.437500 0.812500 0.000000
v -0.437500 0.875000 -0.062500
v 0.437500 0.875000 -0.062500
v 0.437500 0.875000 -0.125000
v -0.437500 0.875000 -0.125000
v -0.437500 0.812500 -0.125000
v 0.437500 0.812500 -0.125000
v 0.437500 0.812500 -0.062500
v -0.437500 0.812500 -0.062500
v -0.500000 0.875000 0.000000
v -0.437500 0.875000 0.000000
v -0.437500 0.937500 -0.500000
v -0.500000 0.937500 -0.500000
v -0.500000 0.750000 -0.500000
v -0.437500 0.750000 -0.500000
v -0.437500 0.812500 0.000000
v -0.500000 0.812500 0.000000
v -0.437500 0.875000 0.000000
v 0.437500 0.875000 0.000000
v 0.437500 0.875000 -0.062500
v -0.437500 0.875000 -0.062500
v -0.437500 0.812500 -0.062500
v 0.437500 0.812500 -0.062500
v 0.437500 0.812500 0.000000
v -0.437500 0.812500 0.000000
v -0.437500 0.937500 -0.062500
v 0.437500 0.937500 -0.062500
v 0.437500 0.937500 -0.062500
v -0.437500 0.937500 -0.062500
v -0.437500 0.875000 -0.062500
v 0.437500 0.875000 -0.062500
v 0.437500 0.875000 0.000000
v -0.437500 0.875000 0.000000
v -0.437500 0.750000 -0.062500
v 0.437500 0.750000 -0.062500
v 0.437500 0.812500 -0.062500
v -0.437500 0.812500 -0.062500
v -0.437500 0.812500 -0.125000
v 0.437500 0.812500 -0.125000
v 0.437500 0.750000 -0.125000
v -0.437500 0.750000 -0.125000
v -0.437500 0.937500 -0.125000
v 0.437500 0.937500 -0.125000
v 0.437500 0.875000 -0.125000
v -0.437500 0.875000 -0.125000
v -0.437500 0.875000 -0.062500
v 0.437500 0.875000 -0.062500
v 0.437500 0.937500 -0.062500
v -0.437500 0.937500 -0.062500
v -0.437500 0.812500 0.000000
v 0.437500 0.812500 0.000000
v 0.437500 0.812500 0.000000
v -0.437500 0.812500 0.000000
v -0.437500 0.812500 -0.062500
v 0.437500 0.812500 -0.062500
v 0.437500 0.750000 -0.062500
v -0.437500 0.750000 -0.062500
v 0.437500 0.812500 -0.187500
v -0.437500 0.812500 -0.187500
v -0.437500 0.812500 -0.187500
v 0.437500 0.812500 -0.187500
v 0.437500 0.812500 -0.125000
v -0.437500 0.812500 -0.125000
v -0.437500 0.750000 -0.125000
v 0.437500 0.750000 -0.125000
v 0.437500 0.937500 -0.125000
v -0.437500 0.937500 -0.125000
v -0.437500 0.937500 -0.125000
v 0.437500 0.937500 -0.125000
v 0.437500 0.875000 -0.125000
v -0.437500 0.875000 -0.125000
v -0.437500 0.875000 -0.187500
v 0.437500 0.875000 -0.187500
v -0.437500 0.812500 -0.187500
v 0.437500 0.812500 -0.187500
v 0.437500 0.812500 -0.125000
v -0.437500 0.812500 -0.125000
v -0.437500 0.875000 -0.125000
v 0.437500 0.875000 -0.125000
v 0.437500 0.875000 -0.187500
v -0.437500 0.875000 -0.187500
v -0.437500 0.812500 0.000000
v 0.437500 0.812500 0.000000
v 0.437500 0.812500 0.000000
v -0.437500 0.812500 0.000000
v -0.437500 0.750086 0.003271
v 0.437500 0.750086 0.003271
v 0.437500 0.750086 0.003271
v -0.437500 0.750086 0.003271
v -0.437500 0.749914 0.003271
v 0.437500 0.749914 0.003271
v 0.437500 0.749914 0.003271
v -0.437500 0.749914 0.003271
v -0.437500 0.687500 0.000000
v 0.437500 0.687500 0.000000
v 0.437500 0.687500 0.000000
v -0.437500 0.687500 0.000000
v -0.437500 0.624914 0.003271
v 0.437500 0.624914 0.003271
v 0.437500 0.624914 0.003271
v -0.437500 0.624914 0.003271
v -0.437500 0.562500 0.000000
v 0.437500 0.562500 0.000000
v 0.437500 0.562500 0.000000
v -0.437500 0.562500 0.000000
v -0.437500 0.687500 0.000000
v 0.437500 0.687500 0.000000
v 0.437500 0.687500 0.000000
v -0.437500 0.687500 0.000000
v -0.437500 0.625086 0.003271
v 0.437500 0.625086 0.003271
v 0.437500 0.625086 0.003271
v -0.437500 0.625086 0.003271
v -0.437500 0.499914 0.003271
v 0.437500 0.499914 0.003271
v 0.437500 0.499914 0.003271
v -0.437500 0.499914 0.003271
v -0.437500 0.437500 0.000000
v 0.437500 0.437500 0.000000
v 0.437500 0.437500 0.000000
v -0.437500 0.437500 0.000000
v -0.437500 0.562500 0.000000
v 0.437500 0.562500 0.000000
v 0.437500 0.562500 0.000000
v -0.437500 0.562500 0.000000
v -0.437500 0.500086 0.003271
v 0.437500 0.500086 0.003271
v 0.437500 0.500086 0.003271
v -0.437500 0.500086 0.003271
vt 1.017578 0.929688
vt 1.019531 0.929688
vt 1.019531 0.992188
vt 1.017578 0.992188
vt 1.019531 0.929688
vt 1.021484 0.929688
vt 1.021484 0.992188
vt 1.019531 0.992188
vt 1.017578 0.921875
vt 1.019531 0.921875
vt 1.037109 0.929688
vt 1.035156 0.929688
vt 1.035156 0.921875
vt 1.037109 0.921875
vt 1.001953 0.929688
vt 1.001953 0.921875
vt 1.035156 0.984375
vt 1.062500 0.984375
vt 1.062500 0.992188
vt 1.035156 0.992188
vt 1.062500 0.984375
vt 1.089844 0.984375
vt 1.089844 0.992188
vt 1.062500 0.992188
vt 1.035156 0.976562
vt 1.062500 0.976562
vt 1.091797 0.984375
vt 1.064453 0.984375
vt 1.064453 0.976562
vt 1.091797 0.976562
vt 1.033203 0.984375
vt 1.033203 0.976562
vt 1.095703 0.929688
vt 1.097656 0.929688
vt 1.097656 0.992188
vt 1.095703 0.992188
vt 1.097656 0.929688
vt 1.099609 0.929688
vt 1.099609 0.992188
vt 1.097656 0.992188
vt 1.095703 0.921875
vt 1.097656 0.921875
vt 1.115234 0.929688
vt 1.113281 0.929688
vt 1.113281 0.921875
vt 1.115234 0.921875
vt 1.080078 0.929688
vt 1.080078 0.921875
vt 1.128906 0.984375
vt 1.347656 0.984375
vt 1.347656 0.992188
vt 1.128906 0.992188
vt 1.347656 0.984375
vt 1.566406 0.984375
vt 1.566406 0.992188
vt 1.347656 0.992188
vt 1.128906 0.921875
vt 1.347656 0.921875
vt 1.568359 0.984375
vt 1.349609 0.984375
vt 1.349609 0.921875
vt 1.568359 0.921875
vt 1.126953 0.984375
vt 1.126953 0.921875
vt 1.003906 0.859375
vt 1.222656 0.859375
vt 1.222656 0.867188
vt 1.003906 0.867188
vt 1.222656 0.859375
vt 1.441406 0.859375
vt 1.441406 0.867188
vt 1.222656 0.867188
vt 1.003906 0.796875
vt 1.222656 0.796875
vt 1.443359 0.859375
vt 1.224609 0.859375
vt 1.224609 0.796875
vt 1.443359 0.796875
vt 1.001953 0.859375
vt 1.001953 0.796875
vt 1.457031 0.859375
vt 1.675781 0.859375
vt 1.675781 0.867188
vt 1.457031 0.867188
vt 1.675781 0.859375
vt 1.894531 0.859375
vt 1.894531 0.867188
vt 1.675781 0.867188
vt 1.457031 0.796875
vt 1.675781 0.796875
vt 1.896484 0.859375
vt 1.677734 0.859375
vt 1.677734 0.796875
vt 1.896484 0.796875
vt 1.455078 0.859375
vt 1.455078 0.796875
vt 1.003906 0.734375
vt 1.222656 0.734375
vt 1.222656 0.742188
vt 1.003906 0.742188
vt 1.222656 0.734375
vt 1.441406 0.734375
vt 1.441406 0.742188
vt 1.222656 0.742188
vt 1.003906 0.671875
vt 1.222656 0.671875
vt 1.443359 0.734375
vt 1.224609 0.734375
vt 1.224609 0.671875
vt 1.443359 0.671875
vt 1.001953 0.734375
vt 1.001953 0.671875
vt 1.457031 0.734375
vt 1.675781 0.734375
vt 1.675781 0.742188
vt 1.457031 0.742188
vt 1.675781 0.734375
vt 1.894531 0.734375
vt 1.894531 0.742188
vt 1.675781 0.742188
vt 1.457031 0.671875
vt 1.675781 0.671875
vt 1.896484 0.734375
vt 1.677734 0.734375
vt 1.677734 0.671875
vt 1.896484 0.671875
vt 1.455078 0.734375
vt 1.455078 0.671875
vt 1.003906 0.609375
vt 1.222656 0.609375
vt 1.222656 0.617188
vt 1.003906 0.617188
vt 1.222656 0.609375
vt 1.441406 0.609375
vt 1.441406 0.617188
vt 1.222656 0.617188
vt 1.003906 0.546875
vt 1.222656 0.546875
vt 1.443359 0.609375
vt 1.224609 0.609375
vt 1.224609 0.546875
vt 1.443359 0.546875
vt 1.001953 0.609375
vt 1.001953 0.546875
vt 1.457031 0.609375
vt 1.675781 0.609375
vt 1.675781 0.617188
vt 1.457031 0.617188
vt 1.675781 0.609375
vt 1.894531 0.609375
vt 1.894531 0.617188
vt 1.675781 0.617188
vt 1.457031 0.546875
vt 1.675781 0.546875
vt 1.896484 0.609375
vt 1.677734 0.609375
vt 1.677734 0.546875
vt 1.896484 0.546875
vt 1.455078 0.609375
vt 1.455078 0.546875
vt 1.003906 0.484375
vt 1.222656 0.484375
vt 1.222656 0.492188
vt 1.003906 0.492188
vt 1.222656 0.484375
vt 1.441406 0.484375
vt 1.441406 0.492188
vt 1.222656 0.492188
vt 1.003906 0.421875
vt 1.222656 0.421875
vt 1.443359 0.484375
vt 1.224609 0.484375
vt 1.224609 0.421875
vt 1.443359 0.421875
vt 1.001953 0.484375
vt 1.001953 0.421875
vt 1.455078 0.492188
vt 1.673828 0.492188
vt 1.673828 0.492188
vt 1.455078 0.492188
vt 1.673828 0.492188
vt 1.892578 0.492188
vt 1.892578 0.492188
vt 1.673828 0.492188
vt 1.455078 0.429688
vt 1.673828 0.429688
vt 1.892578 0.492188
vt 1.673828 0.429688
vt 1.892578 0.429688
vt 1.455078 0.429688
vt 1.001953 0.367188
vt 1.220703 0.367188
vt 1.220703 0.367188
vt 1.001953 0.367188
vt 1.220703 0.367188
vt 1.439453 0.367188
vt 1.439453 0.367188
vt 1.220703 0.367188
vt 1.001953 0.304688
vt 1.220703 0.304688
vt 1.439453 0.367188
vt 1.220703 0.304688
vt 1.439453 0.304688
vt 1.001953 0.304688
vt 1.455078 0.367188
vt 1.673828 0.367188
vt 1.673828 0.367188
vt 1.455078 0.367188
vt 1.673828 0.367188
vt 1.892578 0.367188
vt 1.892578 0.367188
vt 1.673828 0.367188
vt 1.455078 0.304688
vt 1.673828 0.304688
vt 1.892578 0.367188
vt 1.673828 0.304688
vt 1.892578 0.304688
vt 1.455078 0.304688
vt 1.001953 0.242188
vt 1.220703 0.242188
vt 1.220703 0.242188
vt 1.001953 0.242188
vt 1.220703 0.242188
vt 1.439453 0.242188
vt 1.439453 0.242188
vt 1.220703 0.242188
vt 1.001953 0.179688
vt 1.220703 0.179688
vt 1.439453 0.242188
vt 1.220703 0.179688
vt 1.439453 0.179688
vt 1.001953 0.179688
vt 1.455078 0.242188
vt 1.673828 0.242188
vt 1.673828 0.242188
vt 1.455078 0.242188
vt 1.673828 0.242188
vt 1.892578 0.242188
vt 1.892578 0.242188
vt 1.673828 0.242188
vt 1.455078 0.179688
vt 1.673828 0.179688
vt 1.892578 0.242188
vt 1.673828 0.179688
vt 1.892578 0.179688
vt 1.455078 0.179688
vt 1.001953 0.117188
vt 1.220703 0.117188
vt 1.220703 0.117188
vt 1.001953 0.117188
vt 1.220703 0.117188
vt 1.439453 0.117188
vt 1.439453 0.117188
vt 1.220703 0.117188
vt 1.001953 0.054688
vt 1.220703 0.054688
vt 1.439453 0.117188
vt 1.220703 0.054688
vt 1.439453 0.054688
vt 1.001953 0.054688
vn 0.0000 0.9923 0.1240
vn 0.0000 -0.9923 0.1240
vn 0.0000 -0.0000 1.0000
vn 0.0000 0.0000 -1.0000
vn 1.0000 0.0000 0.0000
vn -1.0000 0.0000 0.0000
vn 0.0000 1.0000 0.0000
vn 0.0000 -1.0000 0.0000
vn 0.0000 0.7071 0.7071
vn 0.0000 -0.7071 0.7071
vn 0.0000 -0.7071 -0.7071
vn 0.0000 0.7071 -0.7071
vn 0.0000 0.0523 0.9986
vn 0.0000 -0.0523 -0.9986
vn 0.0000 -0.0523 0.9986
vn 0.0000 0.0523 -0.9986
usemtl ModelMaterial
s off
f 1/1/1 2/2/1 3/3/1 4/4/1
f 5/5/2 6/6/2 7/7/2 8/8/2
f 2/2/3 1/1/3 8/9/3 7/10/3
f 4/11/4 3/12/4 6/13/4 5/14/4
f 3/12/5 2/2/5 7/10/5 6/13/5
f 1/1/6 4/15/6 5/16/6 8/9/6
f 9/17/7 10/18/7 11/19/7 12/20/7
f 13/21/8 14/22/8 15/23/8 16/24/8
f 10/18/3 9/17/3 16/25/3 15/26/3
f 12/27/4 11/28/4 14/29/4 13/30/4
f 11/28/5 10/18/5 15/26/5 14/29/5
f 9/17/6 12/31/6 13/32/6 16/25/6
f 17/33/1 18/34/1 19/35/1 20/36/1
f 21/37/2 22/38/2 23/39/2 24/40/2
f 18/34/3 17/33/3 24/41/3 23/42/3
f 20/43/4 19/44/4 22/45/4 21/46/4
f 19/44/5 18/34/5 23/42/5 22/45/5
f 17/33/6 20/47/6 21/48/6 24/41/6
f 25/49/7 26/50/7 27/51/7 28/52/7
f 29/53/8 30/54/8 31/55/8 32/56/8
f 26/50/3 25/49/3 32/57/3 31/58/3
f 28/59/4 27/60/4 30/61/4 29/62/4
f 27/60/5 26/50/5 31/58/5 30/61/5
f 25/49/6 28/63/6 29/64/6 32/57/6
f 33/65/3 34/66/3 35/67/3 36/68/3
f 37/69/8 38/70/8 39/71/8 40/72/8
f 34/66/9 33/65/9 40/73/9 39/74/9
f 36/75/4 35/76/4 38/77/4 37/78/4
f 35/76/5 34/66/5 39/74/5 38/77/5
f 33/65/6 36/79/6 37/80/6 40/73/6
f 41/81/3 42/82/3 43/83/3 44/84/3
f 45/85/4 46/86/4 47/87/4 48/88/4
f 42/82/8 41/81/8 48/89/8 47/90/8
f 44/91/7 43/92/7 46/93/7 45/94/7
f 43/92/5 42/82/5 47/90/5 46/93/5
f 41/81/6 44/95/6 45/96/6 48/89/6
f 49/97/4 50/98/4 51/99/4 52/100/4
f 53/101/3 54/102/3 55/103/3 56/104/3
f 50/98/7 49/97/7 56/105/7 55/106/7
f 52/107/8 51/108/8 54/109/8 53/110/8
f 51/108/5 50/98/5 55/106/5 54/109/5
f 49/97/6 52/111/6 53/112/6 56/105/6
f 57/113/3 58/114/3 59/115/3 60/116/3
f 61/117/4 62/118/4 63/119/4 64/120/4
f 58/114/10 57/113/10 64/121/10 63/122/10
f 60/123/7 59/124/7 62/125/7 61/126/7
f 59/124/5 58/114/5 63/122/5 62/125/5
f 57/113/6 60/127/6 61/128/6 64/121/6
f 65/129/3 66/130/3 67/131/3 68/132/3
f 69/133/3 70/134/3 71/135/3 72/136/3
f 66/130/11 65/129/11 72/137/11 71/138/11
f 68/139/7 67/140/7 70/141/7 69/142/7
f 67/140/6 66/130/6 71/138/6 70/141/6
f 65/129/5 68/143/5 69/144/5 72/137/5
f 73/145/3 74/146/3 75/147/3 76/148/3
f 77/149/8 78/150/8 79/151/8 80/152/8
f 74/146/12 73/145/12 80/153/12 79/154/12
f 76/155/3 75/156/3 78/157/3 77/158/3
f 75/156/6 74/146/6 79/154/6 78/157/6
f 73/145/5 76/159/5 77/160/5 80/153/5
f 81/161/8 82/162/8 83/163/8 84/164/8
f 85/165/7 86/166/7 87/167/7 88/168/7
f 82/162/4 81/161/4 88/169/4 87/170/4
f 84/171/3 83/172/3 86/173/3 85/174/3
f 83/172/5 82/162/5 87/170/5 86/173/5
f 81/161/6 84/175/6 85/176/6 88/169/6
f 89/177/3 90/178/3 91/179/3 92/180/3
f 93/181/3 94/182/3 95/183/3 96/184/3
f 90/178/13 89/177/13 96/185/13 95/186/13
f 92/187/14 91/179/14 94/188/14 93/189/14
f 91/179/3 90/178/3 95/186/3 94/188/3
f 89/177/3 92/180/3 93/190/3 96/185/3
f 97/191/3 98/192/3 99/193/3 100/194/3
f 101/195/3 102/196/3 103/197/3 104/198/3
f 98/192/15 97/191/15 104/199/15 103/200/15
f 100/201/16 99/193/16 102/202/16 101/203/16
f 99/193/3 98/192/3 103/200/3 102/202/3
f 97/191/3 100/194/3 101/204/3 104/199/3
f 105/205/3 106/206/3 107/207/3 108/208/3
f 109/209/3 110/210/3 111/211/3 112/212/3
f 106/206/15 105/205/15 112/213/15 111/214/15
f 108/215/16 107/207/16 110/216/16 109/217/16
f 107/207/3 106/206/3 111/214/3 110/216/3
f 105/205/3 108/208/3 109/218/3 112/213/3
f 113/219/3 114/220/3 115/221/3 116/222/3
f 117/223/3 118/224/3 119/225/3 120/226/3
f 114/220/13 113/219/13 120/227/13 119/228/13
f 116/229/14 115/221/14 118/230/14 117/231/14
f 115/221/3 114/220/3 119/228/3 118/230/3
f 113/219/3 116/222/3 117/232/3 120/227/3
f 121/233/3 122/234/3 123/235/3 124/236/3
f 125/237/3 126/238/3 127/239/3 128/240/3
f 122/234/15 121/233/15 128/241/15 127/242/15
f 124/243/16 123/235/16 126/244/16 125/245/16
f 123/235/3 122/234/3 127/242/3 126/244/3
f 121/233/3 124/236/3 125/246/3 128/241/3
f 129/247/3 130/248/3 131/249/3 132/250/3
f 133/251/3 134/252/3 135/253/3 136/254/3
f 130/248/13 129/247/13 136/255/13 135/256/13
f 132/257/14 131/249/14 134/258/14 133/259/14
f 131/249/3 130/248/3 135/256/3 134/258/3
f 129/247/3 132/250/3 133/260/3 136/255/3
