# Blender v2.79 (sub 0) OBJ File: ''
# www.blender.org
mtllib hospital_bed.obj.mtl
o hospital_bed.obj.001
v -0.500000 0.660933 -1.500000
v -0.500000 0.660933 0.500000
v -0.375000 0.660933 0.500000
v -0.375000 0.660933 -1.500000
v -0.375000 0.535933 -1.500000
v -0.375000 0.535933 0.500000
v -0.500000 0.535933 0.500000
v -0.500000 0.535933 -1.500000
v 0.375000 0.660933 -1.500000
v 0.375000 0.660933 0.500000
v 0.500000 0.660934 0.500000
v 0.500000 0.660934 -1.500000
v 0.500000 0.535934 -1.500000
v 0.500000 0.535934 0.500000
v 0.375000 0.535933 0.500000
v 0.375000 0.535933 -1.500000
v -0.375000 0.598433 -1.500000
v -0.375000 0.598433 0.500000
v 0.375000 0.598433 0.500000
v 0.375000 0.598433 -1.500000
v 0.375000 0.535933 -1.500000
v 0.375000 0.535933 0.500000
v -0.375000 0.535933 0.500000
v -0.375000 0.535933 -1.500000
v 0.375000 0.535933 -1.375000
v 0.375000 0.223434 -0.875000
v 0.437500 0.223434 -0.875000
v 0.437500 0.535933 -1.375000
v 0.437500 0.473434 -1.375000
v 0.437500 0.160934 -0.875000
v 0.375000 0.160934 -0.875000
v 0.375000 0.473434 -1.375000
v 0.312500 0.223434 -1.375000
v 0.312500 0.535933 -0.875000
v 0.375000 0.535933 -0.875000
v 0.375000 0.223434 -1.375000
v 0.375000 0.160934 -1.375000
v 0.375000 0.473434 -0.875000
v 0.312500 0.473433 -0.875000
v 0.312500 0.160934 -1.375000
v -0.375000 0.223433 -1.375000
v -0.375000 0.535933 -0.875000
v -0.312500 0.535933 -0.875000
v -0.312500 0.223433 -1.375000
v -0.312500 0.160933 -1.375000
v -0.312500 0.473433 -0.875000
v -0.375000 0.473433 -0.875000
v -0.375000 0.160933 -1.375000
v -0.437500 0.535933 -1.375000
v -0.437500 0.223433 -0.875000
v -0.375000 0.223433 -0.875000
v -0.375000 0.535933 -1.375000
v -0.375000 0.473433 -1.375000
v -0.375000 0.160933 -0.875000
v -0.437500 0.160933 -0.875000
v -0.437500 0.473433 -1.375000
v -0.437500 0.535933 -1.437500
v -0.437500 0.535933 -1.375000
v 0.437500 0.535933 -1.375000
v 0.437500 0.535933 -1.437500
v 0.437500 0.473434 -1.437500
v 0.437500 0.473434 -1.375000
v -0.437500 0.473433 -1.375000
v -0.437500 0.473433 -1.437500
v -0.375000 0.535933 -0.875000
v -0.375000 0.535933 -0.812500
v 0.375000 0.535933 -0.812500
v 0.375000 0.535933 -0.875000
v 0.375000 0.473434 -0.875000
v 0.375000 0.473434 -0.812500
v -0.375000 0.473433 -0.812500
v -0.375000 0.473433 -0.875000
v -0.375000 0.535933 0.375000
v -0.375000 0.535933 0.437500
v 0.375000 0.535933 0.437500
v 0.375000 0.535933 0.375000
v 0.375000 0.473434 0.375000
v 0.375000 0.473434 0.437500
v -0.375000 0.473433 0.437500
v -0.375000 0.473433 0.375000
v -0.437500 0.535933 -0.187500
v -0.437500 0.535933 -0.125000
v 0.437500 0.535933 -0.125000
v 0.437500 0.535933 -0.187500
v 0.437500 0.473434 -0.187500
v 0.437500 0.473434 -0.125000
v -0.437500 0.473433 -0.125000
v -0.437500 0.473433 -0.187500
v 0.375000 0.535933 -0.125000
v 0.375000 0.223434 0.375000
v 0.437500 0.223434 0.375000
v 0.437500 0.535933 -0.125000
v 0.437500 0.473434 -0.125000
v 0.437500 0.160934 0.375000
v 0.375000 0.160934 0.375000
v 0.375000 0.473434 -0.125000
v -0.437500 0.535933 -0.125000
v -0.437500 0.223433 0.375000
v -0.375000 0.223433 0.375000
v -0.375000 0.535933 -0.125000
v -0.375000 0.473433 -0.125000
v -0.375000 0.160933 0.375000
v -0.437500 0.160933 0.375000
v -0.437500 0.473433 -0.125000
v -0.375000 0.223433 -0.125000
v -0.375000 0.535933 0.375000
v -0.312500 0.535933 0.375000
v -0.312500 0.223433 -0.125000
v -0.312500 0.160933 -0.125000
v -0.312500 0.473433 0.375000
v -0.375000 0.473433 0.375000
v -0.375000 0.160933 -0.125000
v 0.312500 0.223434 -0.125000
v 0.312500 0.535933 0.375000
v 0.375000 0.535933 0.375000
v 0.375000 0.223434 -0.125000
v 0.375000 0.160934 -0.125000
v 0.375000 0.473434 0.375000
v 0.312500 0.473433 0.375000
v 0.312500 0.160934 -0.125000
v 0.312500 0.160934 -1.500000
v 0.312500 0.160934 0.500000
v 0.437500 0.160934 0.500000
v 0.437500 0.160934 -1.500000
v 0.437500 0.098434 -1.500000
v 0.437500 0.098434 0.500000
v 0.312500 0.098434 0.500000
v 0.312500 0.098434 -1.500000
v -0.437500 0.160933 -1.500000
v -0.437500 0.160933 0.500000
v -0.312500 0.160933 0.500000
v -0.312500 0.160933 -1.500000
v -0.312500 0.098433 -1.500000
v -0.312500 0.098433 0.500000
v -0.437500 0.098433 0.500000
v -0.437500 0.098433 -1.500000
v -0.375000 0.223433 -1.437500
v -0.375000 0.223433 -1.375000
v 0.375000 0.223434 -1.375000
v 0.375000 0.223434 -1.437500
v 0.375000 0.160934 -1.437500
v 0.375000 0.160934 -1.375000
v -0.375000 0.160933 -1.375000
v -0.375000 0.160933 -1.437500
v -0.437500 0.223433 -0.875000
v -0.437500 0.223433 -0.812500
v 0.437500 0.223434 -0.812500
v 0.437500 0.223434 -0.875000
v 0.437500 0.160934 -0.875000
v 0.437500 0.160934 -0.812500
v -0.437500 0.160933 -0.812500
v -0.437500 0.160933 -0.875000
v -0.375000 0.223433 -0.187500
v -0.375000 0.223433 -0.125000
v 0.375000 0.223434 -0.125000
v 0.375000 0.223434 -0.187500
v 0.375000 0.160934 -0.187500
v 0.375000 0.160934 -0.125000
v -0.375000 0.160933 -0.125000
v -0.375000 0.160933 -0.187500
v -0.437500 0.223433 0.375000
v -0.437500 0.223433 0.437500
v 0.437500 0.223434 0.437500
v 0.437500 0.223434 0.375000
v 0.437500 0.160934 0.375000
v 0.437500 0.160934 0.437500
v -0.437500 0.160933 0.437500
v -0.437500 0.160933 0.375000
v -0.406250 0.129683 -1.437500
v -0.406250 0.129683 -1.312500
v -0.343750 0.129683 -1.312500
v -0.343750 0.129683 -1.437500
v -0.343750 0.004683 -1.437500
v -0.343750 0.004683 -1.312500
v -0.406250 0.004683 -1.312500
v -0.406250 0.004683 -1.437500
v -0.406250 0.129683 0.312500
v -0.406250 0.129683 0.437500
v -0.343750 0.129683 0.437500
v -0.343750 0.129683 0.312500
v -0.343750 0.004683 0.312500
v -0.343750 0.004683 0.437500
v -0.406250 0.004683 0.437500
v -0.406250 0.004683 0.312500
v -0.406250 0.129683 -0.187500
v -0.406250 0.129683 -0.062500
v -0.343750 0.129683 -0.062500
v -0.343750 0.129683 -0.187500
v -0.343750 0.004683 -0.187500
v -0.343750 0.004683 -0.062500
v -0.406250 0.004683 -0.062500
v -0.406250 0.004683 -0.187500
v -0.406250 0.129683 -0.937500
v -0.406250 0.129683 -0.812500
v -0.343750 0.129683 -0.812500
v -0.343750 0.129683 -0.937500
v -0.343750 0.004683 -0.937500
v -0.343750 0.004683 -0.812500
v -0.406250 0.004683 -0.812500
v -0.406250 0.004683 -0.937500
v 0.343750 0.129684 -0.937500
v 0.343750 0.129684 -0.812500
v 0.406250 0.129684 -0.812500
v 0.406250 0.129684 -0.937500
v 0.406250 0.004684 -0.937500
v 0.406250 0.004684 -0.812500
v 0.343750 0.004684 -0.812500
v 0.343750 0.004684 -0.937500
v 0.343750 0.129684 -0.187500
v 0.343750 0.129684 -0.062500
v 0.406250 0.129684 -0.062500
v 0.406250 0.129684 -0.187500
v 0.406250 0.004684 -0.187500
v 0.406250 0.004684 -0.062500
v 0.343750 0.004684 -0.062500
v 0.343750 0.004684 -0.187500
v 0.343750 0.129684 0.312500
v 0.343750 0.129684 0.437500
v 0.406250 0.129684 0.437500
v 0.406250 0.129684 0.312500
v 0.406250 0.004684 0.312500
v 0.406250 0.004684 0.437500
v 0.343750 0.004684 0.437500
v 0.343750 0.004684 0.312500
v 0.343750 0.129684 -1.437500
v 0.343750 0.129684 -1.312500
v 0.406250 0.129684 -1.312500
v 0.406250 0.129684 -1.437500
v 0.406250 0.004684 -1.437500
v 0.406250 0.004684 -1.312500
v 0.343750 0.004684 -1.312500
v 0.343750 0.004684 -1.437500
vt 1.023438 0.976562
vt 1.273438 0.976562
vt 1.273438 0.992188
vt 1.023438 0.992188
vt 1.273438 0.976562
vt 1.523438 0.976562
vt 1.523438 0.992188
vt 1.273438 0.992188
vt 1.023438 0.960938
vt 1.273438 0.960938
vt 1.539062 0.976562
vt 1.289062 0.976562
vt 1.289062 0.960938
vt 1.539062 0.960938
vt 1.007812 0.976562
vt 1.007812 0.960938
vt 1.023438 0.914062
vt 1.273438 0.914062
vt 1.273438 0.929688
vt 1.023438 0.929688
vt 1.273438 0.914062
vt 1.523438 0.914062
vt 1.523438 0.929688
vt 1.273438 0.929688
vt 1.023438 0.898438
vt 1.273438 0.898438
vt 1.539062 0.914062
vt 1.289062 0.914062
vt 1.289062 0.898438
vt 1.539062 0.898438
vt 1.007812 0.914062
vt 1.007812 0.898438
vt 1.101562 0.773438
vt 1.351562 0.773438
vt 1.351562 0.867188
vt 1.101562 0.867188
vt 1.351562 0.773438
vt 1.601562 0.773438
vt 1.601562 0.867188
vt 1.351562 0.867188
vt 1.101562 0.765625
vt 1.351562 0.765625
vt 1.695312 0.773438
vt 1.445312 0.773438
vt 1.445312 0.765625
vt 1.695312 0.765625
vt 1.007812 0.773438
vt 1.007812 0.765625
vt 1.578125 0.984375
vt 1.640625 0.984375
vt 1.640625 0.992188
vt 1.578125 0.992188
vt 1.640625 0.984375
vt 1.703125 0.984375
vt 1.703125 0.992188
vt 1.640625 0.992188
vt 1.578125 0.976562
vt 1.640625 0.976562
vt 1.710938 0.984375
vt 1.648438 0.984375
vt 1.648438 0.976562
vt 1.710938 0.976562
vt 1.570312 0.984375
vt 1.570312 0.976562
vt 1.765625 0.984375
vt 1.828125 0.984375
vt 1.828125 0.992188
vt 1.765625 0.992188
vt 1.828125 0.984375
vt 1.890625 0.984375
vt 1.890625 0.992188
vt 1.828125 0.992188
vt 1.765625 0.976562
vt 1.828125 0.976562
vt 1.898438 0.984375
vt 1.835938 0.984375
vt 1.835938 0.976562
vt 1.898438 0.976562
vt 1.757812 0.984375
vt 1.757812 0.976562
vt 1.578125 0.921875
vt 1.640625 0.921875
vt 1.640625 0.929688
vt 1.578125 0.929688
vt 1.640625 0.921875
vt 1.703125 0.921875
vt 1.703125 0.929688
vt 1.640625 0.929688
vt 1.578125 0.914062
vt 1.640625 0.914062
vt 1.710938 0.921875
vt 1.648438 0.921875
vt 1.648438 0.914062
vt 1.710938 0.914062
vt 1.570312 0.921875
vt 1.570312 0.914062
vt 1.765625 0.921875
vt 1.828125 0.921875
vt 1.828125 0.929688
vt 1.765625 0.929688
vt 1.828125 0.921875
vt 1.890625 0.921875
vt 1.890625 0.929688
vt 1.828125 0.929688
vt 1.765625 0.914062
vt 1.828125 0.914062
vt 1.898438 0.921875
vt 1.835938 0.921875
vt 1.835938 0.914062
vt 1.898438 0.914062
vt 1.757812 0.921875
vt 1.757812 0.914062
vt 1.742188 0.757812
vt 1.750000 0.757812
vt 1.750000 0.867188
vt 1.742188 0.867188
vt 1.750000 0.757812
vt 1.757812 0.757812
vt 1.757812 0.867188
vt 1.750000 0.867188
vt 1.742188 0.750000
vt 1.750000 0.750000
vt 1.867188 0.757812
vt 1.859375 0.757812
vt 1.859375 0.750000
vt 1.867188 0.750000
vt 1.632812 0.757812
vt 1.632812 0.750000
vt 1.726562 0.898438
vt 1.734375 0.898438
vt 1.734375 0.992188
vt 1.726562 0.992188
vt 1.734375 0.898438
vt 1.742188 0.898438
vt 1.742188 0.992188
vt 1.734375 0.992188
vt 1.726562 0.890625
vt 1.734375 0.890625
vt 1.835938 0.898438
vt 1.828125 0.898438
vt 1.828125 0.890625
vt 1.835938 0.890625
vt 1.632812 0.898438
vt 1.632812 0.890625
vt 1.101562 0.648438
vt 1.109375 0.648438
vt 1.109375 0.742188
vt 1.101562 0.742188
vt 1.109375 0.648438
vt 1.117188 0.648438
vt 1.117188 0.742188
vt 1.109375 0.742188
vt 1.101562 0.640625
vt 1.109375 0.640625
vt 1.210938 0.648438
vt 1.203125 0.648438
vt 1.203125 0.640625
vt 1.210938 0.640625
vt 1.007812 0.648438
vt 1.007812 0.640625
vt 1.242188 0.632812
vt 1.250000 0.632812
vt 1.250000 0.742188
vt 1.242188 0.742188
vt 1.250000 0.632812
vt 1.257812 0.632812
vt 1.257812 0.742188
vt 1.250000 0.742188
vt 1.242188 0.625000
vt 1.250000 0.625000
vt 1.367188 0.632812
vt 1.359375 0.632812
vt 1.359375 0.625000
vt 1.367188 0.625000
vt 1.132812 0.632812
vt 1.132812 0.625000
vt 1.828125 0.859375
vt 1.890625 0.859375
vt 1.890625 0.867188
vt 1.828125 0.867188
vt 1.890625 0.859375
vt 1.953125 0.859375
vt 1.953125 0.867188
vt 1.890625 0.867188
vt 1.828125 0.851562
vt 1.890625 0.851562
vt 1.960938 0.859375
vt 1.898438 0.859375
vt 1.898438 0.851562
vt 1.960938 0.851562
vt 1.820312 0.859375
vt 1.820312 0.851562
vt 1.828125 0.796875
vt 1.890625 0.796875
vt 1.890625 0.804688
vt 1.828125 0.804688
vt 1.890625 0.796875
vt 1.953125 0.796875
vt 1.953125 0.804688
vt 1.890625 0.804688
vt 1.828125 0.789062
vt 1.890625 0.789062
vt 1.960938 0.796875
vt 1.898438 0.796875
vt 1.898438 0.789062
vt 1.960938 0.789062
vt 1.820312 0.796875
vt 1.820312 0.789062
vt 1.328125 0.734375
vt 1.390625 0.734375
vt 1.390625 0.742188
vt 1.328125 0.742188
vt 1.390625 0.734375
vt 1.453125 0.734375
vt 1.453125 0.742188
vt 1.390625 0.742188
vt 1.328125 0.726562
vt 1.390625 0.726562
vt 1.460938 0.734375
vt 1.398438 0.734375
vt 1.398438 0.726562
vt 1.460938 0.726562
vt 1.320312 0.734375
vt 1.320312 0.726562
vt 1.515625 0.734375
vt 1.578125 0.734375
vt 1.578125 0.742188
vt 1.515625 0.742188
vt 1.578125 0.734375
vt 1.640625 0.734375
vt 1.640625 0.742188
vt 1.578125 0.742188
vt 1.515625 0.726562
vt 1.578125 0.726562
vt 1.648438 0.734375
vt 1.585938 0.734375
vt 1.585938 0.726562
vt 1.648438 0.726562
vt 1.507812 0.734375
vt 1.507812 0.726562
vt 1.335938 0.664062
vt 1.585938 0.664062
vt 1.585938 0.679688
vt 1.335938 0.679688
vt 1.585938 0.664062
vt 1.835938 0.664062
vt 1.835938 0.679688
vt 1.585938 0.679688
vt 1.335938 0.656250
vt 1.585938 0.656250
vt 1.851562 0.664062
vt 1.601562 0.664062
vt 1.601562 0.656250
vt 1.851562 0.656250
vt 1.320312 0.664062
vt 1.320312 0.656250
vt 1.023438 0.601562
vt 1.273438 0.601562
vt 1.273438 0.617188
vt 1.023438 0.617188
vt 1.273438 0.601562
vt 1.523438 0.601562
vt 1.523438 0.617188
vt 1.273438 0.617188
vt 1.023438 0.593750
vt 1.273438 0.593750
vt 1.539062 0.601562
vt 1.289062 0.601562
vt 1.289062 0.593750
vt 1.539062 0.593750
vt 1.007812 0.601562
vt 1.007812 0.593750
vt 1.601562 0.523438
vt 1.609375 0.523438
vt 1.609375 0.617188
vt 1.601562 0.617188
vt 1.609375 0.523438
vt 1.617188 0.523438
vt 1.617188 0.617188
vt 1.609375 0.617188
vt 1.601562 0.515625
vt 1.609375 0.515625
vt 1.710938 0.523438
vt 1.703125 0.523438
vt 1.703125 0.515625
vt 1.710938 0.515625
vt 1.507812 0.523438
vt 1.507812 0.515625
vt 1.867188 0.632812
vt 1.875000 0.632812
vt 1.875000 0.742188
vt 1.867188 0.742188
vt 1.875000 0.632812
vt 1.882812 0.632812
vt 1.882812 0.742188
vt 1.875000 0.742188
vt 1.867188 0.625000
vt 1.875000 0.625000
vt 1.992188 0.632812
vt 1.984375 0.632812
vt 1.984375 0.625000
vt 1.992188 0.625000
vt 1.757812 0.632812
vt 1.757812 0.625000
vt 1.851562 0.523438
vt 1.859375 0.523438
vt 1.859375 0.617188
vt 1.851562 0.617188
vt 1.859375 0.523438
vt 1.867188 0.523438
vt 1.867188 0.617188
vt 1.859375 0.617188
vt 1.851562 0.515625
vt 1.859375 0.515625
vt 1.960938 0.523438
vt 1.953125 0.523438
vt 1.953125 0.515625
vt 1.960938 0.515625
vt 1.757812 0.523438
vt 1.757812 0.515625
vt 1.117188 0.445312
vt 1.125000 0.445312
vt 1.125000 0.554688
vt 1.117188 0.554688
vt 1.125000 0.445312
vt 1.132812 0.445312
vt 1.132812 0.554688
vt 1.125000 0.554688
vt 1.117188 0.437500
vt 1.125000 0.437500
vt 1.242188 0.445312
vt 1.234375 0.445312
vt 1.234375 0.437500
vt 1.242188 0.437500
vt 1.007812 0.445312
vt 1.007812 0.437500
vt 1.953125 0.984375
vt 1.968750 0.984375
vt 1.968750 0.992188
vt 1.953125 0.992188
vt 1.968750 0.984375
vt 1.984375 0.984375
vt 1.984375 0.992188
vt 1.968750 0.992188
vt 1.953125 0.968750
vt 1.968750 0.968750
vt 1.992188 0.984375
vt 1.976562 0.984375
vt 1.976562 0.968750
vt 1.992188 0.968750
vt 1.945312 0.984375
vt 1.945312 0.968750
vt 1.953125 0.921875
vt 1.968750 0.921875
vt 1.968750 0.929688
vt 1.953125 0.929688
vt 1.968750 0.921875
vt 1.984375 0.921875
vt 1.984375 0.929688
vt 1.968750 0.929688
vt 1.953125 0.906250
vt 1.968750 0.906250
vt 1.992188 0.921875
vt 1.976562 0.921875
vt 1.976562 0.906250
vt 1.992188 0.906250
vt 1.945312 0.921875
vt 1.945312 0.906250
vt 1.015625 0.859375
vt 1.031250 0.859375
vt 1.031250 0.867188
vt 1.015625 0.867188
vt 1.031250 0.859375
vt 1.046875 0.859375
vt 1.046875 0.867188
vt 1.031250 0.867188
vt 1.015625 0.843750
vt 1.031250 0.843750
vt 1.054688 0.859375
vt 1.039062 0.859375
vt 1.039062 0.843750
vt 1.054688 0.843750
vt 1.007812 0.859375
vt 1.007812 0.843750
vt 1.640625 0.859375
vt 1.656250 0.859375
vt 1.656250 0.867188
vt 1.640625 0.867188
vt 1.656250 0.859375
vt 1.671875 0.859375
vt 1.671875 0.867188
vt 1.656250 0.867188
vt 1.640625 0.843750
vt 1.656250 0.843750
vt 1.679688 0.859375
vt 1.664062 0.859375
vt 1.664062 0.843750
vt 1.679688 0.843750
vt 1.632812 0.859375
vt 1.632812 0.843750
vt 1.015625 0.796875
vt 1.031250 0.796875
vt 1.031250 0.804688
vt 1.015625 0.804688
vt 1.031250 0.796875
vt 1.046875 0.796875
vt 1.046875 0.804688
vt 1.031250 0.804688
vt 1.015625 0.781250
vt 1.031250 0.781250
vt 1.054688 0.796875
vt 1.039062 0.796875
vt 1.039062 0.781250
vt 1.054688 0.781250
vt 1.007812 0.796875
vt 1.007812 0.781250
vt 1.640625 0.796875
vt 1.656250 0.796875
vt 1.656250 0.804688
vt 1.640625 0.804688
vt 1.656250 0.796875
vt 1.671875 0.796875
vt 1.671875 0.804688
vt 1.656250 0.804688
vt 1.640625 0.781250
vt 1.656250 0.781250
vt 1.679688 0.796875
vt 1.664062 0.796875
vt 1.664062 0.781250
vt 1.679688 0.781250
vt 1.632812 0.796875
vt 1.632812 0.781250
vt 1.015625 0.734375
vt 1.031250 0.734375
vt 1.031250 0.742188
vt 1.015625 0.742188
vt 1.031250 0.734375
vt 1.046875 0.734375
vt 1.046875 0.742188
vt 1.031250 0.742188
vt 1.015625 0.718750
vt 1.031250 0.718750
vt 1.054688 0.734375
vt 1.039062 0.734375
vt 1.039062 0.718750
vt 1.054688 0.718750
vt 1.007812 0.734375
vt 1.007812 0.718750
vt 1.140625 0.734375
vt 1.156250 0.734375
vt 1.156250 0.742188
vt 1.140625 0.742188
vt 1.156250 0.734375
vt 1.171875 0.734375
vt 1.171875 0.742188
vt 1.156250 0.742188
vt 1.140625 0.718750
vt 1.156250 0.718750
vt 1.179688 0.734375
vt 1.164062 0.734375
vt 1.164062 0.718750
vt 1.179688 0.718750
vt 1.132812 0.734375
vt 1.132812 0.718750
vn 0.0000 1.0000 0.0000
vn 0.0000 -1.0000 -0.0000
vn -1.0000 -0.0000 -0.0000
vn 1.0000 0.0000 0.0000
vn 0.0000 0.0000 1.0000
vn 0.0000 0.0000 -1.0000
vn -0.0000 0.8480 0.5300
vn 0.0000 -0.8480 -0.5300
vn 0.0000 0.8480 -0.5300
vn 0.0000 -0.8480 0.5300
usemtl ModelMaterial.003
s off
f 1/1/1 2/2/1 3/3/1 4/4/1
f 5/5/2 6/6/2 7/7/2 8/8/2
f 2/2/3 1/1/3 8/9/3 7/10/3
f 4/11/4 3/12/4 6/13/4 5/14/4
f 3/12/5 2/2/5 7/10/5 6/13/5
f 1/1/6 4/15/6 5/16/6 8/9/6
f 9/17/1 10/18/1 11/19/1 12/20/1
f 13/21/2 14/22/2 15/23/2 16/24/2
f 10/18/3 9/17/3 16/25/3 15/26/3
f 12/27/4 11/28/4 14/29/4 13/30/4
f 11/28/5 10/18/5 15/26/5 14/29/5
f 9/17/6 12/31/6 13/32/6 16/25/6
f 17/33/1 18/34/1 19/35/1 20/36/1
f 21/37/2 22/38/2 23/39/2 24/40/2
f 18/34/3 17/33/3 24/41/3 23/42/3
f 20/43/4 19/44/4 22/45/4 21/46/4
f 19/44/5 18/34/5 23/42/5 22/45/5
f 17/33/6 20/47/6 21/48/6 24/41/6
f 25/49/7 26/50/7 27/51/7 28/52/7
f 29/53/8 30/54/8 31/55/8 32/56/8
f 26/50/3 25/49/3 32/57/3 31/58/3
f 28/59/4 27/60/4 30/61/4 29/62/4
f 27/60/5 26/50/5 31/58/5 30/61/5
f 25/49/6 28/63/6 29/64/6 32/57/6
f 33/65/9 34/66/9 35/67/9 36/68/9
f 37/69/10 38/70/10 39/71/10 40/72/10
f 34/66/3 33/65/3 40/73/3 39/74/3
f 36/75/4 35/76/4 38/77/4 37/78/4
f 35/76/5 34/66/5 39/74/5 38/77/5
f 33/65/6 36/79/6 37/80/6 40/73/6
f 41/81/9 42/82/9 43/83/9 44/84/9
f 45/85/10 46/86/10 47/87/10 48/88/10
f 42/82/3 41/81/3 48/89/3 47/90/3
f 44/91/4 43/92/4 46/93/4 45/94/4
f 43/92/5 42/82/5 47/90/5 46/93/5
f 41/81/6 44/95/6 45/96/6 48/89/6
f 49/97/7 50/98/7 51/99/7 52/100/7
f 53/101/8 54/102/8 55/103/8 56/104/8
f 50/98/3 49/97/3 56/105/3 55/106/3
f 52/107/4 51/108/4 54/109/4 53/110/4
f 51/108/5 50/98/5 55/106/5 54/109/5
f 49/97/6 52/111/6 53/112/6 56/105/6
f 57/113/1 58/114/1 59/115/1 60/116/1
f 61/117/2 62/118/2 63/119/2 64/120/2
f 58/114/3 57/113/3 64/121/3 63/122/3
f 60/123/4 59/124/4 62/125/4 61/126/4
f 59/124/5 58/114/5 63/122/5 62/125/5
f 57/113/6 60/127/6 61/128/6 64/121/6
f 65/129/1 66/130/1 67/131/1 68/132/1
f 69/133/2 70/134/2 71/135/2 72/136/2
f 66/130/3 65/129/3 72/137/3 71/138/3
f 68/139/4 67/140/4 70/141/4 69/142/4
f 67/140/5 66/130/5 71/138/5 70/141/5
f 65/129/6 68/143/6 69/144/6 72/137/6
f 73/145/1 74/146/1 75/147/1 76/148/1
f 77/149/2 78/150/2 79/151/2 80/152/2
f 74/146/3 73/145/3 80/153/3 79/154/3
f 76/155/4 75/156/4 78/157/4 77/158/4
f 75/156/5 74/146/5 79/154/5 78/157/5
f 73/145/6 76/159/6 77/160/6 80/153/6
f 81/161/1 82/162/1 83/163/1 84/164/1
f 85/165/2 86/166/2 87/167/2 88/168/2
f 82/162/3 81/161/3 88/169/3 87/170/3
f 84/171/4 83/172/4 86/173/4 85/174/4
f 83/172/5 82/162/5 87/170/5 86/173/5
f 81/161/6 84/175/6 85/176/6 88/169/6
f 89/177/7 90/178/7 91/179/7 92/180/7
f 93/181/8 94/182/8 95/183/8 96/184/8
f 90/178/3 89/177/3 96/185/3 95/186/3
f 92/187/4 91/188/4 94/189/4 93/190/4
f 91/188/5 90/178/5 95/186/5 94/189/5
f 89/177/6 92/191/6 93/192/6 96/185/6
f 97/193/7 98/194/7 99/195/7 100/196/7
f 101/197/8 102/198/8 103/199/8 104/200/8
f 98/194/3 97/193/3 104/201/3 103/202/3
f 100/203/4 99/204/4 102/205/4 101/206/4
f 99/204/5 98/194/5 103/202/5 102/205/5
f 97/193/6 100/207/6 101/208/6 104/201/6
f 105/209/9 106/210/9 107/211/9 108/212/9
f 109/213/10 110/214/10 111/215/10 112/216/10
f 106/210/3 105/209/3 112/217/3 111/218/3
f 108/219/4 107/220/4 110/221/4 109/222/4
f 107/220/5 106/210/5 111/218/5 110/221/5
f 105/209/6 108/223/6 109/224/6 112/217/6
f 113/225/9 114/226/9 115/227/9 116/228/9
f 117/229/10 118/230/10 119/231/10 120/232/10
f 114/226/3 113/225/3 120/233/3 119/234/3
f 116/235/4 115/236/4 118/237/4 117/238/4
f 115/236/5 114/226/5 119/234/5 118/237/5
f 113/225/6 116/239/6 117/240/6 120/233/6
f 121/241/1 122/242/1 123/243/1 124/244/1
f 125/245/2 126/246/2 127/247/2 128/248/2
f 122/242/3 121/241/3 128/249/3 127/250/3
f 124/251/4 123/252/4 126/253/4 125/254/4
f 123/252/5 122/242/5 127/250/5 126/253/5
f 121/241/6 124/255/6 125/256/6 128/249/6
f 129/257/1 130/258/1 131/259/1 132/260/1
f 133/261/2 134/262/2 135/263/2 136/264/2
f 130/258/3 129/257/3 136/265/3 135/266/3
f 132/267/4 131/268/4 134/269/4 133/270/4
f 131/268/5 130/258/5 135/266/5 134/269/5
f 129/257/6 132/271/6 133/272/6 136/265/6
f 137/273/1 138/274/1 139/275/1 140/276/1
f 141/277/2 142/278/2 143/279/2 144/280/2
f 138/274/3 137/273/3 144/281/3 143/282/3
f 140/283/4 139/284/4 142/285/4 141/286/4
f 139/284/5 138/274/5 143/282/5 142/285/5
f 137/273/6 140/287/6 141/288/6 144/281/6
f 145/289/1 146/290/1 147/291/1 148/292/1
f 149/293/2 150/294/2 151/295/2 152/296/2
f 146/290/3 145/289/3 152/297/3 151/298/3
f 148/299/4 147/300/4 150/301/4 149/302/4
f 147/300/5 146/290/5 151/298/5 150/301/5
f 145/289/6 148/303/6 149/304/6 152/297/6
f 153/305/1 154/306/1 155/307/1 156/308/1
f 157/309/2 158/310/2 159/311/2 160/312/2
f 154/306/3 153/305/3 160/313/3 159/314/3
f 156/315/4 155/316/4 158/317/4 157/318/4
f 155/316/5 154/306/5 159/314/5 158/317/5
f 153/305/6 156/319/6 157/320/6 160/313/6
f 161/321/1 162/322/1 163/323/1 164/324/1
f 165/325/2 166/326/2 167/327/2 168/328/2
f 162/322/3 161/321/3 168/329/3 167/330/3
f 164/331/4 163/332/4 166/333/4 165/334/4
f 163/332/5 162/322/5 167/330/5 166/333/5
f 161/321/6 164/335/6 165/336/6 168/329/6
f 169/337/1 170/338/1 171/339/1 172/340/1
f 173/341/2 174/342/2 175/343/2 176/344/2
f 170/338/3 169/337/3 176/345/3 175/346/3
f 172/347/4 171/348/4 174/349/4 173/350/4
f 171/348/5 170/338/5 175/346/5 174/349/5
f 169/337/6 172/351/6 173/352/6 176/345/6
f 177/353/1 178/354/1 179/355/1 180/356/1
f 181/357/2 182/358/2 183/359/2 184/360/2
f 178/354/3 177/353/3 184/361/3 183/362/3
f 180/363/4 179/364/4 182/365/4 181/366/4
f 179/364/5 178/354/5 183/362/5 182/365/5
f 177/353/6 180/367/6 181/368/6 184/361/6
f 185/369/1 186/370/1 187/371/1 188/372/1
f 189/373/2 190/374/2 191/375/2 192/376/2
f 186/370/3 185/369/3 192/377/3 191/378/3
f 188/379/4 187/380/4 190/381/4 189/382/4
f 187/380/5 186/370/5 191/378/5 190/381/5
f 185/369/6 188/383/6 189/384/6 192/377/6
f 193/385/1 194/386/1 195/387/1 196/388/1
f 197/389/2 198/390/2 199/391/2 200/392/2
f 194/386/3 193/385/3 200/393/3 199/394/3
f 196/395/4 195/396/4 198/397/4 197/398/4
f 195/396/5 194/386/5 199/394/5 198/397/5
f 193/385/6 196/399/6 197/400/6 200/393/6
f 201/401/1 202/402/1 203/403/1 204/404/1
f 205/405/2 206/406/2 207/407/2 208/408/2
f 202/402/3 201/401/3 208/409/3 207/410/3
f 204/411/4 203/412/4 206/413/4 205/414/4
f 203/412/5 202/402/5 207/410/5 206/413/5
f 201/401/6 204/415/6 205/416/6 208/409/6
f 209/417/1 210/418/1 211/419/1 212/420/1
f 213/421/2 214/422/2 215/423/2 216/424/2
f 210/418/3 209/417/3 216/425/3 215/426/3
f 212/427/4 211/428/4 214/429/4 213/430/4
f 211/428/5 210/418/5 215/426/5 214/429/5
f 209/417/6 212/431/6 213/432/6 216/425/6
f 217/433/1 218/434/1 219/435/1 220/436/1
f 221/437/2 222/438/2 223/439/2 224/440/2
f 218/434/3 217/433/3 224/441/3 223/442/3
f 220/443/4 219/444/4 222/445/4 221/446/4
f 219/444/5 218/434/5 223/442/5 222/445/5
f 217/433/6 220/447/6 221/448/6 224/441/6
f 225/449/1 226/450/1 227/451/1 228/452/1
f 229/453/2 230/454/2 231/455/2 232/456/2
f 226/450/3 225/449/3 232/457/3 231/458/3
f 228/459/4 227/460/4 230/461/4 229/462/4
f 227/460/5 226/450/5 231/458/5 230/461/5
f 225/449/6 228/463/6 229/464/6 232/457/6
