# Blender v2.79 (sub 0) OBJ File: ''
# www.blender.org
mtllib rim_txs_2d4_0.obj.mtl
o rim_txs_2d4_0.obj
v 0.015625 0.234375 -0.046875
v -0.015625 0.234375 -0.046875
v -0.015625 0.234375 0.015625
v 0.015625 0.234375 0.015625
v 0.031250 0.156250 -0.015625
v -0.031250 0.156250 -0.015625
v -0.031250 0.156250 -0.078125
v 0.031250 0.156250 -0.078125
v 0.062500 0.187500 -0.078125
v -0.062500 0.187500 -0.078125
v -0.031250 0.156250 -0.046875
v 0.031250 0.156250 -0.046875
v 0.031250 0.093750 -0.046875
v -0.031250 0.093750 -0.046875
v -0.062500 0.062500 -0.078125
v 0.062500 0.062500 -0.078125
v 0.109375 0.109375 -0.046875
v 0.109375 0.140625 -0.046875
v 0.109375 0.140625 0.015625
v 0.109375 0.109375 0.015625
v 0.031250 0.093750 -0.015625
v 0.031250 0.156250 -0.015625
v 0.031250 0.156250 -0.078125
v 0.031250 0.093750 -0.078125
v -0.109375 0.140625 -0.046875
v -0.109375 0.109375 -0.046875
v -0.109375 0.109375 0.015625
v -0.109375 0.140625 0.015625
v -0.031250 0.156250 -0.015625
v -0.031250 0.093750 -0.015625
v -0.031250 0.093750 -0.078125
v -0.031250 0.156250 -0.078125
v -0.015625 0.015625 -0.046875
v 0.015625 0.015625 -0.046875
v 0.015625 0.015625 0.015625
v -0.015625 0.015625 0.015625
v -0.031250 0.093750 -0.015625
v 0.031250 0.093750 -0.015625
v 0.031250 0.093750 -0.078125
v -0.031250 0.093750 -0.078125
v 0.099437 0.202340 -0.046875
v 0.077340 0.224437 -0.046875
v 0.077340 0.224437 -0.015625
v 0.099437 0.202340 -0.015625
v 0.033146 0.136049 -0.046875
v 0.011049 0.158146 -0.046875
v 0.011049 0.158146 -0.078125
v 0.033146 0.136049 -0.078125
v 0.031250 0.156250 -0.062500
v -0.031250 0.156250 -0.062500
v -0.031250 0.156250 -0.000000
v 0.031250 0.156250 -0.000000
v 0.031250 0.093750 -0.000000
v -0.031250 0.093750 -0.000000
v -0.031250 0.093750 -0.062500
v 0.031250 0.093750 -0.062500
v 0.062500 0.250000 -0.093750
v -0.062500 0.250000 -0.093750
v -0.062500 0.250000 0.031250
v 0.062500 0.250000 0.031250
v 0.046875 0.234375 0.031250
v -0.046875 0.234375 0.031250
v -0.046875 0.234375 -0.093750
v 0.046875 0.234375 -0.093750
v 0.125000 0.187500 -0.093750
v 0.062500 0.250000 -0.093750
v 0.062500 0.250000 0.031250
v 0.125000 0.187500 0.031250
v 0.109375 0.171875 0.031250
v 0.046875 0.234375 0.031250
v 0.046875 0.234375 -0.093750
v 0.109375 0.171875 -0.093750
v 0.125000 0.062500 -0.093750
v 0.125000 0.187500 -0.093750
v 0.125000 0.187500 0.031250
v 0.125000 0.062500 0.031250
v 0.109375 0.078125 0.031250
v 0.109375 0.171875 0.031250
v 0.109375 0.171875 -0.093750
v 0.109375 0.078125 -0.093750
v 0.062500 -0.000000 -0.093750
v 0.125000 0.062500 -0.093750
v 0.125000 0.062500 0.031250
v 0.062500 0.000000 0.031250
v 0.046875 0.015625 0.031250
v 0.109375 0.078125 0.031250
v 0.109375 0.078125 -0.093750
v 0.046875 0.015625 -0.093750
v -0.125000 0.187500 -0.093750
v -0.125000 0.062500 -0.093750
v -0.125000 0.062500 0.031250
v -0.125000 0.187500 0.031250
v -0.109375 0.171875 0.031250
v -0.109375 0.078125 0.031250
v -0.109375 0.078125 -0.093750
v -0.109375 0.171875 -0.093750
v -0.062500 0.250000 -0.093750
v -0.125000 0.187500 -0.093750
v -0.125000 0.187500 0.031250
v -0.062500 0.250000 0.031250
v -0.046875 0.234375 0.031250
v -0.109375 0.171875 0.031250
v -0.109375 0.171875 -0.093750
v -0.046875 0.234375 -0.093750
v -0.062500 -0.000000 -0.093750
v 0.062500 -0.000000 -0.093750
v 0.062500 0.000000 0.031250
v -0.062500 0.000000 0.031250
v -0.046875 0.015625 0.031250
v 0.046875 0.015625 0.031250
v 0.046875 0.015625 -0.093750
v -0.046875 0.015625 -0.093750
v -0.125000 0.062500 -0.093750
v -0.062500 -0.000000 -0.093750
v -0.062500 0.000000 0.031250
v -0.125000 0.062500 0.031250
v -0.109375 0.078125 0.031250
v -0.046875 0.015625 0.031250
v -0.046875 0.015625 -0.093750
v -0.109375 0.078125 -0.093750
v 0.077340 0.025563 -0.046875
v 0.099437 0.047660 -0.046875
v 0.099437 0.047660 -0.015625
v 0.077340 0.025563 -0.015625
v 0.011049 0.091854 -0.046875
v 0.033146 0.113951 -0.046875
v 0.033146 0.113951 -0.078125
v 0.011049 0.091854 -0.078125
v -0.099437 0.047660 -0.046875
v -0.077340 0.025563 -0.046875
v -0.077340 0.025563 -0.015625
v -0.099437 0.047660 -0.015625
v -0.033146 0.113951 -0.046875
v -0.011049 0.091854 -0.046875
v -0.011049 0.091854 -0.078125
v -0.033146 0.113951 -0.078125
v -0.077340 0.224437 -0.046875
v -0.099437 0.202340 -0.046875
v -0.099437 0.202340 -0.015625
v -0.077340 0.224437 -0.015625
v -0.011049 0.158146 -0.046875
v -0.033146 0.136049 -0.046875
v -0.033146 0.136049 -0.078125
v -0.011049 0.158146 -0.078125
vt 1.203125 0.796875
vt 1.210938 0.796875
vt 1.210938 0.804688
vt 1.203125 0.804688
vt 1.210938 0.796875
vt 1.218750 0.796875
vt 1.218750 0.804688
vt 1.210938 0.804688
vt 1.203125 0.789062
vt 1.210938 0.789062
vt 1.226562 0.796875
vt 1.218750 0.796875
vt 1.218750 0.789062
vt 1.226562 0.789062
vt 1.195312 0.796875
vt 1.195312 0.789062
vt 1.328125 0.796875
vt 1.343750 0.796875
vt 1.343750 0.804688
vt 1.328125 0.804688
vt 1.343750 0.796875
vt 1.359375 0.796875
vt 1.359375 0.804688
vt 1.343750 0.804688
vt 1.328125 0.781250
vt 1.343750 0.781250
vt 1.367188 0.796875
vt 1.351562 0.796875
vt 1.351562 0.781250
vt 1.367188 0.781250
vt 1.320312 0.796875
vt 1.320312 0.781250
vt 1.953125 0.796875
vt 1.960938 0.796875
vt 1.960938 0.804688
vt 1.953125 0.804688
vt 1.960938 0.796875
vt 1.968750 0.796875
vt 1.968750 0.804688
vt 1.960938 0.804688
vt 1.953125 0.789062
vt 1.960938 0.789062
vt 1.976562 0.796875
vt 1.968750 0.796875
vt 1.968750 0.789062
vt 1.976562 0.789062
vt 1.945312 0.796875
vt 1.945312 0.789062
vt 1.203125 0.734375
vt 1.210938 0.734375
vt 1.210938 0.742188
vt 1.203125 0.742188
vt 1.210938 0.734375
vt 1.218750 0.734375
vt 1.218750 0.742188
vt 1.210938 0.742188
vt 1.203125 0.726562
vt 1.210938 0.726562
vt 1.226562 0.734375
vt 1.218750 0.734375
vt 1.218750 0.726562
vt 1.226562 0.726562
vt 1.195312 0.734375
vt 1.195312 0.726562
vt 1.328125 0.734375
vt 1.335938 0.734375
vt 1.335938 0.742188
vt 1.328125 0.742188
vt 1.335938 0.734375
vt 1.343750 0.734375
vt 1.343750 0.742188
vt 1.335938 0.742188
vt 1.328125 0.726562
vt 1.335938 0.726562
vt 1.351562 0.734375
vt 1.343750 0.734375
vt 1.343750 0.726562
vt 1.351562 0.726562
vt 1.320312 0.734375
vt 1.320312 0.726562
vt 1.453125 0.734375
vt 1.460938 0.734375
vt 1.460938 0.742188
vt 1.453125 0.742188
vt 1.460938 0.734375
vt 1.468750 0.734375
vt 1.468750 0.742188
vt 1.460938 0.742188
vt 1.453125 0.726562
vt 1.460938 0.726562
vt 1.476562 0.734375
vt 1.468750 0.734375
vt 1.468750 0.726562
vt 1.476562 0.726562
vt 1.445312 0.734375
vt 1.445312 0.726562
vt 1.703125 0.734375
vt 1.726562 0.734375
vt 1.726562 0.742188
vt 1.703125 0.742188
vt 1.726562 0.734375
vt 1.750000 0.734375
vt 1.750000 0.742188
vt 1.726562 0.742188
vt 1.703125 0.710938
vt 1.726562 0.710938
vt 1.757812 0.734375
vt 1.734375 0.734375
vt 1.734375 0.710938
vt 1.757812 0.710938
vt 1.695312 0.734375
vt 1.695312 0.710938
vt 1.835938 0.726562
vt 1.851562 0.726562
vt 1.851562 0.742188
vt 1.835938 0.742188
vt 1.851562 0.726562
vt 1.867188 0.726562
vt 1.867188 0.742188
vt 1.851562 0.742188
vt 1.835938 0.718750
vt 1.851562 0.718750
vt 1.882812 0.726562
vt 1.867188 0.726562
vt 1.867188 0.718750
vt 1.882812 0.718750
vt 1.820312 0.726562
vt 1.820312 0.718750
vt 1.585938 0.726562
vt 1.593750 0.726562
vt 1.593750 0.742188
vt 1.585938 0.742188
vt 1.593750 0.726562
vt 1.601562 0.726562
vt 1.601562 0.742188
vt 1.593750 0.742188
vt 1.585938 0.718750
vt 1.593750 0.718750
vt 1.617188 0.726562
vt 1.609375 0.726562
vt 1.609375 0.718750
vt 1.617188 0.718750
vt 1.570312 0.726562
vt 1.570312 0.718750
vt 1.023438 0.664062
vt 1.039062 0.664062
vt 1.039062 0.679688
vt 1.023438 0.679688
vt 1.039062 0.664062
vt 1.054688 0.664062
vt 1.054688 0.679688
vt 1.039062 0.679688
vt 1.023438 0.656250
vt 1.039062 0.656250
vt 1.070312 0.664062
vt 1.054688 0.664062
vt 1.054688 0.656250
vt 1.070312 0.656250
vt 1.007812 0.664062
vt 1.007812 0.656250
vt 1.960938 0.726562
vt 1.968750 0.726562
vt 1.968750 0.742188
vt 1.960938 0.742188
vt 1.968750 0.726562
vt 1.976562 0.726562
vt 1.976562 0.742188
vt 1.968750 0.742188
vt 1.960938 0.718750
vt 1.968750 0.718750
vt 1.992188 0.726562
vt 1.984375 0.726562
vt 1.984375 0.718750
vt 1.992188 0.718750
vt 1.945312 0.726562
vt 1.945312 0.718750
vt 1.148438 0.664062
vt 1.164062 0.664062
vt 1.164062 0.679688
vt 1.148438 0.679688
vt 1.164062 0.664062
vt 1.179688 0.664062
vt 1.179688 0.679688
vt 1.164062 0.679688
vt 1.148438 0.656250
vt 1.164062 0.656250
vt 1.195312 0.664062
vt 1.179688 0.664062
vt 1.179688 0.656250
vt 1.195312 0.656250
vt 1.132812 0.664062
vt 1.132812 0.656250
vt 1.273438 0.664062
vt 1.281250 0.664062
vt 1.281250 0.679688
vt 1.273438 0.679688
vt 1.281250 0.664062
vt 1.289062 0.664062
vt 1.289062 0.679688
vt 1.281250 0.679688
vt 1.273438 0.656250
vt 1.281250 0.656250
vt 1.304688 0.664062
vt 1.296875 0.664062
vt 1.296875 0.656250
vt 1.304688 0.656250
vt 1.257812 0.664062
vt 1.257812 0.656250
vt 1.335938 0.664062
vt 1.351562 0.664062
vt 1.351562 0.679688
vt 1.335938 0.679688
vt 1.351562 0.664062
vt 1.367188 0.664062
vt 1.367188 0.679688
vt 1.351562 0.679688
vt 1.335938 0.656250
vt 1.351562 0.656250
vt 1.382812 0.664062
vt 1.367188 0.664062
vt 1.367188 0.656250
vt 1.382812 0.656250
vt 1.320312 0.664062
vt 1.320312 0.656250
vt 1.460938 0.664062
vt 1.468750 0.664062
vt 1.468750 0.679688
vt 1.460938 0.679688
vt 1.468750 0.664062
vt 1.476562 0.664062
vt 1.476562 0.679688
vt 1.468750 0.679688
vt 1.460938 0.656250
vt 1.468750 0.656250
vt 1.492188 0.664062
vt 1.484375 0.664062
vt 1.484375 0.656250
vt 1.492188 0.656250
vt 1.445312 0.664062
vt 1.445312 0.656250
vt 1.515625 0.671875
vt 1.523438 0.671875
vt 1.523438 0.679688
vt 1.515625 0.679688
vt 1.523438 0.671875
vt 1.531250 0.671875
vt 1.531250 0.679688
vt 1.523438 0.679688
vt 1.515625 0.664062
vt 1.523438 0.664062
vt 1.539062 0.671875
vt 1.531250 0.671875
vt 1.531250 0.664062
vt 1.539062 0.664062
vt 1.507812 0.671875
vt 1.507812 0.664062
vt 1.578125 0.671875
vt 1.585938 0.671875
vt 1.585938 0.679688
vt 1.578125 0.679688
vt 1.585938 0.671875
vt 1.593750 0.671875
vt 1.593750 0.679688
vt 1.585938 0.679688
vt 1.578125 0.664062
vt 1.585938 0.664062
vt 1.601562 0.671875
vt 1.593750 0.671875
vt 1.593750 0.664062
vt 1.601562 0.664062
vt 1.570312 0.671875
vt 1.570312 0.664062
vt 1.640625 0.671875
vt 1.648438 0.671875
vt 1.648438 0.679688
vt 1.640625 0.679688
vt 1.648438 0.671875
vt 1.656250 0.671875
vt 1.656250 0.679688
vt 1.648438 0.679688
vt 1.640625 0.664062
vt 1.648438 0.664062
vt 1.664062 0.671875
vt 1.656250 0.671875
vt 1.656250 0.664062
vt 1.664062 0.664062
vt 1.632812 0.671875
vt 1.632812 0.664062
vn -0.0000 1.0000 -0.0000
vn 0.0000 -1.0000 0.0000
vn -0.0000 0.3714 -0.9285
vn 0.0000 -0.3714 0.9285
vn -0.9806 0.1961 0.0000
vn 0.9806 0.1961 -0.0000
vn 0.0000 0.7071 0.7071
vn 0.0000 -0.7071 0.7071
vn -0.0000 -0.0000 -1.0000
vn 0.0000 0.0000 1.0000
vn -0.7071 0.0000 0.7071
vn 0.7071 0.0000 0.7071
vn 1.0000 0.0000 -0.0000
vn -1.0000 0.0000 0.0000
vn 0.3714 -0.0000 -0.9285
vn -0.3714 0.0000 0.9285
vn 0.1961 0.9806 -0.0000
vn 0.1961 -0.9806 0.0000
vn -0.3714 -0.0000 -0.9285
vn 0.3714 0.0000 0.9285
vn -0.1961 -0.9806 0.0000
vn -0.1961 0.9806 -0.0000
vn -0.0000 -0.3714 -0.9285
vn 0.0000 0.3714 0.9285
vn 0.9806 -0.1961 -0.0000
vn -0.9806 -0.1961 0.0000
vn 0.7071 0.7071 -0.0000
vn -0.7071 -0.7071 0.0000
vn 0.2236 0.2236 -0.9487
vn -0.2236 -0.2236 0.9487
vn -0.7071 0.7071 -0.0000
vn 0.7071 -0.7071 -0.0000
vn 0.2236 -0.2236 -0.9487
vn -0.2236 0.2236 0.9487
vn -0.2236 -0.2236 -0.9487
vn 0.2236 0.2236 0.9487
vn -0.2236 0.2236 -0.9487
vn 0.2236 -0.2236 0.9487
usemtl ModelMaterial
s off
f 1/1/1 2/2/1 3/3/1 4/4/1
f 5/5/2 6/6/2 7/7/2 8/8/2
f 2/2/3 1/1/3 8/9/3 7/10/3
f 4/11/4 3/12/4 6/13/4 5/14/4
f 3/12/5 2/2/5 7/10/5 6/13/5
f 1/1/6 4/15/6 5/16/6 8/9/6
f 9/17/7 10/18/7 11/19/7 12/20/7
f 13/21/8 14/22/8 15/23/8 16/24/8
f 10/18/9 9/17/9 16/25/9 15/26/9
f 12/27/10 11/28/10 14/29/10 13/30/10
f 11/28/11 10/18/11 15/26/11 14/29/11
f 9/17/12 12/31/12 13/32/12 16/25/12
f 17/33/13 18/34/13 19/35/13 20/36/13
f 21/37/14 22/38/14 23/39/14 24/40/14
f 18/34/15 17/33/15 24/41/15 23/42/15
f 20/43/16 19/44/16 22/45/16 21/46/16
f 19/44/17 18/34/17 23/42/17 22/45/17
f 17/33/18 20/47/18 21/48/18 24/41/18
f 25/49/14 26/50/14 27/51/14 28/52/14
f 29/53/13 30/54/13 31/55/13 32/56/13
f 26/50/19 25/49/19 32/57/19 31/58/19
f 28/59/20 27/60/20 30/61/20 29/62/20
f 27/60/21 26/50/21 31/58/21 30/61/21
f 25/49/22 28/63/22 29/64/22 32/57/22
f 33/65/2 34/66/2 35/67/2 36/68/2
f 37/69/1 38/70/1 39/71/1 40/72/1
f 34/66/23 33/65/23 40/73/23 39/74/23
f 36/75/24 35/76/24 38/77/24 37/78/24
f 35/76/25 34/66/25 39/74/25 38/77/25
f 33/65/26 36/79/26 37/80/26 40/73/26
f 41/81/27 42/82/27 43/83/27 44/84/27
f 45/85/28 46/86/28 47/87/28 48/88/28
f 42/82/29 41/81/29 48/89/29 47/90/29
f 44/91/30 43/92/30 46/93/30 45/94/30
f 43/92/31 42/82/31 47/90/31 46/93/31
f 41/81/32 44/95/32 45/96/32 48/89/32
f 49/97/1 50/98/1 51/99/1 52/100/1
f 53/101/2 54/102/2 55/103/2 56/104/2
f 50/98/9 49/97/9 56/105/9 55/106/9
f 52/107/10 51/108/10 54/109/10 53/110/10
f 51/108/14 50/98/14 55/106/14 54/109/14
f 49/97/13 52/111/13 53/112/13 56/105/13
f 57/113/1 58/114/1 59/115/1 60/116/1
f 61/117/2 62/118/2 63/119/2 64/120/2
f 58/114/9 57/113/9 64/121/9 63/122/9
f 60/123/10 59/124/10 62/125/10 61/126/10
f 59/124/28 58/114/28 63/122/28 62/125/28
f 57/113/32 60/127/32 61/128/32 64/121/32
f 65/129/27 66/130/27 67/131/27 68/132/27
f 69/133/28 70/134/28 71/135/28 72/136/28
f 66/130/9 65/129/9 72/137/9 71/138/9
f 68/139/10 67/140/10 70/141/10 69/142/10
f 67/140/31 66/130/31 71/138/31 70/141/31
f 65/129/32 68/143/32 69/144/32 72/137/32
f 73/145/13 74/146/13 75/147/13 76/148/13
f 77/149/14 78/150/14 79/151/14 80/152/14
f 74/146/9 73/145/9 80/153/9 79/154/9
f 76/155/10 75/156/10 78/157/10 77/158/10
f 75/156/31 74/146/31 79/154/31 78/157/31
f 73/145/28 76/159/28 77/160/28 80/153/28
f 81/161/32 82/162/32 83/163/32 84/164/32
f 85/165/31 86/166/31 87/167/31 88/168/31
f 82/162/9 81/161/9 88/169/9 87/170/9
f 84/171/10 83/172/10 86/173/10 85/174/10
f 83/172/27 82/162/27 87/170/27 86/173/27
f 81/161/28 84/175/28 85/176/28 88/169/28
f 89/177/14 90/178/14 91/179/14 92/180/14
f 93/181/13 94/182/13 95/183/13 96/184/13
f 90/178/9 89/177/9 96/185/9 95/186/9
f 92/187/10 91/188/10 94/189/10 93/190/10
f 91/188/32 90/178/32 95/186/32 94/189/32
f 89/177/27 92/191/27 93/192/27 96/185/27
f 97/193/31 98/194/31 99/195/31 100/196/31
f 101/197/32 102/198/32 103/199/32 104/200/32
f 98/194/9 97/193/9 104/201/9 103/202/9
f 100/203/10 99/204/10 102/205/10 101/206/10
f 99/204/28 98/194/28 103/202/28 102/205/28
f 97/193/27 100/207/27 101/208/27 104/201/27
f 105/209/2 106/210/2 107/211/2 108/212/2
f 109/213/1 110/214/1 111/215/1 112/216/1
f 106/210/9 105/209/9 112/217/9 111/218/9
f 108/219/10 107/220/10 110/221/10 109/222/10
f 107/220/27 106/210/27 111/218/27 110/221/27
f 105/209/31 108/223/31 109/224/31 112/217/31
f 113/225/28 114/226/28 115/227/28 116/228/28
f 117/229/27 118/230/27 119/231/27 120/232/27
f 114/226/9 113/225/9 120/233/9 119/234/9
f 116/235/10 115/236/10 118/237/10 117/238/10
f 115/236/32 114/226/32 119/234/32 118/237/32
f 113/225/31 116/239/31 117/240/31 120/233/31
f 121/241/32 122/242/32 123/243/32 124/244/32
f 125/245/31 126/246/31 127/247/31 128/248/31
f 122/242/33 121/241/33 128/249/33 127/250/33
f 124/251/34 123/252/34 126/253/34 125/254/34
f 123/252/27 122/242/27 127/250/27 126/253/27
f 121/241/28 124/255/28 125/256/28 128/249/28
f 129/257/28 130/258/28 131/259/28 132/260/28
f 133/261/27 134/262/27 135/263/27 136/264/27
f 130/258/35 129/257/35 136/265/35 135/266/35
f 132/267/36 131/268/36 134/269/36 133/270/36
f 131/268/32 130/258/32 135/266/32 134/269/32
f 129/257/31 132/271/31 133/272/31 136/265/31
f 137/273/31 138/274/31 139/275/31 140/276/31
f 141/277/32 142/278/32 143/279/32 144/280/32
f 138/274/37 137/273/37 144/281/37 143/282/37
f 140/283/38 139/284/38 142/285/38 141/286/38
f 139/284/28 138/274/28 143/282/28 142/285/28
f 137/273/27 140/287/27 141/288/27 144/281/27
