# Blender v2.79 (sub 0) OBJ File: ''
# www.blender.org
mtllib rim_4d8_1.mtl
o rim
v 0.062500 0.312500 -0.009481
v -0.062500 0.312500 -0.009481
v -0.062500 0.312500 0.053019
v 0.062500 0.312500 0.053019
v 0.062500 0.187500 0.053019
v -0.062500 0.187500 0.053019
v -0.062500 0.187500 -0.009481
v 0.062500 0.187500 -0.009481
v 0.062500 0.500000 -0.196981
v -0.062500 0.500000 -0.196981
v -0.062500 0.500000 0.021769
v 0.062500 0.500000 0.021769
v 0.062500 0.000000 0.021769
v -0.062500 0.000000 0.021769
v -0.062500 0.000000 -0.196981
v 0.062500 0.000000 -0.196981
v 0.187500 0.437500 -0.196981
v 0.062500 0.500000 -0.196981
v 0.062500 0.500000 0.021769
v 0.187500 0.437500 0.021769
v 0.187500 0.062500 0.021769
v 0.062500 0.000000 0.021769
v 0.062500 0.000000 -0.196981
v 0.187500 0.062500 -0.196981
v 0.250000 0.312500 -0.196981
v 0.187500 0.437500 -0.196981
v 0.187500 0.437500 0.021769
v 0.250000 0.312500 0.021769
v 0.250000 0.187500 0.021769
v 0.187500 0.062500 0.021769
v 0.187500 0.062500 -0.196981
v 0.250000 0.187500 -0.196981
v -0.062500 0.500000 -0.196981
v -0.187500 0.437500 -0.196981
v -0.187500 0.437500 0.021769
v -0.062500 0.500000 0.021769
v -0.062500 0.000000 0.021769
v -0.187500 0.062500 0.021769
v -0.187500 0.062500 -0.196981
v -0.062500 0.000000 -0.196981
v -0.187500 0.437500 -0.196981
v -0.250000 0.312500 -0.196981
v -0.250000 0.312500 0.021769
v -0.187500 0.437500 0.021769
v -0.187500 0.062500 0.021769
v -0.250000 0.187500 0.021769
v -0.250000 0.187500 -0.196981
v -0.187500 0.062500 -0.196981
v 0.062500 0.500000 -0.025106
v -0.062500 0.500000 -0.025106
v -0.062500 0.500000 0.037394
v 0.062500 0.500000 0.037394
v 0.062500 0.437500 0.037394
v -0.062500 0.437500 0.037394
v -0.062500 0.437500 -0.025106
v 0.062500 0.437500 -0.025106
v 0.062500 0.062500 -0.025106
v -0.062500 0.062500 -0.025106
v -0.062500 0.062500 0.037394
v 0.062500 0.062500 0.037394
v 0.062500 0.000000 0.037394
v -0.062500 0.000000 0.037394
v -0.062500 0.000000 -0.025106
v 0.062500 0.000000 -0.025106
v -0.187500 0.312500 -0.025106
v -0.250000 0.312500 -0.025106
v -0.250000 0.312500 0.037394
v -0.187500 0.312500 0.037394
v -0.187500 0.187500 0.037394
v -0.250000 0.187500 0.037394
v -0.250000 0.187500 -0.025106
v -0.187500 0.187500 -0.025106
v 0.250000 0.312500 -0.025106
v 0.187500 0.312500 -0.025106
v 0.187500 0.312500 0.037394
v 0.250000 0.312500 0.037394
v 0.250000 0.187500 0.037394
v 0.187500 0.187500 0.037394
v 0.187500 0.187500 -0.025106
v 0.250000 0.187500 -0.025106
v -0.148438 0.398438 -0.025106
v -0.187500 0.437500 -0.025106
v -0.187500 0.437500 0.037394
v -0.148438 0.398438 0.037394
v -0.187500 0.312500 0.037394
v -0.250000 0.312500 0.037394
v -0.250000 0.312500 -0.025106
v -0.187500 0.312500 -0.025106
v -0.062500 0.500000 -0.025106
v -0.187500 0.437500 -0.025106
v -0.187500 0.437500 0.037394
v -0.062500 0.500000 0.037394
v -0.062500 0.437500 0.037394
v -0.148438 0.398438 0.037394
v -0.148438 0.398438 -0.025106
v -0.062500 0.437500 -0.025106
v 0.187500 0.437500 -0.025106
v 0.062500 0.500000 -0.025106
v 0.062500 0.500000 0.037394
v 0.187500 0.437500 0.037394
v 0.148438 0.398438 0.037394
v 0.062500 0.437500 0.037394
v 0.062500 0.437500 -0.025106
v 0.148438 0.398438 -0.025106
v 0.187500 0.437500 -0.025106
v 0.148438 0.398438 -0.025106
v 0.148438 0.398438 0.037394
v 0.187500 0.437500 0.037394
v 0.250000 0.312500 0.037394
v 0.187500 0.312500 0.037394
v 0.187500 0.312500 -0.025106
v 0.250000 0.312500 -0.025106
v 0.250000 0.187500 -0.025106
v 0.187500 0.187500 -0.025106
v 0.187500 0.187500 0.037394
v 0.250000 0.187500 0.037394
v 0.187500 0.062500 0.037394
v 0.148438 0.101563 0.037394
v 0.148438 0.101563 -0.025106
v 0.187500 0.062500 -0.025106
v 0.148438 0.101563 -0.025106
v 0.062500 0.062500 -0.025106
v 0.062500 0.062500 0.037394
v 0.148438 0.101563 0.037394
v 0.187500 0.062500 0.037394
v 0.062500 0.000000 0.037394
v 0.062500 0.000000 -0.025106
v 0.187500 0.062500 -0.025106
v -0.062500 0.062500 -0.025106
v -0.148438 0.101563 -0.025106
v -0.148438 0.101563 0.037394
v -0.062500 0.062500 0.037394
v -0.062500 0.000000 0.037394
v -0.187500 0.062500 0.037394
v -0.187500 0.062500 -0.025106
v -0.062500 0.000000 -0.025106
v -0.187500 0.187500 -0.025106
v -0.250000 0.187500 -0.025106
v -0.250000 0.187500 0.037394
v -0.187500 0.187500 0.037394
v -0.148438 0.101563 0.037394
v -0.187500 0.062500 0.037394
v -0.187500 0.062500 -0.025106
v -0.148438 0.101563 -0.025106
v 0.031250 0.375000 0.021769
v -0.031250 0.375000 0.021769
v -0.031250 0.375000 0.021769
v 0.031250 0.375000 0.021769
v 0.031250 0.312500 0.037394
v -0.031250 0.312500 0.037394
v -0.031250 0.312500 0.021769
v 0.031250 0.312500 0.021769
v 0.031250 0.187500 0.021769
v -0.031250 0.187500 0.021769
v -0.031250 0.187500 0.037394
v 0.031250 0.187500 0.037394
v 0.031250 0.125000 0.021769
v -0.031250 0.125000 0.021769
v -0.031250 0.125000 0.021769
v 0.031250 0.125000 0.021769
v 0.125000 0.281250 0.021769
v 0.062500 0.281250 0.021769
v 0.062500 0.281250 0.037394
v 0.125000 0.281250 0.021769
v 0.125000 0.218750 0.021769
v 0.062500 0.218750 0.037394
v 0.062500 0.218750 0.021769
v 0.125000 0.218750 0.021769
v -0.062500 0.281250 0.021769
v -0.125000 0.281250 0.021769
v -0.125000 0.281250 0.021769
v -0.062500 0.281250 0.037394
v -0.062500 0.218750 0.037394
v -0.125000 0.218750 0.021769
v -0.125000 0.218750 0.021769
v -0.062500 0.218750 0.021769
vt 1.015625 0.968750
vt 1.031250 0.968750
vt 1.031250 0.984375
vt 1.015625 0.984375
vt 1.031250 0.968750
vt 1.046875 0.968750
vt 1.046875 0.984375
vt 1.031250 0.984375
vt 1.015625 0.937500
vt 1.031250 0.937500
vt 1.054688 0.968750
vt 1.039062 0.968750
vt 1.039062 0.937500
vt 1.054688 0.937500
vt 1.007812 0.968750
vt 1.007812 0.937500
vt 1.281250 0.937500
vt 1.296875 0.937500
vt 1.296875 0.984375
vt 1.281250 0.984375
vt 1.296875 0.937500
vt 1.312500 0.937500
vt 1.312500 0.984375
vt 1.296875 0.984375
vt 1.281250 0.812500
vt 1.296875 0.812500
vt 1.335938 0.937500
vt 1.320312 0.937500
vt 1.320312 0.812500
vt 1.335938 0.812500
vt 1.257812 0.937500
vt 1.257812 0.812500
vt 1.406250 0.937500
vt 1.421875 0.937500
vt 1.421875 0.984375
vt 1.406250 0.984375
vt 1.421875 0.937500
vt 1.437500 0.937500
vt 1.437500 0.984375
vt 1.421875 0.984375
vt 1.406250 0.812500
vt 1.421875 0.812500
vt 1.460938 0.937500
vt 1.445312 0.937500
vt 1.445312 0.812500
vt 1.460938 0.812500
vt 1.382812 0.937500
vt 1.382812 0.812500
vt 1.531250 0.937500
vt 1.539062 0.937500
vt 1.539062 0.984375
vt 1.531250 0.984375
vt 1.539062 0.937500
vt 1.546875 0.937500
vt 1.546875 0.984375
vt 1.539062 0.984375
vt 1.531250 0.843750
vt 1.539062 0.843750
vt 1.570312 0.937500
vt 1.562500 0.937500
vt 1.562500 0.843750
vt 1.570312 0.843750
vt 1.507812 0.937500
vt 1.507812 0.843750
vt 1.656250 0.937500
vt 1.671875 0.937500
vt 1.671875 0.984375
vt 1.656250 0.984375
vt 1.671875 0.937500
vt 1.687500 0.937500
vt 1.687500 0.984375
vt 1.671875 0.984375
vt 1.656250 0.812500
vt 1.671875 0.812500
vt 1.710938 0.937500
vt 1.695312 0.937500
vt 1.695312 0.812500
vt 1.710938 0.812500
vt 1.632812 0.937500
vt 1.632812 0.812500
vt 1.781250 0.937500
vt 1.789062 0.937500
vt 1.789062 0.984375
vt 1.781250 0.984375
vt 1.789062 0.937500
vt 1.796875 0.937500
vt 1.796875 0.984375
vt 1.789062 0.984375
vt 1.781250 0.843750
vt 1.789062 0.843750
vt 1.820312 0.937500
vt 1.812500 0.937500
vt 1.812500 0.843750
vt 1.820312 0.843750
vt 1.757812 0.937500
vt 1.757812 0.843750
vt 1.078125 0.968750
vt 1.093750 0.968750
vt 1.093750 0.984375
vt 1.078125 0.984375
vt 1.093750 0.968750
vt 1.109375 0.968750
vt 1.109375 0.984375
vt 1.093750 0.984375
vt 1.078125 0.953125
vt 1.093750 0.953125
vt 1.117188 0.968750
vt 1.101562 0.968750
vt 1.101562 0.953125
vt 1.117188 0.953125
vt 1.070312 0.968750
vt 1.070312 0.953125
vt 1.140625 0.968750
vt 1.156250 0.968750
vt 1.156250 0.984375
vt 1.140625 0.984375
vt 1.156250 0.968750
vt 1.171875 0.968750
vt 1.171875 0.984375
vt 1.156250 0.984375
vt 1.140625 0.953125
vt 1.156250 0.953125
vt 1.179688 0.968750
vt 1.164062 0.968750
vt 1.164062 0.953125
vt 1.179688 0.953125
vt 1.132812 0.968750
vt 1.132812 0.953125
vt 1.203125 0.968750
vt 1.210938 0.968750
vt 1.210938 0.984375
vt 1.203125 0.984375
vt 1.210938 0.968750
vt 1.218750 0.968750
vt 1.218750 0.984375
vt 1.210938 0.984375
vt 1.203125 0.937500
vt 1.210938 0.937500
vt 1.226562 0.968750
vt 1.218750 0.968750
vt 1.218750 0.937500
vt 1.226562 0.937500
vt 1.195312 0.968750
vt 1.195312 0.937500
vt 1.140625 0.843750
vt 1.148438 0.843750
vt 1.148438 0.859375
vt 1.140625 0.859375
vt 1.148438 0.843750
vt 1.156250 0.843750
vt 1.156250 0.859375
vt 1.148438 0.859375
vt 1.140625 0.812500
vt 1.148438 0.812500
vt 1.164062 0.843750
vt 1.156250 0.843750
vt 1.156250 0.812500
vt 1.164062 0.812500
vt 1.132812 0.843750
vt 1.132812 0.812500
vt 1.203125 0.843750
vt 1.210938 0.843750
vt 1.210938 0.859375
vt 1.203125 0.859375
vt 1.210938 0.843750
vt 1.218750 0.843750
vt 1.218750 0.859375
vt 1.210938 0.859375
vt 1.203125 0.812500
vt 1.210938 0.812500
vt 1.226562 0.843750
vt 1.218750 0.843750
vt 1.218750 0.812500
vt 1.226562 0.812500
vt 1.195312 0.843750
vt 1.195312 0.812500
vt 1.328125 0.968750
vt 1.343750 0.968750
vt 1.343750 0.984375
vt 1.328125 0.984375
vt 1.343750 0.968750
vt 1.359375 0.968750
vt 1.359375 0.984375
vt 1.343750 0.984375
vt 1.328125 0.953125
vt 1.343750 0.953125
vt 1.367188 0.968750
vt 1.351562 0.968750
vt 1.351562 0.953125
vt 1.367188 0.953125
vt 1.320312 0.968750
vt 1.320312 0.953125
vt 1.453125 0.968750
vt 1.468750 0.968750
vt 1.468750 0.984375
vt 1.453125 0.984375
vt 1.468750 0.968750
vt 1.484375 0.968750
vt 1.484375 0.984375
vt 1.468750 0.984375
vt 1.453125 0.953125
vt 1.468750 0.953125
vt 1.492188 0.968750
vt 1.476562 0.968750
vt 1.476562 0.953125
vt 1.492188 0.953125
vt 1.445312 0.968750
vt 1.445312 0.953125
vt 1.390625 0.718750
vt 1.398438 0.718750
vt 1.398438 0.734375
vt 1.390625 0.734375
vt 1.398438 0.718750
vt 1.406250 0.718750
vt 1.406250 0.734375
vt 1.398438 0.734375
vt 1.390625 0.687500
vt 1.398438 0.687500
vt 1.414062 0.718750
vt 1.406250 0.718750
vt 1.406250 0.687500
vt 1.414062 0.687500
vt 1.382812 0.718750
vt 1.382812 0.687500
vt 1.578125 0.718750
vt 1.585938 0.718750
vt 1.585938 0.734375
vt 1.578125 0.734375
vt 1.585938 0.718750
vt 1.593750 0.718750
vt 1.593750 0.734375
vt 1.585938 0.734375
vt 1.578125 0.687500
vt 1.585938 0.687500
vt 1.601562 0.718750
vt 1.593750 0.718750
vt 1.593750 0.687500
vt 1.601562 0.687500
vt 1.570312 0.718750
vt 1.570312 0.687500
vt 1.578125 0.968750
vt 1.593750 0.968750
vt 1.593750 0.984375
vt 1.578125 0.984375
vt 1.593750 0.968750
vt 1.609375 0.968750
vt 1.609375 0.984375
vt 1.593750 0.984375
vt 1.578125 0.953125
vt 1.593750 0.953125
vt 1.617188 0.968750
vt 1.601562 0.968750
vt 1.601562 0.953125
vt 1.617188 0.953125
vt 1.570312 0.968750
vt 1.570312 0.953125
vt 1.703125 0.968750
vt 1.718750 0.968750
vt 1.718750 0.984375
vt 1.703125 0.984375
vt 1.718750 0.968750
vt 1.734375 0.968750
vt 1.734375 0.984375
vt 1.718750 0.984375
vt 1.703125 0.953125
vt 1.718750 0.953125
vt 1.742188 0.968750
vt 1.726562 0.968750
vt 1.726562 0.953125
vt 1.742188 0.953125
vt 1.695312 0.968750
vt 1.695312 0.953125
vt 1.765625 0.718750
vt 1.773438 0.718750
vt 1.773438 0.734375
vt 1.765625 0.734375
vt 1.773438 0.718750
vt 1.781250 0.718750
vt 1.781250 0.734375
vt 1.773438 0.734375
vt 1.765625 0.687500
vt 1.773438 0.687500
vt 1.789062 0.718750
vt 1.781250 0.718750
vt 1.781250 0.687500
vt 1.789062 0.687500
vt 1.757812 0.718750
vt 1.757812 0.687500
vt 1.828125 0.968750
vt 1.835938 0.968750
vt 1.835938 0.984375
vt 1.828125 0.984375
vt 1.835938 0.968750
vt 1.843750 0.968750
vt 1.843750 0.984375
vt 1.835938 0.984375
vt 1.828125 0.953125
vt 1.835938 0.953125
vt 1.851562 0.968750
vt 1.843750 0.968750
vt 1.843750 0.953125
vt 1.851562 0.953125
vt 1.820312 0.968750
vt 1.820312 0.953125
vt 1.953125 0.718750
vt 1.960938 0.718750
vt 1.960938 0.734375
vt 1.953125 0.734375
vt 1.960938 0.718750
vt 1.968750 0.718750
vt 1.968750 0.734375
vt 1.960938 0.734375
vt 1.953125 0.703125
vt 1.960938 0.703125
vt 1.976562 0.718750
vt 1.968750 0.718750
vt 1.968750 0.703125
vt 1.976562 0.703125
vt 1.945312 0.718750
vt 1.945312 0.703125
vt 1.390625 0.593750
vt 1.398438 0.593750
vt 1.398438 0.609375
vt 1.390625 0.609375
vt 1.398438 0.593750
vt 1.406250 0.593750
vt 1.406250 0.609375
vt 1.398438 0.609375
vt 1.390625 0.578125
vt 1.398438 0.578125
vt 1.414062 0.593750
vt 1.406250 0.593750
vt 1.406250 0.578125
vt 1.414062 0.578125
vt 1.382812 0.593750
vt 1.382812 0.578125
vt 1.578125 0.593750
vt 1.585938 0.593750
vt 1.585938 0.609375
vt 1.578125 0.609375
vt 1.585938 0.593750
vt 1.593750 0.593750
vt 1.593750 0.609375
vt 1.585938 0.609375
vt 1.578125 0.578125
vt 1.585938 0.578125
vt 1.601562 0.593750
vt 1.593750 0.593750
vt 1.593750 0.578125
vt 1.601562 0.578125
vt 1.570312 0.593750
vt 1.570312 0.578125
vn 0.0000 1.0000 0.0000
vn 0.0000 -1.0000 0.0000
vn 0.0000 0.0000 -1.0000
vn 0.0000 0.0000 1.0000
vn -1.0000 -0.0000 -0.0000
vn 1.0000 0.0000 0.0000
vn 0.4472 0.8944 0.0000
vn 0.4472 -0.8944 0.0000
vn 0.8944 0.4472 0.0000
vn 0.8944 -0.4472 0.0000
vn -0.4472 0.8944 0.0000
vn -0.4472 -0.8944 -0.0000
vn -0.8944 0.4472 0.0000
vn -0.8944 -0.4472 -0.0000
vn 0.7071 0.7071 0.0000
vn 0.9104 -0.4138 0.0000
vn 0.4138 -0.9104 0.0000
vn -0.7071 -0.7071 0.0000
vn -0.4138 -0.9104 0.0000
vn 0.7071 -0.7071 0.0000
vn -0.7071 0.7071 0.0000
vn -0.9104 -0.4138 0.0000
vn -0.9104 0.4138 -0.0000
vn -0.4138 0.9104 0.0000
vn 0.4138 0.9104 0.0000
vn 0.9104 0.4138 0.0000
vn 0.3535 -0.1464 -0.9239
vn 0.7463 0.1802 -0.6407
vn 0.7708 -0.2053 -0.6031
vn 0.0000 0.0000 -0.9239
vn 0.0000 0.2425 0.9701
vn 0.8445 0.0811 -0.5294
vn 0.5661 0.0746 -0.8210
vn 0.0000 -0.2425 0.9701
vn 0.2425 0.0000 0.9701
vn -0.2425 -0.0000 0.9701
usemtl ModelMaterial
s 1
f 1/1/1 2/2/1 3/3/1 4/4/1
f 5/5/2 6/6/2 7/7/2 8/8/2
f 2/2/3 1/1/3 8/9/3 7/10/3
f 4/11/4 3/12/4 6/13/4 5/14/4
f 3/12/5 2/2/5 7/10/5 6/13/5
f 1/1/6 4/15/6 5/16/6 8/9/6
f 9/17/1 10/18/1 11/19/1 12/20/1
f 13/21/2 14/22/2 15/23/2 16/24/2
f 10/18/3 9/17/3 16/25/3 15/26/3
f 12/27/4 11/28/4 14/29/4 13/30/4
f 11/28/5 10/18/5 15/26/5 14/29/5
f 9/17/6 12/31/6 13/32/6 16/25/6
f 17/33/7 18/34/7 19/35/7 20/36/7
f 21/37/8 22/38/8 23/39/8 24/40/8
f 18/34/3 17/33/3 24/41/3 23/42/3
f 20/43/4 19/44/4 22/45/4 21/46/4
f 19/44/5 18/34/5 23/42/5 22/45/5
f 17/33/6 20/47/6 21/48/6 24/41/6
f 25/49/9 26/50/9 27/51/9 28/52/9
f 29/53/10 30/54/10 31/55/10 32/56/10
f 26/50/3 25/49/3 32/57/3 31/58/3
f 28/59/4 27/60/4 30/61/4 29/62/4
f 27/60/5 26/50/5 31/58/5 30/61/5
f 25/49/6 28/63/6 29/64/6 32/57/6
f 33/65/11 34/66/11 35/67/11 36/68/11
f 37/69/12 38/70/12 39/71/12 40/72/12
f 34/66/3 33/65/3 40/73/3 39/74/3
f 36/75/4 35/76/4 38/77/4 37/78/4
f 35/76/5 34/66/5 39/74/5 38/77/5
f 33/65/6 36/79/6 37/80/6 40/73/6
f 41/81/13 42/82/13 43/83/13 44/84/13
f 45/85/14 46/86/14 47/87/14 48/88/14
f 42/82/3 41/81/3 48/89/3 47/90/3
f 44/91/4 43/92/4 46/93/4 45/94/4
f 43/92/5 42/82/5 47/90/5 46/93/5
f 41/81/6 44/95/6 45/96/6 48/89/6
f 49/97/1 50/98/1 51/99/1 52/100/1
f 53/101/2 54/102/2 55/103/2 56/104/2
f 50/98/3 49/97/3 56/105/3 55/106/3
f 52/107/4 51/108/4 54/109/4 53/110/4
f 51/108/5 50/98/5 55/106/5 54/109/5
f 49/97/6 52/111/6 53/112/6 56/105/6
f 57/113/1 58/114/1 59/115/1 60/116/1
f 61/117/2 62/118/2 63/119/2 64/120/2
f 58/114/3 57/113/3 64/121/3 63/122/3
f 60/123/4 59/124/4 62/125/4 61/126/4
f 59/124/5 58/114/5 63/122/5 62/125/5
f 57/113/6 60/127/6 61/128/6 64/121/6
f 65/129/1 66/130/1 67/131/1 68/132/1
f 69/133/2 70/134/2 71/135/2 72/136/2
f 66/130/3 65/129/3 72/137/3 71/138/3
f 68/139/4 67/140/4 70/141/4 69/142/4
f 67/140/5 66/130/5 71/138/5 70/141/5
f 65/129/6 68/143/6 69/144/6 72/137/6
f 73/145/1 74/146/1 75/147/1 76/148/1
f 77/149/2 78/150/2 79/151/2 80/152/2
f 74/146/3 73/145/3 80/153/3 79/154/3
f 76/155/4 75/156/4 78/157/4 77/158/4
f 75/156/5 74/146/5 79/154/5 78/157/5
f 73/145/6 76/159/6 77/160/6 80/153/6
f 81/161/15 82/162/15 83/163/15 84/164/15
f 85/165/2 86/166/2 87/167/2 88/168/2
f 82/162/3 81/161/3 88/169/3 87/170/3
f 84/171/4 83/172/4 86/173/4 85/174/4
f 83/172/13 82/162/13 87/170/13 86/173/13
f 81/161/16 84/175/16 85/176/16 88/169/16
f 89/177/11 90/178/11 91/179/11 92/180/11
f 93/181/17 94/182/17 95/183/17 96/184/17
f 90/178/3 89/177/3 96/185/3 95/186/3
f 92/187/4 91/188/4 94/189/4 93/190/4
f 91/188/18 90/178/18 95/186/18 94/189/18
f 89/177/6 92/191/6 93/192/6 96/185/6
f 97/193/7 98/194/7 99/195/7 100/196/7
f 101/197/19 102/198/19 103/199/19 104/200/19
f 98/194/3 97/193/3 104/201/3 103/202/3
f 100/203/4 99/204/4 102/205/4 101/206/4
f 99/204/5 98/194/5 103/202/5 102/205/5
f 97/193/20 100/207/20 101/208/20 104/201/20
f 105/209/21 106/210/21 107/211/21 108/212/21
f 109/213/2 110/214/2 111/215/2 112/216/2
f 106/210/3 105/209/3 112/217/3 111/218/3
f 108/219/4 107/220/4 110/221/4 109/222/4
f 107/220/22 106/210/22 111/218/22 110/221/22
f 105/209/9 108/223/9 109/224/9 112/217/9
f 113/225/1 114/226/1 115/227/1 116/228/1
f 117/229/18 118/230/18 119/231/18 120/232/18
f 114/226/3 113/225/3 120/233/3 119/234/3
f 116/235/4 115/236/4 118/237/4 117/238/4
f 115/236/23 114/226/23 119/234/23 118/237/23
f 113/225/10 116/239/10 117/240/10 120/233/10
f 121/241/24 122/242/24 123/243/24 124/244/24
f 125/245/8 126/246/8 127/247/8 128/248/8
f 122/242/3 121/241/3 128/249/3 127/250/3
f 124/251/4 123/252/4 126/253/4 125/254/4
f 123/252/5 122/242/5 127/250/5 126/253/5
f 121/241/15 124/255/15 125/256/15 128/249/15
f 129/257/25 130/258/25 131/259/25 132/260/25
f 133/261/12 134/262/12 135/263/12 136/264/12
f 130/258/3 129/257/3 136/265/3 135/266/3
f 132/267/4 131/268/4 134/269/4 133/270/4
f 131/268/21 130/258/21 135/266/21 134/269/21
f 129/257/6 132/271/6 133/272/6 136/265/6
f 137/273/1 138/274/1 139/275/1 140/276/1
f 141/277/20 142/278/20 143/279/20 144/280/20
f 138/274/3 137/273/3 144/281/3 143/282/3
f 140/283/4 139/284/4 142/285/4 141/286/4
f 139/284/14 138/274/14 143/282/14 142/285/14
f 137/273/26 140/287/26 141/288/26 144/281/26
f 145/289/27 146/290/28 147/291/29 148/292/30
f 149/293/2 150/294/2 151/295/2 152/296/2
f 146/290/3 145/289/3 152/297/3 151/298/3
f 148/299/31 147/300/31 150/301/31 149/302/31
f 147/300/29 146/290/28 151/298/5 150/301/5
f 145/289/6 148/303/6 149/304/6 152/297/6
f 153/305/1 154/306/1 155/307/1 156/308/1
f 157/309/27 158/310/32 159/311/33 160/312/30
f 154/306/3 153/305/3 160/313/3 159/314/3
f 156/315/34 155/316/34 158/317/34 157/318/34
f 155/316/5 154/306/5 159/314/33 158/317/32
f 153/305/6 156/319/6 157/320/6 160/313/6
f 161/321/1 162/322/1 163/323/1 164/324/1
f 165/325/2 166/326/2 167/327/2 168/328/2
f 162/322/3 161/321/3 168/329/3 167/330/3
f 164/331/35 163/332/35 166/333/35 165/334/35
f 163/332/5 162/322/5 167/330/5 166/333/5
f 161/321/4 164/335/4 165/336/4 168/329/4
f 169/337/1 170/338/1 171/339/1 172/340/1
f 173/341/2 174/342/2 175/343/2 176/344/2
f 170/338/3 169/337/3 176/345/3 175/346/3
f 172/347/36 171/348/36 174/349/36 173/350/36
f 171/348/4 170/338/4 175/346/4 174/349/4
f 169/337/6 172/351/6 173/352/6 176/345/6
