# Blender v2.79 (sub 0) OBJ File: ''
# www.blender.org
mtllib tire_3d11.mtl
o tire_3d11
v -0.093750 0.687500 0.062500
v 0.093750 0.687500 0.062500
v 0.093750 0.687500 -0.125000
v -0.093750 0.687500 -0.125000
v -0.093750 0.500000 -0.125000
v 0.093750 0.500000 -0.125000
v 0.093750 0.500000 0.062500
v -0.093750 0.500000 0.062500
v -0.093750 0.187500 0.062500
v 0.093750 0.187500 0.062500
v 0.093750 0.187500 -0.125000
v -0.093750 0.187500 -0.125000
v -0.093750 0.000000 -0.125000
v 0.093750 0.000000 -0.125000
v 0.093750 -0.000000 0.062500
v -0.093750 -0.000000 0.062500
v 0.093750 0.187500 0.062500
v 0.156250 0.250000 0.062500
v 0.156250 0.250000 -0.125000
v 0.093750 0.187500 -0.125000
v 0.093750 0.000000 -0.125000
v 0.156250 0.031250 -0.125000
v 0.156250 0.031250 0.062500
v 0.093750 -0.000000 0.062500
v 0.156250 0.656250 0.062500
v 0.218750 0.625000 0.062500
v 0.218750 0.625000 -0.125000
v 0.156250 0.656250 -0.125000
v 0.156250 0.031250 -0.125000
v 0.218750 0.062500 -0.125000
v 0.218750 0.062500 0.062500
v 0.156250 0.031250 0.062500
v 0.093750 0.687500 0.062500
v 0.156250 0.656250 0.062500
v 0.156250 0.656250 -0.125000
v 0.093750 0.687500 -0.125000
v 0.093750 0.500000 -0.125000
v 0.156250 0.437500 -0.125000
v 0.156250 0.437500 0.062500
v 0.093750 0.500000 0.062500
v 0.218750 0.625000 0.062500
v 0.281250 0.562500 0.062500
v 0.281250 0.562500 -0.125000
v 0.218750 0.625000 -0.125000
v 0.218750 0.062500 -0.125000
v 0.281250 0.125000 -0.125000
v 0.281250 0.125000 0.062500
v 0.218750 0.062500 0.062500
v -0.156250 0.250000 0.062500
v -0.093750 0.187500 0.062500
v -0.093750 0.187500 -0.125000
v -0.156250 0.250000 -0.125000
v -0.156250 0.031250 -0.125000
v -0.093750 0.000000 -0.125000
v -0.093750 -0.000000 0.062500
v -0.156250 0.031250 0.062500
v -0.156250 0.656250 0.062500
v -0.093750 0.687500 0.062500
v -0.093750 0.687500 -0.125000
v -0.156250 0.656250 -0.125000
v -0.156250 0.437500 -0.125000
v -0.093750 0.500000 -0.125000
v -0.093750 0.500000 0.062500
v -0.156250 0.437500 0.062500
v -0.218750 0.625000 0.062500
v -0.156250 0.656250 0.062500
v -0.156250 0.656250 -0.125000
v -0.218750 0.625000 -0.125000
v -0.218750 0.062500 -0.125000
v -0.156250 0.031250 -0.125000
v -0.156250 0.031250 0.062500
v -0.218750 0.062500 0.062500
v -0.281250 0.562500 0.062500
v -0.218750 0.625000 0.062500
v -0.218750 0.625000 -0.125000
v -0.281250 0.562500 -0.125000
v -0.281250 0.125000 -0.125000
v -0.218750 0.062500 -0.125000
v -0.218750 0.062500 0.062500
v -0.281250 0.125000 0.062500
v -0.343750 0.437500 0.062500
v -0.281250 0.562500 0.062500
v -0.281250 0.562500 -0.125000
v -0.343750 0.437500 -0.125000
v -0.343750 0.250000 -0.125000
v -0.281250 0.125000 -0.125000
v -0.281250 0.125000 0.062500
v -0.343750 0.250000 0.062500
v 0.281250 0.562500 0.062500
v 0.343750 0.437500 0.062500
v 0.343750 0.437500 -0.125000
v 0.281250 0.562500 -0.125000
v 0.281250 0.125000 -0.125000
v 0.343750 0.250000 -0.125000
v 0.343750 0.250000 0.062500
v 0.281250 0.125000 0.062500
vt 1.531250 0.875000
vt 1.554688 0.875000
vt 1.554688 0.968750
vt 1.531250 0.968750
vt 1.554688 0.875000
vt 1.578125 0.875000
vt 1.578125 0.968750
vt 1.554688 0.968750
vt 1.531250 0.781250
vt 1.554688 0.781250
vt 1.601562 0.875000
vt 1.578125 0.875000
vt 1.578125 0.781250
vt 1.601562 0.781250
vt 1.507812 0.875000
vt 1.507812 0.781250
vt 1.656250 0.875000
vt 1.679688 0.875000
vt 1.679688 0.968750
vt 1.656250 0.968750
vt 1.679688 0.875000
vt 1.703125 0.875000
vt 1.703125 0.968750
vt 1.679688 0.968750
vt 1.656250 0.781250
vt 1.679688 0.781250
vt 1.726562 0.875000
vt 1.703125 0.875000
vt 1.703125 0.781250
vt 1.726562 0.781250
vt 1.632812 0.875000
vt 1.632812 0.781250
vt 1.781250 0.875000
vt 1.789062 0.875000
vt 1.789062 0.968750
vt 1.781250 0.968750
vt 1.789062 0.875000
vt 1.796875 0.875000
vt 1.796875 0.968750
vt 1.789062 0.968750
vt 1.781250 0.781250
vt 1.789062 0.781250
vt 1.820312 0.875000
vt 1.812500 0.875000
vt 1.812500 0.781250
vt 1.820312 0.781250
vt 1.757812 0.875000
vt 1.757812 0.781250
vt 1.906250 0.875000
vt 1.914062 0.875000
vt 1.914062 0.968750
vt 1.906250 0.968750
vt 1.914062 0.875000
vt 1.921875 0.875000
vt 1.921875 0.968750
vt 1.914062 0.968750
vt 1.906250 0.593750
vt 1.914062 0.593750
vt 1.945312 0.875000
vt 1.937500 0.875000
vt 1.937500 0.593750
vt 1.945312 0.593750
vt 1.882812 0.875000
vt 1.882812 0.593750
vt 1.031250 0.625000
vt 1.039062 0.625000
vt 1.039062 0.718750
vt 1.031250 0.718750
vt 1.039062 0.625000
vt 1.046875 0.625000
vt 1.046875 0.718750
vt 1.039062 0.718750
vt 1.031250 0.531250
vt 1.039062 0.531250
vt 1.070312 0.625000
vt 1.062500 0.625000
vt 1.062500 0.531250
vt 1.070312 0.531250
vt 1.007812 0.625000
vt 1.007812 0.531250
vt 1.156250 0.625000
vt 1.164062 0.625000
vt 1.164062 0.718750
vt 1.156250 0.718750
vt 1.164062 0.625000
vt 1.171875 0.625000
vt 1.171875 0.718750
vt 1.164062 0.718750
vt 1.156250 0.406250
vt 1.164062 0.406250
vt 1.195312 0.625000
vt 1.187500 0.625000
vt 1.187500 0.406250
vt 1.195312 0.406250
vt 1.132812 0.625000
vt 1.132812 0.406250
vt 1.281250 0.625000
vt 1.289062 0.625000
vt 1.289062 0.718750
vt 1.281250 0.718750
vt 1.289062 0.625000
vt 1.296875 0.625000
vt 1.296875 0.718750
vt 1.289062 0.718750
vt 1.281250 0.531250
vt 1.289062 0.531250
vt 1.320312 0.625000
vt 1.312500 0.625000
vt 1.312500 0.531250
vt 1.320312 0.531250
vt 1.257812 0.625000
vt 1.257812 0.531250
vt 1.406250 0.625000
vt 1.414062 0.625000
vt 1.414062 0.718750
vt 1.406250 0.718750
vt 1.414062 0.625000
vt 1.421875 0.625000
vt 1.421875 0.718750
vt 1.414062 0.718750
vt 1.406250 0.531250
vt 1.414062 0.531250
vt 1.445312 0.625000
vt 1.437500 0.625000
vt 1.437500 0.531250
vt 1.445312 0.531250
vt 1.382812 0.625000
vt 1.382812 0.531250
vt 1.531250 0.625000
vt 1.539062 0.625000
vt 1.539062 0.718750
vt 1.531250 0.718750
vt 1.539062 0.625000
vt 1.546875 0.625000
vt 1.546875 0.718750
vt 1.539062 0.718750
vt 1.531250 0.343750
vt 1.539062 0.343750
vt 1.570312 0.625000
vt 1.562500 0.625000
vt 1.562500 0.343750
vt 1.570312 0.343750
vt 1.507812 0.625000
vt 1.507812 0.343750
vt 1.656250 0.625000
vt 1.664062 0.625000
vt 1.664062 0.718750
vt 1.656250 0.718750
vt 1.664062 0.625000
vt 1.671875 0.625000
vt 1.671875 0.718750
vt 1.664062 0.718750
vt 1.656250 0.406250
vt 1.664062 0.406250
vt 1.695312 0.625000
vt 1.687500 0.625000
vt 1.687500 0.406250
vt 1.695312 0.406250
vt 1.632812 0.625000
vt 1.632812 0.406250
vt 1.781250 0.625000
vt 1.796875 0.625000
vt 1.796875 0.718750
vt 1.781250 0.718750
vt 1.796875 0.625000
vt 1.812500 0.625000
vt 1.812500 0.718750
vt 1.796875 0.718750
vt 1.781250 0.531250
vt 1.796875 0.531250
vt 1.835938 0.625000
vt 1.820312 0.625000
vt 1.820312 0.531250
vt 1.835938 0.531250
vt 1.757812 0.625000
vt 1.757812 0.531250
vt 1.031250 0.375000
vt 1.046875 0.375000
vt 1.046875 0.468750
vt 1.031250 0.468750
vt 1.046875 0.375000
vt 1.062500 0.375000
vt 1.062500 0.468750
vt 1.046875 0.468750
vt 1.031250 0.281250
vt 1.046875 0.281250
vt 1.085938 0.375000
vt 1.070312 0.375000
vt 1.070312 0.281250
vt 1.085938 0.281250
vt 1.007812 0.375000
vt 1.007812 0.281250
vn 0.0000 1.0000 0.0000
vn 0.0000 -1.0000 0.0000
vn 0.0000 -0.0000 1.0000
vn 0.0000 0.0000 -1.0000
vn 1.0000 0.0000 0.0000
vn -1.0000 0.0000 0.0000
vn -0.7071 0.7071 0.0000
vn 0.4472 -0.8944 -0.0000
vn 0.4472 0.8944 0.0000
vn -0.7071 -0.7071 0.0000
vn 0.7071 0.7071 0.0000
vn 0.7071 -0.7071 -0.0000
vn -0.4472 -0.8944 -0.0000
vn -0.4472 0.8944 0.0000
vn -0.8944 0.4472 0.0000
vn -0.8944 -0.4472 -0.0000
vn 0.8944 0.4472 0.0000
vn 0.8944 -0.4472 -0.0000
usemtl ModelMaterial.002
s off
f 1/1/1 2/2/1 3/3/1 4/4/1
f 5/5/2 6/6/2 7/7/2 8/8/2
f 2/2/3 1/1/3 8/9/3 7/10/3
f 4/11/4 3/12/4 6/13/4 5/14/4
f 3/12/5 2/2/5 7/10/5 6/13/5
f 1/1/6 4/15/6 5/16/6 8/9/6
f 9/17/1 10/18/1 11/19/1 12/20/1
f 13/21/2 14/22/2 15/23/2 16/24/2
f 10/18/3 9/17/3 16/25/3 15/26/3
f 12/27/4 11/28/4 14/29/4 13/30/4
f 11/28/5 10/18/5 15/26/5 14/29/5
f 9/17/6 12/31/6 13/32/6 16/25/6
f 17/33/7 18/34/7 19/35/7 20/36/7
f 21/37/8 22/38/8 23/39/8 24/40/8
f 18/34/3 17/33/3 24/41/3 23/42/3
f 20/43/4 19/44/4 22/45/4 21/46/4
f 19/44/5 18/34/5 23/42/5 22/45/5
f 17/33/6 20/47/6 21/48/6 24/41/6
f 25/49/9 26/50/9 27/51/9 28/52/9
f 29/53/8 30/54/8 31/55/8 32/56/8
f 26/50/3 25/49/3 32/57/3 31/58/3
f 28/59/4 27/60/4 30/61/4 29/62/4
f 27/60/5 26/50/5 31/58/5 30/61/5
f 25/49/6 28/63/6 29/64/6 32/57/6
f 33/65/9 34/66/9 35/67/9 36/68/9
f 37/69/10 38/70/10 39/71/10 40/72/10
f 34/66/3 33/65/3 40/73/3 39/74/3
f 36/75/4 35/76/4 38/77/4 37/78/4
f 35/76/5 34/66/5 39/74/5 38/77/5
f 33/65/6 36/79/6 37/80/6 40/73/6
f 41/81/11 42/82/11 43/83/11 44/84/11
f 45/85/12 46/86/12 47/87/12 48/88/12
f 42/82/3 41/81/3 48/89/3 47/90/3
f 44/91/4 43/92/4 46/93/4 45/94/4
f 43/92/5 42/82/5 47/90/5 46/93/5
f 41/81/6 44/95/6 45/96/6 48/89/6
f 49/97/11 50/98/11 51/99/11 52/100/11
f 53/101/13 54/102/13 55/103/13 56/104/13
f 50/98/3 49/97/3 56/105/3 55/106/3
f 52/107/4 51/108/4 54/109/4 53/110/4
f 51/108/5 50/98/5 55/106/5 54/109/5
f 49/97/6 52/111/6 53/112/6 56/105/6
f 57/113/14 58/114/14 59/115/14 60/116/14
f 61/117/12 62/118/12 63/119/12 64/120/12
f 58/114/3 57/113/3 64/121/3 63/122/3
f 60/123/4 59/124/4 62/125/4 61/126/4
f 59/124/5 58/114/5 63/122/5 62/125/5
f 57/113/6 60/127/6 61/128/6 64/121/6
f 65/129/14 66/130/14 67/131/14 68/132/14
f 69/133/13 70/134/13 71/135/13 72/136/13
f 66/130/3 65/129/3 72/137/3 71/138/3
f 68/139/4 67/140/4 70/141/4 69/142/4
f 67/140/5 66/130/5 71/138/5 70/141/5
f 65/129/6 68/143/6 69/144/6 72/137/6
f 73/145/7 74/146/7 75/147/7 76/148/7
f 77/149/10 78/150/10 79/151/10 80/152/10
f 74/146/3 73/145/3 80/153/3 79/154/3
f 76/155/4 75/156/4 78/157/4 77/158/4
f 75/156/5 74/146/5 79/154/5 78/157/5
f 73/145/6 76/159/6 77/160/6 80/153/6
f 81/161/15 82/162/15 83/163/15 84/164/15
f 85/165/16 86/166/16 87/167/16 88/168/16
f 82/162/3 81/161/3 88/169/3 87/170/3
f 84/171/4 83/172/4 86/173/4 85/174/4
f 83/172/5 82/162/5 87/170/5 86/173/5
f 81/161/6 84/175/6 85/176/6 88/169/6
f 89/177/17 90/178/17 91/179/17 92/180/17
f 93/181/18 94/182/18 95/183/18 96/184/18
f 90/178/3 89/177/3 96/185/3 95/186/3
f 92/187/4 91/188/4 94/189/4 93/190/4
f 91/188/5 90/178/5 95/186/5 94/189/5
f 89/177/6 92/191/6 93/192/6 96/185/6
