# Blender v2.79 (sub 0) OBJ File: ''
# www.blender.org
mtllib tire_4d14.mtl
o tire_4d14
v 0.125000 0.875000 -0.187500
v -0.125000 0.875000 -0.187500
v -0.125000 0.875000 0.062500
v 0.125000 0.875000 0.062500
v 0.062500 0.687500 0.062500
v -0.062500 0.687500 0.062500
v -0.062500 0.687500 -0.187500
v 0.062500 0.687500 -0.187500
v 0.062500 0.187500 -0.187500
v -0.062500 0.187500 -0.187500
v -0.062500 0.187500 0.062500
v 0.062500 0.187500 0.062500
v 0.125000 0.000000 0.062500
v -0.125000 0.000000 0.062500
v -0.125000 -0.000000 -0.187500
v 0.125000 -0.000000 -0.187500
v 0.312500 0.781250 -0.187500
v 0.125000 0.875000 -0.187500
v 0.125000 0.875000 0.062500
v 0.312500 0.781250 0.062500
v 0.187500 0.625000 0.062500
v 0.062500 0.687500 0.062500
v 0.062500 0.687500 -0.187500
v 0.187500 0.625000 -0.187500
v 0.343750 0.750000 -0.187500
v 0.312500 0.781250 -0.187500
v 0.312500 0.781250 0.062500
v 0.343750 0.750000 0.062500
v 0.187500 0.625000 0.062500
v 0.187500 0.625000 0.062500
v 0.187500 0.625000 -0.187500
v 0.187500 0.625000 -0.187500
v 0.343750 0.750000 -0.187500
v 0.187500 0.625000 -0.187500
v 0.187500 0.625000 0.062500
v 0.343750 0.750000 0.062500
v 0.437500 0.562500 0.062500
v 0.250000 0.500000 0.062500
v 0.250000 0.500000 -0.187500
v 0.437500 0.562500 -0.187500
v 0.437500 0.312500 -0.187500
v 0.437500 0.562500 -0.187500
v 0.437500 0.562500 0.062500
v 0.437500 0.312500 0.062500
v 0.250000 0.375000 0.062500
v 0.250000 0.500000 0.062500
v 0.250000 0.500000 -0.187500
v 0.250000 0.375000 -0.187500
v -0.250000 0.375000 -0.187500
v -0.250000 0.500000 -0.187500
v -0.250000 0.500000 0.062500
v -0.250000 0.375000 0.062500
v -0.437500 0.312500 0.062500
v -0.437500 0.562500 0.062500
v -0.437500 0.562500 -0.187500
v -0.437500 0.312500 -0.187500
v -0.125000 0.875000 -0.187500
v -0.312500 0.781250 -0.187500
v -0.312500 0.781250 0.062500
v -0.125000 0.875000 0.062500
v -0.062500 0.687500 0.062500
v -0.187500 0.625000 0.062500
v -0.187500 0.625000 -0.187500
v -0.062500 0.687500 -0.187500
v -0.312500 0.781250 -0.187500
v -0.343750 0.750000 -0.187500
v -0.343750 0.750000 0.062500
v -0.312500 0.781250 0.062500
v -0.187500 0.625000 0.062500
v -0.187500 0.625000 0.062500
v -0.187500 0.625000 -0.187500
v -0.187500 0.625000 -0.187500
v -0.187500 0.625000 -0.187500
v -0.343750 0.750000 -0.187500
v -0.343750 0.750000 0.062500
v -0.187500 0.625000 0.062500
v -0.250000 0.500000 0.062500
v -0.437500 0.562500 0.062500
v -0.437500 0.562500 -0.187500
v -0.250000 0.500000 -0.187500
v -0.250000 0.375000 -0.187500
v -0.437500 0.312500 -0.187500
v -0.437500 0.312500 0.062500
v -0.250000 0.375000 0.062500
v -0.187500 0.250000 0.062500
v -0.343750 0.125000 0.062500
v -0.343750 0.125000 -0.187500
v -0.187500 0.250000 -0.187500
v -0.187500 0.250000 -0.187500
v -0.187500 0.250000 -0.187500
v -0.187500 0.250000 0.062500
v -0.187500 0.250000 0.062500
v -0.312500 0.093750 0.062500
v -0.343750 0.125000 0.062500
v -0.343750 0.125000 -0.187500
v -0.312500 0.093750 -0.187500
v -0.062500 0.187500 -0.187500
v -0.187500 0.250000 -0.187500
v -0.187500 0.250000 0.062500
v -0.062500 0.187500 0.062500
v -0.125000 0.000000 0.062500
v -0.312500 0.093750 0.062500
v -0.312500 0.093750 -0.187500
v -0.125000 -0.000000 -0.187500
v 0.187500 0.250000 -0.187500
v 0.062500 0.187500 -0.187500
v 0.062500 0.187500 0.062500
v 0.187500 0.250000 0.062500
v 0.312500 0.093750 0.062500
v 0.125000 0.000000 0.062500
v 0.125000 -0.000000 -0.187500
v 0.312500 0.093750 -0.187500
v 0.187500 0.250000 -0.187500
v 0.187500 0.250000 -0.187500
v 0.187500 0.250000 0.062500
v 0.187500 0.250000 0.062500
v 0.343750 0.125000 0.062500
v 0.312500 0.093750 0.062500
v 0.312500 0.093750 -0.187500
v 0.343750 0.125000 -0.187500
v 0.437500 0.312500 -0.187500
v 0.250000 0.375000 -0.187500
v 0.250000 0.375000 0.062500
v 0.437500 0.312500 0.062500
v 0.343750 0.125000 0.062500
v 0.187500 0.250000 0.062500
v 0.187500 0.250000 -0.187500
v 0.343750 0.125000 -0.187500
vt 1.078125 0.546875
vt 1.140625 0.546875
vt 1.140625 0.609375
vt 1.078125 0.609375
vt 1.140625 0.546875
vt 1.203125 0.546875
vt 1.203125 0.609375
vt 1.140625 0.609375
vt 1.078125 0.500000
vt 1.140625 0.500000
vt 1.265625 0.546875
vt 1.203125 0.546875
vt 1.203125 0.500000
vt 1.265625 0.500000
vt 1.015625 0.546875
vt 1.015625 0.500000
vt 1.703125 0.546875
vt 1.765625 0.546875
vt 1.765625 0.609375
vt 1.703125 0.609375
vt 1.765625 0.546875
vt 1.828125 0.546875
vt 1.828125 0.609375
vt 1.765625 0.609375
vt 1.703125 0.500000
vt 1.765625 0.500000
vt 1.890625 0.546875
vt 1.828125 0.546875
vt 1.828125 0.500000
vt 1.890625 0.500000
vt 1.640625 0.546875
vt 1.640625 0.500000
vt 1.828125 0.671875
vt 1.875000 0.671875
vt 1.875000 0.734375
vt 1.828125 0.734375
vt 1.875000 0.671875
vt 1.921875 0.671875
vt 1.921875 0.734375
vt 1.875000 0.734375
vt 1.828125 0.625000
vt 1.875000 0.625000
vt 1.984375 0.671875
vt 1.937500 0.671875
vt 1.937500 0.625000
vt 1.984375 0.625000
vt 1.765625 0.671875
vt 1.765625 0.625000
vt 1.703125 0.796875
vt 1.718750 0.796875
vt 1.718750 0.859375
vt 1.703125 0.859375
vt 1.718750 0.796875
vt 1.734375 0.796875
vt 1.734375 0.859375
vt 1.718750 0.859375
vt 1.703125 0.750000
vt 1.718750 0.750000
vt 1.796875 0.796875
vt 1.781250 0.796875
vt 1.781250 0.750000
vt 1.796875 0.750000
vt 1.640625 0.796875
vt 1.640625 0.750000
vt 1.078125 0.421875
vt 1.125000 0.421875
vt 1.125000 0.484375
vt 1.078125 0.484375
vt 1.125000 0.421875
vt 1.171875 0.421875
vt 1.171875 0.484375
vt 1.125000 0.484375
vt 1.078125 0.375000
vt 1.125000 0.375000
vt 1.234375 0.421875
vt 1.187500 0.421875
vt 1.187500 0.375000
vt 1.234375 0.375000
vt 1.015625 0.421875
vt 1.015625 0.375000
vt 1.328125 0.421875
vt 1.390625 0.421875
vt 1.390625 0.484375
vt 1.328125 0.484375
vt 1.390625 0.421875
vt 1.453125 0.421875
vt 1.453125 0.484375
vt 1.390625 0.484375
vt 1.328125 0.375000
vt 1.390625 0.375000
vt 1.515625 0.421875
vt 1.453125 0.421875
vt 1.453125 0.375000
vt 1.515625 0.375000
vt 1.265625 0.421875
vt 1.265625 0.375000
vt 1.703125 0.421875
vt 1.765625 0.421875
vt 1.765625 0.484375
vt 1.703125 0.484375
vt 1.765625 0.421875
vt 1.828125 0.421875
vt 1.828125 0.484375
vt 1.765625 0.484375
vt 1.703125 0.375000
vt 1.765625 0.375000
vt 1.890625 0.421875
vt 1.828125 0.421875
vt 1.828125 0.375000
vt 1.890625 0.375000
vt 1.640625 0.421875
vt 1.640625 0.375000
vt 1.078125 0.296875
vt 1.125000 0.296875
vt 1.125000 0.359375
vt 1.078125 0.359375
vt 1.125000 0.296875
vt 1.171875 0.296875
vt 1.171875 0.359375
vt 1.125000 0.359375
vt 1.078125 0.250000
vt 1.125000 0.250000
vt 1.234375 0.296875
vt 1.187500 0.296875
vt 1.187500 0.250000
vt 1.234375 0.250000
vt 1.015625 0.296875
vt 1.015625 0.250000
vt 1.203125 0.671875
vt 1.218750 0.671875
vt 1.218750 0.734375
vt 1.203125 0.734375
vt 1.218750 0.671875
vt 1.234375 0.671875
vt 1.234375 0.734375
vt 1.218750 0.734375
vt 1.203125 0.625000
vt 1.218750 0.625000
vt 1.296875 0.671875
vt 1.281250 0.671875
vt 1.281250 0.625000
vt 1.296875 0.625000
vt 1.140625 0.671875
vt 1.140625 0.625000
vt 1.328125 0.296875
vt 1.375000 0.296875
vt 1.375000 0.359375
vt 1.328125 0.359375
vt 1.375000 0.296875
vt 1.421875 0.296875
vt 1.421875 0.359375
vt 1.375000 0.359375
vt 1.328125 0.250000
vt 1.375000 0.250000
vt 1.484375 0.296875
vt 1.437500 0.296875
vt 1.437500 0.250000
vt 1.484375 0.250000
vt 1.265625 0.296875
vt 1.265625 0.250000
vt 1.578125 0.296875
vt 1.625000 0.296875
vt 1.625000 0.359375
vt 1.578125 0.359375
vt 1.625000 0.296875
vt 1.671875 0.296875
vt 1.671875 0.359375
vt 1.625000 0.359375
vt 1.578125 0.250000
vt 1.625000 0.250000
vt 1.734375 0.296875
vt 1.687500 0.296875
vt 1.687500 0.250000
vt 1.734375 0.250000
vt 1.515625 0.296875
vt 1.515625 0.250000
vt 1.453125 0.546875
vt 1.468750 0.546875
vt 1.468750 0.609375
vt 1.453125 0.609375
vt 1.468750 0.546875
vt 1.484375 0.546875
vt 1.484375 0.609375
vt 1.468750 0.609375
vt 1.453125 0.500000
vt 1.468750 0.500000
vt 1.546875 0.546875
vt 1.531250 0.546875
vt 1.531250 0.500000
vt 1.546875 0.500000
vt 1.390625 0.546875
vt 1.390625 0.500000
vt 1.828125 0.296875
vt 1.875000 0.296875
vt 1.875000 0.359375
vt 1.828125 0.359375
vt 1.875000 0.296875
vt 1.921875 0.296875
vt 1.921875 0.359375
vt 1.875000 0.359375
vt 1.828125 0.250000
vt 1.875000 0.250000
vt 1.984375 0.296875
vt 1.937500 0.296875
vt 1.937500 0.250000
vt 1.984375 0.250000
vt 1.765625 0.296875
vt 1.765625 0.250000
vt 1.078125 0.171875
vt 1.125000 0.171875
vt 1.125000 0.234375
vt 1.078125 0.234375
vt 1.125000 0.171875
vt 1.171875 0.171875
vt 1.171875 0.234375
vt 1.125000 0.234375
vt 1.078125 0.125000
vt 1.125000 0.125000
vt 1.234375 0.171875
vt 1.187500 0.171875
vt 1.187500 0.125000
vt 1.234375 0.125000
vt 1.015625 0.171875
vt 1.015625 0.125000
vt 1.328125 0.171875
vt 1.343750 0.171875
vt 1.343750 0.234375
vt 1.328125 0.234375
vt 1.343750 0.171875
vt 1.359375 0.171875
vt 1.359375 0.234375
vt 1.343750 0.234375
vt 1.328125 0.125000
vt 1.343750 0.125000
vt 1.421875 0.171875
vt 1.406250 0.171875
vt 1.406250 0.125000
vt 1.421875 0.125000
vt 1.265625 0.171875
vt 1.265625 0.125000
vt 1.578125 0.171875
vt 1.625000 0.171875
vt 1.625000 0.234375
vt 1.578125 0.234375
vt 1.625000 0.171875
vt 1.671875 0.171875
vt 1.671875 0.234375
vt 1.625000 0.234375
vt 1.578125 0.125000
vt 1.625000 0.125000
vt 1.734375 0.171875
vt 1.687500 0.171875
vt 1.687500 0.125000
vt 1.734375 0.125000
vt 1.515625 0.171875
vt 1.515625 0.125000
vn -0.0000 1.0000 0.0000
vn 0.0000 -1.0000 0.0000
vn -0.0000 -0.0000 -1.0000
vn 0.0000 0.0000 1.0000
vn -0.9487 -0.3162 0.0000
vn 0.9487 -0.3162 -0.0000
vn -0.9487 0.3162 0.0000
vn 0.9487 0.3162 -0.0000
vn 0.4472 0.8944 -0.0000
vn -0.4472 -0.8944 0.0000
vn 0.7809 -0.6247 0.0000
vn 0.7071 0.7071 -0.0000
vn 0.0000 0.0000 0.0000
vn 0.9099 0.3959 0.1237
vn 0.9228 0.3783 -0.0729
vn -0.7809 0.6247 -0.0000
vn 0.6247 -0.7809 0.0000
vn -0.6247 0.7809 -0.0000
vn 0.3162 -0.9487 0.0000
vn -0.8944 -0.4472 0.0000
vn 0.8944 0.4472 -0.0000
vn 1.0000 0.0000 -0.0000
vn -1.0000 0.0000 0.0000
vn -0.3162 0.9487 -0.0000
vn -0.3162 -0.9487 0.0000
vn 0.3162 0.9487 -0.0000
vn -0.4472 0.8944 -0.0000
vn 0.4472 -0.8944 0.0000
vn -0.7809 -0.6247 0.0000
vn -0.7071 0.7071 0.0000
vn 0.4628 0.8129 0.3535
vn -0.9423 -0.3011 0.1464
vn -0.6247 -0.7809 0.0000
vn 0.7809 0.6247 -0.0000
vn 0.6247 0.7809 -0.0000
vn -0.8944 0.4472 -0.0000
vn 0.8944 -0.4472 0.0000
vn 0.2338 0.9388 0.2530
vn 0.9590 -0.0909 0.2685
vn -0.7071 -0.7071 0.0000
vn 0.6594 0.7427 0.1161
vn 0.9667 0.2167 0.1361
vn 0.7071 -0.7071 0.0000
usemtl ModelMaterial
s 1
f 1/1/1 2/2/1 3/3/1 4/4/1
f 5/5/2 6/6/2 7/7/2 8/8/2
f 2/2/3 1/1/3 8/9/3 7/10/3
f 4/11/4 3/12/4 6/13/4 5/14/4
f 3/12/5 2/2/5 7/10/5 6/13/5
f 1/1/6 4/15/6 5/16/6 8/9/6
f 9/17/1 10/18/1 11/19/1 12/20/1
f 13/21/2 14/22/2 15/23/2 16/24/2
f 10/18/3 9/17/3 16/25/3 15/26/3
f 12/27/4 11/28/4 14/29/4 13/30/4
f 11/28/7 10/18/7 15/26/7 14/29/7
f 9/17/8 12/31/8 13/32/8 16/25/8
f 17/33/9 18/34/9 19/35/9 20/36/9
f 21/37/10 22/38/10 23/39/10 24/40/10
f 18/34/3 17/33/3 24/41/3 23/42/3
f 20/43/4 19/44/4 22/45/4 21/46/4
f 19/44/7 18/34/7 23/42/7 22/45/7
f 17/33/11 20/47/11 21/48/11 24/41/11
f 25/49/12 26/50/12 27/51/12 28/52/12
f 29/53/13 30/54/13 31/55/14 32/56/15
f 26/50/3 25/49/3 32/57/15 31/58/14
f 28/59/4 27/60/4 30/61/4 29/62/4
f 27/60/16 26/50/16 31/58/16 30/61/16
f 25/49/17 28/63/17 29/64/17 32/57/17
f 33/65/18 34/66/18 35/67/18 36/68/18
f 37/69/19 38/70/19 39/71/19 40/72/19
f 34/66/3 33/65/3 40/73/3 39/74/3
f 36/75/4 35/76/4 38/77/4 37/78/4
f 35/76/20 34/66/20 39/74/20 38/77/20
f 33/65/21 36/79/21 37/80/21 40/73/21
f 41/81/22 42/82/22 43/83/22 44/84/22
f 45/85/23 46/86/23 47/87/23 48/88/23
f 42/82/3 41/81/3 48/89/3 47/90/3
f 44/91/4 43/92/4 46/93/4 45/94/4
f 43/92/24 42/82/24 47/90/24 46/93/24
f 41/81/25 44/95/25 45/96/25 48/89/25
f 49/97/22 50/98/22 51/99/22 52/100/22
f 53/101/23 54/102/23 55/103/23 56/104/23
f 50/98/3 49/97/3 56/105/3 55/106/3
f 52/107/4 51/108/4 54/109/4 53/110/4
f 51/108/26 50/98/26 55/106/26 54/109/26
f 49/97/19 52/111/19 53/112/19 56/105/19
f 57/113/27 58/114/27 59/115/27 60/116/27
f 61/117/28 62/118/28 63/119/28 64/120/28
f 58/114/3 57/113/3 64/121/3 63/122/3
f 60/123/4 59/124/4 62/125/4 61/126/4
f 59/124/29 58/114/29 63/122/29 62/125/29
f 57/113/8 60/127/8 61/128/8 64/121/8
f 65/129/30 66/130/30 67/131/30 68/132/30
f 69/133/13 70/134/13 71/135/31 72/136/32
f 66/130/3 65/129/3 72/137/32 71/138/31
f 68/139/4 67/140/4 70/141/4 69/142/4
f 67/140/33 66/130/33 71/138/33 70/141/33
f 65/129/34 68/143/34 69/144/34 72/137/34
f 73/145/35 74/146/35 75/147/35 76/148/35
f 77/149/25 78/150/25 79/151/25 80/152/25
f 74/146/3 73/145/3 80/153/3 79/154/3
f 76/155/4 75/156/4 78/157/4 77/158/4
f 75/156/36 74/146/36 79/154/36 78/157/36
f 73/145/37 76/159/37 77/160/37 80/153/37
f 81/161/24 82/162/24 83/163/24 84/164/24
f 85/165/17 86/166/17 87/167/17 88/168/17
f 82/162/3 81/161/3 88/169/3 87/170/3
f 84/171/4 83/172/4 86/173/4 85/174/4
f 83/172/20 82/162/20 87/170/20 86/173/20
f 81/161/21 84/175/21 85/176/21 88/169/21
f 89/177/38 90/178/39 91/179/13 92/180/13
f 93/181/40 94/182/40 95/183/40 96/184/40
f 90/178/39 89/177/38 96/185/3 95/186/3
f 92/187/4 91/188/4 94/189/4 93/190/4
f 91/188/18 90/178/18 95/186/18 94/189/18
f 89/177/11 92/191/11 93/192/11 96/185/11
f 97/193/9 98/194/9 99/195/9 100/196/9
f 101/197/10 102/198/10 103/199/10 104/200/10
f 98/194/3 97/193/3 104/201/3 103/202/3
f 100/203/4 99/204/4 102/205/4 101/206/4
f 99/204/16 98/194/16 103/202/16 102/205/16
f 97/193/6 100/207/6 101/208/6 104/201/6
f 105/209/27 106/210/27 107/211/27 108/212/27
f 109/213/28 110/214/28 111/215/28 112/216/28
f 106/210/3 105/209/3 112/217/3 111/218/3
f 108/219/4 107/220/4 110/221/4 109/222/4
f 107/220/5 106/210/5 111/218/5 110/221/5
f 105/209/34 108/223/34 109/224/34 112/217/34
f 113/225/41 114/226/42 115/227/13 116/228/13
f 117/229/43 118/230/43 119/231/43 120/232/43
f 114/226/42 113/225/41 120/233/3 119/234/3
f 116/235/4 115/236/4 118/237/4 117/238/4
f 115/236/29 114/226/29 119/234/29 118/237/29
f 113/225/35 116/239/35 117/240/35 120/233/35
f 121/241/26 122/242/26 123/243/26 124/244/26
f 125/245/33 126/246/33 127/247/33 128/248/33
f 122/242/3 121/241/3 128/249/3 127/250/3
f 124/251/4 123/252/4 126/253/4 125/254/4
f 123/252/36 122/242/36 127/250/36 126/253/36
f 121/241/37 124/255/37 125/256/37 128/249/37
