# Blender v2.79 (sub 0) OBJ File: ''
# www.blender.org
mtllib tire_4d16.mtl
o tire_4d16
v 0.125000 1.000000 -0.187500
v -0.125000 1.000000 -0.187500
v -0.125000 1.000000 0.062500
v 0.125000 1.000000 0.062500
v 0.062500 0.750000 0.062500
v -0.062500 0.750000 0.062500
v -0.062500 0.750000 -0.187500
v 0.062500 0.750000 -0.187500
v -0.125000 1.000000 -0.187500
v -0.312500 0.937500 -0.187500
v -0.312500 0.937500 0.062500
v -0.125000 1.000000 0.062500
v -0.062500 0.750000 0.062500
v -0.187500 0.687500 0.062500
v -0.187500 0.687500 -0.187500
v -0.062500 0.750000 -0.187500
v -0.312500 0.937500 -0.187500
v -0.437500 0.812500 -0.187500
v -0.437500 0.812500 0.062500
v -0.312500 0.937500 0.062500
v -0.187500 0.687500 0.062500
v -0.187500 0.687500 0.062500
v -0.187500 0.687500 -0.187500
v -0.187500 0.687500 -0.187500
v -0.187500 0.687500 -0.187500
v -0.437500 0.812500 -0.187500
v -0.437500 0.812500 0.062500
v -0.187500 0.687500 0.062500
v -0.250000 0.562500 0.062500
v -0.500000 0.625000 0.062500
v -0.500000 0.625000 -0.187500
v -0.250000 0.562500 -0.187500
v -0.500000 0.625000 -0.187500
v -0.500000 0.375000 -0.187500
v -0.500000 0.375000 0.062500
v -0.500000 0.625000 0.062500
v -0.250000 0.562500 0.062500
v -0.250000 0.437500 0.062500
v -0.250000 0.437500 -0.187500
v -0.250000 0.562500 -0.187500
v 0.250000 0.562500 -0.187500
v 0.250000 0.437500 -0.187500
v 0.250000 0.437500 0.062500
v 0.250000 0.562500 0.062500
v 0.500000 0.625000 0.062500
v 0.500000 0.375000 0.062500
v 0.500000 0.375000 -0.187500
v 0.500000 0.625000 -0.187500
v 0.437500 0.812500 -0.187500
v 0.187500 0.687500 -0.187500
v 0.187500 0.687500 0.062500
v 0.437500 0.812500 0.062500
v 0.500000 0.625000 0.062500
v 0.250000 0.562500 0.062500
v 0.250000 0.562500 -0.187500
v 0.500000 0.625000 -0.187500
v 0.437500 0.812500 -0.187500
v 0.312500 0.937500 -0.187500
v 0.312500 0.937500 0.062500
v 0.437500 0.812500 0.062500
v 0.187500 0.687500 0.062500
v 0.187500 0.687500 0.062500
v 0.187500 0.687500 -0.187500
v 0.187500 0.687500 -0.187500
v 0.312500 0.937500 -0.187500
v 0.125000 1.000000 -0.187500
v 0.125000 1.000000 0.062500
v 0.312500 0.937500 0.062500
v 0.187500 0.687500 0.062500
v 0.062500 0.750000 0.062500
v 0.062500 0.750000 -0.187500
v 0.187500 0.687500 -0.187500
v 0.500000 0.375000 -0.187500
v 0.250000 0.437500 -0.187500
v 0.250000 0.437500 0.062500
v 0.500000 0.375000 0.062500
v 0.437500 0.187500 0.062500
v 0.187500 0.312500 0.062500
v 0.187500 0.312500 -0.187500
v 0.437500 0.187500 -0.187500
v -0.250000 0.437500 -0.187500
v -0.500000 0.375000 -0.187500
v -0.500000 0.375000 0.062500
v -0.250000 0.437500 0.062500
v -0.187500 0.312500 0.062500
v -0.437500 0.187500 0.062500
v -0.437500 0.187500 -0.187500
v -0.187500 0.312500 -0.187500
v -0.187500 0.312500 -0.187500
v -0.187500 0.312500 -0.187500
v -0.187500 0.312500 0.062500
v -0.187500 0.312500 0.062500
v -0.312500 0.062500 0.062500
v -0.437500 0.187500 0.062500
v -0.437500 0.187500 -0.187500
v -0.312500 0.062500 -0.187500
v -0.062500 0.250000 -0.187500
v -0.187500 0.312500 -0.187500
v -0.187500 0.312500 0.062500
v -0.062500 0.250000 0.062500
v -0.125000 0.000000 0.062500
v -0.312500 0.062500 0.062500
v -0.312500 0.062500 -0.187500
v -0.125000 -0.000000 -0.187500
v 0.062500 0.250000 -0.187500
v -0.062500 0.250000 -0.187500
v -0.062500 0.250000 0.062500
v 0.062500 0.250000 0.062500
v 0.125000 0.000000 0.062500
v -0.125000 0.000000 0.062500
v -0.125000 -0.000000 -0.187500
v 0.125000 -0.000000 -0.187500
v 0.187500 0.312500 -0.187500
v 0.062500 0.250000 -0.187500
v 0.062500 0.250000 0.062500
v 0.187500 0.312500 0.062500
v 0.312500 0.062500 0.062500
v 0.125000 0.000000 0.062500
v 0.125000 -0.000000 -0.187500
v 0.312500 0.062500 -0.187500
v 0.187500 0.312500 -0.187500
v 0.187500 0.312500 -0.187500
v 0.187500 0.312500 0.062500
v 0.187500 0.312500 0.062500
v 0.437500 0.187500 0.062500
v 0.312500 0.062500 0.062500
v 0.312500 0.062500 -0.187500
v 0.437500 0.187500 -0.187500
vt 1.039062 0.796875
vt 1.070312 0.796875
vt 1.070312 0.859375
vt 1.039062 0.859375
vt 1.070312 0.796875
vt 1.101562 0.796875
vt 1.101562 0.859375
vt 1.070312 0.859375
vt 1.039062 0.734375
vt 1.070312 0.734375
vt 1.132812 0.796875
vt 1.101562 0.796875
vt 1.101562 0.734375
vt 1.132812 0.734375
vt 1.007812 0.796875
vt 1.007812 0.734375
vt 1.914062 0.921875
vt 1.937500 0.921875
vt 1.937500 0.984375
vt 1.914062 0.984375
vt 1.937500 0.921875
vt 1.960938 0.921875
vt 1.960938 0.984375
vt 1.937500 0.984375
vt 1.914062 0.859375
vt 1.937500 0.859375
vt 1.992188 0.921875
vt 1.968750 0.921875
vt 1.968750 0.859375
vt 1.992188 0.859375
vt 1.882812 0.921875
vt 1.882812 0.859375
vt 1.164062 0.671875
vt 1.179688 0.671875
vt 1.179688 0.734375
vt 1.164062 0.734375
vt 1.179688 0.671875
vt 1.195312 0.671875
vt 1.195312 0.734375
vt 1.179688 0.734375
vt 1.164062 0.609375
vt 1.179688 0.609375
vt 1.226562 0.671875
vt 1.210938 0.671875
vt 1.210938 0.609375
vt 1.226562 0.609375
vt 1.132812 0.671875
vt 1.132812 0.609375
vt 1.289062 0.671875
vt 1.320312 0.671875
vt 1.320312 0.734375
vt 1.289062 0.734375
vt 1.320312 0.671875
vt 1.351562 0.671875
vt 1.351562 0.734375
vt 1.320312 0.734375
vt 1.289062 0.625000
vt 1.320312 0.625000
vt 1.382812 0.671875
vt 1.351562 0.671875
vt 1.351562 0.625000
vt 1.382812 0.625000
vt 1.257812 0.671875
vt 1.257812 0.625000
vt 1.476562 0.671875
vt 1.507812 0.671875
vt 1.507812 0.734375
vt 1.476562 0.734375
vt 1.507812 0.671875
vt 1.539062 0.671875
vt 1.539062 0.734375
vt 1.507812 0.734375
vt 1.476562 0.609375
vt 1.507812 0.609375
vt 1.570312 0.671875
vt 1.539062 0.671875
vt 1.539062 0.609375
vt 1.570312 0.609375
vt 1.445312 0.671875
vt 1.445312 0.609375
vt 1.664062 0.671875
vt 1.695312 0.671875
vt 1.695312 0.734375
vt 1.664062 0.734375
vt 1.695312 0.671875
vt 1.726562 0.671875
vt 1.726562 0.734375
vt 1.695312 0.734375
vt 1.664062 0.609375
vt 1.695312 0.609375
vt 1.757812 0.671875
vt 1.726562 0.671875
vt 1.726562 0.609375
vt 1.757812 0.609375
vt 1.632812 0.671875
vt 1.632812 0.609375
vt 1.851562 0.671875
vt 1.882812 0.671875
vt 1.882812 0.734375
vt 1.851562 0.734375
vt 1.882812 0.671875
vt 1.914062 0.671875
vt 1.914062 0.734375
vt 1.882812 0.734375
vt 1.851562 0.625000
vt 1.882812 0.625000
vt 1.945312 0.671875
vt 1.914062 0.671875
vt 1.914062 0.625000
vt 1.945312 0.625000
vt 1.820312 0.671875
vt 1.820312 0.625000
vt 1.039062 0.546875
vt 1.054688 0.546875
vt 1.054688 0.609375
vt 1.039062 0.609375
vt 1.054688 0.546875
vt 1.070312 0.546875
vt 1.070312 0.609375
vt 1.054688 0.609375
vt 1.039062 0.484375
vt 1.054688 0.484375
vt 1.101562 0.546875
vt 1.085938 0.546875
vt 1.085938 0.484375
vt 1.101562 0.484375
vt 1.007812 0.546875
vt 1.007812 0.484375
vt 1.289062 0.546875
vt 1.312500 0.546875
vt 1.312500 0.609375
vt 1.289062 0.609375
vt 1.312500 0.546875
vt 1.335938 0.546875
vt 1.335938 0.609375
vt 1.312500 0.609375
vt 1.289062 0.484375
vt 1.312500 0.484375
vt 1.367188 0.546875
vt 1.343750 0.546875
vt 1.343750 0.484375
vt 1.367188 0.484375
vt 1.257812 0.546875
vt 1.257812 0.484375
vt 1.789062 0.546875
vt 1.820312 0.546875
vt 1.820312 0.609375
vt 1.789062 0.609375
vt 1.820312 0.546875
vt 1.851562 0.546875
vt 1.851562 0.609375
vt 1.820312 0.609375
vt 1.789062 0.500000
vt 1.820312 0.500000
vt 1.882812 0.546875
vt 1.851562 0.546875
vt 1.851562 0.500000
vt 1.882812 0.500000
vt 1.757812 0.546875
vt 1.757812 0.500000
vt 1.164062 0.421875
vt 1.195312 0.421875
vt 1.195312 0.484375
vt 1.164062 0.484375
vt 1.195312 0.421875
vt 1.226562 0.421875
vt 1.226562 0.484375
vt 1.195312 0.484375
vt 1.164062 0.375000
vt 1.195312 0.375000
vt 1.257812 0.421875
vt 1.226562 0.421875
vt 1.226562 0.375000
vt 1.257812 0.375000
vt 1.132812 0.421875
vt 1.132812 0.375000
vt 1.414062 0.421875
vt 1.429688 0.421875
vt 1.429688 0.484375
vt 1.414062 0.484375
vt 1.429688 0.421875
vt 1.445312 0.421875
vt 1.445312 0.484375
vt 1.429688 0.484375
vt 1.414062 0.359375
vt 1.429688 0.359375
vt 1.476562 0.421875
vt 1.460938 0.421875
vt 1.460938 0.359375
vt 1.476562 0.359375
vt 1.382812 0.421875
vt 1.382812 0.359375
vt 1.539062 0.421875
vt 1.562500 0.421875
vt 1.562500 0.484375
vt 1.539062 0.484375
vt 1.562500 0.421875
vt 1.585938 0.421875
vt 1.585938 0.484375
vt 1.562500 0.484375
vt 1.539062 0.359375
vt 1.562500 0.359375
vt 1.617188 0.421875
vt 1.593750 0.421875
vt 1.593750 0.359375
vt 1.617188 0.359375
vt 1.507812 0.421875
vt 1.507812 0.359375
vt 1.664062 0.421875
vt 1.695312 0.421875
vt 1.695312 0.484375
vt 1.664062 0.484375
vt 1.695312 0.421875
vt 1.726562 0.421875
vt 1.726562 0.484375
vt 1.695312 0.484375
vt 1.664062 0.359375
vt 1.695312 0.359375
vt 1.757812 0.421875
vt 1.726562 0.421875
vt 1.726562 0.359375
vt 1.757812 0.359375
vt 1.632812 0.421875
vt 1.632812 0.359375
vt 1.851562 0.421875
vt 1.875000 0.421875
vt 1.875000 0.484375
vt 1.851562 0.484375
vt 1.875000 0.421875
vt 1.898438 0.421875
vt 1.898438 0.484375
vt 1.875000 0.484375
vt 1.851562 0.359375
vt 1.875000 0.359375
vt 1.929688 0.421875
vt 1.906250 0.421875
vt 1.906250 0.359375
vt 1.929688 0.359375
vt 1.820312 0.421875
vt 1.820312 0.359375
vt 1.039062 0.296875
vt 1.054688 0.296875
vt 1.054688 0.359375
vt 1.039062 0.359375
vt 1.054688 0.296875
vt 1.070312 0.296875
vt 1.070312 0.359375
vt 1.054688 0.359375
vt 1.039062 0.234375
vt 1.054688 0.234375
vt 1.101562 0.296875
vt 1.085938 0.296875
vt 1.085938 0.234375
vt 1.101562 0.234375
vt 1.007812 0.296875
vt 1.007812 0.234375
vn -0.0000 1.0000 0.0000
vn 0.0000 -1.0000 0.0000
vn -0.0000 -0.0000 -1.0000
vn 0.0000 0.0000 1.0000
vn -0.9701 -0.2425 0.0000
vn 0.9701 -0.2425 -0.0000
vn -0.3162 0.9487 0.0000
vn 0.4472 -0.8944 0.0000
vn -0.8944 -0.4472 0.0000
vn 0.9701 0.2425 -0.0000
vn -0.7071 0.7071 0.0000
vn -0.4472 -0.8944 0.0000
vn 0.8944 0.4472 -0.0000
vn 0.4472 0.8944 -0.0000
vn -0.2425 -0.9701 0.0000
vn -0.9487 0.3162 -0.0000
vn 0.8944 -0.4472 -0.0000
vn -1.0000 0.0000 0.0000
vn 1.0000 -0.0000 -0.0000
vn 0.2425 -0.9701 0.0000
vn 0.2425 0.9701 -0.0000
vn -0.2425 0.9701 -0.0000
vn -0.4472 0.8944 0.0000
vn 0.9487 0.3162 -0.0000
vn 0.7071 0.7071 -0.0000
vn -0.8944 0.4472 0.0000
vn 0.3162 0.9487 -0.0000
vn -0.9701 0.2425 0.0000
vn 0.9487 -0.3162 -0.0000
vn -0.9487 -0.3162 0.0000
vn -0.7071 -0.7071 0.0000
vn -0.3162 -0.9487 0.0000
vn 0.3162 -0.9487 0.0000
vn 0.7071 -0.7071 0.0000
usemtl ModelMaterial
s off
f 1/1/1 2/2/1 3/3/1 4/4/1
f 5/5/2 6/6/2 7/7/2 8/8/2
f 2/2/3 1/1/3 8/9/3 7/10/3
f 4/11/4 3/12/4 6/13/4 5/14/4
f 3/12/5 2/2/5 7/10/5 6/13/5
f 1/1/6 4/15/6 5/16/6 8/9/6
f 9/17/7 10/18/7 11/19/7 12/20/7
f 13/21/8 14/22/8 15/23/8 16/24/8
f 10/18/3 9/17/3 16/25/3 15/26/3
f 12/27/4 11/28/4 14/29/4 13/30/4
f 11/28/9 10/18/9 15/26/9 14/29/9
f 9/17/10 12/31/10 13/32/10 16/25/10
f 17/33/11 18/34/11 19/35/11 20/36/11
f 21/37/4 22/38/4 23/39/4 24/40/4
f 18/34/3 17/33/3 24/41/3 23/42/3
f 20/43/4 19/44/4 22/45/4 21/46/4
f 19/44/12 18/34/12 23/42/12 22/45/12
f 17/33/13 20/47/13 21/48/13 24/41/13
f 25/49/14 26/50/14 27/51/14 28/52/14
f 29/53/15 30/54/15 31/55/15 32/56/15
f 26/50/3 25/49/3 32/57/3 31/58/3
f 28/59/4 27/60/4 30/61/4 29/62/4
f 27/60/16 26/50/16 31/58/16 30/61/16
f 25/49/17 28/63/17 29/64/17 32/57/17
f 33/65/18 34/66/18 35/67/18 36/68/18
f 37/69/19 38/70/19 39/71/19 40/72/19
f 34/66/3 33/65/3 40/73/3 39/74/3
f 36/75/4 35/76/4 38/77/4 37/78/4
f 35/76/20 34/66/20 39/74/20 38/77/20
f 33/65/21 36/79/21 37/80/21 40/73/21
f 41/81/18 42/82/18 43/83/18 44/84/18
f 45/85/19 46/86/19 47/87/19 48/88/19
f 42/82/3 41/81/3 48/89/3 47/90/3
f 44/91/4 43/92/4 46/93/4 45/94/4
f 43/92/15 42/82/15 47/90/15 46/93/15
f 41/81/22 44/95/22 45/96/22 48/89/22
f 49/97/23 50/98/23 51/99/23 52/100/23
f 53/101/20 54/102/20 55/103/20 56/104/20
f 50/98/3 49/97/3 56/105/3 55/106/3
f 52/107/4 51/108/4 54/109/4 53/110/4
f 51/108/9 50/98/9 55/106/9 54/109/9
f 49/97/24 52/111/24 53/112/24 56/105/24
f 57/113/25 58/114/25 59/115/25 60/116/25
f 61/117/4 62/118/4 63/119/4 64/120/4
f 58/114/3 57/113/3 64/121/3 63/122/3
f 60/123/4 59/124/4 62/125/4 61/126/4
f 59/124/26 58/114/26 63/122/26 62/125/26
f 57/113/8 60/127/8 61/128/8 64/121/8
f 65/129/27 66/130/27 67/131/27 68/132/27
f 69/133/12 70/134/12 71/135/12 72/136/12
f 66/130/3 65/129/3 72/137/3 71/138/3
f 68/139/4 67/140/4 70/141/4 69/142/4
f 67/140/28 66/130/28 71/138/28 70/141/28
f 65/129/17 68/143/17 69/144/17 72/137/17
f 73/145/21 74/146/21 75/147/21 76/148/21
f 77/149/12 78/150/12 79/151/12 80/152/12
f 74/146/3 73/145/3 80/153/3 79/154/3
f 76/155/4 75/156/4 78/157/4 77/158/4
f 75/156/26 74/146/26 79/154/26 78/157/26
f 73/145/29 76/159/29 77/160/29 80/153/29
f 81/161/22 82/162/22 83/163/22 84/164/22
f 85/165/8 86/166/8 87/167/8 88/168/8
f 82/162/3 81/161/3 88/169/3 87/170/3
f 84/171/4 83/172/4 86/173/4 85/174/4
f 83/172/30 82/162/30 87/170/30 86/173/30
f 81/161/13 84/175/13 85/176/13 88/169/13
f 89/177/4 90/178/4 91/179/4 92/180/4
f 93/181/31 94/182/31 95/183/31 96/184/31
f 90/178/3 89/177/3 96/185/3 95/186/3
f 92/187/4 91/188/4 94/189/4 93/190/4
f 91/188/23 90/178/23 95/186/23 94/189/23
f 89/177/17 92/191/17 93/192/17 96/185/17
f 97/193/14 98/194/14 99/195/14 100/196/14
f 101/197/32 102/198/32 103/199/32 104/200/32
f 98/194/3 97/193/3 104/201/3 103/202/3
f 100/203/4 99/204/4 102/205/4 101/206/4
f 99/204/26 98/194/26 103/202/26 102/205/26
f 97/193/6 100/207/6 101/208/6 104/201/6
f 105/209/1 106/210/1 107/211/1 108/212/1
f 109/213/2 110/214/2 111/215/2 112/216/2
f 106/210/3 105/209/3 112/217/3 111/218/3
f 108/219/4 107/220/4 110/221/4 109/222/4
f 107/220/28 106/210/28 111/218/28 110/221/28
f 105/209/10 108/223/10 109/224/10 112/217/10
f 113/225/23 114/226/23 115/227/23 116/228/23
f 117/229/33 118/230/33 119/231/33 120/232/33
f 114/226/3 113/225/3 120/233/3 119/234/3
f 116/235/4 115/236/4 118/237/4 117/238/4
f 115/236/5 114/226/5 119/234/5 118/237/5
f 113/225/13 116/239/13 117/240/13 120/233/13
f 121/241/4 122/242/4 123/243/4 124/244/4
f 125/245/34 126/246/34 127/247/34 128/248/34
f 122/242/3 121/241/3 128/249/3 127/250/3
f 124/251/4 123/252/4 126/253/4 125/254/4
f 123/252/9 122/242/9 127/250/9 126/253/9
f 121/241/14 124/255/14 125/256/14 128/249/14
