# Blender v2.79 (sub 0) OBJ File: ''
# www.blender.org
mtllib trin_ornament.obj.mtl
o trin_ornament.obj
v -0.021929 0.117188 0.002719
v -0.009605 0.117188 0.012324
v 0.009605 0.117188 -0.012324
v -0.002719 0.117188 -0.021929
v -0.002719 0.062500 -0.021929
v 0.009605 0.062500 -0.012324
v -0.009605 0.062500 0.012324
v -0.021929 0.062500 0.002719
v -0.074756 0.258125 0.070502
v -0.062432 0.258125 0.080107
v -0.014407 0.258125 0.018486
v -0.026732 0.258125 0.008881
v -0.026732 0.242500 0.008881
v -0.014407 0.242500 0.018486
v -0.062432 0.242500 0.080107
v -0.074756 0.242500 0.070502
v 0.040695 0.242188 -0.077635
v 0.053019 0.242188 -0.068030
v 0.062624 0.242188 -0.080354
v 0.050300 0.242188 -0.089959
v 0.050300 0.179688 -0.089959
v 0.062624 0.179688 -0.080354
v 0.053019 0.179688 -0.068030
v 0.040695 0.179688 -0.077635
v -0.036529 0.242188 0.021452
v -0.024204 0.242188 0.031057
v -0.014600 0.242188 0.018733
v -0.026924 0.242188 0.009128
v -0.026924 0.132812 0.009128
v -0.014599 0.132812 0.018733
v -0.024204 0.132812 0.031057
v -0.036529 0.132812 0.021452
v -0.036529 0.133125 0.021452
v -0.024204 0.133125 0.031057
v 0.023820 0.133125 -0.030564
v 0.011496 0.133125 -0.040169
v 0.011496 0.117500 -0.040169
v 0.023820 0.117500 -0.030564
v -0.024204 0.117500 0.031057
v -0.036529 0.117500 0.021452
v -0.026924 0.195625 0.009128
v -0.014599 0.195625 0.018733
v 0.014215 0.195625 -0.018240
v 0.001891 0.195625 -0.027845
v 0.001891 0.180000 -0.027845
v 0.014215 0.180000 -0.018240
v -0.014599 0.180000 0.018733
v -0.026924 0.180000 0.009128
v -0.065343 0.195625 0.058425
v -0.053019 0.195625 0.068030
v -0.024204 0.195625 0.031057
v -0.036529 0.195625 0.021452
v -0.036529 0.180000 0.021452
v -0.024204 0.180000 0.031057
v -0.053019 0.180000 0.068030
v -0.065343 0.180000 0.058425
v 0.011496 0.195625 -0.040169
v 0.023820 0.195625 -0.030564
v 0.052635 0.195625 -0.067537
v 0.040311 0.195625 -0.077142
v 0.040311 0.180000 -0.077142
v 0.052635 0.180000 -0.067537
v 0.023820 0.180000 -0.030564
v 0.011496 0.180000 -0.040169
v 0.001891 0.242188 -0.027845
v 0.014215 0.242188 -0.018240
v 0.023820 0.242188 -0.030564
v 0.011496 0.242188 -0.040169
v 0.011496 0.132812 -0.040169
v 0.023820 0.132812 -0.030564
v 0.014215 0.132812 -0.018240
v 0.001891 0.132812 -0.027845
v 0.002083 0.258125 -0.028091
v 0.014407 0.258125 -0.018486
v 0.062432 0.258125 -0.080107
v 0.050108 0.258125 -0.089712
v 0.050108 0.242500 -0.089712
v 0.062432 0.242500 -0.080107
v 0.014407 0.242500 -0.018486
v 0.002083 0.242500 -0.028091
v -0.074948 0.242187 0.070749
v -0.062624 0.242187 0.080354
v -0.053019 0.242187 0.068030
v -0.065343 0.242187 0.058425
v -0.065343 0.179687 0.058425
v -0.053019 0.179687 0.068030
v -0.062624 0.179687 0.080354
v -0.074948 0.179687 0.070749
v -0.050267 0.062500 0.000444
v -0.000970 0.062500 0.038864
v 0.037450 0.062500 -0.010433
v -0.011847 0.062500 -0.048853
v -0.011847 0.000000 -0.048853
v 0.037450 0.000000 -0.010433
v -0.000970 -0.000000 0.038864
v -0.050267 -0.000000 0.000444
vt 1.062500 0.937500
vt 1.093750 0.937500
vt 1.093750 0.968750
vt 1.062500 0.968750
vt 1.093750 0.937500
vt 1.125000 0.937500
vt 1.125000 0.968750
vt 1.093750 0.968750
vt 1.062500 0.906250
vt 1.093750 0.906250
vt 1.156250 0.937500
vt 1.125000 0.937500
vt 1.125000 0.906250
vt 1.156250 0.906250
vt 1.031250 0.937500
vt 1.031250 0.906250
vt 1.312500 0.937500
vt 1.343750 0.937500
vt 1.343750 0.968750
vt 1.312500 0.968750
vt 1.343750 0.937500
vt 1.375000 0.937500
vt 1.375000 0.968750
vt 1.343750 0.968750
vt 1.312500 0.906250
vt 1.343750 0.906250
vt 1.406250 0.937500
vt 1.375000 0.937500
vt 1.375000 0.906250
vt 1.406250 0.906250
vt 1.281250 0.937500
vt 1.281250 0.906250
vt 1.562500 0.937500
vt 1.593750 0.937500
vt 1.593750 0.968750
vt 1.562500 0.968750
vt 1.593750 0.937500
vt 1.625000 0.937500
vt 1.625000 0.968750
vt 1.593750 0.968750
vt 1.562500 0.906250
vt 1.593750 0.906250
vt 1.656250 0.937500
vt 1.625000 0.937500
vt 1.625000 0.906250
vt 1.656250 0.906250
vt 1.531250 0.937500
vt 1.531250 0.906250
vt 1.812500 0.937500
vt 1.843750 0.937500
vt 1.843750 0.968750
vt 1.812500 0.968750
vt 1.843750 0.937500
vt 1.875000 0.937500
vt 1.875000 0.968750
vt 1.843750 0.968750
vt 1.812500 0.875000
vt 1.843750 0.875000
vt 1.906250 0.937500
vt 1.875000 0.937500
vt 1.875000 0.875000
vt 1.906250 0.875000
vt 1.781250 0.937500
vt 1.781250 0.875000
vt 1.062500 0.687500
vt 1.093750 0.687500
vt 1.093750 0.718750
vt 1.062500 0.718750
vt 1.093750 0.687500
vt 1.125000 0.687500
vt 1.125000 0.718750
vt 1.093750 0.718750
vt 1.062500 0.656250
vt 1.093750 0.656250
vt 1.156250 0.687500
vt 1.125000 0.687500
vt 1.125000 0.656250
vt 1.156250 0.656250
vt 1.031250 0.687500
vt 1.031250 0.656250
vt 1.312500 0.687500
vt 1.343750 0.687500
vt 1.343750 0.718750
vt 1.312500 0.718750
vt 1.343750 0.687500
vt 1.375000 0.687500
vt 1.375000 0.718750
vt 1.343750 0.718750
vt 1.312500 0.656250
vt 1.343750 0.656250
vt 1.406250 0.687500
vt 1.375000 0.687500
vt 1.375000 0.656250
vt 1.406250 0.656250
vt 1.281250 0.687500
vt 1.281250 0.656250
vt 1.562500 0.687500
vt 1.593750 0.687500
vt 1.593750 0.718750
vt 1.562500 0.718750
vt 1.593750 0.687500
vt 1.625000 0.687500
vt 1.625000 0.718750
vt 1.593750 0.718750
vt 1.562500 0.656250
vt 1.593750 0.656250
vt 1.656250 0.687500
vt 1.625000 0.687500
vt 1.625000 0.656250
vt 1.656250 0.656250
vt 1.531250 0.687500
vt 1.531250 0.656250
vt 1.812500 0.687500
vt 1.843750 0.687500
vt 1.843750 0.718750
vt 1.812500 0.718750
vt 1.843750 0.687500
vt 1.875000 0.687500
vt 1.875000 0.718750
vt 1.843750 0.718750
vt 1.812500 0.656250
vt 1.843750 0.656250
vt 1.906250 0.687500
vt 1.875000 0.687500
vt 1.875000 0.656250
vt 1.906250 0.656250
vt 1.781250 0.687500
vt 1.781250 0.656250
vt 1.062500 0.437500
vt 1.093750 0.437500
vt 1.093750 0.468750
vt 1.062500 0.468750
vt 1.093750 0.437500
vt 1.125000 0.437500
vt 1.125000 0.468750
vt 1.093750 0.468750
vt 1.062500 0.375000
vt 1.093750 0.375000
vt 1.156250 0.437500
vt 1.125000 0.437500
vt 1.125000 0.375000
vt 1.156250 0.375000
vt 1.031250 0.437500
vt 1.031250 0.375000
vt 1.312500 0.437500
vt 1.343750 0.437500
vt 1.343750 0.468750
vt 1.312500 0.468750
vt 1.343750 0.437500
vt 1.375000 0.437500
vt 1.375000 0.468750
vt 1.343750 0.468750
vt 1.312500 0.406250
vt 1.343750 0.406250
vt 1.406250 0.437500
vt 1.375000 0.437500
vt 1.375000 0.406250
vt 1.406250 0.406250
vt 1.281250 0.437500
vt 1.281250 0.406250
vt 1.562500 0.437500
vt 1.593750 0.437500
vt 1.593750 0.468750
vt 1.562500 0.468750
vt 1.593750 0.437500
vt 1.625000 0.437500
vt 1.625000 0.468750
vt 1.593750 0.468750
vt 1.562500 0.406250
vt 1.593750 0.406250
vt 1.656250 0.437500
vt 1.625000 0.437500
vt 1.625000 0.406250
vt 1.656250 0.406250
vt 1.531250 0.437500
vt 1.531250 0.406250
vt 1.812500 0.437500
vt 1.843750 0.437500
vt 1.843750 0.468750
vt 1.812500 0.468750
vt 1.843750 0.437500
vt 1.875000 0.437500
vt 1.875000 0.468750
vt 1.843750 0.468750
vt 1.812500 0.406250
vt 1.843750 0.406250
vt 1.906250 0.437500
vt 1.875000 0.437500
vt 1.875000 0.406250
vt 1.906250 0.406250
vt 1.781250 0.437500
vt 1.781250 0.406250
vn 0.0000 1.0000 0.0000
vn 0.0000 -1.0000 -0.0000
vn -0.6147 -0.0000 0.7887
vn 0.6147 0.0000 -0.7887
vn 0.7887 0.0000 0.6147
vn -0.7887 0.0000 -0.6147
usemtl ModelMaterial
s off
f 1/1/1 2/2/1 3/3/1 4/4/1
f 5/5/2 6/6/2 7/7/2 8/8/2
f 2/2/3 1/1/3 8/9/3 7/10/3
f 4/11/4 3/12/4 6/13/4 5/14/4
f 3/12/5 2/2/5 7/10/5 6/13/5
f 1/1/6 4/15/6 5/16/6 8/9/6
f 9/17/1 10/18/1 11/19/1 12/20/1
f 13/21/2 14/22/2 15/23/2 16/24/2
f 10/18/3 9/17/3 16/25/3 15/26/3
f 12/27/4 11/28/4 14/29/4 13/30/4
f 11/28/5 10/18/5 15/26/5 14/29/5
f 9/17/6 12/31/6 13/32/6 16/25/6
f 17/33/1 18/34/1 19/35/1 20/36/1
f 21/37/2 22/38/2 23/39/2 24/40/2
f 18/34/3 17/33/3 24/41/3 23/42/3
f 20/43/4 19/44/4 22/45/4 21/46/4
f 19/44/5 18/34/5 23/42/5 22/45/5
f 17/33/6 20/47/6 21/48/6 24/41/6
f 25/49/1 26/50/1 27/51/1 28/52/1
f 29/53/2 30/54/2 31/55/2 32/56/2
f 26/50/3 25/49/3 32/57/3 31/58/3
f 28/59/4 27/60/4 30/61/4 29/62/4
f 27/60/5 26/50/5 31/58/5 30/61/5
f 25/49/6 28/63/6 29/64/6 32/57/6
f 33/65/1 34/66/1 35/67/1 36/68/1
f 37/69/2 38/70/2 39/71/2 40/72/2
f 34/66/3 33/65/3 40/73/3 39/74/3
f 36/75/4 35/76/4 38/77/4 37/78/4
f 35/76/5 34/66/5 39/74/5 38/77/5
f 33/65/6 36/79/6 37/80/6 40/73/6
f 41/81/1 42/82/1 43/83/1 44/84/1
f 45/85/2 46/86/2 47/87/2 48/88/2
f 42/82/3 41/81/3 48/89/3 47/90/3
f 44/91/4 43/92/4 46/93/4 45/94/4
f 43/92/5 42/82/5 47/90/5 46/93/5
f 41/81/6 44/95/6 45/96/6 48/89/6
f 49/97/1 50/98/1 51/99/1 52/100/1
f 53/101/2 54/102/2 55/103/2 56/104/2
f 50/98/3 49/97/3 56/105/3 55/106/3
f 52/107/4 51/108/4 54/109/4 53/110/4
f 51/108/5 50/98/5 55/106/5 54/109/5
f 49/97/6 52/111/6 53/112/6 56/105/6
f 57/113/1 58/114/1 59/115/1 60/116/1
f 61/117/2 62/118/2 63/119/2 64/120/2
f 58/114/3 57/113/3 64/121/3 63/122/3
f 60/123/4 59/124/4 62/125/4 61/126/4
f 59/124/5 58/114/5 63/122/5 62/125/5
f 57/113/6 60/127/6 61/128/6 64/121/6
f 65/129/1 66/130/1 67/131/1 68/132/1
f 69/133/2 70/134/2 71/135/2 72/136/2
f 66/130/3 65/129/3 72/137/3 71/138/3
f 68/139/4 67/140/4 70/141/4 69/142/4
f 67/140/5 66/130/5 71/138/5 70/141/5
f 65/129/6 68/143/6 69/144/6 72/137/6
f 73/145/1 74/146/1 75/147/1 76/148/1
f 77/149/2 78/150/2 79/151/2 80/152/2
f 74/146/3 73/145/3 80/153/3 79/154/3
f 76/155/4 75/156/4 78/157/4 77/158/4
f 75/156/5 74/146/5 79/154/5 78/157/5
f 73/145/6 76/159/6 77/160/6 80/153/6
f 81/161/1 82/162/1 83/163/1 84/164/1
f 85/165/2 86/166/2 87/167/2 88/168/2
f 82/162/3 81/161/3 88/169/3 87/170/3
f 84/171/4 83/172/4 86/173/4 85/174/4
f 83/172/5 82/162/5 87/170/5 86/173/5
f 81/161/6 84/175/6 85/176/6 88/169/6
f 89/177/1 90/178/1 91/179/1 92/180/1
f 93/181/2 94/182/2 95/183/2 96/184/2
f 90/178/3 89/177/3 96/185/3 95/186/3
f 92/187/4 91/188/4 94/189/4 93/190/4
f 91/188/5 90/178/5 95/186/5 94/189/5
f 89/177/6 92/191/6 93/192/6 96/185/6
