# Blender v2.79 (sub 0) OBJ File: ''
# www.blender.org
mtllib wall_car_wrap_roll.mtl
o wall_car_wrap_roll.obj
v 0.437500 0.937500 0.062500
v 0.500000 0.937500 0.062500
v 0.500000 0.937500 -0.500000
v 0.437500 0.937500 -0.500000
v 0.437500 0.750000 -0.500000
v 0.500000 0.750000 -0.500000
v 0.500000 0.750000 0.062500
v 0.437500 0.750000 0.062500
v -0.437500 0.875000 0.000000
v 0.437500 0.875000 0.000000
v 0.437500 0.875000 -0.062500
v -0.437500 0.875000 -0.062500
v -0.437500 0.812500 -0.062500
v 0.437500 0.812500 -0.062500
v 0.437500 0.812500 0.000000
v -0.437500 0.812500 0.000000
v -0.500000 0.937500 0.062500
v -0.437500 0.937500 0.062500
v -0.437500 0.937500 -0.500000
v -0.500000 0.937500 -0.500000
v -0.500000 0.750000 -0.500000
v -0.437500 0.750000 -0.500000
v -0.437500 0.750000 0.062500
v -0.500000 0.750000 0.062500
v -0.437500 1.000000 0.125000
v 0.437500 1.000000 0.125000
v 0.437500 1.000000 -0.187500
v -0.437500 1.000000 -0.187500
v -0.437500 0.687500 -0.187500
v 0.437500 0.687500 -0.187500
v 0.437500 0.687500 0.125000
v -0.437500 0.687500 0.125000
v -0.437500 0.687500 0.125000
v 0.437500 0.687500 0.125000
v 0.431250 0.690079 0.093700
v -0.431250 0.690079 0.093700
v -0.431250 0.002684 0.105699
v 0.431250 0.002684 0.105699
v 0.437500 0.000105 0.136999
v -0.437500 0.000105 0.136999
vt 1.078125 0.921875
vt 1.085938 0.921875
vt 1.085938 0.992188
vt 1.078125 0.992188
vt 1.085938 0.921875
vt 1.093750 0.921875
vt 1.093750 0.992188
vt 1.085938 0.992188
vt 1.078125 0.898438
vt 1.085938 0.898438
vt 1.164062 0.921875
vt 1.156250 0.921875
vt 1.156250 0.898438
vt 1.164062 0.898438
vt 1.007812 0.921875
vt 1.007812 0.898438
vt 1.140625 0.984375
vt 1.250000 0.984375
vt 1.250000 0.992188
vt 1.140625 0.992188
vt 1.250000 0.984375
vt 1.359375 0.984375
vt 1.359375 0.992188
vt 1.250000 0.992188
vt 1.140625 0.976562
vt 1.250000 0.976562
vt 1.367188 0.984375
vt 1.257812 0.984375
vt 1.257812 0.976562
vt 1.367188 0.976562
vt 1.132812 0.984375
vt 1.132812 0.976562
vt 1.390625 0.921875
vt 1.398438 0.921875
vt 1.398438 0.992188
vt 1.390625 0.992188
vt 1.398438 0.921875
vt 1.406250 0.921875
vt 1.406250 0.992188
vt 1.398438 0.992188
vt 1.390625 0.898438
vt 1.398438 0.898438
vt 1.476562 0.921875
vt 1.468750 0.921875
vt 1.468750 0.898438
vt 1.476562 0.898438
vt 1.320312 0.921875
vt 1.320312 0.898438
vt 1.085938 0.789062
vt 1.304688 0.789062
vt 1.304688 0.867188
vt 1.085938 0.867188
vt 1.304688 0.789062
vt 1.523438 0.789062
vt 1.523438 0.867188
vt 1.304688 0.867188
vt 1.085938 0.710938
vt 1.304688 0.710938
vt 1.601562 0.789062
vt 1.382812 0.789062
vt 1.382812 0.710938
vt 1.601562 0.710938
vt 1.007812 0.789062
vt 1.007812 0.710938
vt 1.015625 0.671875
vt 1.234375 0.671875
vt 1.234375 0.679688
vt 1.015625 0.679688
vt 1.234375 0.671875
vt 1.453125 0.671875
vt 1.453125 0.679688
vt 1.234375 0.679688
vt 1.015625 0.500000
vt 1.234375 0.500000
vt 1.460938 0.671875
vt 1.242188 0.671875
vt 1.242188 0.500000
vt 1.460938 0.500000
vt 1.007812 0.671875
vt 1.007812 0.500000
vn 0.0000 1.0000 0.0000
vn 0.0000 -1.0000 -0.0000
vn 0.0000 -0.0000 1.0000
vn 0.0000 0.0000 -1.0000
vn 1.0000 0.0000 0.0000
vn -1.0000 0.0000 0.0000
vn 0.0000 0.9966 0.0821
vn 0.0000 -0.9966 -0.0821
vn 0.0000 0.0175 0.9998
vn 0.0000 -0.0175 -0.9998
vn 0.9806 -0.0034 -0.1961
vn -0.9806 -0.0034 -0.1961
usemtl ModelMaterial
s off
f 1/1/1 2/2/1 3/3/1 4/4/1
f 5/5/2 6/6/2 7/7/2 8/8/2
f 2/2/3 1/1/3 8/9/3 7/10/3
f 4/11/4 3/12/4 6/13/4 5/14/4
f 3/12/5 2/2/5 7/10/5 6/13/5
f 1/1/6 4/15/6 5/16/6 8/9/6
f 9/17/1 10/18/1 11/19/1 12/20/1
f 13/21/2 14/22/2 15/23/2 16/24/2
f 10/18/3 9/17/3 16/25/3 15/26/3
f 12/27/4 11/28/4 14/29/4 13/30/4
f 11/28/5 10/18/5 15/26/5 14/29/5
f 9/17/6 12/31/6 13/32/6 16/25/6
f 17/33/1 18/34/1 19/35/1 20/36/1
f 21/37/2 22/38/2 23/39/2 24/40/2
f 18/34/3 17/33/3 24/41/3 23/42/3
f 20/43/4 19/44/4 22/45/4 21/46/4
f 19/44/5 18/34/5 23/42/5 22/45/5
f 17/33/6 20/47/6 21/48/6 24/41/6
f 25/49/1 26/50/1 27/51/1 28/52/1
f 29/53/2 30/54/2 31/55/2 32/56/2
f 26/50/3 25/49/3 32/57/3 31/58/3
f 28/59/4 27/60/4 30/61/4 29/62/4
f 27/60/5 26/50/5 31/58/5 30/61/5
f 25/49/6 28/63/6 29/64/6 32/57/6
f 33/65/7 34/66/7 35/67/7 36/68/7
f 37/69/8 38/70/8 39/71/8 40/72/8
f 34/66/9 33/65/9 40/73/9 39/74/9
f 36/75/10 35/76/10 38/77/10 37/78/10
f 35/76/11 34/66/11 39/74/11 38/77/11
f 33/65/12 36/79/12 37/80/12 40/73/12
